M48
; DRILL file {KiCad 9.0.5} date 2025-10-08T22:58:14-0500
; FORMAT={-:-/ absolute / metric / decimal}
; #@! TF.CreationDate,2025-10-08T22:58:14-05:00
; #@! TF.GenerationSoftware,Kicad,Pcbnew,9.0.5
; #@! TF.FileFunction,Plated,1,2,PTH
FMAT,2
METRIC
; #@! TA.AperFunction,Plated,PTH,ViaDrill
T1C0.300
; #@! TA.AperFunction,Plated,PTH,ComponentDrill
T2C0.800
; #@! TA.AperFunction,Plated,PTH,ComponentDrill
T3C0.889
; #@! TA.AperFunction,Plated,PTH,ComponentDrill
T4C0.900
; #@! TA.AperFunction,Plated,PTH,ComponentDrill
T5C1.100
; #@! TA.AperFunction,Plated,PTH,ComponentDrill
T6C1.397
; #@! TA.AperFunction,Plated,PTH,ComponentDrill
T7C1.500
%
G90
G05
T1
X151.77Y-105.59
X153.95Y-105.59
T2
X146.736Y-78.301
X146.736Y-80.841
X146.736Y-83.382
X146.736Y-85.921
X146.736Y-88.462
X146.736Y-91.001
X146.736Y-93.541
X146.736Y-96.081
X146.736Y-98.621
X146.736Y-101.161
X146.736Y-103.701
X146.736Y-106.242
X161.976Y-78.301
X161.976Y-80.841
X161.976Y-83.382
X161.976Y-85.921
X161.976Y-88.462
X161.976Y-91.001
X161.976Y-93.541
X161.976Y-96.081
X161.976Y-98.621
X161.976Y-101.161
X161.976Y-103.701
X161.976Y-106.242
T3
X119.04Y-116.332
X119.04Y-118.872
X119.04Y-121.412
X126.66Y-129.032
X129.2Y-129.032
X131.74Y-129.032
T4
X126.025Y-106.172
X126.025Y-111.252
X132.375Y-106.172
X132.375Y-111.252
T5
X135.685Y-92.756
X136.82Y-94.984
X140.942Y-90.078
X142.077Y-92.305
X166.573Y-92.334
X167.708Y-90.106
X171.83Y-95.013
X172.965Y-92.785
T6
X121.58Y-112.204
X121.58Y-125.539
X136.82Y-112.204
X136.82Y-125.539
T7
X161.593Y-119.743
X164.287Y-113.457
X176.358Y-134.502
X176.398Y-104.939
X179.052Y-128.216
X179.092Y-98.652
X191.079Y-119.657
X193.773Y-113.371
M30
