%TF.GenerationSoftware,KiCad,Pcbnew,9.0.5*%
%TF.CreationDate,2025-10-08T22:57:06-05:00*%
%TF.ProjectId,Game Controller,47616d65-2043-46f6-9e74-726f6c6c6572,rev?*%
%TF.SameCoordinates,Original*%
%TF.FileFunction,Legend,Bot*%
%TF.FilePolarity,Positive*%
%FSLAX46Y46*%
G04 Gerber Fmt 4.6, Leading zero omitted, Abs format (unit mm)*
G04 Created by KiCad (PCBNEW 9.0.5) date 2025-10-08 22:57:06*
%MOMM*%
%LPD*%
G01*
G04 APERTURE LIST*
%ADD10C,0.150000*%
%ADD11C,0.200000*%
%ADD12C,0.127000*%
%ADD13C,0.120000*%
G04 APERTURE END LIST*
D10*
X144077825Y-89783903D02*
X143970541Y-89678235D01*
X143970541Y-89678235D02*
X143862448Y-89466090D01*
X143862448Y-89466090D02*
X143861639Y-89359614D01*
X143861639Y-89359614D02*
X143882450Y-89295566D01*
X143882450Y-89295566D02*
X143945689Y-89209900D01*
X143945689Y-89209900D02*
X144030546Y-89166663D01*
X144030546Y-89166663D02*
X144137023Y-89165855D01*
X144137023Y-89165855D02*
X144201070Y-89186665D01*
X144201070Y-89186665D02*
X144286736Y-89249904D01*
X144286736Y-89249904D02*
X144415640Y-89398001D01*
X144415640Y-89398001D02*
X144501306Y-89461240D01*
X144501306Y-89461240D02*
X144565353Y-89482051D01*
X144565353Y-89482051D02*
X144671830Y-89481242D01*
X144671830Y-89481242D02*
X144756687Y-89438005D01*
X144756687Y-89438005D02*
X144819926Y-89352339D01*
X144819926Y-89352339D02*
X144840737Y-89288292D01*
X144840737Y-89288292D02*
X144839928Y-89181815D01*
X144839928Y-89181815D02*
X144731835Y-88969671D01*
X144731835Y-88969671D02*
X144624551Y-88864003D01*
X143343601Y-88447797D02*
X143603024Y-88956943D01*
X143473313Y-88702370D02*
X144364319Y-88248380D01*
X144364319Y-88248380D02*
X144280270Y-88398093D01*
X144280270Y-88398093D02*
X144238649Y-88526188D01*
X144238649Y-88526188D02*
X144239458Y-88632665D01*
X176463921Y-94161483D02*
X176441494Y-94310389D01*
X176441494Y-94310389D02*
X176333401Y-94522533D01*
X176333401Y-94522533D02*
X176247735Y-94585772D01*
X176247735Y-94585772D02*
X176183687Y-94606582D01*
X176183687Y-94606582D02*
X176077211Y-94605774D01*
X176077211Y-94605774D02*
X175992353Y-94562537D01*
X175992353Y-94562537D02*
X175929114Y-94476871D01*
X175929114Y-94476871D02*
X175908304Y-94412823D01*
X175908304Y-94412823D02*
X175909112Y-94306347D01*
X175909112Y-94306347D02*
X175953158Y-94115013D01*
X175953158Y-94115013D02*
X175953966Y-94008536D01*
X175953966Y-94008536D02*
X175933156Y-93944489D01*
X175933156Y-93944489D02*
X175869917Y-93858823D01*
X175869917Y-93858823D02*
X175785059Y-93815586D01*
X175785059Y-93815586D02*
X175678582Y-93814777D01*
X175678582Y-93814777D02*
X175614535Y-93835588D01*
X175614535Y-93835588D02*
X175528869Y-93898827D01*
X175528869Y-93898827D02*
X175420776Y-94110971D01*
X175420776Y-94110971D02*
X175398349Y-94259877D01*
X175267829Y-94620926D02*
X175203782Y-94641737D01*
X175203782Y-94641737D02*
X175118116Y-94704976D01*
X175118116Y-94704976D02*
X175010023Y-94917120D01*
X175010023Y-94917120D02*
X175009214Y-95023596D01*
X175009214Y-95023596D02*
X175030025Y-95087644D01*
X175030025Y-95087644D02*
X175093264Y-95173310D01*
X175093264Y-95173310D02*
X175178121Y-95216547D01*
X175178121Y-95216547D02*
X175327027Y-95238974D01*
X175327027Y-95238974D02*
X176095596Y-94989251D01*
X176095596Y-94989251D02*
X175814555Y-95540826D01*
X155117904Y-110776319D02*
X155117904Y-111585842D01*
X155117904Y-111585842D02*
X155070285Y-111681080D01*
X155070285Y-111681080D02*
X155022666Y-111728700D01*
X155022666Y-111728700D02*
X154927428Y-111776319D01*
X154927428Y-111776319D02*
X154736952Y-111776319D01*
X154736952Y-111776319D02*
X154641714Y-111728700D01*
X154641714Y-111728700D02*
X154594095Y-111681080D01*
X154594095Y-111681080D02*
X154546476Y-111585842D01*
X154546476Y-111585842D02*
X154546476Y-110776319D01*
X153546476Y-111776319D02*
X154117904Y-111776319D01*
X153832190Y-111776319D02*
X153832190Y-110776319D01*
X153832190Y-110776319D02*
X153927428Y-110919176D01*
X153927428Y-110919176D02*
X154022666Y-111014414D01*
X154022666Y-111014414D02*
X154117904Y-111062033D01*
D11*
%TO.C,S1*%
X137747810Y-96615796D02*
G75*
G02*
X137547810Y-96615796I-100000J0D01*
G01*
X137547810Y-96615796D02*
G75*
G02*
X137747810Y-96615796I100000J0D01*
G01*
D12*
X129028315Y-81344493D02*
X129830221Y-80935901D01*
X129830221Y-80935901D02*
X134819857Y-78393554D01*
X134819857Y-78393554D02*
X135621763Y-77984963D01*
X135621763Y-77984963D02*
X140615659Y-87786035D01*
X134022211Y-91145564D02*
X129028315Y-81344493D01*
X140615659Y-87786035D02*
X134022211Y-91145564D01*
D11*
%TO.C,S2*%
X165839905Y-93963172D02*
G75*
G02*
X165639905Y-93963172I-100000J0D01*
G01*
X165639905Y-93963172D02*
G75*
G02*
X165839905Y-93963172I100000J0D01*
G01*
D12*
X173028237Y-78013607D02*
X173830143Y-78422198D01*
X173830143Y-78422198D02*
X178819779Y-80964545D01*
X178819779Y-80964545D02*
X179621685Y-81373137D01*
X179621685Y-81373137D02*
X174627789Y-91174208D01*
X168034341Y-87814679D02*
X173028237Y-78013607D01*
X174627789Y-91174208D02*
X168034341Y-87814679D01*
D13*
%TO.C,U1*%
X145339000Y-107511500D02*
X145339000Y-74491500D01*
X145339000Y-74491500D02*
X150419000Y-74491500D01*
X148006000Y-107511500D02*
X145339000Y-107511500D01*
X148006000Y-104971500D02*
X148006000Y-107511500D01*
X148006000Y-104971500D02*
X148006000Y-77031500D01*
X148006000Y-77031500D02*
X145336000Y-77031500D01*
X150419000Y-77031500D02*
X150419000Y-74491500D01*
X158293000Y-77031500D02*
X150419000Y-77031500D01*
X158293000Y-77031500D02*
X158293000Y-74491500D01*
X158293000Y-74491500D02*
X163373000Y-74491500D01*
X160706000Y-107511500D02*
X160706000Y-77031500D01*
X160706000Y-107511500D02*
X163376000Y-107511500D01*
X160706000Y-79571500D02*
X163376000Y-79571500D01*
X160706000Y-77031500D02*
X163376000Y-77031500D01*
X163373000Y-107511500D02*
X148006000Y-107511500D01*
X163373000Y-74491500D02*
X163376000Y-107511500D01*
%TD*%
M02*
