%TF.GenerationSoftware,KiCad,Pcbnew,9.0.5*%
%TF.CreationDate,2025-10-08T22:57:07-05:00*%
%TF.ProjectId,Game Controller,47616d65-2043-46f6-9e74-726f6c6c6572,rev?*%
%TF.SameCoordinates,Original*%
%TF.FileFunction,Soldermask,Top*%
%TF.FilePolarity,Negative*%
%FSLAX46Y46*%
G04 Gerber Fmt 4.6, Leading zero omitted, Abs format (unit mm)*
G04 Created by KiCad (PCBNEW 9.0.5) date 2025-10-08 22:57:07*
%MOMM*%
%LPD*%
G01*
G04 APERTURE LIST*
G04 Aperture macros list*
%AMRoundRect*
0 Rectangle with rounded corners*
0 $1 Rounding radius*
0 $2 $3 $4 $5 $6 $7 $8 $9 X,Y pos of 4 corners*
0 Add a 4 corners polygon primitive as box body*
4,1,4,$2,$3,$4,$5,$6,$7,$8,$9,$2,$3,0*
0 Add four circle primitives for the rounded corners*
1,1,$1+$1,$2,$3*
1,1,$1+$1,$4,$5*
1,1,$1+$1,$6,$7*
1,1,$1+$1,$8,$9*
0 Add four rect primitives between the rounded corners*
20,1,$1+$1,$2,$3,$4,$5,0*
20,1,$1+$1,$4,$5,$6,$7,0*
20,1,$1+$1,$6,$7,$8,$9,0*
20,1,$1+$1,$8,$9,$2,$3,0*%
G04 Aperture macros list end*
%ADD10C,1.854000*%
%ADD11RoundRect,0.102000X1.109623X-0.360538X0.360538X1.109623X-1.109623X0.360538X-0.360538X-1.109623X0*%
%ADD12C,1.900000*%
%ADD13RoundRect,0.102000X0.360538X-1.109623X1.109623X0.360538X-0.360538X1.109623X-1.109623X-0.360538X0*%
%ADD14R,1.600000X1.600000*%
%ADD15O,1.600000X1.600000*%
%ADD16C,1.700000*%
%ADD17C,4.000000*%
%ADD18C,2.200000*%
%ADD19C,1.982000*%
%ADD20C,2.490000*%
G04 APERTURE END LIST*
D10*
%TO.C,S1*%
X140941643Y-90077832D03*
X142076619Y-92305348D03*
X135684705Y-92756376D03*
D11*
X136819681Y-94983892D03*
D12*
X131177468Y-82258409D03*
X135097897Y-80260850D03*
%TD*%
D10*
%TO.C,S2*%
X172965295Y-92785020D03*
X171830319Y-95012536D03*
X167708357Y-90106476D03*
D13*
X166573381Y-92333992D03*
D12*
X173552103Y-80289494D03*
X177472532Y-82287053D03*
%TD*%
D14*
%TO.C,U1*%
X161976000Y-78301500D03*
D15*
X161976000Y-80841500D03*
X161976000Y-83381500D03*
X161976000Y-85921500D03*
X161976000Y-88461500D03*
X161976000Y-91001500D03*
X161976000Y-93541500D03*
X161976000Y-96081500D03*
X161976000Y-98621500D03*
X161976000Y-101161500D03*
X161976000Y-103701500D03*
X161976000Y-106241500D03*
X146736000Y-106241500D03*
X146736000Y-103701500D03*
X146736000Y-101161500D03*
X146736000Y-98621500D03*
X146736000Y-96081500D03*
X146736000Y-93541500D03*
X146736000Y-91001500D03*
X146736000Y-88461500D03*
X146736000Y-85921500D03*
X146736000Y-83381500D03*
X146736000Y-80841500D03*
X146736000Y-78301500D03*
%TD*%
D16*
%TO.C,SW2*%
X177296219Y-107632715D03*
D17*
X180888321Y-104040613D03*
D16*
X184480424Y-100448510D03*
D18*
X179092270Y-98652459D03*
X176398193Y-104938638D03*
%TD*%
%TO.C,SW1*%
X161593374Y-119743458D03*
X164287451Y-113457279D03*
D16*
X169675605Y-115253330D03*
D17*
X166083502Y-118845433D03*
D16*
X162491400Y-122437535D03*
%TD*%
D18*
%TO.C,SW3*%
X191079084Y-119656884D03*
X193773161Y-113370705D03*
D16*
X199161315Y-115166756D03*
D17*
X195569212Y-118758859D03*
D16*
X191977110Y-122350961D03*
%TD*%
D18*
%TO.C,SW4*%
X176357872Y-134502025D03*
X179051949Y-128215846D03*
D16*
X184440103Y-130011897D03*
D17*
X180848000Y-133604000D03*
D16*
X177255898Y-137196102D03*
%TD*%
D19*
%TO.C,U2*%
X119040000Y-121412000D03*
X119040000Y-118872000D03*
X119040000Y-116332000D03*
D20*
X136820000Y-112204500D03*
X136820000Y-125539500D03*
X121580000Y-125539500D03*
X121580000Y-112204500D03*
D19*
X131740000Y-129032000D03*
X129200000Y-129032000D03*
X126660000Y-129032000D03*
X132375000Y-111252000D03*
X126025000Y-111252000D03*
X132375000Y-106172000D03*
X126025000Y-106172000D03*
%TD*%
M02*
