%TF.GenerationSoftware,KiCad,Pcbnew,9.0.5*%
%TF.CreationDate,2025-10-08T22:57:16-05:00*%
%TF.ProjectId,Game Controller,47616d65-2043-46f6-9e74-726f6c6c6572,rev?*%
%TF.SameCoordinates,Original*%
%TF.FileFunction,Drillmap*%
%TF.FilePolarity,Positive*%
%FSLAX45Y45*%
G04 Gerber Fmt 4.5, Leading zero omitted, Abs format (unit mm)*
G04 Created by KiCad (PCBNEW 9.0.5) date 2025-10-08 22:57:16*
%MOMM*%
%LPD*%
G01*
G04 APERTURE LIST*
%ADD10C,0.200000*%
%ADD11C,0.100000*%
%ADD12C,0.110000*%
%ADD13C,0.139700*%
%ADD14C,0.150000*%
G04 APERTURE END LIST*
D10*
X21401200Y-15392400D02*
X9468800Y-15392400D01*
X22453600Y-14340000D02*
G75*
G02*
X21401200Y-15392400I-1052400J0D01*
G01*
X9468800Y-15392400D02*
G75*
G02*
X8416400Y-14340000I0J1052400D01*
G01*
X8416400Y-14340000D02*
G75*
G02*
X22453600Y-14340000I7018600J0D01*
G01*
D11*
X15162000Y-10544000D02*
X15192000Y-10574000D01*
X15192000Y-10544000D02*
X15162000Y-10574000D01*
X15380000Y-10544000D02*
X15410000Y-10574000D01*
X15410000Y-10544000D02*
X15380000Y-10574000D01*
X14713600Y-7830150D02*
G75*
G02*
X14633600Y-7830150I-40000J0D01*
G01*
X14633600Y-7830150D02*
G75*
G02*
X14713600Y-7830150I40000J0D01*
G01*
X14713600Y-8084150D02*
G75*
G02*
X14633600Y-8084150I-40000J0D01*
G01*
X14633600Y-8084150D02*
G75*
G02*
X14713600Y-8084150I40000J0D01*
G01*
X14713600Y-8338150D02*
G75*
G02*
X14633600Y-8338150I-40000J0D01*
G01*
X14633600Y-8338150D02*
G75*
G02*
X14713600Y-8338150I40000J0D01*
G01*
X14713600Y-8592150D02*
G75*
G02*
X14633600Y-8592150I-40000J0D01*
G01*
X14633600Y-8592150D02*
G75*
G02*
X14713600Y-8592150I40000J0D01*
G01*
X14713600Y-8846150D02*
G75*
G02*
X14633600Y-8846150I-40000J0D01*
G01*
X14633600Y-8846150D02*
G75*
G02*
X14713600Y-8846150I40000J0D01*
G01*
X14713600Y-9100150D02*
G75*
G02*
X14633600Y-9100150I-40000J0D01*
G01*
X14633600Y-9100150D02*
G75*
G02*
X14713600Y-9100150I40000J0D01*
G01*
X14713600Y-9354150D02*
G75*
G02*
X14633600Y-9354150I-40000J0D01*
G01*
X14633600Y-9354150D02*
G75*
G02*
X14713600Y-9354150I40000J0D01*
G01*
X14713600Y-9608150D02*
G75*
G02*
X14633600Y-9608150I-40000J0D01*
G01*
X14633600Y-9608150D02*
G75*
G02*
X14713600Y-9608150I40000J0D01*
G01*
X14713600Y-9862150D02*
G75*
G02*
X14633600Y-9862150I-40000J0D01*
G01*
X14633600Y-9862150D02*
G75*
G02*
X14713600Y-9862150I40000J0D01*
G01*
X14713600Y-10116150D02*
G75*
G02*
X14633600Y-10116150I-40000J0D01*
G01*
X14633600Y-10116150D02*
G75*
G02*
X14713600Y-10116150I40000J0D01*
G01*
X14713600Y-10370150D02*
G75*
G02*
X14633600Y-10370150I-40000J0D01*
G01*
X14633600Y-10370150D02*
G75*
G02*
X14713600Y-10370150I40000J0D01*
G01*
X14713600Y-10624150D02*
G75*
G02*
X14633600Y-10624150I-40000J0D01*
G01*
X14633600Y-10624150D02*
G75*
G02*
X14713600Y-10624150I40000J0D01*
G01*
X16237600Y-7830150D02*
G75*
G02*
X16157600Y-7830150I-40000J0D01*
G01*
X16157600Y-7830150D02*
G75*
G02*
X16237600Y-7830150I40000J0D01*
G01*
X16237600Y-8084150D02*
G75*
G02*
X16157600Y-8084150I-40000J0D01*
G01*
X16157600Y-8084150D02*
G75*
G02*
X16237600Y-8084150I40000J0D01*
G01*
X16237600Y-8338150D02*
G75*
G02*
X16157600Y-8338150I-40000J0D01*
G01*
X16157600Y-8338150D02*
G75*
G02*
X16237600Y-8338150I40000J0D01*
G01*
X16237600Y-8592150D02*
G75*
G02*
X16157600Y-8592150I-40000J0D01*
G01*
X16157600Y-8592150D02*
G75*
G02*
X16237600Y-8592150I40000J0D01*
G01*
X16237600Y-8846150D02*
G75*
G02*
X16157600Y-8846150I-40000J0D01*
G01*
X16157600Y-8846150D02*
G75*
G02*
X16237600Y-8846150I40000J0D01*
G01*
X16237600Y-9100150D02*
G75*
G02*
X16157600Y-9100150I-40000J0D01*
G01*
X16157600Y-9100150D02*
G75*
G02*
X16237600Y-9100150I40000J0D01*
G01*
X16237600Y-9354150D02*
G75*
G02*
X16157600Y-9354150I-40000J0D01*
G01*
X16157600Y-9354150D02*
G75*
G02*
X16237600Y-9354150I40000J0D01*
G01*
X16237600Y-9608150D02*
G75*
G02*
X16157600Y-9608150I-40000J0D01*
G01*
X16157600Y-9608150D02*
G75*
G02*
X16237600Y-9608150I40000J0D01*
G01*
X16237600Y-9862150D02*
G75*
G02*
X16157600Y-9862150I-40000J0D01*
G01*
X16157600Y-9862150D02*
G75*
G02*
X16237600Y-9862150I40000J0D01*
G01*
X16237600Y-10116150D02*
G75*
G02*
X16157600Y-10116150I-40000J0D01*
G01*
X16157600Y-10116150D02*
G75*
G02*
X16237600Y-10116150I40000J0D01*
G01*
X16237600Y-10370150D02*
G75*
G02*
X16157600Y-10370150I-40000J0D01*
G01*
X16157600Y-10370150D02*
G75*
G02*
X16237600Y-10370150I40000J0D01*
G01*
X16237600Y-10624150D02*
G75*
G02*
X16157600Y-10624150I-40000J0D01*
G01*
X16157600Y-10624150D02*
G75*
G02*
X16237600Y-10624150I40000J0D01*
G01*
X11904000Y-11588750D02*
X11904000Y-11677650D01*
X11859550Y-11633200D02*
X11948450Y-11633200D01*
X11904000Y-11842750D02*
X11904000Y-11931650D01*
X11859550Y-11887200D02*
X11948450Y-11887200D01*
X11904000Y-12096750D02*
X11904000Y-12185650D01*
X11859550Y-12141200D02*
X11948450Y-12141200D01*
X12666000Y-12858750D02*
X12666000Y-12947650D01*
X12621550Y-12903200D02*
X12710450Y-12903200D01*
X12920000Y-12858750D02*
X12920000Y-12947650D01*
X12875550Y-12903200D02*
X12964450Y-12903200D01*
X13174000Y-12858750D02*
X13174000Y-12947650D01*
X13129550Y-12903200D02*
X13218450Y-12903200D01*
X12634320Y-10649020D02*
X12634320Y-10585380D01*
X12570680Y-10585380D01*
X12570680Y-10649020D01*
X12634320Y-10649020D01*
X12634320Y-11157020D02*
X12634320Y-11093380D01*
X12570680Y-11093380D01*
X12570680Y-11157020D01*
X12634320Y-11157020D01*
X13269320Y-10649020D02*
X13269320Y-10585380D01*
X13205680Y-10585380D01*
X13205680Y-10649020D01*
X13269320Y-10649020D01*
X13269320Y-11157020D02*
X13269320Y-11093380D01*
X13205680Y-11093380D01*
X13205680Y-11157020D01*
X13269320Y-11157020D01*
D12*
X13568470Y-9330638D02*
X13623470Y-9275638D01*
X13568470Y-9220638D01*
X13513470Y-9275638D01*
X13568470Y-9330638D01*
X13681968Y-9553389D02*
X13736968Y-9498389D01*
X13681968Y-9443389D01*
X13626968Y-9498389D01*
X13681968Y-9553389D01*
X14094164Y-9062783D02*
X14149164Y-9007783D01*
X14094164Y-8952783D01*
X14039164Y-9007783D01*
X14094164Y-9062783D01*
X14207662Y-9285535D02*
X14262662Y-9230535D01*
X14207662Y-9175535D01*
X14152662Y-9230535D01*
X14207662Y-9285535D01*
X16657338Y-9288399D02*
X16712338Y-9233399D01*
X16657338Y-9178399D01*
X16602338Y-9233399D01*
X16657338Y-9288399D01*
X16770836Y-9065648D02*
X16825836Y-9010648D01*
X16770836Y-8955648D01*
X16715836Y-9010648D01*
X16770836Y-9065648D01*
X17183032Y-9556254D02*
X17238032Y-9501254D01*
X17183032Y-9446254D01*
X17128032Y-9501254D01*
X17183032Y-9556254D01*
X17296530Y-9333502D02*
X17351530Y-9278502D01*
X17296530Y-9223502D01*
X17241530Y-9278502D01*
X17296530Y-9333502D01*
D13*
X12088150Y-11150600D02*
X12227850Y-11290300D01*
X12227850Y-11150600D02*
X12088150Y-11290300D01*
X12227850Y-11220450D02*
G75*
G02*
X12088150Y-11220450I-69850J0D01*
G01*
X12088150Y-11220450D02*
G75*
G02*
X12227850Y-11220450I69850J0D01*
G01*
X12088150Y-12484100D02*
X12227850Y-12623800D01*
X12227850Y-12484100D02*
X12088150Y-12623800D01*
X12227850Y-12553950D02*
G75*
G02*
X12088150Y-12553950I-69850J0D01*
G01*
X12088150Y-12553950D02*
G75*
G02*
X12227850Y-12553950I69850J0D01*
G01*
X13612150Y-11150600D02*
X13751850Y-11290300D01*
X13751850Y-11150600D02*
X13612150Y-11290300D01*
X13751850Y-11220450D02*
G75*
G02*
X13612150Y-11220450I-69850J0D01*
G01*
X13612150Y-11220450D02*
G75*
G02*
X13751850Y-11220450I69850J0D01*
G01*
X13612150Y-12484100D02*
X13751850Y-12623800D01*
X13751850Y-12484100D02*
X13612150Y-12623800D01*
X13751850Y-12553950D02*
G75*
G02*
X13612150Y-12553950I-69850J0D01*
G01*
X13612150Y-12553950D02*
G75*
G02*
X13751850Y-12553950I69850J0D01*
G01*
D14*
X16084337Y-11899346D02*
X16234337Y-12049346D01*
X16234337Y-11899346D02*
X16084337Y-12049346D01*
X16159337Y-11899346D02*
X16159337Y-12049346D01*
X16084337Y-11974346D02*
X16234337Y-11974346D01*
X16353745Y-11270728D02*
X16503745Y-11420728D01*
X16503745Y-11270728D02*
X16353745Y-11420728D01*
X16428745Y-11270728D02*
X16428745Y-11420728D01*
X16353745Y-11345728D02*
X16503745Y-11345728D01*
X17560787Y-13375202D02*
X17710787Y-13525202D01*
X17710787Y-13375202D02*
X17560787Y-13525202D01*
X17635787Y-13375202D02*
X17635787Y-13525202D01*
X17560787Y-13450202D02*
X17710787Y-13450202D01*
X17564819Y-10418864D02*
X17714819Y-10568864D01*
X17714819Y-10418864D02*
X17564819Y-10568864D01*
X17639819Y-10418864D02*
X17639819Y-10568864D01*
X17564819Y-10493864D02*
X17714819Y-10493864D01*
X17830195Y-12746585D02*
X17980195Y-12896585D01*
X17980195Y-12746585D02*
X17830195Y-12896585D01*
X17905195Y-12746585D02*
X17905195Y-12896585D01*
X17830195Y-12821585D02*
X17980195Y-12821585D01*
X17834227Y-9790246D02*
X17984227Y-9940246D01*
X17984227Y-9790246D02*
X17834227Y-9940246D01*
X17909227Y-9790246D02*
X17909227Y-9940246D01*
X17834227Y-9865246D02*
X17984227Y-9865246D01*
X19032908Y-11890688D02*
X19182908Y-12040688D01*
X19182908Y-11890688D02*
X19032908Y-12040688D01*
X19107908Y-11890688D02*
X19107908Y-12040688D01*
X19032908Y-11965688D02*
X19182908Y-11965688D01*
X19302316Y-11262070D02*
X19452316Y-11412070D01*
X19452316Y-11262070D02*
X19302316Y-11412070D01*
X19377316Y-11262070D02*
X19377316Y-11412070D01*
X19302316Y-11337070D02*
X19452316Y-11337070D01*
D10*
X8667177Y-15713884D02*
X8667177Y-15513884D01*
X8667177Y-15513884D02*
X8714796Y-15513884D01*
X8714796Y-15513884D02*
X8743367Y-15523408D01*
X8743367Y-15523408D02*
X8762415Y-15542455D01*
X8762415Y-15542455D02*
X8771939Y-15561503D01*
X8771939Y-15561503D02*
X8781463Y-15599598D01*
X8781463Y-15599598D02*
X8781463Y-15628169D01*
X8781463Y-15628169D02*
X8771939Y-15666265D01*
X8771939Y-15666265D02*
X8762415Y-15685312D01*
X8762415Y-15685312D02*
X8743367Y-15704360D01*
X8743367Y-15704360D02*
X8714796Y-15713884D01*
X8714796Y-15713884D02*
X8667177Y-15713884D01*
X8867177Y-15713884D02*
X8867177Y-15580550D01*
X8867177Y-15618646D02*
X8876701Y-15599598D01*
X8876701Y-15599598D02*
X8886224Y-15590074D01*
X8886224Y-15590074D02*
X8905272Y-15580550D01*
X8905272Y-15580550D02*
X8924320Y-15580550D01*
X8990986Y-15713884D02*
X8990986Y-15580550D01*
X8990986Y-15513884D02*
X8981463Y-15523408D01*
X8981463Y-15523408D02*
X8990986Y-15532931D01*
X8990986Y-15532931D02*
X9000510Y-15523408D01*
X9000510Y-15523408D02*
X8990986Y-15513884D01*
X8990986Y-15513884D02*
X8990986Y-15532931D01*
X9114796Y-15713884D02*
X9095748Y-15704360D01*
X9095748Y-15704360D02*
X9086224Y-15685312D01*
X9086224Y-15685312D02*
X9086224Y-15513884D01*
X9219558Y-15713884D02*
X9200510Y-15704360D01*
X9200510Y-15704360D02*
X9190986Y-15685312D01*
X9190986Y-15685312D02*
X9190986Y-15513884D01*
X9448129Y-15713884D02*
X9448129Y-15513884D01*
X9448129Y-15513884D02*
X9514796Y-15656741D01*
X9514796Y-15656741D02*
X9581463Y-15513884D01*
X9581463Y-15513884D02*
X9581463Y-15713884D01*
X9762415Y-15713884D02*
X9762415Y-15609122D01*
X9762415Y-15609122D02*
X9752891Y-15590074D01*
X9752891Y-15590074D02*
X9733844Y-15580550D01*
X9733844Y-15580550D02*
X9695748Y-15580550D01*
X9695748Y-15580550D02*
X9676701Y-15590074D01*
X9762415Y-15704360D02*
X9743367Y-15713884D01*
X9743367Y-15713884D02*
X9695748Y-15713884D01*
X9695748Y-15713884D02*
X9676701Y-15704360D01*
X9676701Y-15704360D02*
X9667177Y-15685312D01*
X9667177Y-15685312D02*
X9667177Y-15666265D01*
X9667177Y-15666265D02*
X9676701Y-15647217D01*
X9676701Y-15647217D02*
X9695748Y-15637693D01*
X9695748Y-15637693D02*
X9743367Y-15637693D01*
X9743367Y-15637693D02*
X9762415Y-15628169D01*
X9857653Y-15580550D02*
X9857653Y-15780550D01*
X9857653Y-15590074D02*
X9876701Y-15580550D01*
X9876701Y-15580550D02*
X9914796Y-15580550D01*
X9914796Y-15580550D02*
X9933844Y-15590074D01*
X9933844Y-15590074D02*
X9943367Y-15599598D01*
X9943367Y-15599598D02*
X9952891Y-15618646D01*
X9952891Y-15618646D02*
X9952891Y-15675788D01*
X9952891Y-15675788D02*
X9943367Y-15694836D01*
X9943367Y-15694836D02*
X9933844Y-15704360D01*
X9933844Y-15704360D02*
X9914796Y-15713884D01*
X9914796Y-15713884D02*
X9876701Y-15713884D01*
X9876701Y-15713884D02*
X9857653Y-15704360D01*
X10038605Y-15694836D02*
X10048129Y-15704360D01*
X10048129Y-15704360D02*
X10038605Y-15713884D01*
X10038605Y-15713884D02*
X10029082Y-15704360D01*
X10029082Y-15704360D02*
X10038605Y-15694836D01*
X10038605Y-15694836D02*
X10038605Y-15713884D01*
X10038605Y-15590074D02*
X10048129Y-15599598D01*
X10048129Y-15599598D02*
X10038605Y-15609122D01*
X10038605Y-15609122D02*
X10029082Y-15599598D01*
X10029082Y-15599598D02*
X10038605Y-15590074D01*
X10038605Y-15590074D02*
X10038605Y-15609122D01*
D11*
X8376400Y-16027400D02*
X8406400Y-16057400D01*
X8406400Y-16027400D02*
X8376400Y-16057400D01*
D10*
X8705272Y-15933884D02*
X8724320Y-15933884D01*
X8724320Y-15933884D02*
X8743367Y-15943408D01*
X8743367Y-15943408D02*
X8752891Y-15952931D01*
X8752891Y-15952931D02*
X8762415Y-15971979D01*
X8762415Y-15971979D02*
X8771939Y-16010074D01*
X8771939Y-16010074D02*
X8771939Y-16057693D01*
X8771939Y-16057693D02*
X8762415Y-16095788D01*
X8762415Y-16095788D02*
X8752891Y-16114836D01*
X8752891Y-16114836D02*
X8743367Y-16124360D01*
X8743367Y-16124360D02*
X8724320Y-16133884D01*
X8724320Y-16133884D02*
X8705272Y-16133884D01*
X8705272Y-16133884D02*
X8686224Y-16124360D01*
X8686224Y-16124360D02*
X8676701Y-16114836D01*
X8676701Y-16114836D02*
X8667177Y-16095788D01*
X8667177Y-16095788D02*
X8657653Y-16057693D01*
X8657653Y-16057693D02*
X8657653Y-16010074D01*
X8657653Y-16010074D02*
X8667177Y-15971979D01*
X8667177Y-15971979D02*
X8676701Y-15952931D01*
X8676701Y-15952931D02*
X8686224Y-15943408D01*
X8686224Y-15943408D02*
X8705272Y-15933884D01*
X8857653Y-16114836D02*
X8867177Y-16124360D01*
X8867177Y-16124360D02*
X8857653Y-16133884D01*
X8857653Y-16133884D02*
X8848129Y-16124360D01*
X8848129Y-16124360D02*
X8857653Y-16114836D01*
X8857653Y-16114836D02*
X8857653Y-16133884D01*
X8933844Y-15933884D02*
X9057653Y-15933884D01*
X9057653Y-15933884D02*
X8990986Y-16010074D01*
X8990986Y-16010074D02*
X9019558Y-16010074D01*
X9019558Y-16010074D02*
X9038605Y-16019598D01*
X9038605Y-16019598D02*
X9048129Y-16029122D01*
X9048129Y-16029122D02*
X9057653Y-16048169D01*
X9057653Y-16048169D02*
X9057653Y-16095788D01*
X9057653Y-16095788D02*
X9048129Y-16114836D01*
X9048129Y-16114836D02*
X9038605Y-16124360D01*
X9038605Y-16124360D02*
X9019558Y-16133884D01*
X9019558Y-16133884D02*
X8962415Y-16133884D01*
X8962415Y-16133884D02*
X8943367Y-16124360D01*
X8943367Y-16124360D02*
X8933844Y-16114836D01*
X9181463Y-15933884D02*
X9200510Y-15933884D01*
X9200510Y-15933884D02*
X9219558Y-15943408D01*
X9219558Y-15943408D02*
X9229082Y-15952931D01*
X9229082Y-15952931D02*
X9238605Y-15971979D01*
X9238605Y-15971979D02*
X9248129Y-16010074D01*
X9248129Y-16010074D02*
X9248129Y-16057693D01*
X9248129Y-16057693D02*
X9238605Y-16095788D01*
X9238605Y-16095788D02*
X9229082Y-16114836D01*
X9229082Y-16114836D02*
X9219558Y-16124360D01*
X9219558Y-16124360D02*
X9200510Y-16133884D01*
X9200510Y-16133884D02*
X9181463Y-16133884D01*
X9181463Y-16133884D02*
X9162415Y-16124360D01*
X9162415Y-16124360D02*
X9152891Y-16114836D01*
X9152891Y-16114836D02*
X9143367Y-16095788D01*
X9143367Y-16095788D02*
X9133844Y-16057693D01*
X9133844Y-16057693D02*
X9133844Y-16010074D01*
X9133844Y-16010074D02*
X9143367Y-15971979D01*
X9143367Y-15971979D02*
X9152891Y-15952931D01*
X9152891Y-15952931D02*
X9162415Y-15943408D01*
X9162415Y-15943408D02*
X9181463Y-15933884D01*
X9371939Y-15933884D02*
X9390986Y-15933884D01*
X9390986Y-15933884D02*
X9410034Y-15943408D01*
X9410034Y-15943408D02*
X9419558Y-15952931D01*
X9419558Y-15952931D02*
X9429082Y-15971979D01*
X9429082Y-15971979D02*
X9438605Y-16010074D01*
X9438605Y-16010074D02*
X9438605Y-16057693D01*
X9438605Y-16057693D02*
X9429082Y-16095788D01*
X9429082Y-16095788D02*
X9419558Y-16114836D01*
X9419558Y-16114836D02*
X9410034Y-16124360D01*
X9410034Y-16124360D02*
X9390986Y-16133884D01*
X9390986Y-16133884D02*
X9371939Y-16133884D01*
X9371939Y-16133884D02*
X9352891Y-16124360D01*
X9352891Y-16124360D02*
X9343367Y-16114836D01*
X9343367Y-16114836D02*
X9333844Y-16095788D01*
X9333844Y-16095788D02*
X9324320Y-16057693D01*
X9324320Y-16057693D02*
X9324320Y-16010074D01*
X9324320Y-16010074D02*
X9333844Y-15971979D01*
X9333844Y-15971979D02*
X9343367Y-15952931D01*
X9343367Y-15952931D02*
X9352891Y-15943408D01*
X9352891Y-15943408D02*
X9371939Y-15933884D01*
X9524320Y-16133884D02*
X9524320Y-16000550D01*
X9524320Y-16019598D02*
X9533844Y-16010074D01*
X9533844Y-16010074D02*
X9552891Y-16000550D01*
X9552891Y-16000550D02*
X9581463Y-16000550D01*
X9581463Y-16000550D02*
X9600510Y-16010074D01*
X9600510Y-16010074D02*
X9610034Y-16029122D01*
X9610034Y-16029122D02*
X9610034Y-16133884D01*
X9610034Y-16029122D02*
X9619558Y-16010074D01*
X9619558Y-16010074D02*
X9638605Y-16000550D01*
X9638605Y-16000550D02*
X9667177Y-16000550D01*
X9667177Y-16000550D02*
X9686225Y-16010074D01*
X9686225Y-16010074D02*
X9695748Y-16029122D01*
X9695748Y-16029122D02*
X9695748Y-16133884D01*
X9790986Y-16133884D02*
X9790986Y-16000550D01*
X9790986Y-16019598D02*
X9800510Y-16010074D01*
X9800510Y-16010074D02*
X9819558Y-16000550D01*
X9819558Y-16000550D02*
X9848129Y-16000550D01*
X9848129Y-16000550D02*
X9867177Y-16010074D01*
X9867177Y-16010074D02*
X9876701Y-16029122D01*
X9876701Y-16029122D02*
X9876701Y-16133884D01*
X9876701Y-16029122D02*
X9886225Y-16010074D01*
X9886225Y-16010074D02*
X9905272Y-16000550D01*
X9905272Y-16000550D02*
X9933844Y-16000550D01*
X9933844Y-16000550D02*
X9952891Y-16010074D01*
X9952891Y-16010074D02*
X9962415Y-16029122D01*
X9962415Y-16029122D02*
X9962415Y-16133884D01*
X10352891Y-15924360D02*
X10181463Y-16181503D01*
X10610034Y-15933884D02*
X10629082Y-15933884D01*
X10629082Y-15933884D02*
X10648129Y-15943408D01*
X10648129Y-15943408D02*
X10657653Y-15952931D01*
X10657653Y-15952931D02*
X10667177Y-15971979D01*
X10667177Y-15971979D02*
X10676701Y-16010074D01*
X10676701Y-16010074D02*
X10676701Y-16057693D01*
X10676701Y-16057693D02*
X10667177Y-16095788D01*
X10667177Y-16095788D02*
X10657653Y-16114836D01*
X10657653Y-16114836D02*
X10648129Y-16124360D01*
X10648129Y-16124360D02*
X10629082Y-16133884D01*
X10629082Y-16133884D02*
X10610034Y-16133884D01*
X10610034Y-16133884D02*
X10590987Y-16124360D01*
X10590987Y-16124360D02*
X10581463Y-16114836D01*
X10581463Y-16114836D02*
X10571939Y-16095788D01*
X10571939Y-16095788D02*
X10562415Y-16057693D01*
X10562415Y-16057693D02*
X10562415Y-16010074D01*
X10562415Y-16010074D02*
X10571939Y-15971979D01*
X10571939Y-15971979D02*
X10581463Y-15952931D01*
X10581463Y-15952931D02*
X10590987Y-15943408D01*
X10590987Y-15943408D02*
X10610034Y-15933884D01*
X10762415Y-16114836D02*
X10771939Y-16124360D01*
X10771939Y-16124360D02*
X10762415Y-16133884D01*
X10762415Y-16133884D02*
X10752891Y-16124360D01*
X10752891Y-16124360D02*
X10762415Y-16114836D01*
X10762415Y-16114836D02*
X10762415Y-16133884D01*
X10895748Y-15933884D02*
X10914796Y-15933884D01*
X10914796Y-15933884D02*
X10933844Y-15943408D01*
X10933844Y-15943408D02*
X10943368Y-15952931D01*
X10943368Y-15952931D02*
X10952891Y-15971979D01*
X10952891Y-15971979D02*
X10962415Y-16010074D01*
X10962415Y-16010074D02*
X10962415Y-16057693D01*
X10962415Y-16057693D02*
X10952891Y-16095788D01*
X10952891Y-16095788D02*
X10943368Y-16114836D01*
X10943368Y-16114836D02*
X10933844Y-16124360D01*
X10933844Y-16124360D02*
X10914796Y-16133884D01*
X10914796Y-16133884D02*
X10895748Y-16133884D01*
X10895748Y-16133884D02*
X10876701Y-16124360D01*
X10876701Y-16124360D02*
X10867177Y-16114836D01*
X10867177Y-16114836D02*
X10857653Y-16095788D01*
X10857653Y-16095788D02*
X10848129Y-16057693D01*
X10848129Y-16057693D02*
X10848129Y-16010074D01*
X10848129Y-16010074D02*
X10857653Y-15971979D01*
X10857653Y-15971979D02*
X10867177Y-15952931D01*
X10867177Y-15952931D02*
X10876701Y-15943408D01*
X10876701Y-15943408D02*
X10895748Y-15933884D01*
X11152891Y-16133884D02*
X11038606Y-16133884D01*
X11095748Y-16133884D02*
X11095748Y-15933884D01*
X11095748Y-15933884D02*
X11076701Y-15962455D01*
X11076701Y-15962455D02*
X11057653Y-15981503D01*
X11057653Y-15981503D02*
X11038606Y-15991027D01*
X11343367Y-16133884D02*
X11229082Y-16133884D01*
X11286225Y-16133884D02*
X11286225Y-15933884D01*
X11286225Y-15933884D02*
X11267177Y-15962455D01*
X11267177Y-15962455D02*
X11248129Y-15981503D01*
X11248129Y-15981503D02*
X11229082Y-15991027D01*
X11457653Y-16019598D02*
X11438606Y-16010074D01*
X11438606Y-16010074D02*
X11429082Y-16000550D01*
X11429082Y-16000550D02*
X11419558Y-15981503D01*
X11419558Y-15981503D02*
X11419558Y-15971979D01*
X11419558Y-15971979D02*
X11429082Y-15952931D01*
X11429082Y-15952931D02*
X11438606Y-15943408D01*
X11438606Y-15943408D02*
X11457653Y-15933884D01*
X11457653Y-15933884D02*
X11495748Y-15933884D01*
X11495748Y-15933884D02*
X11514796Y-15943408D01*
X11514796Y-15943408D02*
X11524320Y-15952931D01*
X11524320Y-15952931D02*
X11533844Y-15971979D01*
X11533844Y-15971979D02*
X11533844Y-15981503D01*
X11533844Y-15981503D02*
X11524320Y-16000550D01*
X11524320Y-16000550D02*
X11514796Y-16010074D01*
X11514796Y-16010074D02*
X11495748Y-16019598D01*
X11495748Y-16019598D02*
X11457653Y-16019598D01*
X11457653Y-16019598D02*
X11438606Y-16029122D01*
X11438606Y-16029122D02*
X11429082Y-16038646D01*
X11429082Y-16038646D02*
X11419558Y-16057693D01*
X11419558Y-16057693D02*
X11419558Y-16095788D01*
X11419558Y-16095788D02*
X11429082Y-16114836D01*
X11429082Y-16114836D02*
X11438606Y-16124360D01*
X11438606Y-16124360D02*
X11457653Y-16133884D01*
X11457653Y-16133884D02*
X11495748Y-16133884D01*
X11495748Y-16133884D02*
X11514796Y-16124360D01*
X11514796Y-16124360D02*
X11524320Y-16114836D01*
X11524320Y-16114836D02*
X11533844Y-16095788D01*
X11533844Y-16095788D02*
X11533844Y-16057693D01*
X11533844Y-16057693D02*
X11524320Y-16038646D01*
X11524320Y-16038646D02*
X11514796Y-16029122D01*
X11514796Y-16029122D02*
X11495748Y-16019598D01*
X11610034Y-15933884D02*
X11610034Y-15971979D01*
X11686225Y-15933884D02*
X11686225Y-15971979D01*
X11981463Y-16210074D02*
X11971939Y-16200550D01*
X11971939Y-16200550D02*
X11952891Y-16171979D01*
X11952891Y-16171979D02*
X11943368Y-16152931D01*
X11943368Y-16152931D02*
X11933844Y-16124360D01*
X11933844Y-16124360D02*
X11924320Y-16076741D01*
X11924320Y-16076741D02*
X11924320Y-16038646D01*
X11924320Y-16038646D02*
X11933844Y-15991027D01*
X11933844Y-15991027D02*
X11943368Y-15962455D01*
X11943368Y-15962455D02*
X11952891Y-15943408D01*
X11952891Y-15943408D02*
X11971939Y-15914836D01*
X11971939Y-15914836D02*
X11981463Y-15905312D01*
X12048129Y-15952931D02*
X12057653Y-15943408D01*
X12057653Y-15943408D02*
X12076701Y-15933884D01*
X12076701Y-15933884D02*
X12124320Y-15933884D01*
X12124320Y-15933884D02*
X12143368Y-15943408D01*
X12143368Y-15943408D02*
X12152891Y-15952931D01*
X12152891Y-15952931D02*
X12162415Y-15971979D01*
X12162415Y-15971979D02*
X12162415Y-15991027D01*
X12162415Y-15991027D02*
X12152891Y-16019598D01*
X12152891Y-16019598D02*
X12038606Y-16133884D01*
X12038606Y-16133884D02*
X12162415Y-16133884D01*
X12400510Y-16133884D02*
X12400510Y-15933884D01*
X12486225Y-16133884D02*
X12486225Y-16029122D01*
X12486225Y-16029122D02*
X12476701Y-16010074D01*
X12476701Y-16010074D02*
X12457653Y-16000550D01*
X12457653Y-16000550D02*
X12429082Y-16000550D01*
X12429082Y-16000550D02*
X12410034Y-16010074D01*
X12410034Y-16010074D02*
X12400510Y-16019598D01*
X12610034Y-16133884D02*
X12590987Y-16124360D01*
X12590987Y-16124360D02*
X12581463Y-16114836D01*
X12581463Y-16114836D02*
X12571939Y-16095788D01*
X12571939Y-16095788D02*
X12571939Y-16038646D01*
X12571939Y-16038646D02*
X12581463Y-16019598D01*
X12581463Y-16019598D02*
X12590987Y-16010074D01*
X12590987Y-16010074D02*
X12610034Y-16000550D01*
X12610034Y-16000550D02*
X12638606Y-16000550D01*
X12638606Y-16000550D02*
X12657653Y-16010074D01*
X12657653Y-16010074D02*
X12667177Y-16019598D01*
X12667177Y-16019598D02*
X12676701Y-16038646D01*
X12676701Y-16038646D02*
X12676701Y-16095788D01*
X12676701Y-16095788D02*
X12667177Y-16114836D01*
X12667177Y-16114836D02*
X12657653Y-16124360D01*
X12657653Y-16124360D02*
X12638606Y-16133884D01*
X12638606Y-16133884D02*
X12610034Y-16133884D01*
X12790987Y-16133884D02*
X12771939Y-16124360D01*
X12771939Y-16124360D02*
X12762415Y-16105312D01*
X12762415Y-16105312D02*
X12762415Y-15933884D01*
X12943368Y-16124360D02*
X12924320Y-16133884D01*
X12924320Y-16133884D02*
X12886225Y-16133884D01*
X12886225Y-16133884D02*
X12867177Y-16124360D01*
X12867177Y-16124360D02*
X12857653Y-16105312D01*
X12857653Y-16105312D02*
X12857653Y-16029122D01*
X12857653Y-16029122D02*
X12867177Y-16010074D01*
X12867177Y-16010074D02*
X12886225Y-16000550D01*
X12886225Y-16000550D02*
X12924320Y-16000550D01*
X12924320Y-16000550D02*
X12943368Y-16010074D01*
X12943368Y-16010074D02*
X12952891Y-16029122D01*
X12952891Y-16029122D02*
X12952891Y-16048169D01*
X12952891Y-16048169D02*
X12857653Y-16067217D01*
X13029082Y-16124360D02*
X13048130Y-16133884D01*
X13048130Y-16133884D02*
X13086225Y-16133884D01*
X13086225Y-16133884D02*
X13105272Y-16124360D01*
X13105272Y-16124360D02*
X13114796Y-16105312D01*
X13114796Y-16105312D02*
X13114796Y-16095788D01*
X13114796Y-16095788D02*
X13105272Y-16076741D01*
X13105272Y-16076741D02*
X13086225Y-16067217D01*
X13086225Y-16067217D02*
X13057653Y-16067217D01*
X13057653Y-16067217D02*
X13038606Y-16057693D01*
X13038606Y-16057693D02*
X13029082Y-16038646D01*
X13029082Y-16038646D02*
X13029082Y-16029122D01*
X13029082Y-16029122D02*
X13038606Y-16010074D01*
X13038606Y-16010074D02*
X13057653Y-16000550D01*
X13057653Y-16000550D02*
X13086225Y-16000550D01*
X13086225Y-16000550D02*
X13105272Y-16010074D01*
X13181463Y-16210074D02*
X13190987Y-16200550D01*
X13190987Y-16200550D02*
X13210034Y-16171979D01*
X13210034Y-16171979D02*
X13219558Y-16152931D01*
X13219558Y-16152931D02*
X13229082Y-16124360D01*
X13229082Y-16124360D02*
X13238606Y-16076741D01*
X13238606Y-16076741D02*
X13238606Y-16038646D01*
X13238606Y-16038646D02*
X13229082Y-15991027D01*
X13229082Y-15991027D02*
X13219558Y-15962455D01*
X13219558Y-15962455D02*
X13210034Y-15943408D01*
X13210034Y-15943408D02*
X13190987Y-15914836D01*
X13190987Y-15914836D02*
X13181463Y-15905312D01*
D11*
X8406400Y-16306400D02*
G75*
G02*
X8326400Y-16306400I-40000J0D01*
G01*
X8326400Y-16306400D02*
G75*
G02*
X8406400Y-16306400I40000J0D01*
G01*
D10*
X8705272Y-16197884D02*
X8724320Y-16197884D01*
X8724320Y-16197884D02*
X8743367Y-16207408D01*
X8743367Y-16207408D02*
X8752891Y-16216931D01*
X8752891Y-16216931D02*
X8762415Y-16235979D01*
X8762415Y-16235979D02*
X8771939Y-16274074D01*
X8771939Y-16274074D02*
X8771939Y-16321693D01*
X8771939Y-16321693D02*
X8762415Y-16359788D01*
X8762415Y-16359788D02*
X8752891Y-16378836D01*
X8752891Y-16378836D02*
X8743367Y-16388360D01*
X8743367Y-16388360D02*
X8724320Y-16397884D01*
X8724320Y-16397884D02*
X8705272Y-16397884D01*
X8705272Y-16397884D02*
X8686224Y-16388360D01*
X8686224Y-16388360D02*
X8676701Y-16378836D01*
X8676701Y-16378836D02*
X8667177Y-16359788D01*
X8667177Y-16359788D02*
X8657653Y-16321693D01*
X8657653Y-16321693D02*
X8657653Y-16274074D01*
X8657653Y-16274074D02*
X8667177Y-16235979D01*
X8667177Y-16235979D02*
X8676701Y-16216931D01*
X8676701Y-16216931D02*
X8686224Y-16207408D01*
X8686224Y-16207408D02*
X8705272Y-16197884D01*
X8857653Y-16378836D02*
X8867177Y-16388360D01*
X8867177Y-16388360D02*
X8857653Y-16397884D01*
X8857653Y-16397884D02*
X8848129Y-16388360D01*
X8848129Y-16388360D02*
X8857653Y-16378836D01*
X8857653Y-16378836D02*
X8857653Y-16397884D01*
X8981463Y-16283598D02*
X8962415Y-16274074D01*
X8962415Y-16274074D02*
X8952891Y-16264550D01*
X8952891Y-16264550D02*
X8943367Y-16245503D01*
X8943367Y-16245503D02*
X8943367Y-16235979D01*
X8943367Y-16235979D02*
X8952891Y-16216931D01*
X8952891Y-16216931D02*
X8962415Y-16207408D01*
X8962415Y-16207408D02*
X8981463Y-16197884D01*
X8981463Y-16197884D02*
X9019558Y-16197884D01*
X9019558Y-16197884D02*
X9038605Y-16207408D01*
X9038605Y-16207408D02*
X9048129Y-16216931D01*
X9048129Y-16216931D02*
X9057653Y-16235979D01*
X9057653Y-16235979D02*
X9057653Y-16245503D01*
X9057653Y-16245503D02*
X9048129Y-16264550D01*
X9048129Y-16264550D02*
X9038605Y-16274074D01*
X9038605Y-16274074D02*
X9019558Y-16283598D01*
X9019558Y-16283598D02*
X8981463Y-16283598D01*
X8981463Y-16283598D02*
X8962415Y-16293122D01*
X8962415Y-16293122D02*
X8952891Y-16302646D01*
X8952891Y-16302646D02*
X8943367Y-16321693D01*
X8943367Y-16321693D02*
X8943367Y-16359788D01*
X8943367Y-16359788D02*
X8952891Y-16378836D01*
X8952891Y-16378836D02*
X8962415Y-16388360D01*
X8962415Y-16388360D02*
X8981463Y-16397884D01*
X8981463Y-16397884D02*
X9019558Y-16397884D01*
X9019558Y-16397884D02*
X9038605Y-16388360D01*
X9038605Y-16388360D02*
X9048129Y-16378836D01*
X9048129Y-16378836D02*
X9057653Y-16359788D01*
X9057653Y-16359788D02*
X9057653Y-16321693D01*
X9057653Y-16321693D02*
X9048129Y-16302646D01*
X9048129Y-16302646D02*
X9038605Y-16293122D01*
X9038605Y-16293122D02*
X9019558Y-16283598D01*
X9181463Y-16197884D02*
X9200510Y-16197884D01*
X9200510Y-16197884D02*
X9219558Y-16207408D01*
X9219558Y-16207408D02*
X9229082Y-16216931D01*
X9229082Y-16216931D02*
X9238605Y-16235979D01*
X9238605Y-16235979D02*
X9248129Y-16274074D01*
X9248129Y-16274074D02*
X9248129Y-16321693D01*
X9248129Y-16321693D02*
X9238605Y-16359788D01*
X9238605Y-16359788D02*
X9229082Y-16378836D01*
X9229082Y-16378836D02*
X9219558Y-16388360D01*
X9219558Y-16388360D02*
X9200510Y-16397884D01*
X9200510Y-16397884D02*
X9181463Y-16397884D01*
X9181463Y-16397884D02*
X9162415Y-16388360D01*
X9162415Y-16388360D02*
X9152891Y-16378836D01*
X9152891Y-16378836D02*
X9143367Y-16359788D01*
X9143367Y-16359788D02*
X9133844Y-16321693D01*
X9133844Y-16321693D02*
X9133844Y-16274074D01*
X9133844Y-16274074D02*
X9143367Y-16235979D01*
X9143367Y-16235979D02*
X9152891Y-16216931D01*
X9152891Y-16216931D02*
X9162415Y-16207408D01*
X9162415Y-16207408D02*
X9181463Y-16197884D01*
X9371939Y-16197884D02*
X9390986Y-16197884D01*
X9390986Y-16197884D02*
X9410034Y-16207408D01*
X9410034Y-16207408D02*
X9419558Y-16216931D01*
X9419558Y-16216931D02*
X9429082Y-16235979D01*
X9429082Y-16235979D02*
X9438605Y-16274074D01*
X9438605Y-16274074D02*
X9438605Y-16321693D01*
X9438605Y-16321693D02*
X9429082Y-16359788D01*
X9429082Y-16359788D02*
X9419558Y-16378836D01*
X9419558Y-16378836D02*
X9410034Y-16388360D01*
X9410034Y-16388360D02*
X9390986Y-16397884D01*
X9390986Y-16397884D02*
X9371939Y-16397884D01*
X9371939Y-16397884D02*
X9352891Y-16388360D01*
X9352891Y-16388360D02*
X9343367Y-16378836D01*
X9343367Y-16378836D02*
X9333844Y-16359788D01*
X9333844Y-16359788D02*
X9324320Y-16321693D01*
X9324320Y-16321693D02*
X9324320Y-16274074D01*
X9324320Y-16274074D02*
X9333844Y-16235979D01*
X9333844Y-16235979D02*
X9343367Y-16216931D01*
X9343367Y-16216931D02*
X9352891Y-16207408D01*
X9352891Y-16207408D02*
X9371939Y-16197884D01*
X9524320Y-16397884D02*
X9524320Y-16264550D01*
X9524320Y-16283598D02*
X9533844Y-16274074D01*
X9533844Y-16274074D02*
X9552891Y-16264550D01*
X9552891Y-16264550D02*
X9581463Y-16264550D01*
X9581463Y-16264550D02*
X9600510Y-16274074D01*
X9600510Y-16274074D02*
X9610034Y-16293122D01*
X9610034Y-16293122D02*
X9610034Y-16397884D01*
X9610034Y-16293122D02*
X9619558Y-16274074D01*
X9619558Y-16274074D02*
X9638605Y-16264550D01*
X9638605Y-16264550D02*
X9667177Y-16264550D01*
X9667177Y-16264550D02*
X9686225Y-16274074D01*
X9686225Y-16274074D02*
X9695748Y-16293122D01*
X9695748Y-16293122D02*
X9695748Y-16397884D01*
X9790986Y-16397884D02*
X9790986Y-16264550D01*
X9790986Y-16283598D02*
X9800510Y-16274074D01*
X9800510Y-16274074D02*
X9819558Y-16264550D01*
X9819558Y-16264550D02*
X9848129Y-16264550D01*
X9848129Y-16264550D02*
X9867177Y-16274074D01*
X9867177Y-16274074D02*
X9876701Y-16293122D01*
X9876701Y-16293122D02*
X9876701Y-16397884D01*
X9876701Y-16293122D02*
X9886225Y-16274074D01*
X9886225Y-16274074D02*
X9905272Y-16264550D01*
X9905272Y-16264550D02*
X9933844Y-16264550D01*
X9933844Y-16264550D02*
X9952891Y-16274074D01*
X9952891Y-16274074D02*
X9962415Y-16293122D01*
X9962415Y-16293122D02*
X9962415Y-16397884D01*
X10352891Y-16188360D02*
X10181463Y-16445503D01*
X10610034Y-16197884D02*
X10629082Y-16197884D01*
X10629082Y-16197884D02*
X10648129Y-16207408D01*
X10648129Y-16207408D02*
X10657653Y-16216931D01*
X10657653Y-16216931D02*
X10667177Y-16235979D01*
X10667177Y-16235979D02*
X10676701Y-16274074D01*
X10676701Y-16274074D02*
X10676701Y-16321693D01*
X10676701Y-16321693D02*
X10667177Y-16359788D01*
X10667177Y-16359788D02*
X10657653Y-16378836D01*
X10657653Y-16378836D02*
X10648129Y-16388360D01*
X10648129Y-16388360D02*
X10629082Y-16397884D01*
X10629082Y-16397884D02*
X10610034Y-16397884D01*
X10610034Y-16397884D02*
X10590987Y-16388360D01*
X10590987Y-16388360D02*
X10581463Y-16378836D01*
X10581463Y-16378836D02*
X10571939Y-16359788D01*
X10571939Y-16359788D02*
X10562415Y-16321693D01*
X10562415Y-16321693D02*
X10562415Y-16274074D01*
X10562415Y-16274074D02*
X10571939Y-16235979D01*
X10571939Y-16235979D02*
X10581463Y-16216931D01*
X10581463Y-16216931D02*
X10590987Y-16207408D01*
X10590987Y-16207408D02*
X10610034Y-16197884D01*
X10762415Y-16378836D02*
X10771939Y-16388360D01*
X10771939Y-16388360D02*
X10762415Y-16397884D01*
X10762415Y-16397884D02*
X10752891Y-16388360D01*
X10752891Y-16388360D02*
X10762415Y-16378836D01*
X10762415Y-16378836D02*
X10762415Y-16397884D01*
X10895748Y-16197884D02*
X10914796Y-16197884D01*
X10914796Y-16197884D02*
X10933844Y-16207408D01*
X10933844Y-16207408D02*
X10943368Y-16216931D01*
X10943368Y-16216931D02*
X10952891Y-16235979D01*
X10952891Y-16235979D02*
X10962415Y-16274074D01*
X10962415Y-16274074D02*
X10962415Y-16321693D01*
X10962415Y-16321693D02*
X10952891Y-16359788D01*
X10952891Y-16359788D02*
X10943368Y-16378836D01*
X10943368Y-16378836D02*
X10933844Y-16388360D01*
X10933844Y-16388360D02*
X10914796Y-16397884D01*
X10914796Y-16397884D02*
X10895748Y-16397884D01*
X10895748Y-16397884D02*
X10876701Y-16388360D01*
X10876701Y-16388360D02*
X10867177Y-16378836D01*
X10867177Y-16378836D02*
X10857653Y-16359788D01*
X10857653Y-16359788D02*
X10848129Y-16321693D01*
X10848129Y-16321693D02*
X10848129Y-16274074D01*
X10848129Y-16274074D02*
X10857653Y-16235979D01*
X10857653Y-16235979D02*
X10867177Y-16216931D01*
X10867177Y-16216931D02*
X10876701Y-16207408D01*
X10876701Y-16207408D02*
X10895748Y-16197884D01*
X11029082Y-16197884D02*
X11152891Y-16197884D01*
X11152891Y-16197884D02*
X11086225Y-16274074D01*
X11086225Y-16274074D02*
X11114796Y-16274074D01*
X11114796Y-16274074D02*
X11133844Y-16283598D01*
X11133844Y-16283598D02*
X11143368Y-16293122D01*
X11143368Y-16293122D02*
X11152891Y-16312169D01*
X11152891Y-16312169D02*
X11152891Y-16359788D01*
X11152891Y-16359788D02*
X11143368Y-16378836D01*
X11143368Y-16378836D02*
X11133844Y-16388360D01*
X11133844Y-16388360D02*
X11114796Y-16397884D01*
X11114796Y-16397884D02*
X11057653Y-16397884D01*
X11057653Y-16397884D02*
X11038606Y-16388360D01*
X11038606Y-16388360D02*
X11029082Y-16378836D01*
X11343367Y-16397884D02*
X11229082Y-16397884D01*
X11286225Y-16397884D02*
X11286225Y-16197884D01*
X11286225Y-16197884D02*
X11267177Y-16226455D01*
X11267177Y-16226455D02*
X11248129Y-16245503D01*
X11248129Y-16245503D02*
X11229082Y-16255027D01*
X11524320Y-16197884D02*
X11429082Y-16197884D01*
X11429082Y-16197884D02*
X11419558Y-16293122D01*
X11419558Y-16293122D02*
X11429082Y-16283598D01*
X11429082Y-16283598D02*
X11448129Y-16274074D01*
X11448129Y-16274074D02*
X11495748Y-16274074D01*
X11495748Y-16274074D02*
X11514796Y-16283598D01*
X11514796Y-16283598D02*
X11524320Y-16293122D01*
X11524320Y-16293122D02*
X11533844Y-16312169D01*
X11533844Y-16312169D02*
X11533844Y-16359788D01*
X11533844Y-16359788D02*
X11524320Y-16378836D01*
X11524320Y-16378836D02*
X11514796Y-16388360D01*
X11514796Y-16388360D02*
X11495748Y-16397884D01*
X11495748Y-16397884D02*
X11448129Y-16397884D01*
X11448129Y-16397884D02*
X11429082Y-16388360D01*
X11429082Y-16388360D02*
X11419558Y-16378836D01*
X11610034Y-16197884D02*
X11610034Y-16235979D01*
X11686225Y-16197884D02*
X11686225Y-16235979D01*
X11981463Y-16474074D02*
X11971939Y-16464550D01*
X11971939Y-16464550D02*
X11952891Y-16435979D01*
X11952891Y-16435979D02*
X11943368Y-16416931D01*
X11943368Y-16416931D02*
X11933844Y-16388360D01*
X11933844Y-16388360D02*
X11924320Y-16340741D01*
X11924320Y-16340741D02*
X11924320Y-16302646D01*
X11924320Y-16302646D02*
X11933844Y-16255027D01*
X11933844Y-16255027D02*
X11943368Y-16226455D01*
X11943368Y-16226455D02*
X11952891Y-16207408D01*
X11952891Y-16207408D02*
X11971939Y-16178836D01*
X11971939Y-16178836D02*
X11981463Y-16169312D01*
X12048129Y-16216931D02*
X12057653Y-16207408D01*
X12057653Y-16207408D02*
X12076701Y-16197884D01*
X12076701Y-16197884D02*
X12124320Y-16197884D01*
X12124320Y-16197884D02*
X12143368Y-16207408D01*
X12143368Y-16207408D02*
X12152891Y-16216931D01*
X12152891Y-16216931D02*
X12162415Y-16235979D01*
X12162415Y-16235979D02*
X12162415Y-16255027D01*
X12162415Y-16255027D02*
X12152891Y-16283598D01*
X12152891Y-16283598D02*
X12038606Y-16397884D01*
X12038606Y-16397884D02*
X12162415Y-16397884D01*
X12333844Y-16264550D02*
X12333844Y-16397884D01*
X12286225Y-16188360D02*
X12238606Y-16331217D01*
X12238606Y-16331217D02*
X12362415Y-16331217D01*
X12590987Y-16397884D02*
X12590987Y-16197884D01*
X12676701Y-16397884D02*
X12676701Y-16293122D01*
X12676701Y-16293122D02*
X12667177Y-16274074D01*
X12667177Y-16274074D02*
X12648130Y-16264550D01*
X12648130Y-16264550D02*
X12619558Y-16264550D01*
X12619558Y-16264550D02*
X12600510Y-16274074D01*
X12600510Y-16274074D02*
X12590987Y-16283598D01*
X12800510Y-16397884D02*
X12781463Y-16388360D01*
X12781463Y-16388360D02*
X12771939Y-16378836D01*
X12771939Y-16378836D02*
X12762415Y-16359788D01*
X12762415Y-16359788D02*
X12762415Y-16302646D01*
X12762415Y-16302646D02*
X12771939Y-16283598D01*
X12771939Y-16283598D02*
X12781463Y-16274074D01*
X12781463Y-16274074D02*
X12800510Y-16264550D01*
X12800510Y-16264550D02*
X12829082Y-16264550D01*
X12829082Y-16264550D02*
X12848130Y-16274074D01*
X12848130Y-16274074D02*
X12857653Y-16283598D01*
X12857653Y-16283598D02*
X12867177Y-16302646D01*
X12867177Y-16302646D02*
X12867177Y-16359788D01*
X12867177Y-16359788D02*
X12857653Y-16378836D01*
X12857653Y-16378836D02*
X12848130Y-16388360D01*
X12848130Y-16388360D02*
X12829082Y-16397884D01*
X12829082Y-16397884D02*
X12800510Y-16397884D01*
X12981463Y-16397884D02*
X12962415Y-16388360D01*
X12962415Y-16388360D02*
X12952891Y-16369312D01*
X12952891Y-16369312D02*
X12952891Y-16197884D01*
X13133844Y-16388360D02*
X13114796Y-16397884D01*
X13114796Y-16397884D02*
X13076701Y-16397884D01*
X13076701Y-16397884D02*
X13057653Y-16388360D01*
X13057653Y-16388360D02*
X13048130Y-16369312D01*
X13048130Y-16369312D02*
X13048130Y-16293122D01*
X13048130Y-16293122D02*
X13057653Y-16274074D01*
X13057653Y-16274074D02*
X13076701Y-16264550D01*
X13076701Y-16264550D02*
X13114796Y-16264550D01*
X13114796Y-16264550D02*
X13133844Y-16274074D01*
X13133844Y-16274074D02*
X13143368Y-16293122D01*
X13143368Y-16293122D02*
X13143368Y-16312169D01*
X13143368Y-16312169D02*
X13048130Y-16331217D01*
X13219558Y-16388360D02*
X13238606Y-16397884D01*
X13238606Y-16397884D02*
X13276701Y-16397884D01*
X13276701Y-16397884D02*
X13295749Y-16388360D01*
X13295749Y-16388360D02*
X13305272Y-16369312D01*
X13305272Y-16369312D02*
X13305272Y-16359788D01*
X13305272Y-16359788D02*
X13295749Y-16340741D01*
X13295749Y-16340741D02*
X13276701Y-16331217D01*
X13276701Y-16331217D02*
X13248130Y-16331217D01*
X13248130Y-16331217D02*
X13229082Y-16321693D01*
X13229082Y-16321693D02*
X13219558Y-16302646D01*
X13219558Y-16302646D02*
X13219558Y-16293122D01*
X13219558Y-16293122D02*
X13229082Y-16274074D01*
X13229082Y-16274074D02*
X13248130Y-16264550D01*
X13248130Y-16264550D02*
X13276701Y-16264550D01*
X13276701Y-16264550D02*
X13295749Y-16274074D01*
X13371939Y-16474074D02*
X13381463Y-16464550D01*
X13381463Y-16464550D02*
X13400511Y-16435979D01*
X13400511Y-16435979D02*
X13410034Y-16416931D01*
X13410034Y-16416931D02*
X13419558Y-16388360D01*
X13419558Y-16388360D02*
X13429082Y-16340741D01*
X13429082Y-16340741D02*
X13429082Y-16302646D01*
X13429082Y-16302646D02*
X13419558Y-16255027D01*
X13419558Y-16255027D02*
X13410034Y-16226455D01*
X13410034Y-16226455D02*
X13400511Y-16207408D01*
X13400511Y-16207408D02*
X13381463Y-16178836D01*
X13381463Y-16178836D02*
X13371939Y-16169312D01*
D11*
X8361950Y-16525950D02*
X8361950Y-16614850D01*
X8317500Y-16570400D02*
X8406400Y-16570400D01*
D10*
X8705272Y-16461884D02*
X8724320Y-16461884D01*
X8724320Y-16461884D02*
X8743367Y-16471408D01*
X8743367Y-16471408D02*
X8752891Y-16480931D01*
X8752891Y-16480931D02*
X8762415Y-16499979D01*
X8762415Y-16499979D02*
X8771939Y-16538074D01*
X8771939Y-16538074D02*
X8771939Y-16585693D01*
X8771939Y-16585693D02*
X8762415Y-16623788D01*
X8762415Y-16623788D02*
X8752891Y-16642836D01*
X8752891Y-16642836D02*
X8743367Y-16652360D01*
X8743367Y-16652360D02*
X8724320Y-16661884D01*
X8724320Y-16661884D02*
X8705272Y-16661884D01*
X8705272Y-16661884D02*
X8686224Y-16652360D01*
X8686224Y-16652360D02*
X8676701Y-16642836D01*
X8676701Y-16642836D02*
X8667177Y-16623788D01*
X8667177Y-16623788D02*
X8657653Y-16585693D01*
X8657653Y-16585693D02*
X8657653Y-16538074D01*
X8657653Y-16538074D02*
X8667177Y-16499979D01*
X8667177Y-16499979D02*
X8676701Y-16480931D01*
X8676701Y-16480931D02*
X8686224Y-16471408D01*
X8686224Y-16471408D02*
X8705272Y-16461884D01*
X8857653Y-16642836D02*
X8867177Y-16652360D01*
X8867177Y-16652360D02*
X8857653Y-16661884D01*
X8857653Y-16661884D02*
X8848129Y-16652360D01*
X8848129Y-16652360D02*
X8857653Y-16642836D01*
X8857653Y-16642836D02*
X8857653Y-16661884D01*
X8981463Y-16547598D02*
X8962415Y-16538074D01*
X8962415Y-16538074D02*
X8952891Y-16528550D01*
X8952891Y-16528550D02*
X8943367Y-16509503D01*
X8943367Y-16509503D02*
X8943367Y-16499979D01*
X8943367Y-16499979D02*
X8952891Y-16480931D01*
X8952891Y-16480931D02*
X8962415Y-16471408D01*
X8962415Y-16471408D02*
X8981463Y-16461884D01*
X8981463Y-16461884D02*
X9019558Y-16461884D01*
X9019558Y-16461884D02*
X9038605Y-16471408D01*
X9038605Y-16471408D02*
X9048129Y-16480931D01*
X9048129Y-16480931D02*
X9057653Y-16499979D01*
X9057653Y-16499979D02*
X9057653Y-16509503D01*
X9057653Y-16509503D02*
X9048129Y-16528550D01*
X9048129Y-16528550D02*
X9038605Y-16538074D01*
X9038605Y-16538074D02*
X9019558Y-16547598D01*
X9019558Y-16547598D02*
X8981463Y-16547598D01*
X8981463Y-16547598D02*
X8962415Y-16557122D01*
X8962415Y-16557122D02*
X8952891Y-16566646D01*
X8952891Y-16566646D02*
X8943367Y-16585693D01*
X8943367Y-16585693D02*
X8943367Y-16623788D01*
X8943367Y-16623788D02*
X8952891Y-16642836D01*
X8952891Y-16642836D02*
X8962415Y-16652360D01*
X8962415Y-16652360D02*
X8981463Y-16661884D01*
X8981463Y-16661884D02*
X9019558Y-16661884D01*
X9019558Y-16661884D02*
X9038605Y-16652360D01*
X9038605Y-16652360D02*
X9048129Y-16642836D01*
X9048129Y-16642836D02*
X9057653Y-16623788D01*
X9057653Y-16623788D02*
X9057653Y-16585693D01*
X9057653Y-16585693D02*
X9048129Y-16566646D01*
X9048129Y-16566646D02*
X9038605Y-16557122D01*
X9038605Y-16557122D02*
X9019558Y-16547598D01*
X9171939Y-16547598D02*
X9152891Y-16538074D01*
X9152891Y-16538074D02*
X9143367Y-16528550D01*
X9143367Y-16528550D02*
X9133844Y-16509503D01*
X9133844Y-16509503D02*
X9133844Y-16499979D01*
X9133844Y-16499979D02*
X9143367Y-16480931D01*
X9143367Y-16480931D02*
X9152891Y-16471408D01*
X9152891Y-16471408D02*
X9171939Y-16461884D01*
X9171939Y-16461884D02*
X9210034Y-16461884D01*
X9210034Y-16461884D02*
X9229082Y-16471408D01*
X9229082Y-16471408D02*
X9238605Y-16480931D01*
X9238605Y-16480931D02*
X9248129Y-16499979D01*
X9248129Y-16499979D02*
X9248129Y-16509503D01*
X9248129Y-16509503D02*
X9238605Y-16528550D01*
X9238605Y-16528550D02*
X9229082Y-16538074D01*
X9229082Y-16538074D02*
X9210034Y-16547598D01*
X9210034Y-16547598D02*
X9171939Y-16547598D01*
X9171939Y-16547598D02*
X9152891Y-16557122D01*
X9152891Y-16557122D02*
X9143367Y-16566646D01*
X9143367Y-16566646D02*
X9133844Y-16585693D01*
X9133844Y-16585693D02*
X9133844Y-16623788D01*
X9133844Y-16623788D02*
X9143367Y-16642836D01*
X9143367Y-16642836D02*
X9152891Y-16652360D01*
X9152891Y-16652360D02*
X9171939Y-16661884D01*
X9171939Y-16661884D02*
X9210034Y-16661884D01*
X9210034Y-16661884D02*
X9229082Y-16652360D01*
X9229082Y-16652360D02*
X9238605Y-16642836D01*
X9238605Y-16642836D02*
X9248129Y-16623788D01*
X9248129Y-16623788D02*
X9248129Y-16585693D01*
X9248129Y-16585693D02*
X9238605Y-16566646D01*
X9238605Y-16566646D02*
X9229082Y-16557122D01*
X9229082Y-16557122D02*
X9210034Y-16547598D01*
X9343367Y-16661884D02*
X9381463Y-16661884D01*
X9381463Y-16661884D02*
X9400510Y-16652360D01*
X9400510Y-16652360D02*
X9410034Y-16642836D01*
X9410034Y-16642836D02*
X9429082Y-16614265D01*
X9429082Y-16614265D02*
X9438605Y-16576169D01*
X9438605Y-16576169D02*
X9438605Y-16499979D01*
X9438605Y-16499979D02*
X9429082Y-16480931D01*
X9429082Y-16480931D02*
X9419558Y-16471408D01*
X9419558Y-16471408D02*
X9400510Y-16461884D01*
X9400510Y-16461884D02*
X9362415Y-16461884D01*
X9362415Y-16461884D02*
X9343367Y-16471408D01*
X9343367Y-16471408D02*
X9333844Y-16480931D01*
X9333844Y-16480931D02*
X9324320Y-16499979D01*
X9324320Y-16499979D02*
X9324320Y-16547598D01*
X9324320Y-16547598D02*
X9333844Y-16566646D01*
X9333844Y-16566646D02*
X9343367Y-16576169D01*
X9343367Y-16576169D02*
X9362415Y-16585693D01*
X9362415Y-16585693D02*
X9400510Y-16585693D01*
X9400510Y-16585693D02*
X9419558Y-16576169D01*
X9419558Y-16576169D02*
X9429082Y-16566646D01*
X9429082Y-16566646D02*
X9438605Y-16547598D01*
X9524320Y-16661884D02*
X9524320Y-16528550D01*
X9524320Y-16547598D02*
X9533844Y-16538074D01*
X9533844Y-16538074D02*
X9552891Y-16528550D01*
X9552891Y-16528550D02*
X9581463Y-16528550D01*
X9581463Y-16528550D02*
X9600510Y-16538074D01*
X9600510Y-16538074D02*
X9610034Y-16557122D01*
X9610034Y-16557122D02*
X9610034Y-16661884D01*
X9610034Y-16557122D02*
X9619558Y-16538074D01*
X9619558Y-16538074D02*
X9638605Y-16528550D01*
X9638605Y-16528550D02*
X9667177Y-16528550D01*
X9667177Y-16528550D02*
X9686225Y-16538074D01*
X9686225Y-16538074D02*
X9695748Y-16557122D01*
X9695748Y-16557122D02*
X9695748Y-16661884D01*
X9790986Y-16661884D02*
X9790986Y-16528550D01*
X9790986Y-16547598D02*
X9800510Y-16538074D01*
X9800510Y-16538074D02*
X9819558Y-16528550D01*
X9819558Y-16528550D02*
X9848129Y-16528550D01*
X9848129Y-16528550D02*
X9867177Y-16538074D01*
X9867177Y-16538074D02*
X9876701Y-16557122D01*
X9876701Y-16557122D02*
X9876701Y-16661884D01*
X9876701Y-16557122D02*
X9886225Y-16538074D01*
X9886225Y-16538074D02*
X9905272Y-16528550D01*
X9905272Y-16528550D02*
X9933844Y-16528550D01*
X9933844Y-16528550D02*
X9952891Y-16538074D01*
X9952891Y-16538074D02*
X9962415Y-16557122D01*
X9962415Y-16557122D02*
X9962415Y-16661884D01*
X10352891Y-16452360D02*
X10181463Y-16709503D01*
X10610034Y-16461884D02*
X10629082Y-16461884D01*
X10629082Y-16461884D02*
X10648129Y-16471408D01*
X10648129Y-16471408D02*
X10657653Y-16480931D01*
X10657653Y-16480931D02*
X10667177Y-16499979D01*
X10667177Y-16499979D02*
X10676701Y-16538074D01*
X10676701Y-16538074D02*
X10676701Y-16585693D01*
X10676701Y-16585693D02*
X10667177Y-16623788D01*
X10667177Y-16623788D02*
X10657653Y-16642836D01*
X10657653Y-16642836D02*
X10648129Y-16652360D01*
X10648129Y-16652360D02*
X10629082Y-16661884D01*
X10629082Y-16661884D02*
X10610034Y-16661884D01*
X10610034Y-16661884D02*
X10590987Y-16652360D01*
X10590987Y-16652360D02*
X10581463Y-16642836D01*
X10581463Y-16642836D02*
X10571939Y-16623788D01*
X10571939Y-16623788D02*
X10562415Y-16585693D01*
X10562415Y-16585693D02*
X10562415Y-16538074D01*
X10562415Y-16538074D02*
X10571939Y-16499979D01*
X10571939Y-16499979D02*
X10581463Y-16480931D01*
X10581463Y-16480931D02*
X10590987Y-16471408D01*
X10590987Y-16471408D02*
X10610034Y-16461884D01*
X10762415Y-16642836D02*
X10771939Y-16652360D01*
X10771939Y-16652360D02*
X10762415Y-16661884D01*
X10762415Y-16661884D02*
X10752891Y-16652360D01*
X10752891Y-16652360D02*
X10762415Y-16642836D01*
X10762415Y-16642836D02*
X10762415Y-16661884D01*
X10895748Y-16461884D02*
X10914796Y-16461884D01*
X10914796Y-16461884D02*
X10933844Y-16471408D01*
X10933844Y-16471408D02*
X10943368Y-16480931D01*
X10943368Y-16480931D02*
X10952891Y-16499979D01*
X10952891Y-16499979D02*
X10962415Y-16538074D01*
X10962415Y-16538074D02*
X10962415Y-16585693D01*
X10962415Y-16585693D02*
X10952891Y-16623788D01*
X10952891Y-16623788D02*
X10943368Y-16642836D01*
X10943368Y-16642836D02*
X10933844Y-16652360D01*
X10933844Y-16652360D02*
X10914796Y-16661884D01*
X10914796Y-16661884D02*
X10895748Y-16661884D01*
X10895748Y-16661884D02*
X10876701Y-16652360D01*
X10876701Y-16652360D02*
X10867177Y-16642836D01*
X10867177Y-16642836D02*
X10857653Y-16623788D01*
X10857653Y-16623788D02*
X10848129Y-16585693D01*
X10848129Y-16585693D02*
X10848129Y-16538074D01*
X10848129Y-16538074D02*
X10857653Y-16499979D01*
X10857653Y-16499979D02*
X10867177Y-16480931D01*
X10867177Y-16480931D02*
X10876701Y-16471408D01*
X10876701Y-16471408D02*
X10895748Y-16461884D01*
X11029082Y-16461884D02*
X11152891Y-16461884D01*
X11152891Y-16461884D02*
X11086225Y-16538074D01*
X11086225Y-16538074D02*
X11114796Y-16538074D01*
X11114796Y-16538074D02*
X11133844Y-16547598D01*
X11133844Y-16547598D02*
X11143368Y-16557122D01*
X11143368Y-16557122D02*
X11152891Y-16576169D01*
X11152891Y-16576169D02*
X11152891Y-16623788D01*
X11152891Y-16623788D02*
X11143368Y-16642836D01*
X11143368Y-16642836D02*
X11133844Y-16652360D01*
X11133844Y-16652360D02*
X11114796Y-16661884D01*
X11114796Y-16661884D02*
X11057653Y-16661884D01*
X11057653Y-16661884D02*
X11038606Y-16652360D01*
X11038606Y-16652360D02*
X11029082Y-16642836D01*
X11333844Y-16461884D02*
X11238606Y-16461884D01*
X11238606Y-16461884D02*
X11229082Y-16557122D01*
X11229082Y-16557122D02*
X11238606Y-16547598D01*
X11238606Y-16547598D02*
X11257653Y-16538074D01*
X11257653Y-16538074D02*
X11305272Y-16538074D01*
X11305272Y-16538074D02*
X11324320Y-16547598D01*
X11324320Y-16547598D02*
X11333844Y-16557122D01*
X11333844Y-16557122D02*
X11343367Y-16576169D01*
X11343367Y-16576169D02*
X11343367Y-16623788D01*
X11343367Y-16623788D02*
X11333844Y-16642836D01*
X11333844Y-16642836D02*
X11324320Y-16652360D01*
X11324320Y-16652360D02*
X11305272Y-16661884D01*
X11305272Y-16661884D02*
X11257653Y-16661884D01*
X11257653Y-16661884D02*
X11238606Y-16652360D01*
X11238606Y-16652360D02*
X11229082Y-16642836D01*
X11467177Y-16461884D02*
X11486225Y-16461884D01*
X11486225Y-16461884D02*
X11505272Y-16471408D01*
X11505272Y-16471408D02*
X11514796Y-16480931D01*
X11514796Y-16480931D02*
X11524320Y-16499979D01*
X11524320Y-16499979D02*
X11533844Y-16538074D01*
X11533844Y-16538074D02*
X11533844Y-16585693D01*
X11533844Y-16585693D02*
X11524320Y-16623788D01*
X11524320Y-16623788D02*
X11514796Y-16642836D01*
X11514796Y-16642836D02*
X11505272Y-16652360D01*
X11505272Y-16652360D02*
X11486225Y-16661884D01*
X11486225Y-16661884D02*
X11467177Y-16661884D01*
X11467177Y-16661884D02*
X11448129Y-16652360D01*
X11448129Y-16652360D02*
X11438606Y-16642836D01*
X11438606Y-16642836D02*
X11429082Y-16623788D01*
X11429082Y-16623788D02*
X11419558Y-16585693D01*
X11419558Y-16585693D02*
X11419558Y-16538074D01*
X11419558Y-16538074D02*
X11429082Y-16499979D01*
X11429082Y-16499979D02*
X11438606Y-16480931D01*
X11438606Y-16480931D02*
X11448129Y-16471408D01*
X11448129Y-16471408D02*
X11467177Y-16461884D01*
X11610034Y-16461884D02*
X11610034Y-16499979D01*
X11686225Y-16461884D02*
X11686225Y-16499979D01*
X11981463Y-16738074D02*
X11971939Y-16728550D01*
X11971939Y-16728550D02*
X11952891Y-16699979D01*
X11952891Y-16699979D02*
X11943368Y-16680931D01*
X11943368Y-16680931D02*
X11933844Y-16652360D01*
X11933844Y-16652360D02*
X11924320Y-16604741D01*
X11924320Y-16604741D02*
X11924320Y-16566646D01*
X11924320Y-16566646D02*
X11933844Y-16519027D01*
X11933844Y-16519027D02*
X11943368Y-16490455D01*
X11943368Y-16490455D02*
X11952891Y-16471408D01*
X11952891Y-16471408D02*
X11971939Y-16442836D01*
X11971939Y-16442836D02*
X11981463Y-16433312D01*
X12143368Y-16461884D02*
X12105272Y-16461884D01*
X12105272Y-16461884D02*
X12086225Y-16471408D01*
X12086225Y-16471408D02*
X12076701Y-16480931D01*
X12076701Y-16480931D02*
X12057653Y-16509503D01*
X12057653Y-16509503D02*
X12048129Y-16547598D01*
X12048129Y-16547598D02*
X12048129Y-16623788D01*
X12048129Y-16623788D02*
X12057653Y-16642836D01*
X12057653Y-16642836D02*
X12067177Y-16652360D01*
X12067177Y-16652360D02*
X12086225Y-16661884D01*
X12086225Y-16661884D02*
X12124320Y-16661884D01*
X12124320Y-16661884D02*
X12143368Y-16652360D01*
X12143368Y-16652360D02*
X12152891Y-16642836D01*
X12152891Y-16642836D02*
X12162415Y-16623788D01*
X12162415Y-16623788D02*
X12162415Y-16576169D01*
X12162415Y-16576169D02*
X12152891Y-16557122D01*
X12152891Y-16557122D02*
X12143368Y-16547598D01*
X12143368Y-16547598D02*
X12124320Y-16538074D01*
X12124320Y-16538074D02*
X12086225Y-16538074D01*
X12086225Y-16538074D02*
X12067177Y-16547598D01*
X12067177Y-16547598D02*
X12057653Y-16557122D01*
X12057653Y-16557122D02*
X12048129Y-16576169D01*
X12400510Y-16661884D02*
X12400510Y-16461884D01*
X12486225Y-16661884D02*
X12486225Y-16557122D01*
X12486225Y-16557122D02*
X12476701Y-16538074D01*
X12476701Y-16538074D02*
X12457653Y-16528550D01*
X12457653Y-16528550D02*
X12429082Y-16528550D01*
X12429082Y-16528550D02*
X12410034Y-16538074D01*
X12410034Y-16538074D02*
X12400510Y-16547598D01*
X12610034Y-16661884D02*
X12590987Y-16652360D01*
X12590987Y-16652360D02*
X12581463Y-16642836D01*
X12581463Y-16642836D02*
X12571939Y-16623788D01*
X12571939Y-16623788D02*
X12571939Y-16566646D01*
X12571939Y-16566646D02*
X12581463Y-16547598D01*
X12581463Y-16547598D02*
X12590987Y-16538074D01*
X12590987Y-16538074D02*
X12610034Y-16528550D01*
X12610034Y-16528550D02*
X12638606Y-16528550D01*
X12638606Y-16528550D02*
X12657653Y-16538074D01*
X12657653Y-16538074D02*
X12667177Y-16547598D01*
X12667177Y-16547598D02*
X12676701Y-16566646D01*
X12676701Y-16566646D02*
X12676701Y-16623788D01*
X12676701Y-16623788D02*
X12667177Y-16642836D01*
X12667177Y-16642836D02*
X12657653Y-16652360D01*
X12657653Y-16652360D02*
X12638606Y-16661884D01*
X12638606Y-16661884D02*
X12610034Y-16661884D01*
X12790987Y-16661884D02*
X12771939Y-16652360D01*
X12771939Y-16652360D02*
X12762415Y-16633312D01*
X12762415Y-16633312D02*
X12762415Y-16461884D01*
X12943368Y-16652360D02*
X12924320Y-16661884D01*
X12924320Y-16661884D02*
X12886225Y-16661884D01*
X12886225Y-16661884D02*
X12867177Y-16652360D01*
X12867177Y-16652360D02*
X12857653Y-16633312D01*
X12857653Y-16633312D02*
X12857653Y-16557122D01*
X12857653Y-16557122D02*
X12867177Y-16538074D01*
X12867177Y-16538074D02*
X12886225Y-16528550D01*
X12886225Y-16528550D02*
X12924320Y-16528550D01*
X12924320Y-16528550D02*
X12943368Y-16538074D01*
X12943368Y-16538074D02*
X12952891Y-16557122D01*
X12952891Y-16557122D02*
X12952891Y-16576169D01*
X12952891Y-16576169D02*
X12857653Y-16595217D01*
X13029082Y-16652360D02*
X13048130Y-16661884D01*
X13048130Y-16661884D02*
X13086225Y-16661884D01*
X13086225Y-16661884D02*
X13105272Y-16652360D01*
X13105272Y-16652360D02*
X13114796Y-16633312D01*
X13114796Y-16633312D02*
X13114796Y-16623788D01*
X13114796Y-16623788D02*
X13105272Y-16604741D01*
X13105272Y-16604741D02*
X13086225Y-16595217D01*
X13086225Y-16595217D02*
X13057653Y-16595217D01*
X13057653Y-16595217D02*
X13038606Y-16585693D01*
X13038606Y-16585693D02*
X13029082Y-16566646D01*
X13029082Y-16566646D02*
X13029082Y-16557122D01*
X13029082Y-16557122D02*
X13038606Y-16538074D01*
X13038606Y-16538074D02*
X13057653Y-16528550D01*
X13057653Y-16528550D02*
X13086225Y-16528550D01*
X13086225Y-16528550D02*
X13105272Y-16538074D01*
X13181463Y-16738074D02*
X13190987Y-16728550D01*
X13190987Y-16728550D02*
X13210034Y-16699979D01*
X13210034Y-16699979D02*
X13219558Y-16680931D01*
X13219558Y-16680931D02*
X13229082Y-16652360D01*
X13229082Y-16652360D02*
X13238606Y-16604741D01*
X13238606Y-16604741D02*
X13238606Y-16566646D01*
X13238606Y-16566646D02*
X13229082Y-16519027D01*
X13229082Y-16519027D02*
X13219558Y-16490455D01*
X13219558Y-16490455D02*
X13210034Y-16471408D01*
X13210034Y-16471408D02*
X13190987Y-16442836D01*
X13190987Y-16442836D02*
X13181463Y-16433312D01*
D11*
X8393220Y-16866220D02*
X8393220Y-16802580D01*
X8329580Y-16802580D01*
X8329580Y-16866220D01*
X8393220Y-16866220D01*
D10*
X8705272Y-16725884D02*
X8724320Y-16725884D01*
X8724320Y-16725884D02*
X8743367Y-16735408D01*
X8743367Y-16735408D02*
X8752891Y-16744931D01*
X8752891Y-16744931D02*
X8762415Y-16763979D01*
X8762415Y-16763979D02*
X8771939Y-16802074D01*
X8771939Y-16802074D02*
X8771939Y-16849693D01*
X8771939Y-16849693D02*
X8762415Y-16887789D01*
X8762415Y-16887789D02*
X8752891Y-16906836D01*
X8752891Y-16906836D02*
X8743367Y-16916360D01*
X8743367Y-16916360D02*
X8724320Y-16925884D01*
X8724320Y-16925884D02*
X8705272Y-16925884D01*
X8705272Y-16925884D02*
X8686224Y-16916360D01*
X8686224Y-16916360D02*
X8676701Y-16906836D01*
X8676701Y-16906836D02*
X8667177Y-16887789D01*
X8667177Y-16887789D02*
X8657653Y-16849693D01*
X8657653Y-16849693D02*
X8657653Y-16802074D01*
X8657653Y-16802074D02*
X8667177Y-16763979D01*
X8667177Y-16763979D02*
X8676701Y-16744931D01*
X8676701Y-16744931D02*
X8686224Y-16735408D01*
X8686224Y-16735408D02*
X8705272Y-16725884D01*
X8857653Y-16906836D02*
X8867177Y-16916360D01*
X8867177Y-16916360D02*
X8857653Y-16925884D01*
X8857653Y-16925884D02*
X8848129Y-16916360D01*
X8848129Y-16916360D02*
X8857653Y-16906836D01*
X8857653Y-16906836D02*
X8857653Y-16925884D01*
X8962415Y-16925884D02*
X9000510Y-16925884D01*
X9000510Y-16925884D02*
X9019558Y-16916360D01*
X9019558Y-16916360D02*
X9029082Y-16906836D01*
X9029082Y-16906836D02*
X9048129Y-16878265D01*
X9048129Y-16878265D02*
X9057653Y-16840170D01*
X9057653Y-16840170D02*
X9057653Y-16763979D01*
X9057653Y-16763979D02*
X9048129Y-16744931D01*
X9048129Y-16744931D02*
X9038605Y-16735408D01*
X9038605Y-16735408D02*
X9019558Y-16725884D01*
X9019558Y-16725884D02*
X8981463Y-16725884D01*
X8981463Y-16725884D02*
X8962415Y-16735408D01*
X8962415Y-16735408D02*
X8952891Y-16744931D01*
X8952891Y-16744931D02*
X8943367Y-16763979D01*
X8943367Y-16763979D02*
X8943367Y-16811598D01*
X8943367Y-16811598D02*
X8952891Y-16830646D01*
X8952891Y-16830646D02*
X8962415Y-16840170D01*
X8962415Y-16840170D02*
X8981463Y-16849693D01*
X8981463Y-16849693D02*
X9019558Y-16849693D01*
X9019558Y-16849693D02*
X9038605Y-16840170D01*
X9038605Y-16840170D02*
X9048129Y-16830646D01*
X9048129Y-16830646D02*
X9057653Y-16811598D01*
X9181463Y-16725884D02*
X9200510Y-16725884D01*
X9200510Y-16725884D02*
X9219558Y-16735408D01*
X9219558Y-16735408D02*
X9229082Y-16744931D01*
X9229082Y-16744931D02*
X9238605Y-16763979D01*
X9238605Y-16763979D02*
X9248129Y-16802074D01*
X9248129Y-16802074D02*
X9248129Y-16849693D01*
X9248129Y-16849693D02*
X9238605Y-16887789D01*
X9238605Y-16887789D02*
X9229082Y-16906836D01*
X9229082Y-16906836D02*
X9219558Y-16916360D01*
X9219558Y-16916360D02*
X9200510Y-16925884D01*
X9200510Y-16925884D02*
X9181463Y-16925884D01*
X9181463Y-16925884D02*
X9162415Y-16916360D01*
X9162415Y-16916360D02*
X9152891Y-16906836D01*
X9152891Y-16906836D02*
X9143367Y-16887789D01*
X9143367Y-16887789D02*
X9133844Y-16849693D01*
X9133844Y-16849693D02*
X9133844Y-16802074D01*
X9133844Y-16802074D02*
X9143367Y-16763979D01*
X9143367Y-16763979D02*
X9152891Y-16744931D01*
X9152891Y-16744931D02*
X9162415Y-16735408D01*
X9162415Y-16735408D02*
X9181463Y-16725884D01*
X9371939Y-16725884D02*
X9390986Y-16725884D01*
X9390986Y-16725884D02*
X9410034Y-16735408D01*
X9410034Y-16735408D02*
X9419558Y-16744931D01*
X9419558Y-16744931D02*
X9429082Y-16763979D01*
X9429082Y-16763979D02*
X9438605Y-16802074D01*
X9438605Y-16802074D02*
X9438605Y-16849693D01*
X9438605Y-16849693D02*
X9429082Y-16887789D01*
X9429082Y-16887789D02*
X9419558Y-16906836D01*
X9419558Y-16906836D02*
X9410034Y-16916360D01*
X9410034Y-16916360D02*
X9390986Y-16925884D01*
X9390986Y-16925884D02*
X9371939Y-16925884D01*
X9371939Y-16925884D02*
X9352891Y-16916360D01*
X9352891Y-16916360D02*
X9343367Y-16906836D01*
X9343367Y-16906836D02*
X9333844Y-16887789D01*
X9333844Y-16887789D02*
X9324320Y-16849693D01*
X9324320Y-16849693D02*
X9324320Y-16802074D01*
X9324320Y-16802074D02*
X9333844Y-16763979D01*
X9333844Y-16763979D02*
X9343367Y-16744931D01*
X9343367Y-16744931D02*
X9352891Y-16735408D01*
X9352891Y-16735408D02*
X9371939Y-16725884D01*
X9524320Y-16925884D02*
X9524320Y-16792550D01*
X9524320Y-16811598D02*
X9533844Y-16802074D01*
X9533844Y-16802074D02*
X9552891Y-16792550D01*
X9552891Y-16792550D02*
X9581463Y-16792550D01*
X9581463Y-16792550D02*
X9600510Y-16802074D01*
X9600510Y-16802074D02*
X9610034Y-16821122D01*
X9610034Y-16821122D02*
X9610034Y-16925884D01*
X9610034Y-16821122D02*
X9619558Y-16802074D01*
X9619558Y-16802074D02*
X9638605Y-16792550D01*
X9638605Y-16792550D02*
X9667177Y-16792550D01*
X9667177Y-16792550D02*
X9686225Y-16802074D01*
X9686225Y-16802074D02*
X9695748Y-16821122D01*
X9695748Y-16821122D02*
X9695748Y-16925884D01*
X9790986Y-16925884D02*
X9790986Y-16792550D01*
X9790986Y-16811598D02*
X9800510Y-16802074D01*
X9800510Y-16802074D02*
X9819558Y-16792550D01*
X9819558Y-16792550D02*
X9848129Y-16792550D01*
X9848129Y-16792550D02*
X9867177Y-16802074D01*
X9867177Y-16802074D02*
X9876701Y-16821122D01*
X9876701Y-16821122D02*
X9876701Y-16925884D01*
X9876701Y-16821122D02*
X9886225Y-16802074D01*
X9886225Y-16802074D02*
X9905272Y-16792550D01*
X9905272Y-16792550D02*
X9933844Y-16792550D01*
X9933844Y-16792550D02*
X9952891Y-16802074D01*
X9952891Y-16802074D02*
X9962415Y-16821122D01*
X9962415Y-16821122D02*
X9962415Y-16925884D01*
X10352891Y-16716360D02*
X10181463Y-16973503D01*
X10610034Y-16725884D02*
X10629082Y-16725884D01*
X10629082Y-16725884D02*
X10648129Y-16735408D01*
X10648129Y-16735408D02*
X10657653Y-16744931D01*
X10657653Y-16744931D02*
X10667177Y-16763979D01*
X10667177Y-16763979D02*
X10676701Y-16802074D01*
X10676701Y-16802074D02*
X10676701Y-16849693D01*
X10676701Y-16849693D02*
X10667177Y-16887789D01*
X10667177Y-16887789D02*
X10657653Y-16906836D01*
X10657653Y-16906836D02*
X10648129Y-16916360D01*
X10648129Y-16916360D02*
X10629082Y-16925884D01*
X10629082Y-16925884D02*
X10610034Y-16925884D01*
X10610034Y-16925884D02*
X10590987Y-16916360D01*
X10590987Y-16916360D02*
X10581463Y-16906836D01*
X10581463Y-16906836D02*
X10571939Y-16887789D01*
X10571939Y-16887789D02*
X10562415Y-16849693D01*
X10562415Y-16849693D02*
X10562415Y-16802074D01*
X10562415Y-16802074D02*
X10571939Y-16763979D01*
X10571939Y-16763979D02*
X10581463Y-16744931D01*
X10581463Y-16744931D02*
X10590987Y-16735408D01*
X10590987Y-16735408D02*
X10610034Y-16725884D01*
X10762415Y-16906836D02*
X10771939Y-16916360D01*
X10771939Y-16916360D02*
X10762415Y-16925884D01*
X10762415Y-16925884D02*
X10752891Y-16916360D01*
X10752891Y-16916360D02*
X10762415Y-16906836D01*
X10762415Y-16906836D02*
X10762415Y-16925884D01*
X10895748Y-16725884D02*
X10914796Y-16725884D01*
X10914796Y-16725884D02*
X10933844Y-16735408D01*
X10933844Y-16735408D02*
X10943368Y-16744931D01*
X10943368Y-16744931D02*
X10952891Y-16763979D01*
X10952891Y-16763979D02*
X10962415Y-16802074D01*
X10962415Y-16802074D02*
X10962415Y-16849693D01*
X10962415Y-16849693D02*
X10952891Y-16887789D01*
X10952891Y-16887789D02*
X10943368Y-16906836D01*
X10943368Y-16906836D02*
X10933844Y-16916360D01*
X10933844Y-16916360D02*
X10914796Y-16925884D01*
X10914796Y-16925884D02*
X10895748Y-16925884D01*
X10895748Y-16925884D02*
X10876701Y-16916360D01*
X10876701Y-16916360D02*
X10867177Y-16906836D01*
X10867177Y-16906836D02*
X10857653Y-16887789D01*
X10857653Y-16887789D02*
X10848129Y-16849693D01*
X10848129Y-16849693D02*
X10848129Y-16802074D01*
X10848129Y-16802074D02*
X10857653Y-16763979D01*
X10857653Y-16763979D02*
X10867177Y-16744931D01*
X10867177Y-16744931D02*
X10876701Y-16735408D01*
X10876701Y-16735408D02*
X10895748Y-16725884D01*
X11029082Y-16725884D02*
X11152891Y-16725884D01*
X11152891Y-16725884D02*
X11086225Y-16802074D01*
X11086225Y-16802074D02*
X11114796Y-16802074D01*
X11114796Y-16802074D02*
X11133844Y-16811598D01*
X11133844Y-16811598D02*
X11143368Y-16821122D01*
X11143368Y-16821122D02*
X11152891Y-16840170D01*
X11152891Y-16840170D02*
X11152891Y-16887789D01*
X11152891Y-16887789D02*
X11143368Y-16906836D01*
X11143368Y-16906836D02*
X11133844Y-16916360D01*
X11133844Y-16916360D02*
X11114796Y-16925884D01*
X11114796Y-16925884D02*
X11057653Y-16925884D01*
X11057653Y-16925884D02*
X11038606Y-16916360D01*
X11038606Y-16916360D02*
X11029082Y-16906836D01*
X11333844Y-16725884D02*
X11238606Y-16725884D01*
X11238606Y-16725884D02*
X11229082Y-16821122D01*
X11229082Y-16821122D02*
X11238606Y-16811598D01*
X11238606Y-16811598D02*
X11257653Y-16802074D01*
X11257653Y-16802074D02*
X11305272Y-16802074D01*
X11305272Y-16802074D02*
X11324320Y-16811598D01*
X11324320Y-16811598D02*
X11333844Y-16821122D01*
X11333844Y-16821122D02*
X11343367Y-16840170D01*
X11343367Y-16840170D02*
X11343367Y-16887789D01*
X11343367Y-16887789D02*
X11333844Y-16906836D01*
X11333844Y-16906836D02*
X11324320Y-16916360D01*
X11324320Y-16916360D02*
X11305272Y-16925884D01*
X11305272Y-16925884D02*
X11257653Y-16925884D01*
X11257653Y-16925884D02*
X11238606Y-16916360D01*
X11238606Y-16916360D02*
X11229082Y-16906836D01*
X11514796Y-16792550D02*
X11514796Y-16925884D01*
X11467177Y-16716360D02*
X11419558Y-16859217D01*
X11419558Y-16859217D02*
X11543367Y-16859217D01*
X11610034Y-16725884D02*
X11610034Y-16763979D01*
X11686225Y-16725884D02*
X11686225Y-16763979D01*
X11981463Y-17002074D02*
X11971939Y-16992550D01*
X11971939Y-16992550D02*
X11952891Y-16963979D01*
X11952891Y-16963979D02*
X11943368Y-16944931D01*
X11943368Y-16944931D02*
X11933844Y-16916360D01*
X11933844Y-16916360D02*
X11924320Y-16868741D01*
X11924320Y-16868741D02*
X11924320Y-16830646D01*
X11924320Y-16830646D02*
X11933844Y-16783027D01*
X11933844Y-16783027D02*
X11943368Y-16754455D01*
X11943368Y-16754455D02*
X11952891Y-16735408D01*
X11952891Y-16735408D02*
X11971939Y-16706836D01*
X11971939Y-16706836D02*
X11981463Y-16697312D01*
X12143368Y-16792550D02*
X12143368Y-16925884D01*
X12095748Y-16716360D02*
X12048129Y-16859217D01*
X12048129Y-16859217D02*
X12171939Y-16859217D01*
X12400510Y-16925884D02*
X12400510Y-16725884D01*
X12486225Y-16925884D02*
X12486225Y-16821122D01*
X12486225Y-16821122D02*
X12476701Y-16802074D01*
X12476701Y-16802074D02*
X12457653Y-16792550D01*
X12457653Y-16792550D02*
X12429082Y-16792550D01*
X12429082Y-16792550D02*
X12410034Y-16802074D01*
X12410034Y-16802074D02*
X12400510Y-16811598D01*
X12610034Y-16925884D02*
X12590987Y-16916360D01*
X12590987Y-16916360D02*
X12581463Y-16906836D01*
X12581463Y-16906836D02*
X12571939Y-16887789D01*
X12571939Y-16887789D02*
X12571939Y-16830646D01*
X12571939Y-16830646D02*
X12581463Y-16811598D01*
X12581463Y-16811598D02*
X12590987Y-16802074D01*
X12590987Y-16802074D02*
X12610034Y-16792550D01*
X12610034Y-16792550D02*
X12638606Y-16792550D01*
X12638606Y-16792550D02*
X12657653Y-16802074D01*
X12657653Y-16802074D02*
X12667177Y-16811598D01*
X12667177Y-16811598D02*
X12676701Y-16830646D01*
X12676701Y-16830646D02*
X12676701Y-16887789D01*
X12676701Y-16887789D02*
X12667177Y-16906836D01*
X12667177Y-16906836D02*
X12657653Y-16916360D01*
X12657653Y-16916360D02*
X12638606Y-16925884D01*
X12638606Y-16925884D02*
X12610034Y-16925884D01*
X12790987Y-16925884D02*
X12771939Y-16916360D01*
X12771939Y-16916360D02*
X12762415Y-16897312D01*
X12762415Y-16897312D02*
X12762415Y-16725884D01*
X12943368Y-16916360D02*
X12924320Y-16925884D01*
X12924320Y-16925884D02*
X12886225Y-16925884D01*
X12886225Y-16925884D02*
X12867177Y-16916360D01*
X12867177Y-16916360D02*
X12857653Y-16897312D01*
X12857653Y-16897312D02*
X12857653Y-16821122D01*
X12857653Y-16821122D02*
X12867177Y-16802074D01*
X12867177Y-16802074D02*
X12886225Y-16792550D01*
X12886225Y-16792550D02*
X12924320Y-16792550D01*
X12924320Y-16792550D02*
X12943368Y-16802074D01*
X12943368Y-16802074D02*
X12952891Y-16821122D01*
X12952891Y-16821122D02*
X12952891Y-16840170D01*
X12952891Y-16840170D02*
X12857653Y-16859217D01*
X13029082Y-16916360D02*
X13048130Y-16925884D01*
X13048130Y-16925884D02*
X13086225Y-16925884D01*
X13086225Y-16925884D02*
X13105272Y-16916360D01*
X13105272Y-16916360D02*
X13114796Y-16897312D01*
X13114796Y-16897312D02*
X13114796Y-16887789D01*
X13114796Y-16887789D02*
X13105272Y-16868741D01*
X13105272Y-16868741D02*
X13086225Y-16859217D01*
X13086225Y-16859217D02*
X13057653Y-16859217D01*
X13057653Y-16859217D02*
X13038606Y-16849693D01*
X13038606Y-16849693D02*
X13029082Y-16830646D01*
X13029082Y-16830646D02*
X13029082Y-16821122D01*
X13029082Y-16821122D02*
X13038606Y-16802074D01*
X13038606Y-16802074D02*
X13057653Y-16792550D01*
X13057653Y-16792550D02*
X13086225Y-16792550D01*
X13086225Y-16792550D02*
X13105272Y-16802074D01*
X13181463Y-17002074D02*
X13190987Y-16992550D01*
X13190987Y-16992550D02*
X13210034Y-16963979D01*
X13210034Y-16963979D02*
X13219558Y-16944931D01*
X13219558Y-16944931D02*
X13229082Y-16916360D01*
X13229082Y-16916360D02*
X13238606Y-16868741D01*
X13238606Y-16868741D02*
X13238606Y-16830646D01*
X13238606Y-16830646D02*
X13229082Y-16783027D01*
X13229082Y-16783027D02*
X13219558Y-16754455D01*
X13219558Y-16754455D02*
X13210034Y-16735408D01*
X13210034Y-16735408D02*
X13190987Y-16706836D01*
X13190987Y-16706836D02*
X13181463Y-16697312D01*
D12*
X8351400Y-17153400D02*
X8406400Y-17098400D01*
X8351400Y-17043400D01*
X8296400Y-17098400D01*
X8351400Y-17153400D01*
D10*
X8771939Y-17189884D02*
X8657653Y-17189884D01*
X8714796Y-17189884D02*
X8714796Y-16989884D01*
X8714796Y-16989884D02*
X8695748Y-17018455D01*
X8695748Y-17018455D02*
X8676701Y-17037503D01*
X8676701Y-17037503D02*
X8657653Y-17047027D01*
X8857653Y-17170836D02*
X8867177Y-17180360D01*
X8867177Y-17180360D02*
X8857653Y-17189884D01*
X8857653Y-17189884D02*
X8848129Y-17180360D01*
X8848129Y-17180360D02*
X8857653Y-17170836D01*
X8857653Y-17170836D02*
X8857653Y-17189884D01*
X9057653Y-17189884D02*
X8943367Y-17189884D01*
X9000510Y-17189884D02*
X9000510Y-16989884D01*
X9000510Y-16989884D02*
X8981463Y-17018455D01*
X8981463Y-17018455D02*
X8962415Y-17037503D01*
X8962415Y-17037503D02*
X8943367Y-17047027D01*
X9181463Y-16989884D02*
X9200510Y-16989884D01*
X9200510Y-16989884D02*
X9219558Y-16999408D01*
X9219558Y-16999408D02*
X9229082Y-17008931D01*
X9229082Y-17008931D02*
X9238605Y-17027979D01*
X9238605Y-17027979D02*
X9248129Y-17066074D01*
X9248129Y-17066074D02*
X9248129Y-17113693D01*
X9248129Y-17113693D02*
X9238605Y-17151789D01*
X9238605Y-17151789D02*
X9229082Y-17170836D01*
X9229082Y-17170836D02*
X9219558Y-17180360D01*
X9219558Y-17180360D02*
X9200510Y-17189884D01*
X9200510Y-17189884D02*
X9181463Y-17189884D01*
X9181463Y-17189884D02*
X9162415Y-17180360D01*
X9162415Y-17180360D02*
X9152891Y-17170836D01*
X9152891Y-17170836D02*
X9143367Y-17151789D01*
X9143367Y-17151789D02*
X9133844Y-17113693D01*
X9133844Y-17113693D02*
X9133844Y-17066074D01*
X9133844Y-17066074D02*
X9143367Y-17027979D01*
X9143367Y-17027979D02*
X9152891Y-17008931D01*
X9152891Y-17008931D02*
X9162415Y-16999408D01*
X9162415Y-16999408D02*
X9181463Y-16989884D01*
X9371939Y-16989884D02*
X9390986Y-16989884D01*
X9390986Y-16989884D02*
X9410034Y-16999408D01*
X9410034Y-16999408D02*
X9419558Y-17008931D01*
X9419558Y-17008931D02*
X9429082Y-17027979D01*
X9429082Y-17027979D02*
X9438605Y-17066074D01*
X9438605Y-17066074D02*
X9438605Y-17113693D01*
X9438605Y-17113693D02*
X9429082Y-17151789D01*
X9429082Y-17151789D02*
X9419558Y-17170836D01*
X9419558Y-17170836D02*
X9410034Y-17180360D01*
X9410034Y-17180360D02*
X9390986Y-17189884D01*
X9390986Y-17189884D02*
X9371939Y-17189884D01*
X9371939Y-17189884D02*
X9352891Y-17180360D01*
X9352891Y-17180360D02*
X9343367Y-17170836D01*
X9343367Y-17170836D02*
X9333844Y-17151789D01*
X9333844Y-17151789D02*
X9324320Y-17113693D01*
X9324320Y-17113693D02*
X9324320Y-17066074D01*
X9324320Y-17066074D02*
X9333844Y-17027979D01*
X9333844Y-17027979D02*
X9343367Y-17008931D01*
X9343367Y-17008931D02*
X9352891Y-16999408D01*
X9352891Y-16999408D02*
X9371939Y-16989884D01*
X9524320Y-17189884D02*
X9524320Y-17056550D01*
X9524320Y-17075598D02*
X9533844Y-17066074D01*
X9533844Y-17066074D02*
X9552891Y-17056550D01*
X9552891Y-17056550D02*
X9581463Y-17056550D01*
X9581463Y-17056550D02*
X9600510Y-17066074D01*
X9600510Y-17066074D02*
X9610034Y-17085122D01*
X9610034Y-17085122D02*
X9610034Y-17189884D01*
X9610034Y-17085122D02*
X9619558Y-17066074D01*
X9619558Y-17066074D02*
X9638605Y-17056550D01*
X9638605Y-17056550D02*
X9667177Y-17056550D01*
X9667177Y-17056550D02*
X9686225Y-17066074D01*
X9686225Y-17066074D02*
X9695748Y-17085122D01*
X9695748Y-17085122D02*
X9695748Y-17189884D01*
X9790986Y-17189884D02*
X9790986Y-17056550D01*
X9790986Y-17075598D02*
X9800510Y-17066074D01*
X9800510Y-17066074D02*
X9819558Y-17056550D01*
X9819558Y-17056550D02*
X9848129Y-17056550D01*
X9848129Y-17056550D02*
X9867177Y-17066074D01*
X9867177Y-17066074D02*
X9876701Y-17085122D01*
X9876701Y-17085122D02*
X9876701Y-17189884D01*
X9876701Y-17085122D02*
X9886225Y-17066074D01*
X9886225Y-17066074D02*
X9905272Y-17056550D01*
X9905272Y-17056550D02*
X9933844Y-17056550D01*
X9933844Y-17056550D02*
X9952891Y-17066074D01*
X9952891Y-17066074D02*
X9962415Y-17085122D01*
X9962415Y-17085122D02*
X9962415Y-17189884D01*
X10352891Y-16980360D02*
X10181463Y-17237503D01*
X10610034Y-16989884D02*
X10629082Y-16989884D01*
X10629082Y-16989884D02*
X10648129Y-16999408D01*
X10648129Y-16999408D02*
X10657653Y-17008931D01*
X10657653Y-17008931D02*
X10667177Y-17027979D01*
X10667177Y-17027979D02*
X10676701Y-17066074D01*
X10676701Y-17066074D02*
X10676701Y-17113693D01*
X10676701Y-17113693D02*
X10667177Y-17151789D01*
X10667177Y-17151789D02*
X10657653Y-17170836D01*
X10657653Y-17170836D02*
X10648129Y-17180360D01*
X10648129Y-17180360D02*
X10629082Y-17189884D01*
X10629082Y-17189884D02*
X10610034Y-17189884D01*
X10610034Y-17189884D02*
X10590987Y-17180360D01*
X10590987Y-17180360D02*
X10581463Y-17170836D01*
X10581463Y-17170836D02*
X10571939Y-17151789D01*
X10571939Y-17151789D02*
X10562415Y-17113693D01*
X10562415Y-17113693D02*
X10562415Y-17066074D01*
X10562415Y-17066074D02*
X10571939Y-17027979D01*
X10571939Y-17027979D02*
X10581463Y-17008931D01*
X10581463Y-17008931D02*
X10590987Y-16999408D01*
X10590987Y-16999408D02*
X10610034Y-16989884D01*
X10762415Y-17170836D02*
X10771939Y-17180360D01*
X10771939Y-17180360D02*
X10762415Y-17189884D01*
X10762415Y-17189884D02*
X10752891Y-17180360D01*
X10752891Y-17180360D02*
X10762415Y-17170836D01*
X10762415Y-17170836D02*
X10762415Y-17189884D01*
X10895748Y-16989884D02*
X10914796Y-16989884D01*
X10914796Y-16989884D02*
X10933844Y-16999408D01*
X10933844Y-16999408D02*
X10943368Y-17008931D01*
X10943368Y-17008931D02*
X10952891Y-17027979D01*
X10952891Y-17027979D02*
X10962415Y-17066074D01*
X10962415Y-17066074D02*
X10962415Y-17113693D01*
X10962415Y-17113693D02*
X10952891Y-17151789D01*
X10952891Y-17151789D02*
X10943368Y-17170836D01*
X10943368Y-17170836D02*
X10933844Y-17180360D01*
X10933844Y-17180360D02*
X10914796Y-17189884D01*
X10914796Y-17189884D02*
X10895748Y-17189884D01*
X10895748Y-17189884D02*
X10876701Y-17180360D01*
X10876701Y-17180360D02*
X10867177Y-17170836D01*
X10867177Y-17170836D02*
X10857653Y-17151789D01*
X10857653Y-17151789D02*
X10848129Y-17113693D01*
X10848129Y-17113693D02*
X10848129Y-17066074D01*
X10848129Y-17066074D02*
X10857653Y-17027979D01*
X10857653Y-17027979D02*
X10867177Y-17008931D01*
X10867177Y-17008931D02*
X10876701Y-16999408D01*
X10876701Y-16999408D02*
X10895748Y-16989884D01*
X11133844Y-17056550D02*
X11133844Y-17189884D01*
X11086225Y-16980360D02*
X11038606Y-17123217D01*
X11038606Y-17123217D02*
X11162415Y-17123217D01*
X11219558Y-16989884D02*
X11343367Y-16989884D01*
X11343367Y-16989884D02*
X11276701Y-17066074D01*
X11276701Y-17066074D02*
X11305272Y-17066074D01*
X11305272Y-17066074D02*
X11324320Y-17075598D01*
X11324320Y-17075598D02*
X11333844Y-17085122D01*
X11333844Y-17085122D02*
X11343367Y-17104170D01*
X11343367Y-17104170D02*
X11343367Y-17151789D01*
X11343367Y-17151789D02*
X11333844Y-17170836D01*
X11333844Y-17170836D02*
X11324320Y-17180360D01*
X11324320Y-17180360D02*
X11305272Y-17189884D01*
X11305272Y-17189884D02*
X11248129Y-17189884D01*
X11248129Y-17189884D02*
X11229082Y-17180360D01*
X11229082Y-17180360D02*
X11219558Y-17170836D01*
X11410034Y-16989884D02*
X11533844Y-16989884D01*
X11533844Y-16989884D02*
X11467177Y-17066074D01*
X11467177Y-17066074D02*
X11495748Y-17066074D01*
X11495748Y-17066074D02*
X11514796Y-17075598D01*
X11514796Y-17075598D02*
X11524320Y-17085122D01*
X11524320Y-17085122D02*
X11533844Y-17104170D01*
X11533844Y-17104170D02*
X11533844Y-17151789D01*
X11533844Y-17151789D02*
X11524320Y-17170836D01*
X11524320Y-17170836D02*
X11514796Y-17180360D01*
X11514796Y-17180360D02*
X11495748Y-17189884D01*
X11495748Y-17189884D02*
X11438606Y-17189884D01*
X11438606Y-17189884D02*
X11419558Y-17180360D01*
X11419558Y-17180360D02*
X11410034Y-17170836D01*
X11610034Y-16989884D02*
X11610034Y-17027979D01*
X11686225Y-16989884D02*
X11686225Y-17027979D01*
X11981463Y-17266074D02*
X11971939Y-17256550D01*
X11971939Y-17256550D02*
X11952891Y-17227979D01*
X11952891Y-17227979D02*
X11943368Y-17208931D01*
X11943368Y-17208931D02*
X11933844Y-17180360D01*
X11933844Y-17180360D02*
X11924320Y-17132741D01*
X11924320Y-17132741D02*
X11924320Y-17094646D01*
X11924320Y-17094646D02*
X11933844Y-17047027D01*
X11933844Y-17047027D02*
X11943368Y-17018455D01*
X11943368Y-17018455D02*
X11952891Y-16999408D01*
X11952891Y-16999408D02*
X11971939Y-16970836D01*
X11971939Y-16970836D02*
X11981463Y-16961312D01*
X12086225Y-17075598D02*
X12067177Y-17066074D01*
X12067177Y-17066074D02*
X12057653Y-17056550D01*
X12057653Y-17056550D02*
X12048129Y-17037503D01*
X12048129Y-17037503D02*
X12048129Y-17027979D01*
X12048129Y-17027979D02*
X12057653Y-17008931D01*
X12057653Y-17008931D02*
X12067177Y-16999408D01*
X12067177Y-16999408D02*
X12086225Y-16989884D01*
X12086225Y-16989884D02*
X12124320Y-16989884D01*
X12124320Y-16989884D02*
X12143368Y-16999408D01*
X12143368Y-16999408D02*
X12152891Y-17008931D01*
X12152891Y-17008931D02*
X12162415Y-17027979D01*
X12162415Y-17027979D02*
X12162415Y-17037503D01*
X12162415Y-17037503D02*
X12152891Y-17056550D01*
X12152891Y-17056550D02*
X12143368Y-17066074D01*
X12143368Y-17066074D02*
X12124320Y-17075598D01*
X12124320Y-17075598D02*
X12086225Y-17075598D01*
X12086225Y-17075598D02*
X12067177Y-17085122D01*
X12067177Y-17085122D02*
X12057653Y-17094646D01*
X12057653Y-17094646D02*
X12048129Y-17113693D01*
X12048129Y-17113693D02*
X12048129Y-17151789D01*
X12048129Y-17151789D02*
X12057653Y-17170836D01*
X12057653Y-17170836D02*
X12067177Y-17180360D01*
X12067177Y-17180360D02*
X12086225Y-17189884D01*
X12086225Y-17189884D02*
X12124320Y-17189884D01*
X12124320Y-17189884D02*
X12143368Y-17180360D01*
X12143368Y-17180360D02*
X12152891Y-17170836D01*
X12152891Y-17170836D02*
X12162415Y-17151789D01*
X12162415Y-17151789D02*
X12162415Y-17113693D01*
X12162415Y-17113693D02*
X12152891Y-17094646D01*
X12152891Y-17094646D02*
X12143368Y-17085122D01*
X12143368Y-17085122D02*
X12124320Y-17075598D01*
X12400510Y-17189884D02*
X12400510Y-16989884D01*
X12486225Y-17189884D02*
X12486225Y-17085122D01*
X12486225Y-17085122D02*
X12476701Y-17066074D01*
X12476701Y-17066074D02*
X12457653Y-17056550D01*
X12457653Y-17056550D02*
X12429082Y-17056550D01*
X12429082Y-17056550D02*
X12410034Y-17066074D01*
X12410034Y-17066074D02*
X12400510Y-17075598D01*
X12610034Y-17189884D02*
X12590987Y-17180360D01*
X12590987Y-17180360D02*
X12581463Y-17170836D01*
X12581463Y-17170836D02*
X12571939Y-17151789D01*
X12571939Y-17151789D02*
X12571939Y-17094646D01*
X12571939Y-17094646D02*
X12581463Y-17075598D01*
X12581463Y-17075598D02*
X12590987Y-17066074D01*
X12590987Y-17066074D02*
X12610034Y-17056550D01*
X12610034Y-17056550D02*
X12638606Y-17056550D01*
X12638606Y-17056550D02*
X12657653Y-17066074D01*
X12657653Y-17066074D02*
X12667177Y-17075598D01*
X12667177Y-17075598D02*
X12676701Y-17094646D01*
X12676701Y-17094646D02*
X12676701Y-17151789D01*
X12676701Y-17151789D02*
X12667177Y-17170836D01*
X12667177Y-17170836D02*
X12657653Y-17180360D01*
X12657653Y-17180360D02*
X12638606Y-17189884D01*
X12638606Y-17189884D02*
X12610034Y-17189884D01*
X12790987Y-17189884D02*
X12771939Y-17180360D01*
X12771939Y-17180360D02*
X12762415Y-17161312D01*
X12762415Y-17161312D02*
X12762415Y-16989884D01*
X12943368Y-17180360D02*
X12924320Y-17189884D01*
X12924320Y-17189884D02*
X12886225Y-17189884D01*
X12886225Y-17189884D02*
X12867177Y-17180360D01*
X12867177Y-17180360D02*
X12857653Y-17161312D01*
X12857653Y-17161312D02*
X12857653Y-17085122D01*
X12857653Y-17085122D02*
X12867177Y-17066074D01*
X12867177Y-17066074D02*
X12886225Y-17056550D01*
X12886225Y-17056550D02*
X12924320Y-17056550D01*
X12924320Y-17056550D02*
X12943368Y-17066074D01*
X12943368Y-17066074D02*
X12952891Y-17085122D01*
X12952891Y-17085122D02*
X12952891Y-17104170D01*
X12952891Y-17104170D02*
X12857653Y-17123217D01*
X13029082Y-17180360D02*
X13048130Y-17189884D01*
X13048130Y-17189884D02*
X13086225Y-17189884D01*
X13086225Y-17189884D02*
X13105272Y-17180360D01*
X13105272Y-17180360D02*
X13114796Y-17161312D01*
X13114796Y-17161312D02*
X13114796Y-17151789D01*
X13114796Y-17151789D02*
X13105272Y-17132741D01*
X13105272Y-17132741D02*
X13086225Y-17123217D01*
X13086225Y-17123217D02*
X13057653Y-17123217D01*
X13057653Y-17123217D02*
X13038606Y-17113693D01*
X13038606Y-17113693D02*
X13029082Y-17094646D01*
X13029082Y-17094646D02*
X13029082Y-17085122D01*
X13029082Y-17085122D02*
X13038606Y-17066074D01*
X13038606Y-17066074D02*
X13057653Y-17056550D01*
X13057653Y-17056550D02*
X13086225Y-17056550D01*
X13086225Y-17056550D02*
X13105272Y-17066074D01*
X13181463Y-17266074D02*
X13190987Y-17256550D01*
X13190987Y-17256550D02*
X13210034Y-17227979D01*
X13210034Y-17227979D02*
X13219558Y-17208931D01*
X13219558Y-17208931D02*
X13229082Y-17180360D01*
X13229082Y-17180360D02*
X13238606Y-17132741D01*
X13238606Y-17132741D02*
X13238606Y-17094646D01*
X13238606Y-17094646D02*
X13229082Y-17047027D01*
X13229082Y-17047027D02*
X13219558Y-17018455D01*
X13219558Y-17018455D02*
X13210034Y-16999408D01*
X13210034Y-16999408D02*
X13190987Y-16970836D01*
X13190987Y-16970836D02*
X13181463Y-16961312D01*
D13*
X8266700Y-17292550D02*
X8406400Y-17432250D01*
X8406400Y-17292550D02*
X8266700Y-17432250D01*
X8406400Y-17362400D02*
G75*
G02*
X8266700Y-17362400I-69850J0D01*
G01*
X8266700Y-17362400D02*
G75*
G02*
X8406400Y-17362400I69850J0D01*
G01*
D10*
X8771939Y-17453884D02*
X8657653Y-17453884D01*
X8714796Y-17453884D02*
X8714796Y-17253884D01*
X8714796Y-17253884D02*
X8695748Y-17282455D01*
X8695748Y-17282455D02*
X8676701Y-17301503D01*
X8676701Y-17301503D02*
X8657653Y-17311027D01*
X8857653Y-17434836D02*
X8867177Y-17444360D01*
X8867177Y-17444360D02*
X8857653Y-17453884D01*
X8857653Y-17453884D02*
X8848129Y-17444360D01*
X8848129Y-17444360D02*
X8857653Y-17434836D01*
X8857653Y-17434836D02*
X8857653Y-17453884D01*
X8933844Y-17253884D02*
X9057653Y-17253884D01*
X9057653Y-17253884D02*
X8990986Y-17330074D01*
X8990986Y-17330074D02*
X9019558Y-17330074D01*
X9019558Y-17330074D02*
X9038605Y-17339598D01*
X9038605Y-17339598D02*
X9048129Y-17349122D01*
X9048129Y-17349122D02*
X9057653Y-17368170D01*
X9057653Y-17368170D02*
X9057653Y-17415789D01*
X9057653Y-17415789D02*
X9048129Y-17434836D01*
X9048129Y-17434836D02*
X9038605Y-17444360D01*
X9038605Y-17444360D02*
X9019558Y-17453884D01*
X9019558Y-17453884D02*
X8962415Y-17453884D01*
X8962415Y-17453884D02*
X8943367Y-17444360D01*
X8943367Y-17444360D02*
X8933844Y-17434836D01*
X9152891Y-17453884D02*
X9190986Y-17453884D01*
X9190986Y-17453884D02*
X9210034Y-17444360D01*
X9210034Y-17444360D02*
X9219558Y-17434836D01*
X9219558Y-17434836D02*
X9238605Y-17406265D01*
X9238605Y-17406265D02*
X9248129Y-17368170D01*
X9248129Y-17368170D02*
X9248129Y-17291979D01*
X9248129Y-17291979D02*
X9238605Y-17272931D01*
X9238605Y-17272931D02*
X9229082Y-17263408D01*
X9229082Y-17263408D02*
X9210034Y-17253884D01*
X9210034Y-17253884D02*
X9171939Y-17253884D01*
X9171939Y-17253884D02*
X9152891Y-17263408D01*
X9152891Y-17263408D02*
X9143367Y-17272931D01*
X9143367Y-17272931D02*
X9133844Y-17291979D01*
X9133844Y-17291979D02*
X9133844Y-17339598D01*
X9133844Y-17339598D02*
X9143367Y-17358646D01*
X9143367Y-17358646D02*
X9152891Y-17368170D01*
X9152891Y-17368170D02*
X9171939Y-17377693D01*
X9171939Y-17377693D02*
X9210034Y-17377693D01*
X9210034Y-17377693D02*
X9229082Y-17368170D01*
X9229082Y-17368170D02*
X9238605Y-17358646D01*
X9238605Y-17358646D02*
X9248129Y-17339598D01*
X9314796Y-17253884D02*
X9448129Y-17253884D01*
X9448129Y-17253884D02*
X9362415Y-17453884D01*
X9524320Y-17453884D02*
X9524320Y-17320550D01*
X9524320Y-17339598D02*
X9533844Y-17330074D01*
X9533844Y-17330074D02*
X9552891Y-17320550D01*
X9552891Y-17320550D02*
X9581463Y-17320550D01*
X9581463Y-17320550D02*
X9600510Y-17330074D01*
X9600510Y-17330074D02*
X9610034Y-17349122D01*
X9610034Y-17349122D02*
X9610034Y-17453884D01*
X9610034Y-17349122D02*
X9619558Y-17330074D01*
X9619558Y-17330074D02*
X9638605Y-17320550D01*
X9638605Y-17320550D02*
X9667177Y-17320550D01*
X9667177Y-17320550D02*
X9686225Y-17330074D01*
X9686225Y-17330074D02*
X9695748Y-17349122D01*
X9695748Y-17349122D02*
X9695748Y-17453884D01*
X9790986Y-17453884D02*
X9790986Y-17320550D01*
X9790986Y-17339598D02*
X9800510Y-17330074D01*
X9800510Y-17330074D02*
X9819558Y-17320550D01*
X9819558Y-17320550D02*
X9848129Y-17320550D01*
X9848129Y-17320550D02*
X9867177Y-17330074D01*
X9867177Y-17330074D02*
X9876701Y-17349122D01*
X9876701Y-17349122D02*
X9876701Y-17453884D01*
X9876701Y-17349122D02*
X9886225Y-17330074D01*
X9886225Y-17330074D02*
X9905272Y-17320550D01*
X9905272Y-17320550D02*
X9933844Y-17320550D01*
X9933844Y-17320550D02*
X9952891Y-17330074D01*
X9952891Y-17330074D02*
X9962415Y-17349122D01*
X9962415Y-17349122D02*
X9962415Y-17453884D01*
X10352891Y-17244360D02*
X10181463Y-17501503D01*
X10610034Y-17253884D02*
X10629082Y-17253884D01*
X10629082Y-17253884D02*
X10648129Y-17263408D01*
X10648129Y-17263408D02*
X10657653Y-17272931D01*
X10657653Y-17272931D02*
X10667177Y-17291979D01*
X10667177Y-17291979D02*
X10676701Y-17330074D01*
X10676701Y-17330074D02*
X10676701Y-17377693D01*
X10676701Y-17377693D02*
X10667177Y-17415789D01*
X10667177Y-17415789D02*
X10657653Y-17434836D01*
X10657653Y-17434836D02*
X10648129Y-17444360D01*
X10648129Y-17444360D02*
X10629082Y-17453884D01*
X10629082Y-17453884D02*
X10610034Y-17453884D01*
X10610034Y-17453884D02*
X10590987Y-17444360D01*
X10590987Y-17444360D02*
X10581463Y-17434836D01*
X10581463Y-17434836D02*
X10571939Y-17415789D01*
X10571939Y-17415789D02*
X10562415Y-17377693D01*
X10562415Y-17377693D02*
X10562415Y-17330074D01*
X10562415Y-17330074D02*
X10571939Y-17291979D01*
X10571939Y-17291979D02*
X10581463Y-17272931D01*
X10581463Y-17272931D02*
X10590987Y-17263408D01*
X10590987Y-17263408D02*
X10610034Y-17253884D01*
X10762415Y-17434836D02*
X10771939Y-17444360D01*
X10771939Y-17444360D02*
X10762415Y-17453884D01*
X10762415Y-17453884D02*
X10752891Y-17444360D01*
X10752891Y-17444360D02*
X10762415Y-17434836D01*
X10762415Y-17434836D02*
X10762415Y-17453884D01*
X10895748Y-17253884D02*
X10914796Y-17253884D01*
X10914796Y-17253884D02*
X10933844Y-17263408D01*
X10933844Y-17263408D02*
X10943368Y-17272931D01*
X10943368Y-17272931D02*
X10952891Y-17291979D01*
X10952891Y-17291979D02*
X10962415Y-17330074D01*
X10962415Y-17330074D02*
X10962415Y-17377693D01*
X10962415Y-17377693D02*
X10952891Y-17415789D01*
X10952891Y-17415789D02*
X10943368Y-17434836D01*
X10943368Y-17434836D02*
X10933844Y-17444360D01*
X10933844Y-17444360D02*
X10914796Y-17453884D01*
X10914796Y-17453884D02*
X10895748Y-17453884D01*
X10895748Y-17453884D02*
X10876701Y-17444360D01*
X10876701Y-17444360D02*
X10867177Y-17434836D01*
X10867177Y-17434836D02*
X10857653Y-17415789D01*
X10857653Y-17415789D02*
X10848129Y-17377693D01*
X10848129Y-17377693D02*
X10848129Y-17330074D01*
X10848129Y-17330074D02*
X10857653Y-17291979D01*
X10857653Y-17291979D02*
X10867177Y-17272931D01*
X10867177Y-17272931D02*
X10876701Y-17263408D01*
X10876701Y-17263408D02*
X10895748Y-17253884D01*
X11143368Y-17253884D02*
X11048129Y-17253884D01*
X11048129Y-17253884D02*
X11038606Y-17349122D01*
X11038606Y-17349122D02*
X11048129Y-17339598D01*
X11048129Y-17339598D02*
X11067177Y-17330074D01*
X11067177Y-17330074D02*
X11114796Y-17330074D01*
X11114796Y-17330074D02*
X11133844Y-17339598D01*
X11133844Y-17339598D02*
X11143368Y-17349122D01*
X11143368Y-17349122D02*
X11152891Y-17368170D01*
X11152891Y-17368170D02*
X11152891Y-17415789D01*
X11152891Y-17415789D02*
X11143368Y-17434836D01*
X11143368Y-17434836D02*
X11133844Y-17444360D01*
X11133844Y-17444360D02*
X11114796Y-17453884D01*
X11114796Y-17453884D02*
X11067177Y-17453884D01*
X11067177Y-17453884D02*
X11048129Y-17444360D01*
X11048129Y-17444360D02*
X11038606Y-17434836D01*
X11333844Y-17253884D02*
X11238606Y-17253884D01*
X11238606Y-17253884D02*
X11229082Y-17349122D01*
X11229082Y-17349122D02*
X11238606Y-17339598D01*
X11238606Y-17339598D02*
X11257653Y-17330074D01*
X11257653Y-17330074D02*
X11305272Y-17330074D01*
X11305272Y-17330074D02*
X11324320Y-17339598D01*
X11324320Y-17339598D02*
X11333844Y-17349122D01*
X11333844Y-17349122D02*
X11343367Y-17368170D01*
X11343367Y-17368170D02*
X11343367Y-17415789D01*
X11343367Y-17415789D02*
X11333844Y-17434836D01*
X11333844Y-17434836D02*
X11324320Y-17444360D01*
X11324320Y-17444360D02*
X11305272Y-17453884D01*
X11305272Y-17453884D02*
X11257653Y-17453884D01*
X11257653Y-17453884D02*
X11238606Y-17444360D01*
X11238606Y-17444360D02*
X11229082Y-17434836D01*
X11467177Y-17253884D02*
X11486225Y-17253884D01*
X11486225Y-17253884D02*
X11505272Y-17263408D01*
X11505272Y-17263408D02*
X11514796Y-17272931D01*
X11514796Y-17272931D02*
X11524320Y-17291979D01*
X11524320Y-17291979D02*
X11533844Y-17330074D01*
X11533844Y-17330074D02*
X11533844Y-17377693D01*
X11533844Y-17377693D02*
X11524320Y-17415789D01*
X11524320Y-17415789D02*
X11514796Y-17434836D01*
X11514796Y-17434836D02*
X11505272Y-17444360D01*
X11505272Y-17444360D02*
X11486225Y-17453884D01*
X11486225Y-17453884D02*
X11467177Y-17453884D01*
X11467177Y-17453884D02*
X11448129Y-17444360D01*
X11448129Y-17444360D02*
X11438606Y-17434836D01*
X11438606Y-17434836D02*
X11429082Y-17415789D01*
X11429082Y-17415789D02*
X11419558Y-17377693D01*
X11419558Y-17377693D02*
X11419558Y-17330074D01*
X11419558Y-17330074D02*
X11429082Y-17291979D01*
X11429082Y-17291979D02*
X11438606Y-17272931D01*
X11438606Y-17272931D02*
X11448129Y-17263408D01*
X11448129Y-17263408D02*
X11467177Y-17253884D01*
X11610034Y-17253884D02*
X11610034Y-17291979D01*
X11686225Y-17253884D02*
X11686225Y-17291979D01*
X11981463Y-17530074D02*
X11971939Y-17520550D01*
X11971939Y-17520550D02*
X11952891Y-17491979D01*
X11952891Y-17491979D02*
X11943368Y-17472931D01*
X11943368Y-17472931D02*
X11933844Y-17444360D01*
X11933844Y-17444360D02*
X11924320Y-17396741D01*
X11924320Y-17396741D02*
X11924320Y-17358646D01*
X11924320Y-17358646D02*
X11933844Y-17311027D01*
X11933844Y-17311027D02*
X11943368Y-17282455D01*
X11943368Y-17282455D02*
X11952891Y-17263408D01*
X11952891Y-17263408D02*
X11971939Y-17234836D01*
X11971939Y-17234836D02*
X11981463Y-17225312D01*
X12143368Y-17320550D02*
X12143368Y-17453884D01*
X12095748Y-17244360D02*
X12048129Y-17387217D01*
X12048129Y-17387217D02*
X12171939Y-17387217D01*
X12400510Y-17453884D02*
X12400510Y-17253884D01*
X12486225Y-17453884D02*
X12486225Y-17349122D01*
X12486225Y-17349122D02*
X12476701Y-17330074D01*
X12476701Y-17330074D02*
X12457653Y-17320550D01*
X12457653Y-17320550D02*
X12429082Y-17320550D01*
X12429082Y-17320550D02*
X12410034Y-17330074D01*
X12410034Y-17330074D02*
X12400510Y-17339598D01*
X12610034Y-17453884D02*
X12590987Y-17444360D01*
X12590987Y-17444360D02*
X12581463Y-17434836D01*
X12581463Y-17434836D02*
X12571939Y-17415789D01*
X12571939Y-17415789D02*
X12571939Y-17358646D01*
X12571939Y-17358646D02*
X12581463Y-17339598D01*
X12581463Y-17339598D02*
X12590987Y-17330074D01*
X12590987Y-17330074D02*
X12610034Y-17320550D01*
X12610034Y-17320550D02*
X12638606Y-17320550D01*
X12638606Y-17320550D02*
X12657653Y-17330074D01*
X12657653Y-17330074D02*
X12667177Y-17339598D01*
X12667177Y-17339598D02*
X12676701Y-17358646D01*
X12676701Y-17358646D02*
X12676701Y-17415789D01*
X12676701Y-17415789D02*
X12667177Y-17434836D01*
X12667177Y-17434836D02*
X12657653Y-17444360D01*
X12657653Y-17444360D02*
X12638606Y-17453884D01*
X12638606Y-17453884D02*
X12610034Y-17453884D01*
X12790987Y-17453884D02*
X12771939Y-17444360D01*
X12771939Y-17444360D02*
X12762415Y-17425312D01*
X12762415Y-17425312D02*
X12762415Y-17253884D01*
X12943368Y-17444360D02*
X12924320Y-17453884D01*
X12924320Y-17453884D02*
X12886225Y-17453884D01*
X12886225Y-17453884D02*
X12867177Y-17444360D01*
X12867177Y-17444360D02*
X12857653Y-17425312D01*
X12857653Y-17425312D02*
X12857653Y-17349122D01*
X12857653Y-17349122D02*
X12867177Y-17330074D01*
X12867177Y-17330074D02*
X12886225Y-17320550D01*
X12886225Y-17320550D02*
X12924320Y-17320550D01*
X12924320Y-17320550D02*
X12943368Y-17330074D01*
X12943368Y-17330074D02*
X12952891Y-17349122D01*
X12952891Y-17349122D02*
X12952891Y-17368170D01*
X12952891Y-17368170D02*
X12857653Y-17387217D01*
X13029082Y-17444360D02*
X13048130Y-17453884D01*
X13048130Y-17453884D02*
X13086225Y-17453884D01*
X13086225Y-17453884D02*
X13105272Y-17444360D01*
X13105272Y-17444360D02*
X13114796Y-17425312D01*
X13114796Y-17425312D02*
X13114796Y-17415789D01*
X13114796Y-17415789D02*
X13105272Y-17396741D01*
X13105272Y-17396741D02*
X13086225Y-17387217D01*
X13086225Y-17387217D02*
X13057653Y-17387217D01*
X13057653Y-17387217D02*
X13038606Y-17377693D01*
X13038606Y-17377693D02*
X13029082Y-17358646D01*
X13029082Y-17358646D02*
X13029082Y-17349122D01*
X13029082Y-17349122D02*
X13038606Y-17330074D01*
X13038606Y-17330074D02*
X13057653Y-17320550D01*
X13057653Y-17320550D02*
X13086225Y-17320550D01*
X13086225Y-17320550D02*
X13105272Y-17330074D01*
X13181463Y-17530074D02*
X13190987Y-17520550D01*
X13190987Y-17520550D02*
X13210034Y-17491979D01*
X13210034Y-17491979D02*
X13219558Y-17472931D01*
X13219558Y-17472931D02*
X13229082Y-17444360D01*
X13229082Y-17444360D02*
X13238606Y-17396741D01*
X13238606Y-17396741D02*
X13238606Y-17358646D01*
X13238606Y-17358646D02*
X13229082Y-17311027D01*
X13229082Y-17311027D02*
X13219558Y-17282455D01*
X13219558Y-17282455D02*
X13210034Y-17263408D01*
X13210034Y-17263408D02*
X13190987Y-17234836D01*
X13190987Y-17234836D02*
X13181463Y-17225312D01*
D14*
X8256400Y-17551400D02*
X8406400Y-17701400D01*
X8406400Y-17551400D02*
X8256400Y-17701400D01*
X8331400Y-17551400D02*
X8331400Y-17701400D01*
X8256400Y-17626400D02*
X8406400Y-17626400D01*
D10*
X8771939Y-17717884D02*
X8657653Y-17717884D01*
X8714796Y-17717884D02*
X8714796Y-17517884D01*
X8714796Y-17517884D02*
X8695748Y-17546455D01*
X8695748Y-17546455D02*
X8676701Y-17565503D01*
X8676701Y-17565503D02*
X8657653Y-17575027D01*
X8857653Y-17698836D02*
X8867177Y-17708360D01*
X8867177Y-17708360D02*
X8857653Y-17717884D01*
X8857653Y-17717884D02*
X8848129Y-17708360D01*
X8848129Y-17708360D02*
X8857653Y-17698836D01*
X8857653Y-17698836D02*
X8857653Y-17717884D01*
X9048129Y-17517884D02*
X8952891Y-17517884D01*
X8952891Y-17517884D02*
X8943367Y-17613122D01*
X8943367Y-17613122D02*
X8952891Y-17603598D01*
X8952891Y-17603598D02*
X8971939Y-17594074D01*
X8971939Y-17594074D02*
X9019558Y-17594074D01*
X9019558Y-17594074D02*
X9038605Y-17603598D01*
X9038605Y-17603598D02*
X9048129Y-17613122D01*
X9048129Y-17613122D02*
X9057653Y-17632170D01*
X9057653Y-17632170D02*
X9057653Y-17679789D01*
X9057653Y-17679789D02*
X9048129Y-17698836D01*
X9048129Y-17698836D02*
X9038605Y-17708360D01*
X9038605Y-17708360D02*
X9019558Y-17717884D01*
X9019558Y-17717884D02*
X8971939Y-17717884D01*
X8971939Y-17717884D02*
X8952891Y-17708360D01*
X8952891Y-17708360D02*
X8943367Y-17698836D01*
X9181463Y-17517884D02*
X9200510Y-17517884D01*
X9200510Y-17517884D02*
X9219558Y-17527408D01*
X9219558Y-17527408D02*
X9229082Y-17536931D01*
X9229082Y-17536931D02*
X9238605Y-17555979D01*
X9238605Y-17555979D02*
X9248129Y-17594074D01*
X9248129Y-17594074D02*
X9248129Y-17641693D01*
X9248129Y-17641693D02*
X9238605Y-17679789D01*
X9238605Y-17679789D02*
X9229082Y-17698836D01*
X9229082Y-17698836D02*
X9219558Y-17708360D01*
X9219558Y-17708360D02*
X9200510Y-17717884D01*
X9200510Y-17717884D02*
X9181463Y-17717884D01*
X9181463Y-17717884D02*
X9162415Y-17708360D01*
X9162415Y-17708360D02*
X9152891Y-17698836D01*
X9152891Y-17698836D02*
X9143367Y-17679789D01*
X9143367Y-17679789D02*
X9133844Y-17641693D01*
X9133844Y-17641693D02*
X9133844Y-17594074D01*
X9133844Y-17594074D02*
X9143367Y-17555979D01*
X9143367Y-17555979D02*
X9152891Y-17536931D01*
X9152891Y-17536931D02*
X9162415Y-17527408D01*
X9162415Y-17527408D02*
X9181463Y-17517884D01*
X9371939Y-17517884D02*
X9390986Y-17517884D01*
X9390986Y-17517884D02*
X9410034Y-17527408D01*
X9410034Y-17527408D02*
X9419558Y-17536931D01*
X9419558Y-17536931D02*
X9429082Y-17555979D01*
X9429082Y-17555979D02*
X9438605Y-17594074D01*
X9438605Y-17594074D02*
X9438605Y-17641693D01*
X9438605Y-17641693D02*
X9429082Y-17679789D01*
X9429082Y-17679789D02*
X9419558Y-17698836D01*
X9419558Y-17698836D02*
X9410034Y-17708360D01*
X9410034Y-17708360D02*
X9390986Y-17717884D01*
X9390986Y-17717884D02*
X9371939Y-17717884D01*
X9371939Y-17717884D02*
X9352891Y-17708360D01*
X9352891Y-17708360D02*
X9343367Y-17698836D01*
X9343367Y-17698836D02*
X9333844Y-17679789D01*
X9333844Y-17679789D02*
X9324320Y-17641693D01*
X9324320Y-17641693D02*
X9324320Y-17594074D01*
X9324320Y-17594074D02*
X9333844Y-17555979D01*
X9333844Y-17555979D02*
X9343367Y-17536931D01*
X9343367Y-17536931D02*
X9352891Y-17527408D01*
X9352891Y-17527408D02*
X9371939Y-17517884D01*
X9524320Y-17717884D02*
X9524320Y-17584550D01*
X9524320Y-17603598D02*
X9533844Y-17594074D01*
X9533844Y-17594074D02*
X9552891Y-17584550D01*
X9552891Y-17584550D02*
X9581463Y-17584550D01*
X9581463Y-17584550D02*
X9600510Y-17594074D01*
X9600510Y-17594074D02*
X9610034Y-17613122D01*
X9610034Y-17613122D02*
X9610034Y-17717884D01*
X9610034Y-17613122D02*
X9619558Y-17594074D01*
X9619558Y-17594074D02*
X9638605Y-17584550D01*
X9638605Y-17584550D02*
X9667177Y-17584550D01*
X9667177Y-17584550D02*
X9686225Y-17594074D01*
X9686225Y-17594074D02*
X9695748Y-17613122D01*
X9695748Y-17613122D02*
X9695748Y-17717884D01*
X9790986Y-17717884D02*
X9790986Y-17584550D01*
X9790986Y-17603598D02*
X9800510Y-17594074D01*
X9800510Y-17594074D02*
X9819558Y-17584550D01*
X9819558Y-17584550D02*
X9848129Y-17584550D01*
X9848129Y-17584550D02*
X9867177Y-17594074D01*
X9867177Y-17594074D02*
X9876701Y-17613122D01*
X9876701Y-17613122D02*
X9876701Y-17717884D01*
X9876701Y-17613122D02*
X9886225Y-17594074D01*
X9886225Y-17594074D02*
X9905272Y-17584550D01*
X9905272Y-17584550D02*
X9933844Y-17584550D01*
X9933844Y-17584550D02*
X9952891Y-17594074D01*
X9952891Y-17594074D02*
X9962415Y-17613122D01*
X9962415Y-17613122D02*
X9962415Y-17717884D01*
X10352891Y-17508360D02*
X10181463Y-17765503D01*
X10610034Y-17517884D02*
X10629082Y-17517884D01*
X10629082Y-17517884D02*
X10648129Y-17527408D01*
X10648129Y-17527408D02*
X10657653Y-17536931D01*
X10657653Y-17536931D02*
X10667177Y-17555979D01*
X10667177Y-17555979D02*
X10676701Y-17594074D01*
X10676701Y-17594074D02*
X10676701Y-17641693D01*
X10676701Y-17641693D02*
X10667177Y-17679789D01*
X10667177Y-17679789D02*
X10657653Y-17698836D01*
X10657653Y-17698836D02*
X10648129Y-17708360D01*
X10648129Y-17708360D02*
X10629082Y-17717884D01*
X10629082Y-17717884D02*
X10610034Y-17717884D01*
X10610034Y-17717884D02*
X10590987Y-17708360D01*
X10590987Y-17708360D02*
X10581463Y-17698836D01*
X10581463Y-17698836D02*
X10571939Y-17679789D01*
X10571939Y-17679789D02*
X10562415Y-17641693D01*
X10562415Y-17641693D02*
X10562415Y-17594074D01*
X10562415Y-17594074D02*
X10571939Y-17555979D01*
X10571939Y-17555979D02*
X10581463Y-17536931D01*
X10581463Y-17536931D02*
X10590987Y-17527408D01*
X10590987Y-17527408D02*
X10610034Y-17517884D01*
X10762415Y-17698836D02*
X10771939Y-17708360D01*
X10771939Y-17708360D02*
X10762415Y-17717884D01*
X10762415Y-17717884D02*
X10752891Y-17708360D01*
X10752891Y-17708360D02*
X10762415Y-17698836D01*
X10762415Y-17698836D02*
X10762415Y-17717884D01*
X10895748Y-17517884D02*
X10914796Y-17517884D01*
X10914796Y-17517884D02*
X10933844Y-17527408D01*
X10933844Y-17527408D02*
X10943368Y-17536931D01*
X10943368Y-17536931D02*
X10952891Y-17555979D01*
X10952891Y-17555979D02*
X10962415Y-17594074D01*
X10962415Y-17594074D02*
X10962415Y-17641693D01*
X10962415Y-17641693D02*
X10952891Y-17679789D01*
X10952891Y-17679789D02*
X10943368Y-17698836D01*
X10943368Y-17698836D02*
X10933844Y-17708360D01*
X10933844Y-17708360D02*
X10914796Y-17717884D01*
X10914796Y-17717884D02*
X10895748Y-17717884D01*
X10895748Y-17717884D02*
X10876701Y-17708360D01*
X10876701Y-17708360D02*
X10867177Y-17698836D01*
X10867177Y-17698836D02*
X10857653Y-17679789D01*
X10857653Y-17679789D02*
X10848129Y-17641693D01*
X10848129Y-17641693D02*
X10848129Y-17594074D01*
X10848129Y-17594074D02*
X10857653Y-17555979D01*
X10857653Y-17555979D02*
X10867177Y-17536931D01*
X10867177Y-17536931D02*
X10876701Y-17527408D01*
X10876701Y-17527408D02*
X10895748Y-17517884D01*
X11143368Y-17517884D02*
X11048129Y-17517884D01*
X11048129Y-17517884D02*
X11038606Y-17613122D01*
X11038606Y-17613122D02*
X11048129Y-17603598D01*
X11048129Y-17603598D02*
X11067177Y-17594074D01*
X11067177Y-17594074D02*
X11114796Y-17594074D01*
X11114796Y-17594074D02*
X11133844Y-17603598D01*
X11133844Y-17603598D02*
X11143368Y-17613122D01*
X11143368Y-17613122D02*
X11152891Y-17632170D01*
X11152891Y-17632170D02*
X11152891Y-17679789D01*
X11152891Y-17679789D02*
X11143368Y-17698836D01*
X11143368Y-17698836D02*
X11133844Y-17708360D01*
X11133844Y-17708360D02*
X11114796Y-17717884D01*
X11114796Y-17717884D02*
X11067177Y-17717884D01*
X11067177Y-17717884D02*
X11048129Y-17708360D01*
X11048129Y-17708360D02*
X11038606Y-17698836D01*
X11248129Y-17717884D02*
X11286225Y-17717884D01*
X11286225Y-17717884D02*
X11305272Y-17708360D01*
X11305272Y-17708360D02*
X11314796Y-17698836D01*
X11314796Y-17698836D02*
X11333844Y-17670265D01*
X11333844Y-17670265D02*
X11343367Y-17632170D01*
X11343367Y-17632170D02*
X11343367Y-17555979D01*
X11343367Y-17555979D02*
X11333844Y-17536931D01*
X11333844Y-17536931D02*
X11324320Y-17527408D01*
X11324320Y-17527408D02*
X11305272Y-17517884D01*
X11305272Y-17517884D02*
X11267177Y-17517884D01*
X11267177Y-17517884D02*
X11248129Y-17527408D01*
X11248129Y-17527408D02*
X11238606Y-17536931D01*
X11238606Y-17536931D02*
X11229082Y-17555979D01*
X11229082Y-17555979D02*
X11229082Y-17603598D01*
X11229082Y-17603598D02*
X11238606Y-17622646D01*
X11238606Y-17622646D02*
X11248129Y-17632170D01*
X11248129Y-17632170D02*
X11267177Y-17641693D01*
X11267177Y-17641693D02*
X11305272Y-17641693D01*
X11305272Y-17641693D02*
X11324320Y-17632170D01*
X11324320Y-17632170D02*
X11333844Y-17622646D01*
X11333844Y-17622646D02*
X11343367Y-17603598D01*
X11533844Y-17717884D02*
X11419558Y-17717884D01*
X11476701Y-17717884D02*
X11476701Y-17517884D01*
X11476701Y-17517884D02*
X11457653Y-17546455D01*
X11457653Y-17546455D02*
X11438606Y-17565503D01*
X11438606Y-17565503D02*
X11419558Y-17575027D01*
X11610034Y-17517884D02*
X11610034Y-17555979D01*
X11686225Y-17517884D02*
X11686225Y-17555979D01*
X11981463Y-17794074D02*
X11971939Y-17784550D01*
X11971939Y-17784550D02*
X11952891Y-17755979D01*
X11952891Y-17755979D02*
X11943368Y-17736931D01*
X11943368Y-17736931D02*
X11933844Y-17708360D01*
X11933844Y-17708360D02*
X11924320Y-17660741D01*
X11924320Y-17660741D02*
X11924320Y-17622646D01*
X11924320Y-17622646D02*
X11933844Y-17575027D01*
X11933844Y-17575027D02*
X11943368Y-17546455D01*
X11943368Y-17546455D02*
X11952891Y-17527408D01*
X11952891Y-17527408D02*
X11971939Y-17498836D01*
X11971939Y-17498836D02*
X11981463Y-17489312D01*
X12086225Y-17603598D02*
X12067177Y-17594074D01*
X12067177Y-17594074D02*
X12057653Y-17584550D01*
X12057653Y-17584550D02*
X12048129Y-17565503D01*
X12048129Y-17565503D02*
X12048129Y-17555979D01*
X12048129Y-17555979D02*
X12057653Y-17536931D01*
X12057653Y-17536931D02*
X12067177Y-17527408D01*
X12067177Y-17527408D02*
X12086225Y-17517884D01*
X12086225Y-17517884D02*
X12124320Y-17517884D01*
X12124320Y-17517884D02*
X12143368Y-17527408D01*
X12143368Y-17527408D02*
X12152891Y-17536931D01*
X12152891Y-17536931D02*
X12162415Y-17555979D01*
X12162415Y-17555979D02*
X12162415Y-17565503D01*
X12162415Y-17565503D02*
X12152891Y-17584550D01*
X12152891Y-17584550D02*
X12143368Y-17594074D01*
X12143368Y-17594074D02*
X12124320Y-17603598D01*
X12124320Y-17603598D02*
X12086225Y-17603598D01*
X12086225Y-17603598D02*
X12067177Y-17613122D01*
X12067177Y-17613122D02*
X12057653Y-17622646D01*
X12057653Y-17622646D02*
X12048129Y-17641693D01*
X12048129Y-17641693D02*
X12048129Y-17679789D01*
X12048129Y-17679789D02*
X12057653Y-17698836D01*
X12057653Y-17698836D02*
X12067177Y-17708360D01*
X12067177Y-17708360D02*
X12086225Y-17717884D01*
X12086225Y-17717884D02*
X12124320Y-17717884D01*
X12124320Y-17717884D02*
X12143368Y-17708360D01*
X12143368Y-17708360D02*
X12152891Y-17698836D01*
X12152891Y-17698836D02*
X12162415Y-17679789D01*
X12162415Y-17679789D02*
X12162415Y-17641693D01*
X12162415Y-17641693D02*
X12152891Y-17622646D01*
X12152891Y-17622646D02*
X12143368Y-17613122D01*
X12143368Y-17613122D02*
X12124320Y-17603598D01*
X12400510Y-17717884D02*
X12400510Y-17517884D01*
X12486225Y-17717884D02*
X12486225Y-17613122D01*
X12486225Y-17613122D02*
X12476701Y-17594074D01*
X12476701Y-17594074D02*
X12457653Y-17584550D01*
X12457653Y-17584550D02*
X12429082Y-17584550D01*
X12429082Y-17584550D02*
X12410034Y-17594074D01*
X12410034Y-17594074D02*
X12400510Y-17603598D01*
X12610034Y-17717884D02*
X12590987Y-17708360D01*
X12590987Y-17708360D02*
X12581463Y-17698836D01*
X12581463Y-17698836D02*
X12571939Y-17679789D01*
X12571939Y-17679789D02*
X12571939Y-17622646D01*
X12571939Y-17622646D02*
X12581463Y-17603598D01*
X12581463Y-17603598D02*
X12590987Y-17594074D01*
X12590987Y-17594074D02*
X12610034Y-17584550D01*
X12610034Y-17584550D02*
X12638606Y-17584550D01*
X12638606Y-17584550D02*
X12657653Y-17594074D01*
X12657653Y-17594074D02*
X12667177Y-17603598D01*
X12667177Y-17603598D02*
X12676701Y-17622646D01*
X12676701Y-17622646D02*
X12676701Y-17679789D01*
X12676701Y-17679789D02*
X12667177Y-17698836D01*
X12667177Y-17698836D02*
X12657653Y-17708360D01*
X12657653Y-17708360D02*
X12638606Y-17717884D01*
X12638606Y-17717884D02*
X12610034Y-17717884D01*
X12790987Y-17717884D02*
X12771939Y-17708360D01*
X12771939Y-17708360D02*
X12762415Y-17689312D01*
X12762415Y-17689312D02*
X12762415Y-17517884D01*
X12943368Y-17708360D02*
X12924320Y-17717884D01*
X12924320Y-17717884D02*
X12886225Y-17717884D01*
X12886225Y-17717884D02*
X12867177Y-17708360D01*
X12867177Y-17708360D02*
X12857653Y-17689312D01*
X12857653Y-17689312D02*
X12857653Y-17613122D01*
X12857653Y-17613122D02*
X12867177Y-17594074D01*
X12867177Y-17594074D02*
X12886225Y-17584550D01*
X12886225Y-17584550D02*
X12924320Y-17584550D01*
X12924320Y-17584550D02*
X12943368Y-17594074D01*
X12943368Y-17594074D02*
X12952891Y-17613122D01*
X12952891Y-17613122D02*
X12952891Y-17632170D01*
X12952891Y-17632170D02*
X12857653Y-17651217D01*
X13029082Y-17708360D02*
X13048130Y-17717884D01*
X13048130Y-17717884D02*
X13086225Y-17717884D01*
X13086225Y-17717884D02*
X13105272Y-17708360D01*
X13105272Y-17708360D02*
X13114796Y-17689312D01*
X13114796Y-17689312D02*
X13114796Y-17679789D01*
X13114796Y-17679789D02*
X13105272Y-17660741D01*
X13105272Y-17660741D02*
X13086225Y-17651217D01*
X13086225Y-17651217D02*
X13057653Y-17651217D01*
X13057653Y-17651217D02*
X13038606Y-17641693D01*
X13038606Y-17641693D02*
X13029082Y-17622646D01*
X13029082Y-17622646D02*
X13029082Y-17613122D01*
X13029082Y-17613122D02*
X13038606Y-17594074D01*
X13038606Y-17594074D02*
X13057653Y-17584550D01*
X13057653Y-17584550D02*
X13086225Y-17584550D01*
X13086225Y-17584550D02*
X13105272Y-17594074D01*
X13181463Y-17794074D02*
X13190987Y-17784550D01*
X13190987Y-17784550D02*
X13210034Y-17755979D01*
X13210034Y-17755979D02*
X13219558Y-17736931D01*
X13219558Y-17736931D02*
X13229082Y-17708360D01*
X13229082Y-17708360D02*
X13238606Y-17660741D01*
X13238606Y-17660741D02*
X13238606Y-17622646D01*
X13238606Y-17622646D02*
X13229082Y-17575027D01*
X13229082Y-17575027D02*
X13219558Y-17546455D01*
X13219558Y-17546455D02*
X13210034Y-17527408D01*
X13210034Y-17527408D02*
X13190987Y-17498836D01*
X13190987Y-17498836D02*
X13181463Y-17489312D01*
M02*
