%TF.GenerationSoftware,KiCad,Pcbnew,9.0.5*%
%TF.CreationDate,2025-10-08T22:57:06-05:00*%
%TF.ProjectId,Game Controller,47616d65-2043-46f6-9e74-726f6c6c6572,rev?*%
%TF.SameCoordinates,Original*%
%TF.FileFunction,Copper,L1,Top*%
%TF.FilePolarity,Positive*%
%FSLAX46Y46*%
G04 Gerber Fmt 4.6, Leading zero omitted, Abs format (unit mm)*
G04 Created by KiCad (PCBNEW 9.0.5) date 2025-10-08 22:57:06*
%MOMM*%
%LPD*%
G01*
G04 APERTURE LIST*
G04 Aperture macros list*
%AMRotRect*
0 Rectangle, with rotation*
0 The origin of the aperture is its center*
0 $1 length*
0 $2 width*
0 $3 Rotation angle, in degrees counterclockwise*
0 Add horizontal line*
21,1,$1,$2,0,0,$3*%
G04 Aperture macros list end*
%TA.AperFunction,ComponentPad*%
%ADD10C,1.650000*%
%TD*%
%TA.AperFunction,ComponentPad*%
%ADD11RotRect,1.650000X1.650000X117.000000*%
%TD*%
%TA.AperFunction,ComponentPad*%
%ADD12RotRect,1.650000X1.650000X63.000000*%
%TD*%
%TA.AperFunction,ComponentPad*%
%ADD13R,1.600000X1.600000*%
%TD*%
%TA.AperFunction,ComponentPad*%
%ADD14O,1.600000X1.600000*%
%TD*%
%TA.AperFunction,ComponentPad*%
%ADD15C,2.200000*%
%TD*%
%TA.AperFunction,ComponentPad*%
%ADD16C,1.778000*%
%TD*%
%TA.AperFunction,ComponentPad*%
%ADD17C,2.286000*%
%TD*%
%TA.AperFunction,ViaPad*%
%ADD18C,0.600000*%
%TD*%
%TA.AperFunction,Conductor*%
%ADD19C,0.200000*%
%TD*%
G04 APERTURE END LIST*
D10*
%TO.P,S1,4*%
%TO.N,GND*%
X140941643Y-90077832D03*
%TO.P,S1,3*%
%TO.N,Net-(U1-D18{slash}A0)*%
X142076619Y-92305348D03*
%TO.P,S1,2*%
%TO.N,GND*%
X135684705Y-92756376D03*
D11*
%TO.P,S1,1*%
%TO.N,Net-(U1-D19{slash}A1)*%
X136819681Y-94983892D03*
%TD*%
D10*
%TO.P,S2,4*%
%TO.N,GND*%
X172965295Y-92785020D03*
%TO.P,S2,3*%
%TO.N,Net-(U1-D2)*%
X171830319Y-95012536D03*
%TO.P,S2,2*%
%TO.N,GND*%
X167708357Y-90106476D03*
D12*
%TO.P,S2,1*%
%TO.N,Net-(U1-~D3)*%
X166573381Y-92333992D03*
%TD*%
D13*
%TO.P,U1,1,D1/TX*%
%TO.N,unconnected-(U1-D1{slash}TX-Pad1)*%
X161976000Y-78301500D03*
D14*
%TO.P,U1,2,D0/RX*%
%TO.N,unconnected-(U1-D0{slash}RX-Pad2)*%
X161976000Y-80841500D03*
%TO.P,U1,3,GND*%
%TO.N,unconnected-(U1-GND-Pad3)*%
X161976000Y-83381500D03*
%TO.P,U1,4,GND*%
%TO.N,GND*%
X161976000Y-85921500D03*
%TO.P,U1,5,D2*%
%TO.N,Net-(U1-D2)*%
X161976000Y-88461500D03*
%TO.P,U1,6,~D3*%
%TO.N,Net-(U1-~D3)*%
X161976000Y-91001500D03*
%TO.P,U1,7,D4/A6*%
%TO.N,Net-(U1-D4{slash}A6)*%
X161976000Y-93541500D03*
%TO.P,U1,8,~D5*%
%TO.N,Net-(U1-~D5)*%
X161976000Y-96081500D03*
%TO.P,U1,9,~D6/A7*%
%TO.N,unconnected-(U1-~D6{slash}A7-Pad9)*%
X161976000Y-98621500D03*
%TO.P,U1,10,D7*%
%TO.N,unconnected-(U1-D7-Pad10)*%
X161976000Y-101161500D03*
%TO.P,U1,11,D8/A8*%
%TO.N,unconnected-(U1-D8{slash}A8-Pad11)*%
X161976000Y-103701500D03*
%TO.P,U1,12,~D9/A9*%
%TO.N,Net-(U1-~D9{slash}A9)*%
X161976000Y-106241500D03*
%TO.P,U1,13,~D10/A10*%
%TO.N,Net-(U1-~D10{slash}A10)*%
X146736000Y-106241500D03*
%TO.P,U1,14,D16*%
%TO.N,Net-(U1-D16)*%
X146736000Y-103701500D03*
%TO.P,U1,15,D14*%
%TO.N,Net-(U1-D14)*%
X146736000Y-101161500D03*
%TO.P,U1,16,D15*%
%TO.N,Net-(U1-D15)*%
X146736000Y-98621500D03*
%TO.P,U1,17,D18/A0*%
%TO.N,Net-(U1-D18{slash}A0)*%
X146736000Y-96081500D03*
%TO.P,U1,18,D19/A1*%
%TO.N,Net-(U1-D19{slash}A1)*%
X146736000Y-93541500D03*
%TO.P,U1,19,D20/A2*%
%TO.N,unconnected-(U1-D20{slash}A2-Pad19)*%
X146736000Y-91001500D03*
%TO.P,U1,20,D21/A3*%
%TO.N,unconnected-(U1-D21{slash}A3-Pad20)*%
X146736000Y-88461500D03*
%TO.P,U1,21,VCC*%
%TO.N,PWR*%
X146736000Y-85921500D03*
%TO.P,U1,22,RST*%
%TO.N,unconnected-(U1-RST-Pad22)*%
X146736000Y-83381500D03*
%TO.P,U1,23,GND*%
%TO.N,unconnected-(U1-GND-Pad23)*%
X146736000Y-80841500D03*
%TO.P,U1,24,RAW*%
%TO.N,unconnected-(U1-RAW-Pad24)*%
X146736000Y-78301500D03*
%TD*%
D15*
%TO.P,SW2,1,1*%
%TO.N,Net-(U1-D14)*%
X179092270Y-98652459D03*
%TO.P,SW2,2,2*%
%TO.N,GND*%
X176398193Y-104938638D03*
%TD*%
%TO.P,SW1,2,2*%
%TO.N,GND*%
X161593374Y-119743458D03*
%TO.P,SW1,1,1*%
%TO.N,Net-(U1-D15)*%
X164287451Y-113457279D03*
%TD*%
%TO.P,SW3,2,2*%
%TO.N,GND*%
X191079084Y-119656884D03*
%TO.P,SW3,1,1*%
%TO.N,Net-(U1-D16)*%
X193773161Y-113370705D03*
%TD*%
%TO.P,SW4,2,2*%
%TO.N,GND*%
X176357872Y-134502025D03*
%TO.P,SW4,1,1*%
%TO.N,Net-(U1-~D10{slash}A10)*%
X179051949Y-128215846D03*
%TD*%
D16*
%TO.P,U2,V3,V-*%
%TO.N,GND*%
X119040000Y-121412000D03*
%TO.P,U2,V2,V*%
%TO.N,Net-(U1-~D9{slash}A9)*%
X119040000Y-118872000D03*
%TO.P,U2,V1,V+*%
%TO.N,PWR*%
X119040000Y-116332000D03*
D17*
%TO.P,U2,S4,SHIELD*%
%TO.N,GND*%
X136820000Y-112204500D03*
%TO.P,U2,S3,SHIELD*%
X136820000Y-125539500D03*
%TO.P,U2,S2,SHIELD*%
X121580000Y-125539500D03*
%TO.P,U2,S1,SHIELD*%
X121580000Y-112204500D03*
D16*
%TO.P,U2,H3,H-*%
X131740000Y-129032000D03*
%TO.P,U2,H2,H*%
%TO.N,Net-(U1-~D5)*%
X129200000Y-129032000D03*
%TO.P,U2,H1,H+*%
%TO.N,PWR*%
X126660000Y-129032000D03*
%TO.P,U2,B2B*%
%TO.N,N/C*%
X132375000Y-111252000D03*
%TO.P,U2,B2A,SEL-*%
%TO.N,GND*%
X126025000Y-111252000D03*
%TO.P,U2,B1B*%
%TO.N,N/C*%
X132375000Y-106172000D03*
%TO.P,U2,B1A,SEL+*%
%TO.N,Net-(U1-D4{slash}A6)*%
X126025000Y-106172000D03*
%TD*%
D18*
%TO.N,Net-(U1-D14)*%
X151770000Y-105590000D03*
X153950000Y-105590000D03*
%TD*%
D19*
%TO.N,Net-(U1-~D3)*%
X163308492Y-92333992D02*
X161976000Y-91001500D01*
X166573381Y-92333992D02*
X163308492Y-92333992D01*
%TO.N,Net-(U1-D14)*%
X151164500Y-105590000D02*
X146736000Y-101161500D01*
X151770000Y-105590000D02*
X151164500Y-105590000D01*
X153940000Y-111150000D02*
X153940000Y-105600000D01*
X154770000Y-111980000D02*
X153940000Y-111150000D01*
X160250000Y-111980000D02*
X154770000Y-111980000D01*
X173577541Y-98652459D02*
X160250000Y-111980000D01*
X153940000Y-105600000D02*
X153950000Y-105590000D01*
X179092270Y-98652459D02*
X173577541Y-98652459D01*
%TO.N,Net-(U1-D15)*%
X152720000Y-112620000D02*
X152720000Y-104605500D01*
X152720000Y-104605500D02*
X146736000Y-98621500D01*
X153557279Y-113457279D02*
X152720000Y-112620000D01*
X164287451Y-113457279D02*
X153557279Y-113457279D01*
%TO.N,Net-(U1-~D10{slash}A10)*%
X150000000Y-109505500D02*
X146736000Y-106241500D01*
X150000000Y-118250000D02*
X150000000Y-109505500D01*
X166180000Y-134420000D02*
X166180000Y-134430000D01*
X166180000Y-134430000D02*
X150000000Y-118250000D01*
X175726103Y-124890000D02*
X175710000Y-124890000D01*
X175710000Y-124890000D02*
X166180000Y-134420000D01*
X179051949Y-128215846D02*
X175726103Y-124890000D01*
%TO.N,Net-(U1-D18{slash}A0)*%
X142076619Y-92305348D02*
X142076619Y-94776619D01*
X142076619Y-94776619D02*
X143381500Y-96081500D01*
X143381500Y-96081500D02*
X146736000Y-96081500D01*
%TO.N,Net-(U1-D16)*%
X193773161Y-113370705D02*
X184719295Y-113370705D01*
X184719295Y-113370705D02*
X166020000Y-132070000D01*
X166020000Y-132070000D02*
X151210000Y-117260000D01*
X151210000Y-108175500D02*
X146736000Y-103701500D01*
X151210000Y-117260000D02*
X151210000Y-108175500D01*
%TD*%
%TA.AperFunction,Conductor*%
%TO.N,GND*%
G36*
X154994313Y-74716299D02*
G01*
X154995635Y-74716316D01*
X155638978Y-74728300D01*
X155640434Y-74728335D01*
X156283596Y-74748308D01*
X156285034Y-74748362D01*
X156927995Y-74776323D01*
X156929396Y-74776393D01*
X157571851Y-74812329D01*
X157573219Y-74812414D01*
X158215385Y-74856340D01*
X158216654Y-74856435D01*
X158858101Y-74908320D01*
X158859458Y-74908438D01*
X159500334Y-74968296D01*
X159501596Y-74968422D01*
X160141607Y-75036225D01*
X160143013Y-75036383D01*
X160781999Y-75112113D01*
X160783438Y-75112293D01*
X161421450Y-75195954D01*
X161422975Y-75196163D01*
X161559935Y-75215854D01*
X162059879Y-75287735D01*
X162061256Y-75287942D01*
X162697015Y-75387423D01*
X162698341Y-75387639D01*
X163332936Y-75495026D01*
X163334375Y-75495280D01*
X163967394Y-75610504D01*
X163968787Y-75610766D01*
X164600401Y-75733856D01*
X164601826Y-75734143D01*
X165231793Y-75865052D01*
X165233234Y-75865360D01*
X165861700Y-76004119D01*
X165862993Y-76004413D01*
X166489594Y-76150944D01*
X166490874Y-76151251D01*
X167115792Y-76305595D01*
X167117100Y-76305928D01*
X167739924Y-76467988D01*
X167741158Y-76468317D01*
X168361885Y-76638087D01*
X168363286Y-76638479D01*
X168981842Y-76815939D01*
X168983280Y-76816362D01*
X169599454Y-77001450D01*
X169600925Y-77001901D01*
X170214861Y-77194660D01*
X170216256Y-77195109D01*
X170827661Y-77395446D01*
X170829025Y-77395902D01*
X171438083Y-77603881D01*
X171439359Y-77604325D01*
X172045671Y-77819809D01*
X172046997Y-77820288D01*
X172650699Y-78043325D01*
X172652044Y-78043832D01*
X173252822Y-78274306D01*
X173254094Y-78274803D01*
X173851979Y-78512726D01*
X173853406Y-78513304D01*
X174448211Y-78758600D01*
X174449630Y-78759196D01*
X175041374Y-79011870D01*
X175042742Y-79012464D01*
X175631316Y-79272474D01*
X175632646Y-79273072D01*
X176217983Y-79540386D01*
X176219170Y-79540936D01*
X176801223Y-79815537D01*
X176802611Y-79816203D01*
X177380917Y-80097866D01*
X177382298Y-80098548D01*
X177957285Y-80387484D01*
X177958656Y-80388184D01*
X178529885Y-80684170D01*
X178531248Y-80684887D01*
X179098822Y-80987979D01*
X179100175Y-80988713D01*
X179278041Y-81086553D01*
X179663851Y-81298778D01*
X179665126Y-81299489D01*
X180225119Y-81616649D01*
X180226283Y-81617318D01*
X180782302Y-81941412D01*
X180783541Y-81942145D01*
X181335319Y-82273014D01*
X181336635Y-82273814D01*
X181884252Y-82611502D01*
X181885558Y-82612318D01*
X182429033Y-82956840D01*
X182430328Y-82957673D01*
X182557441Y-83040483D01*
X182969407Y-83308866D01*
X182970556Y-83309624D01*
X183236399Y-83487553D01*
X183505373Y-83667578D01*
X183506637Y-83668436D01*
X184036843Y-84032918D01*
X184038030Y-84033745D01*
X184563686Y-84404793D01*
X184564825Y-84405606D01*
X185086023Y-84783291D01*
X185087138Y-84784110D01*
X185477715Y-85074605D01*
X185603371Y-85168063D01*
X185604601Y-85168989D01*
X186116101Y-85559379D01*
X186117319Y-85560321D01*
X186623882Y-85956992D01*
X186625061Y-85957928D01*
X187126660Y-86360859D01*
X187127793Y-86361781D01*
X187624436Y-86770981D01*
X187625618Y-86771967D01*
X187793080Y-86913471D01*
X188115826Y-87186190D01*
X188117009Y-87187189D01*
X188118144Y-87188160D01*
X188604526Y-87609613D01*
X188605546Y-87610508D01*
X189086565Y-88037884D01*
X189087647Y-88038858D01*
X189563316Y-88472171D01*
X189564431Y-88473199D01*
X189866781Y-88755573D01*
X190034696Y-88912395D01*
X190035814Y-88913453D01*
X190500493Y-89358363D01*
X190501599Y-89359435D01*
X190960756Y-89810119D01*
X190961848Y-89811204D01*
X191415374Y-90267554D01*
X191416453Y-90268653D01*
X191864317Y-90730640D01*
X191865313Y-90731680D01*
X192307514Y-91199308D01*
X192308488Y-91200353D01*
X192744665Y-91673236D01*
X192745702Y-91674374D01*
X193176012Y-92152679D01*
X193177035Y-92153830D01*
X193601412Y-92637488D01*
X193602420Y-92638652D01*
X194020685Y-93127454D01*
X194021679Y-93128630D01*
X194112074Y-93236964D01*
X194433934Y-93622699D01*
X194434812Y-93623765D01*
X194512840Y-93719673D01*
X194840930Y-94122951D01*
X194841879Y-94124132D01*
X195241737Y-94628285D01*
X195242542Y-94629313D01*
X195448404Y-94895595D01*
X195636140Y-95138431D01*
X195637074Y-95139655D01*
X196024212Y-95653479D01*
X196025131Y-95654714D01*
X196405927Y-96173396D01*
X196406830Y-96174643D01*
X196781089Y-96697923D01*
X196781977Y-96699181D01*
X197011549Y-97028733D01*
X197055182Y-97091369D01*
X197149711Y-97227065D01*
X197150560Y-97228300D01*
X197511808Y-97760854D01*
X197512639Y-97762097D01*
X197546656Y-97813610D01*
X197867186Y-98299006D01*
X197868021Y-98300288D01*
X197973662Y-98464669D01*
X198215819Y-98841473D01*
X198216644Y-98842773D01*
X198557785Y-99388378D01*
X198558574Y-99389657D01*
X198892908Y-99939445D01*
X198893634Y-99940656D01*
X199008949Y-100135698D01*
X199221112Y-100494548D01*
X199221887Y-100495878D01*
X199542415Y-101053712D01*
X199543174Y-101055052D01*
X199856765Y-101616850D01*
X199857507Y-101618199D01*
X200164099Y-102183848D01*
X200164824Y-102185206D01*
X200464353Y-102754587D01*
X200465062Y-102755955D01*
X200757512Y-103329041D01*
X200758203Y-103330416D01*
X201043531Y-103907122D01*
X201044205Y-103908507D01*
X201322304Y-104488616D01*
X201322961Y-104490008D01*
X201593865Y-105073588D01*
X201594505Y-105074989D01*
X201858143Y-105661893D01*
X201858765Y-105663301D01*
X202115080Y-106253396D01*
X202115685Y-106254812D01*
X202364681Y-106848113D01*
X202365268Y-106849537D01*
X202606855Y-107445826D01*
X202607424Y-107447256D01*
X202841583Y-108046486D01*
X202842135Y-108047924D01*
X203068866Y-108650101D01*
X203069399Y-108651545D01*
X203288596Y-109256376D01*
X203289112Y-109257827D01*
X203500796Y-109865379D01*
X203501294Y-109866836D01*
X203705442Y-110477041D01*
X203705921Y-110478504D01*
X203902462Y-111091148D01*
X203902923Y-111092618D01*
X204091819Y-111707586D01*
X204092262Y-111709060D01*
X204273521Y-112326372D01*
X204273946Y-112327852D01*
X204447541Y-112947421D01*
X204447947Y-112948906D01*
X204613820Y-113570525D01*
X204614208Y-113572016D01*
X204772354Y-114195665D01*
X204772723Y-114197159D01*
X204923109Y-114822704D01*
X204923459Y-114824204D01*
X205066088Y-115451667D01*
X205066420Y-115453170D01*
X205201205Y-116082160D01*
X205201519Y-116083668D01*
X205328523Y-116714482D01*
X205328817Y-116715993D01*
X205447952Y-117348196D01*
X205448228Y-117349711D01*
X205559516Y-117983407D01*
X205559773Y-117984925D01*
X205663183Y-118619956D01*
X205663421Y-118621477D01*
X205758938Y-119257741D01*
X205759157Y-119259266D01*
X205846765Y-119896669D01*
X205846965Y-119898195D01*
X205926651Y-120536624D01*
X205926832Y-120538153D01*
X205998575Y-121177444D01*
X205998738Y-121178975D01*
X206062555Y-121819268D01*
X206062698Y-121820801D01*
X206118552Y-122461756D01*
X206118676Y-122463291D01*
X206166566Y-123104883D01*
X206166671Y-123106419D01*
X206206590Y-123748561D01*
X206206676Y-123750099D01*
X206238619Y-124392680D01*
X206238686Y-124394218D01*
X206262648Y-125037149D01*
X206262696Y-125038688D01*
X206278674Y-125681946D01*
X206278702Y-125683485D01*
X206286690Y-126326733D01*
X206286700Y-126328270D01*
X206287111Y-144554397D01*
X206267428Y-144621437D01*
X206214625Y-144667193D01*
X206163111Y-144678400D01*
X102536889Y-144678400D01*
X102469850Y-144658715D01*
X102424095Y-144605911D01*
X102412889Y-144554397D01*
X102413057Y-137104616D01*
X102413129Y-133887840D01*
X102413241Y-128922638D01*
X125270500Y-128922638D01*
X125270500Y-129141361D01*
X125304714Y-129357376D01*
X125372297Y-129565380D01*
X125372298Y-129565383D01*
X125439782Y-129697825D01*
X125468506Y-129754199D01*
X125471595Y-129760260D01*
X125600142Y-129937193D01*
X125754806Y-130091857D01*
X125869508Y-130175191D01*
X125931743Y-130220407D01*
X126059132Y-130285315D01*
X126126616Y-130319701D01*
X126126619Y-130319702D01*
X126230621Y-130353493D01*
X126334625Y-130387286D01*
X126434672Y-130403132D01*
X126550639Y-130421500D01*
X126550644Y-130421500D01*
X126769361Y-130421500D01*
X126874082Y-130404912D01*
X126985375Y-130387286D01*
X127193383Y-130319701D01*
X127388257Y-130220407D01*
X127487601Y-130148229D01*
X127565193Y-130091857D01*
X127565195Y-130091854D01*
X127565199Y-130091852D01*
X127719852Y-129937199D01*
X127829683Y-129786028D01*
X127885011Y-129743364D01*
X127954624Y-129737385D01*
X128016420Y-129769990D01*
X128030313Y-129786023D01*
X128131493Y-129925286D01*
X128140148Y-129937199D01*
X128294806Y-130091857D01*
X128409508Y-130175191D01*
X128471743Y-130220407D01*
X128599132Y-130285315D01*
X128666616Y-130319701D01*
X128666619Y-130319702D01*
X128770621Y-130353493D01*
X128874625Y-130387286D01*
X128974672Y-130403132D01*
X129090639Y-130421500D01*
X129090644Y-130421500D01*
X129309361Y-130421500D01*
X129414082Y-130404912D01*
X129525375Y-130387286D01*
X129733383Y-130319701D01*
X129928257Y-130220407D01*
X130027601Y-130148229D01*
X130105193Y-130091857D01*
X130105195Y-130091854D01*
X130105199Y-130091852D01*
X130259852Y-129937199D01*
X130369991Y-129785603D01*
X130425320Y-129742939D01*
X130494933Y-129736960D01*
X130556729Y-129769565D01*
X130570628Y-129785606D01*
X130596806Y-129821638D01*
X130596807Y-129821638D01*
X131302352Y-129116093D01*
X131325792Y-129203571D01*
X131384311Y-129304930D01*
X131467070Y-129387689D01*
X131568429Y-129446208D01*
X131655905Y-129469647D01*
X130950360Y-130175191D01*
X131012008Y-130219980D01*
X131206808Y-130319237D01*
X131206811Y-130319238D01*
X131414740Y-130386797D01*
X131630684Y-130421000D01*
X131849316Y-130421000D01*
X132065259Y-130386797D01*
X132273188Y-130319238D01*
X132273191Y-130319237D01*
X132467995Y-130219978D01*
X132529638Y-130175191D01*
X132529639Y-130175191D01*
X131824094Y-129469647D01*
X131911571Y-129446208D01*
X132012930Y-129387689D01*
X132095689Y-129304930D01*
X132154208Y-129203571D01*
X132177647Y-129116095D01*
X132883191Y-129821639D01*
X132883191Y-129821638D01*
X132927978Y-129759995D01*
X133027237Y-129565191D01*
X133027238Y-129565188D01*
X133094797Y-129357259D01*
X133129000Y-129141316D01*
X133129000Y-128922683D01*
X133094797Y-128706740D01*
X133027238Y-128498811D01*
X133027237Y-128498808D01*
X132927980Y-128304008D01*
X132883191Y-128242360D01*
X132177647Y-128947904D01*
X132154208Y-128860429D01*
X132095689Y-128759070D01*
X132012930Y-128676311D01*
X131911571Y-128617792D01*
X131824092Y-128594352D01*
X132529638Y-127888807D01*
X132529638Y-127888806D01*
X132467995Y-127844021D01*
X132467993Y-127844020D01*
X132273191Y-127744762D01*
X132273188Y-127744761D01*
X132065259Y-127677202D01*
X131849316Y-127643000D01*
X131630684Y-127643000D01*
X131414740Y-127677202D01*
X131206811Y-127744761D01*
X131206808Y-127744762D01*
X131012001Y-127844023D01*
X130950360Y-127888806D01*
X130950360Y-127888807D01*
X131655905Y-128594352D01*
X131568429Y-128617792D01*
X131467070Y-128676311D01*
X131384311Y-128759070D01*
X131325792Y-128860429D01*
X131302352Y-128947905D01*
X130596807Y-128242360D01*
X130596805Y-128242360D01*
X130570626Y-128278394D01*
X130515297Y-128321060D01*
X130445683Y-128327039D01*
X130383888Y-128294434D01*
X130369995Y-128278401D01*
X130259852Y-128126801D01*
X130105199Y-127972148D01*
X130105193Y-127972142D01*
X129928260Y-127843595D01*
X129928259Y-127843594D01*
X129928257Y-127843593D01*
X129865825Y-127811782D01*
X129733383Y-127744298D01*
X129733380Y-127744297D01*
X129525376Y-127676714D01*
X129309361Y-127642500D01*
X129309356Y-127642500D01*
X129090644Y-127642500D01*
X129090639Y-127642500D01*
X128874623Y-127676714D01*
X128666619Y-127744297D01*
X128666616Y-127744298D01*
X128471739Y-127843595D01*
X128294806Y-127972142D01*
X128140142Y-128126806D01*
X128030318Y-128277969D01*
X127974989Y-128320635D01*
X127905375Y-128326614D01*
X127843580Y-128294009D01*
X127829682Y-128277969D01*
X127719857Y-128126806D01*
X127565193Y-127972142D01*
X127388260Y-127843595D01*
X127388259Y-127843594D01*
X127388257Y-127843593D01*
X127325825Y-127811782D01*
X127193383Y-127744298D01*
X127193380Y-127744297D01*
X126985376Y-127676714D01*
X126769361Y-127642500D01*
X126769356Y-127642500D01*
X126550644Y-127642500D01*
X126550639Y-127642500D01*
X126334623Y-127676714D01*
X126126619Y-127744297D01*
X126126616Y-127744298D01*
X125931739Y-127843595D01*
X125754806Y-127972142D01*
X125600142Y-128126806D01*
X125471595Y-128303739D01*
X125372298Y-128498616D01*
X125372297Y-128498619D01*
X125304714Y-128706623D01*
X125270500Y-128922638D01*
X102413241Y-128922638D01*
X102413299Y-126328118D01*
X102413307Y-126326899D01*
X102421299Y-125683349D01*
X102421322Y-125682064D01*
X102428075Y-125410193D01*
X119937000Y-125410193D01*
X119937000Y-125668806D01*
X119977456Y-125924233D01*
X119977456Y-125924234D01*
X120057374Y-126170195D01*
X120174783Y-126400622D01*
X120254963Y-126510981D01*
X120254964Y-126510982D01*
X120941837Y-125824109D01*
X120960997Y-125870364D01*
X121037439Y-125984768D01*
X121134732Y-126082061D01*
X121249136Y-126158503D01*
X121295390Y-126177661D01*
X120608516Y-126864534D01*
X120608517Y-126864536D01*
X120718877Y-126944716D01*
X120949304Y-127062125D01*
X121195266Y-127142043D01*
X121450694Y-127182500D01*
X121709306Y-127182500D01*
X121964733Y-127142043D01*
X121964734Y-127142043D01*
X122210695Y-127062125D01*
X122441119Y-126944718D01*
X122551481Y-126864534D01*
X122551482Y-126864534D01*
X121864609Y-126177662D01*
X121910864Y-126158503D01*
X122025268Y-126082061D01*
X122122561Y-125984768D01*
X122199003Y-125870364D01*
X122218161Y-125824109D01*
X122905034Y-126510982D01*
X122905034Y-126510981D01*
X122985218Y-126400619D01*
X123102625Y-126170195D01*
X123182543Y-125924234D01*
X123182543Y-125924233D01*
X123223000Y-125668806D01*
X123223000Y-125410193D01*
X135177000Y-125410193D01*
X135177000Y-125668806D01*
X135217456Y-125924233D01*
X135217456Y-125924234D01*
X135297374Y-126170195D01*
X135414783Y-126400622D01*
X135494963Y-126510981D01*
X135494964Y-126510982D01*
X136181837Y-125824109D01*
X136200997Y-125870364D01*
X136277439Y-125984768D01*
X136374732Y-126082061D01*
X136489136Y-126158503D01*
X136535390Y-126177661D01*
X135848516Y-126864534D01*
X135848517Y-126864536D01*
X135958877Y-126944716D01*
X136189304Y-127062125D01*
X136435266Y-127142043D01*
X136690694Y-127182500D01*
X136949306Y-127182500D01*
X137204733Y-127142043D01*
X137204734Y-127142043D01*
X137450695Y-127062125D01*
X137681119Y-126944718D01*
X137791481Y-126864534D01*
X137791482Y-126864534D01*
X137104609Y-126177662D01*
X137150864Y-126158503D01*
X137265268Y-126082061D01*
X137362561Y-125984768D01*
X137439003Y-125870364D01*
X137458161Y-125824109D01*
X138145034Y-126510982D01*
X138145034Y-126510981D01*
X138225218Y-126400619D01*
X138342625Y-126170195D01*
X138422543Y-125924234D01*
X138422543Y-125924233D01*
X138463000Y-125668806D01*
X138463000Y-125410193D01*
X138422543Y-125154766D01*
X138422543Y-125154765D01*
X138342625Y-124908804D01*
X138225216Y-124678377D01*
X138145036Y-124568017D01*
X138145034Y-124568016D01*
X137458161Y-125254889D01*
X137439003Y-125208636D01*
X137362561Y-125094232D01*
X137265268Y-124996939D01*
X137150864Y-124920497D01*
X137104608Y-124901337D01*
X137791482Y-124214464D01*
X137791481Y-124214463D01*
X137681122Y-124134283D01*
X137450695Y-124016874D01*
X137204733Y-123936956D01*
X136949306Y-123896500D01*
X136690694Y-123896500D01*
X136435266Y-123936956D01*
X136435265Y-123936956D01*
X136189304Y-124016874D01*
X135958884Y-124134279D01*
X135848517Y-124214464D01*
X135848517Y-124214465D01*
X136535390Y-124901337D01*
X136489136Y-124920497D01*
X136374732Y-124996939D01*
X136277439Y-125094232D01*
X136200997Y-125208636D01*
X136181837Y-125254890D01*
X135494965Y-124568017D01*
X135494964Y-124568017D01*
X135414779Y-124678384D01*
X135297374Y-124908804D01*
X135217456Y-125154765D01*
X135217456Y-125154766D01*
X135177000Y-125410193D01*
X123223000Y-125410193D01*
X123182543Y-125154766D01*
X123182543Y-125154765D01*
X123102625Y-124908804D01*
X122985216Y-124678377D01*
X122905036Y-124568017D01*
X122905034Y-124568016D01*
X122218161Y-125254889D01*
X122199003Y-125208636D01*
X122122561Y-125094232D01*
X122025268Y-124996939D01*
X121910864Y-124920497D01*
X121864608Y-124901337D01*
X122551482Y-124214464D01*
X122551481Y-124214463D01*
X122441122Y-124134283D01*
X122210695Y-124016874D01*
X121964733Y-123936956D01*
X121709306Y-123896500D01*
X121450694Y-123896500D01*
X121195266Y-123936956D01*
X121195265Y-123936956D01*
X120949304Y-124016874D01*
X120718884Y-124134279D01*
X120608517Y-124214464D01*
X120608517Y-124214465D01*
X121295390Y-124901337D01*
X121249136Y-124920497D01*
X121134732Y-124996939D01*
X121037439Y-125094232D01*
X120960997Y-125208636D01*
X120941837Y-125254890D01*
X120254965Y-124568017D01*
X120254964Y-124568017D01*
X120174779Y-124678384D01*
X120057374Y-124908804D01*
X119977456Y-125154765D01*
X119977456Y-125154766D01*
X119937000Y-125410193D01*
X102428075Y-125410193D01*
X102437304Y-125038637D01*
X102437351Y-125037149D01*
X102461317Y-124394110D01*
X102461374Y-124392796D01*
X102493329Y-123749990D01*
X102493402Y-123748670D01*
X102533338Y-123106266D01*
X102533422Y-123105034D01*
X102581331Y-122463188D01*
X102581438Y-122461865D01*
X102637315Y-121820647D01*
X102637430Y-121819416D01*
X102682807Y-121364132D01*
X102690643Y-121285513D01*
X102690643Y-121285512D01*
X102701261Y-121178976D01*
X102701424Y-121177444D01*
X102709126Y-121108814D01*
X102773173Y-120538095D01*
X102773348Y-120536624D01*
X102783598Y-120454506D01*
X102853042Y-119898131D01*
X102853234Y-119896669D01*
X102940862Y-119259121D01*
X102941038Y-119257900D01*
X103036596Y-118621357D01*
X103036797Y-118620075D01*
X103140248Y-117984790D01*
X103140459Y-117983545D01*
X103251772Y-117349704D01*
X103252047Y-117348196D01*
X103272965Y-117237193D01*
X103371205Y-116715870D01*
X103371454Y-116714594D01*
X103470501Y-116222638D01*
X117650500Y-116222638D01*
X117650500Y-116441361D01*
X117684714Y-116657376D01*
X117752297Y-116865380D01*
X117752298Y-116865383D01*
X117851595Y-117060260D01*
X117980142Y-117237193D01*
X118134806Y-117391857D01*
X118285969Y-117501682D01*
X118328635Y-117557011D01*
X118334614Y-117626625D01*
X118302009Y-117688420D01*
X118285969Y-117702318D01*
X118134806Y-117812142D01*
X117980142Y-117966806D01*
X117851595Y-118143739D01*
X117752298Y-118338616D01*
X117752297Y-118338619D01*
X117684714Y-118546623D01*
X117650500Y-118762638D01*
X117650500Y-118981361D01*
X117684714Y-119197376D01*
X117752297Y-119405380D01*
X117752298Y-119405383D01*
X117813090Y-119524691D01*
X117836372Y-119570385D01*
X117851595Y-119600260D01*
X117980142Y-119777193D01*
X117980148Y-119777199D01*
X118134801Y-119931852D01*
X118286395Y-120041991D01*
X118329060Y-120097319D01*
X118335039Y-120166932D01*
X118302434Y-120228728D01*
X118286394Y-120242626D01*
X118250360Y-120268805D01*
X118250360Y-120268807D01*
X118955905Y-120974352D01*
X118868429Y-120997792D01*
X118767070Y-121056311D01*
X118684311Y-121139070D01*
X118625792Y-121240429D01*
X118602352Y-121327905D01*
X117896807Y-120622360D01*
X117896806Y-120622360D01*
X117852023Y-120684001D01*
X117752762Y-120878808D01*
X117752761Y-120878811D01*
X117685202Y-121086740D01*
X117651000Y-121302683D01*
X117651000Y-121521316D01*
X117685202Y-121737259D01*
X117752761Y-121945188D01*
X117752762Y-121945191D01*
X117852020Y-122139993D01*
X117852021Y-122139995D01*
X117896806Y-122201638D01*
X117896807Y-122201638D01*
X118602352Y-121496093D01*
X118625792Y-121583571D01*
X118684311Y-121684930D01*
X118767070Y-121767689D01*
X118868429Y-121826208D01*
X118955905Y-121849647D01*
X118250360Y-122555191D01*
X118312008Y-122599980D01*
X118506808Y-122699237D01*
X118506811Y-122699238D01*
X118714740Y-122766797D01*
X118930684Y-122801000D01*
X119149316Y-122801000D01*
X119365259Y-122766797D01*
X119573188Y-122699238D01*
X119573191Y-122699237D01*
X119767995Y-122599978D01*
X119829638Y-122555191D01*
X119829639Y-122555191D01*
X119124094Y-121849647D01*
X119211571Y-121826208D01*
X119312930Y-121767689D01*
X119395689Y-121684930D01*
X119454208Y-121583571D01*
X119477647Y-121496095D01*
X120183191Y-122201639D01*
X120183191Y-122201638D01*
X120227978Y-122139995D01*
X120327237Y-121945191D01*
X120327238Y-121945188D01*
X120394797Y-121737259D01*
X120429000Y-121521316D01*
X120429000Y-121302683D01*
X120394797Y-121086740D01*
X120327238Y-120878811D01*
X120327237Y-120878808D01*
X120227980Y-120684008D01*
X120183191Y-120622360D01*
X119477647Y-121327904D01*
X119454208Y-121240429D01*
X119395689Y-121139070D01*
X119312930Y-121056311D01*
X119211571Y-120997792D01*
X119124092Y-120974352D01*
X119829638Y-120268807D01*
X119829638Y-120268806D01*
X119793606Y-120242628D01*
X119750939Y-120187299D01*
X119744959Y-120117685D01*
X119777565Y-120055890D01*
X119793599Y-120041994D01*
X119945199Y-119931852D01*
X120099852Y-119777199D01*
X120099854Y-119777195D01*
X120099857Y-119777193D01*
X120156229Y-119699601D01*
X120228407Y-119600257D01*
X120327701Y-119405383D01*
X120395286Y-119197375D01*
X120414776Y-119074321D01*
X120429500Y-118981361D01*
X120429500Y-118762638D01*
X120406704Y-118618714D01*
X120395286Y-118546625D01*
X120359496Y-118436474D01*
X120327702Y-118338619D01*
X120327701Y-118338616D01*
X120287988Y-118260677D01*
X120228407Y-118143743D01*
X120193924Y-118096281D01*
X120099857Y-117966806D01*
X119945199Y-117812148D01*
X119927237Y-117799098D01*
X119794028Y-117702316D01*
X119751364Y-117646989D01*
X119745385Y-117577376D01*
X119777990Y-117515580D01*
X119794023Y-117501686D01*
X119945199Y-117391852D01*
X120099852Y-117237199D01*
X120099854Y-117237195D01*
X120099857Y-117237193D01*
X120163360Y-117149787D01*
X120228407Y-117060257D01*
X120327701Y-116865383D01*
X120395286Y-116657375D01*
X120418888Y-116508359D01*
X120429500Y-116441361D01*
X120429500Y-116222638D01*
X120407488Y-116083668D01*
X120395286Y-116006625D01*
X120327701Y-115798617D01*
X120327701Y-115798616D01*
X120265109Y-115675775D01*
X120228407Y-115603743D01*
X120217842Y-115589201D01*
X120099857Y-115426806D01*
X119945193Y-115272142D01*
X119768260Y-115143595D01*
X119768259Y-115143594D01*
X119768257Y-115143593D01*
X119705825Y-115111782D01*
X119573383Y-115044298D01*
X119573380Y-115044297D01*
X119365376Y-114976714D01*
X119149361Y-114942500D01*
X119149356Y-114942500D01*
X118930644Y-114942500D01*
X118930639Y-114942500D01*
X118714623Y-114976714D01*
X118506619Y-115044297D01*
X118506616Y-115044298D01*
X118311739Y-115143595D01*
X118134806Y-115272142D01*
X117980142Y-115426806D01*
X117851595Y-115603739D01*
X117752298Y-115798616D01*
X117752297Y-115798619D01*
X117684714Y-116006623D01*
X117650500Y-116222638D01*
X103470501Y-116222638D01*
X103498505Y-116083543D01*
X103498764Y-116082301D01*
X103633609Y-115453029D01*
X103633911Y-115451667D01*
X103776540Y-114824204D01*
X103776890Y-114822704D01*
X103796876Y-114739572D01*
X103927291Y-114197095D01*
X103927645Y-114195665D01*
X103931636Y-114179927D01*
X104085814Y-113571927D01*
X104086155Y-113570615D01*
X104252063Y-112948864D01*
X104252436Y-112947497D01*
X104426085Y-112327739D01*
X104426442Y-112326495D01*
X104500231Y-112075193D01*
X119937000Y-112075193D01*
X119937000Y-112333806D01*
X119977456Y-112589233D01*
X119977456Y-112589234D01*
X120057374Y-112835195D01*
X120174783Y-113065622D01*
X120254963Y-113175981D01*
X120254964Y-113175982D01*
X120941837Y-112489109D01*
X120960997Y-112535364D01*
X121037439Y-112649768D01*
X121134732Y-112747061D01*
X121249136Y-112823503D01*
X121295390Y-112842661D01*
X120608516Y-113529534D01*
X120608517Y-113529536D01*
X120718877Y-113609716D01*
X120949304Y-113727125D01*
X121195266Y-113807043D01*
X121450694Y-113847500D01*
X121709306Y-113847500D01*
X121964733Y-113807043D01*
X121964734Y-113807043D01*
X122210695Y-113727125D01*
X122441119Y-113609718D01*
X122551481Y-113529534D01*
X122551482Y-113529534D01*
X121864609Y-112842662D01*
X121910864Y-112823503D01*
X122025268Y-112747061D01*
X122122561Y-112649768D01*
X122199003Y-112535364D01*
X122218161Y-112489109D01*
X122905034Y-113175982D01*
X122905034Y-113175981D01*
X122985218Y-113065619D01*
X123102625Y-112835195D01*
X123182543Y-112589234D01*
X123182543Y-112589233D01*
X123222999Y-112333809D01*
X123223000Y-112333802D01*
X123223000Y-112075193D01*
X123182543Y-111819766D01*
X123182543Y-111819765D01*
X123102625Y-111573804D01*
X122985216Y-111343377D01*
X122905036Y-111233017D01*
X122905034Y-111233016D01*
X122218161Y-111919889D01*
X122199003Y-111873636D01*
X122122561Y-111759232D01*
X122025268Y-111661939D01*
X121910864Y-111585497D01*
X121864608Y-111566337D01*
X122288263Y-111142683D01*
X124636000Y-111142683D01*
X124636000Y-111361316D01*
X124670202Y-111577259D01*
X124737761Y-111785188D01*
X124737762Y-111785191D01*
X124837020Y-111979993D01*
X124837021Y-111979995D01*
X124881806Y-112041638D01*
X124881807Y-112041638D01*
X125582861Y-111340584D01*
X125605667Y-111425694D01*
X125664910Y-111528306D01*
X125748694Y-111612090D01*
X125851306Y-111671333D01*
X125936414Y-111694137D01*
X125235360Y-112395191D01*
X125297008Y-112439980D01*
X125491808Y-112539237D01*
X125491811Y-112539238D01*
X125699740Y-112606797D01*
X125915684Y-112641000D01*
X126134316Y-112641000D01*
X126350259Y-112606797D01*
X126558188Y-112539238D01*
X126558191Y-112539237D01*
X126752995Y-112439978D01*
X126814638Y-112395191D01*
X126814639Y-112395191D01*
X126113585Y-111694138D01*
X126198694Y-111671333D01*
X126301306Y-111612090D01*
X126385090Y-111528306D01*
X126444333Y-111425694D01*
X126467137Y-111340585D01*
X127168191Y-112041639D01*
X127168191Y-112041638D01*
X127212978Y-111979995D01*
X127312237Y-111785191D01*
X127312238Y-111785188D01*
X127379797Y-111577259D01*
X127414000Y-111361316D01*
X127414000Y-111142683D01*
X127413993Y-111142638D01*
X130985500Y-111142638D01*
X130985500Y-111361361D01*
X131019714Y-111577376D01*
X131087297Y-111785380D01*
X131087298Y-111785383D01*
X131120705Y-111850946D01*
X131186458Y-111979993D01*
X131186595Y-111980260D01*
X131315142Y-112157193D01*
X131469806Y-112311857D01*
X131602475Y-112408245D01*
X131646743Y-112440407D01*
X131774132Y-112505315D01*
X131841616Y-112539701D01*
X131841619Y-112539702D01*
X131898099Y-112558053D01*
X132049625Y-112607286D01*
X132149672Y-112623132D01*
X132265639Y-112641500D01*
X132265644Y-112641500D01*
X132484361Y-112641500D01*
X132589082Y-112624912D01*
X132700375Y-112607286D01*
X132900879Y-112542139D01*
X132908380Y-112539702D01*
X132908383Y-112539701D01*
X132920887Y-112533330D01*
X133103257Y-112440407D01*
X133235436Y-112344374D01*
X133280193Y-112311857D01*
X133280195Y-112311854D01*
X133280199Y-112311852D01*
X133434852Y-112157199D01*
X133450469Y-112135704D01*
X133494433Y-112075193D01*
X135177000Y-112075193D01*
X135177000Y-112333806D01*
X135217456Y-112589233D01*
X135217456Y-112589234D01*
X135297374Y-112835195D01*
X135414783Y-113065622D01*
X135494963Y-113175981D01*
X135494964Y-113175982D01*
X136181837Y-112489109D01*
X136200997Y-112535364D01*
X136277439Y-112649768D01*
X136374732Y-112747061D01*
X136489136Y-112823503D01*
X136535390Y-112842661D01*
X135848516Y-113529534D01*
X135848517Y-113529536D01*
X135958877Y-113609716D01*
X136189304Y-113727125D01*
X136435266Y-113807043D01*
X136690694Y-113847500D01*
X136949306Y-113847500D01*
X137204733Y-113807043D01*
X137204734Y-113807043D01*
X137450695Y-113727125D01*
X137681119Y-113609718D01*
X137791481Y-113529534D01*
X137791482Y-113529534D01*
X137104609Y-112842662D01*
X137150864Y-112823503D01*
X137265268Y-112747061D01*
X137362561Y-112649768D01*
X137439003Y-112535364D01*
X137458161Y-112489109D01*
X138145034Y-113175982D01*
X138145034Y-113175981D01*
X138225218Y-113065619D01*
X138342625Y-112835195D01*
X138422543Y-112589234D01*
X138422543Y-112589233D01*
X138463000Y-112333806D01*
X138463000Y-112075193D01*
X138422543Y-111819766D01*
X138422543Y-111819765D01*
X138342625Y-111573804D01*
X138225216Y-111343377D01*
X138145036Y-111233017D01*
X138145034Y-111233016D01*
X137458161Y-111919889D01*
X137439003Y-111873636D01*
X137362561Y-111759232D01*
X137265268Y-111661939D01*
X137150864Y-111585497D01*
X137104608Y-111566337D01*
X137791482Y-110879464D01*
X137791481Y-110879463D01*
X137681122Y-110799283D01*
X137450695Y-110681874D01*
X137204733Y-110601956D01*
X136949306Y-110561500D01*
X136690694Y-110561500D01*
X136435266Y-110601956D01*
X136435265Y-110601956D01*
X136189304Y-110681874D01*
X135958884Y-110799279D01*
X135848517Y-110879464D01*
X135848517Y-110879465D01*
X136535390Y-111566337D01*
X136489136Y-111585497D01*
X136374732Y-111661939D01*
X136277439Y-111759232D01*
X136200997Y-111873636D01*
X136181837Y-111919890D01*
X135494965Y-111233017D01*
X135494964Y-111233017D01*
X135414779Y-111343384D01*
X135297374Y-111573804D01*
X135217456Y-111819765D01*
X135217456Y-111819766D01*
X135177000Y-112075193D01*
X133494433Y-112075193D01*
X133550927Y-111997436D01*
X133563405Y-111980260D01*
X133563542Y-111979993D01*
X133662701Y-111785383D01*
X133730286Y-111577375D01*
X133755145Y-111420423D01*
X133764500Y-111361361D01*
X133764500Y-111142638D01*
X133733374Y-110946122D01*
X133733374Y-110946121D01*
X133730286Y-110926624D01*
X133662702Y-110718619D01*
X133662701Y-110718616D01*
X133628315Y-110651132D01*
X133563407Y-110523743D01*
X133530518Y-110478475D01*
X133434857Y-110346806D01*
X133280193Y-110192142D01*
X133103260Y-110063595D01*
X133103259Y-110063594D01*
X133103257Y-110063593D01*
X133040825Y-110031782D01*
X132908383Y-109964298D01*
X132908380Y-109964297D01*
X132700376Y-109896714D01*
X132484361Y-109862500D01*
X132484356Y-109862500D01*
X132265644Y-109862500D01*
X132265639Y-109862500D01*
X132049623Y-109896714D01*
X131841619Y-109964297D01*
X131841616Y-109964298D01*
X131646739Y-110063595D01*
X131469806Y-110192142D01*
X131315142Y-110346806D01*
X131186595Y-110523739D01*
X131087298Y-110718616D01*
X131087297Y-110718619D01*
X131019714Y-110926623D01*
X130985500Y-111142638D01*
X127413993Y-111142638D01*
X127379797Y-110926740D01*
X127312238Y-110718811D01*
X127312237Y-110718808D01*
X127212980Y-110524008D01*
X127168191Y-110462360D01*
X126467137Y-111163414D01*
X126444333Y-111078306D01*
X126385090Y-110975694D01*
X126301306Y-110891910D01*
X126198694Y-110832667D01*
X126113583Y-110809861D01*
X126814638Y-110108807D01*
X126814638Y-110108806D01*
X126752995Y-110064021D01*
X126752993Y-110064020D01*
X126558191Y-109964762D01*
X126558188Y-109964761D01*
X126350259Y-109897202D01*
X126134316Y-109863000D01*
X125915684Y-109863000D01*
X125699740Y-109897202D01*
X125491811Y-109964761D01*
X125491808Y-109964762D01*
X125297001Y-110064023D01*
X125235360Y-110108806D01*
X125235360Y-110108807D01*
X125936414Y-110809861D01*
X125851306Y-110832667D01*
X125748694Y-110891910D01*
X125664910Y-110975694D01*
X125605667Y-111078306D01*
X125582861Y-111163414D01*
X124881807Y-110462360D01*
X124881806Y-110462360D01*
X124837023Y-110524001D01*
X124737762Y-110718808D01*
X124737761Y-110718811D01*
X124670202Y-110926740D01*
X124636000Y-111142683D01*
X122288263Y-111142683D01*
X122551482Y-110879464D01*
X122551481Y-110879463D01*
X122441122Y-110799283D01*
X122210695Y-110681874D01*
X121964733Y-110601956D01*
X121709306Y-110561500D01*
X121450694Y-110561500D01*
X121195266Y-110601956D01*
X121195265Y-110601956D01*
X120949304Y-110681874D01*
X120718884Y-110799279D01*
X120608517Y-110879464D01*
X120608517Y-110879465D01*
X121295390Y-111566337D01*
X121249136Y-111585497D01*
X121134732Y-111661939D01*
X121037439Y-111759232D01*
X120960997Y-111873636D01*
X120941837Y-111919890D01*
X120254965Y-111233017D01*
X120254964Y-111233017D01*
X120174779Y-111343384D01*
X120057374Y-111573804D01*
X119977456Y-111819765D01*
X119977456Y-111819766D01*
X119937000Y-112075193D01*
X104500231Y-112075193D01*
X104607762Y-111708974D01*
X104608152Y-111707676D01*
X104797120Y-111092475D01*
X104797508Y-111091240D01*
X104994087Y-110478475D01*
X104994557Y-110477041D01*
X105089872Y-110192142D01*
X105147407Y-110020165D01*
X105198706Y-109866836D01*
X105199203Y-109865379D01*
X105200206Y-109862500D01*
X105410922Y-109257728D01*
X105411365Y-109256482D01*
X105630636Y-108651447D01*
X105631099Y-108650191D01*
X105857913Y-108047795D01*
X105858363Y-108046623D01*
X106092611Y-107447165D01*
X106093107Y-107445916D01*
X106334779Y-106849418D01*
X106335271Y-106848225D01*
X106584366Y-106254688D01*
X106584861Y-106253530D01*
X106667777Y-106062638D01*
X124635500Y-106062638D01*
X124635500Y-106281361D01*
X124669714Y-106497376D01*
X124737297Y-106705380D01*
X124737298Y-106705383D01*
X124836595Y-106900260D01*
X124965142Y-107077193D01*
X125119806Y-107231857D01*
X125285374Y-107352147D01*
X125296743Y-107360407D01*
X125424132Y-107425315D01*
X125491616Y-107459701D01*
X125491619Y-107459702D01*
X125559773Y-107481846D01*
X125699625Y-107527286D01*
X125792526Y-107542000D01*
X125915639Y-107561500D01*
X125915644Y-107561500D01*
X126134361Y-107561500D01*
X126239082Y-107544912D01*
X126350375Y-107527286D01*
X126558383Y-107459701D01*
X126753257Y-107360407D01*
X126927978Y-107233466D01*
X126930193Y-107231857D01*
X126930195Y-107231854D01*
X126930199Y-107231852D01*
X127084852Y-107077199D01*
X127084854Y-107077195D01*
X127084857Y-107077193D01*
X127196803Y-106923110D01*
X127213407Y-106900257D01*
X127312701Y-106705383D01*
X127380286Y-106497375D01*
X127407269Y-106327012D01*
X127414500Y-106281361D01*
X127414500Y-106062638D01*
X130985500Y-106062638D01*
X130985500Y-106281361D01*
X131019714Y-106497376D01*
X131087297Y-106705380D01*
X131087298Y-106705383D01*
X131186595Y-106900260D01*
X131315142Y-107077193D01*
X131469806Y-107231857D01*
X131635374Y-107352147D01*
X131646743Y-107360407D01*
X131774132Y-107425315D01*
X131841616Y-107459701D01*
X131841619Y-107459702D01*
X131909773Y-107481846D01*
X132049625Y-107527286D01*
X132142526Y-107542000D01*
X132265639Y-107561500D01*
X132265644Y-107561500D01*
X132484361Y-107561500D01*
X132589082Y-107544912D01*
X132700375Y-107527286D01*
X132908383Y-107459701D01*
X133103257Y-107360407D01*
X133277978Y-107233466D01*
X133280193Y-107231857D01*
X133280195Y-107231854D01*
X133280199Y-107231852D01*
X133434852Y-107077199D01*
X133434854Y-107077195D01*
X133434857Y-107077193D01*
X133546803Y-106923110D01*
X133563407Y-106900257D01*
X133662701Y-106705383D01*
X133730286Y-106497375D01*
X133757269Y-106327012D01*
X133764500Y-106281361D01*
X133764500Y-106062638D01*
X133741250Y-105915851D01*
X133730286Y-105846625D01*
X133662701Y-105638617D01*
X133662701Y-105638616D01*
X133606165Y-105527660D01*
X133563407Y-105443743D01*
X133527471Y-105394281D01*
X133434857Y-105266806D01*
X133280193Y-105112142D01*
X133103260Y-104983595D01*
X133103259Y-104983594D01*
X133103257Y-104983593D01*
X133017421Y-104939857D01*
X132908383Y-104884298D01*
X132908380Y-104884297D01*
X132700376Y-104816714D01*
X132484361Y-104782500D01*
X132484356Y-104782500D01*
X132265644Y-104782500D01*
X132265639Y-104782500D01*
X132049623Y-104816714D01*
X131841619Y-104884297D01*
X131841616Y-104884298D01*
X131646739Y-104983595D01*
X131469806Y-105112142D01*
X131315142Y-105266806D01*
X131186595Y-105443739D01*
X131087298Y-105638616D01*
X131087297Y-105638619D01*
X131019714Y-105846623D01*
X130985500Y-106062638D01*
X127414500Y-106062638D01*
X127391250Y-105915851D01*
X127380286Y-105846625D01*
X127312701Y-105638617D01*
X127312701Y-105638616D01*
X127256165Y-105527660D01*
X127213407Y-105443743D01*
X127177471Y-105394281D01*
X127084857Y-105266806D01*
X126930193Y-105112142D01*
X126753260Y-104983595D01*
X126753259Y-104983594D01*
X126753257Y-104983593D01*
X126667421Y-104939857D01*
X126558383Y-104884298D01*
X126558380Y-104884297D01*
X126350376Y-104816714D01*
X126134361Y-104782500D01*
X126134356Y-104782500D01*
X125915644Y-104782500D01*
X125915639Y-104782500D01*
X125699623Y-104816714D01*
X125491619Y-104884297D01*
X125491616Y-104884298D01*
X125296739Y-104983595D01*
X125119806Y-105112142D01*
X124965142Y-105266806D01*
X124836595Y-105443739D01*
X124737298Y-105638616D01*
X124737297Y-105638619D01*
X124669714Y-105846623D01*
X124635500Y-106062638D01*
X106667777Y-106062638D01*
X106841280Y-105663196D01*
X106841809Y-105661999D01*
X107105557Y-105074851D01*
X107106068Y-105073730D01*
X107377086Y-104489904D01*
X107377643Y-104488724D01*
X107655831Y-103908429D01*
X107656433Y-103907192D01*
X107941834Y-103330339D01*
X107942448Y-103329118D01*
X108235004Y-102755825D01*
X108235577Y-102754719D01*
X108535205Y-102185149D01*
X108535900Y-102183848D01*
X108545914Y-102165374D01*
X108842521Y-101618145D01*
X108843234Y-101616850D01*
X109156872Y-101054968D01*
X109157535Y-101053797D01*
X109478162Y-100495791D01*
X109478838Y-100494631D01*
X109806436Y-99940536D01*
X109807020Y-99939562D01*
X110141495Y-99389542D01*
X110142165Y-99388455D01*
X110483412Y-98842682D01*
X110484111Y-98841580D01*
X110832054Y-98300171D01*
X110832736Y-98299123D01*
X111187438Y-97761978D01*
X111188098Y-97760991D01*
X111549509Y-97228196D01*
X111550181Y-97227219D01*
X111918055Y-96699134D01*
X111918910Y-96697923D01*
X112293223Y-96174567D01*
X112294022Y-96173464D01*
X112674900Y-95654669D01*
X112675787Y-95653479D01*
X112729435Y-95582276D01*
X113062992Y-95139566D01*
X113063793Y-95138516D01*
X113457533Y-94629214D01*
X113458182Y-94628385D01*
X113858198Y-94124034D01*
X113859069Y-94122951D01*
X114265264Y-93623670D01*
X114265984Y-93622796D01*
X114678362Y-93128579D01*
X114679268Y-93127507D01*
X115086080Y-92652090D01*
X134359705Y-92652090D01*
X134359705Y-92860655D01*
X134392331Y-93066648D01*
X134456780Y-93265003D01*
X134551464Y-93450827D01*
X134674054Y-93619557D01*
X134821523Y-93767026D01*
X134990249Y-93889613D01*
X134990257Y-93889618D01*
X135044624Y-93917319D01*
X135295552Y-93145041D01*
X135346997Y-93196486D01*
X135472413Y-93268894D01*
X135612296Y-93306376D01*
X135757114Y-93306376D01*
X135769984Y-93302927D01*
X135502488Y-94126195D01*
X135497992Y-94124734D01*
X135487547Y-94157569D01*
X135442849Y-94197110D01*
X135443059Y-94197473D01*
X135441265Y-94198511D01*
X135441066Y-94198688D01*
X135440184Y-94199137D01*
X135440182Y-94199138D01*
X135389978Y-94231910D01*
X135292659Y-94337947D01*
X135229161Y-94467096D01*
X135229161Y-94467097D01*
X135229160Y-94467100D01*
X135217674Y-94533471D01*
X135204617Y-94608915D01*
X135221024Y-94751899D01*
X135242376Y-94807923D01*
X135673816Y-95654669D01*
X135972528Y-96240925D01*
X136034930Y-96363394D01*
X136067699Y-96413594D01*
X136107602Y-96450216D01*
X136173734Y-96510912D01*
X136302889Y-96574413D01*
X136444703Y-96598956D01*
X136587687Y-96582549D01*
X136643710Y-96561197D01*
X138199180Y-95768645D01*
X138236833Y-95744065D01*
X138249383Y-95735873D01*
X138275653Y-95707250D01*
X138346701Y-95629839D01*
X138410202Y-95500684D01*
X138434745Y-95358870D01*
X138418338Y-95215886D01*
X138396986Y-95159863D01*
X138396985Y-95159860D01*
X138004065Y-94388713D01*
X137604434Y-93604393D01*
X137577419Y-93563009D01*
X137571662Y-93554189D01*
X137490251Y-93479471D01*
X137465628Y-93456872D01*
X137465626Y-93456871D01*
X137465625Y-93456870D01*
X137336476Y-93393372D01*
X137336474Y-93393371D01*
X137336473Y-93393371D01*
X137194659Y-93368828D01*
X137194657Y-93368828D01*
X137051673Y-93385235D01*
X136995650Y-93406587D01*
X136995641Y-93406591D01*
X136994753Y-93407044D01*
X136994526Y-93407086D01*
X136992619Y-93407933D01*
X136992418Y-93407481D01*
X136926081Y-93419925D01*
X136901388Y-93409896D01*
X136900016Y-93414120D01*
X136073372Y-93145526D01*
X136124815Y-93094084D01*
X136197223Y-92968668D01*
X136234705Y-92828785D01*
X136234705Y-92683967D01*
X136231255Y-92671094D01*
X137000157Y-92920927D01*
X137000158Y-92920926D01*
X137009705Y-92860654D01*
X137009705Y-92652096D01*
X136977078Y-92446103D01*
X136912629Y-92247748D01*
X136817945Y-92061924D01*
X136695355Y-91893194D01*
X136547886Y-91745725D01*
X136379156Y-91623135D01*
X136324784Y-91595431D01*
X136073855Y-92367708D01*
X136022413Y-92316266D01*
X135896997Y-92243858D01*
X135757114Y-92206376D01*
X135612296Y-92206376D01*
X135599422Y-92209825D01*
X135849256Y-91440921D01*
X135788985Y-91431376D01*
X135580426Y-91431376D01*
X135374432Y-91464002D01*
X135176077Y-91528451D01*
X134990253Y-91623135D01*
X134821523Y-91745725D01*
X134674054Y-91893194D01*
X134551464Y-92061924D01*
X134523760Y-92116296D01*
X135296038Y-92367224D01*
X135244595Y-92418668D01*
X135172187Y-92544084D01*
X135134705Y-92683967D01*
X135134705Y-92828785D01*
X135138153Y-92841656D01*
X134777052Y-92724327D01*
X134369250Y-92591823D01*
X134359705Y-92652090D01*
X115086080Y-92652090D01*
X115097617Y-92638607D01*
X115098587Y-92637488D01*
X115523033Y-92153752D01*
X115523913Y-92152761D01*
X115954367Y-91674297D01*
X115955260Y-91673317D01*
X116391612Y-91200243D01*
X116392413Y-91199384D01*
X116834764Y-90731598D01*
X116835606Y-90730718D01*
X117283588Y-90268609D01*
X117284580Y-90267599D01*
X117576814Y-89973546D01*
X139616643Y-89973546D01*
X139616643Y-90182111D01*
X139649269Y-90388104D01*
X139713718Y-90586459D01*
X139808402Y-90772283D01*
X139930992Y-90941013D01*
X140078461Y-91088482D01*
X140247187Y-91211069D01*
X140247195Y-91211074D01*
X140301562Y-91238775D01*
X140552490Y-90466497D01*
X140603935Y-90517942D01*
X140729351Y-90590350D01*
X140869234Y-90627832D01*
X141014052Y-90627832D01*
X141026922Y-90624383D01*
X140777090Y-91393284D01*
X140777091Y-91393285D01*
X140837364Y-91402832D01*
X140850562Y-91402832D01*
X140917601Y-91422517D01*
X140963356Y-91475321D01*
X140973300Y-91544479D01*
X140950880Y-91599718D01*
X140942949Y-91610633D01*
X140848231Y-91796527D01*
X140783756Y-91994958D01*
X140751119Y-92201023D01*
X140751119Y-92409672D01*
X140783756Y-92615737D01*
X140848231Y-92814168D01*
X140926953Y-92968668D01*
X140942949Y-93000062D01*
X141065584Y-93168853D01*
X141213114Y-93316383D01*
X141285298Y-93368828D01*
X141381906Y-93439019D01*
X141397184Y-93446803D01*
X141408411Y-93452523D01*
X141459208Y-93500496D01*
X141476119Y-93563009D01*
X141476119Y-94689949D01*
X141476118Y-94689967D01*
X141476118Y-94855673D01*
X141476117Y-94855673D01*
X141517042Y-95008404D01*
X141545977Y-95058519D01*
X141545978Y-95058523D01*
X141545979Y-95058523D01*
X141596098Y-95145333D01*
X141596100Y-95145336D01*
X141714968Y-95264204D01*
X141714974Y-95264209D01*
X142896639Y-96445874D01*
X142896649Y-96445885D01*
X142900979Y-96450215D01*
X142900980Y-96450216D01*
X143012784Y-96562020D01*
X143012786Y-96562021D01*
X143012790Y-96562024D01*
X143149709Y-96641073D01*
X143149716Y-96641077D01*
X143261519Y-96671034D01*
X143302442Y-96682000D01*
X143302443Y-96682000D01*
X145506398Y-96682000D01*
X145573437Y-96701685D01*
X145616883Y-96749705D01*
X145623715Y-96763114D01*
X145744028Y-96928713D01*
X145888786Y-97073471D01*
X146043749Y-97186056D01*
X146054390Y-97193787D01*
X146145840Y-97240383D01*
X146147080Y-97241015D01*
X146197876Y-97288990D01*
X146214671Y-97356811D01*
X146192134Y-97422946D01*
X146147080Y-97461985D01*
X146054386Y-97509215D01*
X145888786Y-97629528D01*
X145744028Y-97774286D01*
X145623715Y-97939886D01*
X145530781Y-98122276D01*
X145467522Y-98316965D01*
X145435500Y-98519148D01*
X145435500Y-98723851D01*
X145467522Y-98926034D01*
X145530781Y-99120723D01*
X145594691Y-99246153D01*
X145616665Y-99289278D01*
X145623715Y-99303113D01*
X145744028Y-99468713D01*
X145888786Y-99613471D01*
X146001152Y-99695108D01*
X146054390Y-99733787D01*
X146145840Y-99780383D01*
X146147080Y-99781015D01*
X146197876Y-99828990D01*
X146214671Y-99896811D01*
X146192134Y-99962946D01*
X146147080Y-100001985D01*
X146054386Y-100049215D01*
X145888786Y-100169528D01*
X145744028Y-100314286D01*
X145623715Y-100479886D01*
X145530781Y-100662276D01*
X145467522Y-100856965D01*
X145435500Y-101059148D01*
X145435500Y-101263851D01*
X145467522Y-101466034D01*
X145530781Y-101660723D01*
X145594691Y-101786153D01*
X145616330Y-101828621D01*
X145623715Y-101843113D01*
X145744028Y-102008713D01*
X145888786Y-102153471D01*
X146043749Y-102266056D01*
X146054390Y-102273787D01*
X146145840Y-102320383D01*
X146147080Y-102321015D01*
X146197876Y-102368990D01*
X146214671Y-102436811D01*
X146192134Y-102502946D01*
X146147080Y-102541985D01*
X146054386Y-102589215D01*
X145888786Y-102709528D01*
X145744028Y-102854286D01*
X145623715Y-103019886D01*
X145530781Y-103202276D01*
X145467522Y-103396965D01*
X145435500Y-103599148D01*
X145435500Y-103803851D01*
X145467522Y-104006034D01*
X145530781Y-104200723D01*
X145568117Y-104273997D01*
X145618925Y-104373714D01*
X145623715Y-104383113D01*
X145744028Y-104548713D01*
X145888786Y-104693471D01*
X146043749Y-104806056D01*
X146054390Y-104813787D01*
X146127056Y-104850812D01*
X146147080Y-104861015D01*
X146197876Y-104908990D01*
X146214671Y-104976811D01*
X146192134Y-105042946D01*
X146147080Y-105081985D01*
X146054386Y-105129215D01*
X145888786Y-105249528D01*
X145744028Y-105394286D01*
X145623715Y-105559886D01*
X145530781Y-105742276D01*
X145467522Y-105936965D01*
X145435500Y-106139148D01*
X145435500Y-106343851D01*
X145467522Y-106546034D01*
X145530781Y-106740723D01*
X145594691Y-106866153D01*
X145619980Y-106915784D01*
X145623715Y-106923113D01*
X145744028Y-107088713D01*
X145888786Y-107233471D01*
X146043749Y-107346056D01*
X146054390Y-107353787D01*
X146170607Y-107413003D01*
X146236776Y-107446718D01*
X146236778Y-107446718D01*
X146236781Y-107446720D01*
X146341137Y-107480627D01*
X146431465Y-107509977D01*
X146532557Y-107525988D01*
X146633648Y-107542000D01*
X146633649Y-107542000D01*
X146838351Y-107542000D01*
X146838352Y-107542000D01*
X147040534Y-107509977D01*
X147054842Y-107505327D01*
X147124682Y-107503331D01*
X147180842Y-107535577D01*
X149363181Y-109717916D01*
X149396666Y-109779239D01*
X149399500Y-109805597D01*
X149399500Y-118163330D01*
X149399499Y-118163348D01*
X149399499Y-118329054D01*
X149399498Y-118329054D01*
X149440423Y-118481785D01*
X149469358Y-118531900D01*
X149469359Y-118531904D01*
X149469360Y-118531904D01*
X149517075Y-118614551D01*
X149519479Y-118618714D01*
X149519481Y-118618717D01*
X149638349Y-118737585D01*
X149638355Y-118737590D01*
X165695139Y-134794374D01*
X165695149Y-134794385D01*
X165699479Y-134798715D01*
X165699480Y-134798716D01*
X165811284Y-134910520D01*
X165811286Y-134910521D01*
X165811290Y-134910524D01*
X165931839Y-134980122D01*
X165948216Y-134989577D01*
X166060019Y-135019534D01*
X166100942Y-135030500D01*
X166100943Y-135030500D01*
X166100944Y-135030500D01*
X166259055Y-135030500D01*
X166259057Y-135030500D01*
X166411784Y-134989577D01*
X166548716Y-134910520D01*
X166660520Y-134798716D01*
X166666020Y-134789187D01*
X166685722Y-134763511D01*
X167197208Y-134252025D01*
X174777524Y-134252025D01*
X175649631Y-134252025D01*
X175636694Y-134283258D01*
X175607872Y-134428156D01*
X175607872Y-134575894D01*
X175636694Y-134720792D01*
X175649631Y-134752025D01*
X174777524Y-134752025D01*
X174797269Y-134876693D01*
X174797269Y-134876696D01*
X174875091Y-135116209D01*
X174989429Y-135340608D01*
X175137462Y-135544356D01*
X175137462Y-135544357D01*
X175315539Y-135722434D01*
X175519288Y-135870467D01*
X175743687Y-135984805D01*
X175983201Y-136062627D01*
X176107872Y-136082373D01*
X176107872Y-135210265D01*
X176139105Y-135223203D01*
X176284003Y-135252025D01*
X176431741Y-135252025D01*
X176576639Y-135223203D01*
X176607872Y-135210265D01*
X176607872Y-136082373D01*
X176630142Y-136101394D01*
X176668335Y-136159901D01*
X176668833Y-136229769D01*
X176631479Y-136288815D01*
X176622497Y-136296001D01*
X176538970Y-136356687D01*
X176416486Y-136479171D01*
X176416486Y-136479172D01*
X176416484Y-136479174D01*
X176372757Y-136539358D01*
X176314666Y-136619313D01*
X176236026Y-136773654D01*
X176182495Y-136938404D01*
X176156170Y-137104616D01*
X176155398Y-137109491D01*
X176155398Y-137282713D01*
X176182496Y-137453803D01*
X176236025Y-137618547D01*
X176314666Y-137772890D01*
X176416484Y-137913030D01*
X176538970Y-138035516D01*
X176679110Y-138137334D01*
X176833453Y-138215975D01*
X176998197Y-138269504D01*
X177169287Y-138296602D01*
X177169288Y-138296602D01*
X177342508Y-138296602D01*
X177342509Y-138296602D01*
X177513599Y-138269504D01*
X177678343Y-138215975D01*
X177832686Y-138137334D01*
X177972826Y-138035516D01*
X178095312Y-137913030D01*
X178197130Y-137772890D01*
X178275771Y-137618547D01*
X178329300Y-137453803D01*
X178356398Y-137282713D01*
X178356398Y-137109491D01*
X178329300Y-136938401D01*
X178275771Y-136773657D01*
X178197130Y-136619314D01*
X178095312Y-136479174D01*
X177972826Y-136356688D01*
X177832686Y-136254870D01*
X177678343Y-136176229D01*
X177513599Y-136122700D01*
X177513597Y-136122699D01*
X177513596Y-136122699D01*
X177379078Y-136101394D01*
X177342509Y-136095602D01*
X177268218Y-136095602D01*
X177201179Y-136075917D01*
X177155424Y-136023113D01*
X177145480Y-135953955D01*
X177174505Y-135890399D01*
X177195332Y-135871284D01*
X177400203Y-135722434D01*
X177400204Y-135722434D01*
X177578281Y-135544357D01*
X177578281Y-135544356D01*
X177726314Y-135340608D01*
X177840652Y-135116209D01*
X177918474Y-134876696D01*
X177918474Y-134876693D01*
X177938220Y-134752025D01*
X177066113Y-134752025D01*
X177079050Y-134720792D01*
X177107872Y-134575894D01*
X177107872Y-134428156D01*
X177079050Y-134283258D01*
X177066113Y-134252025D01*
X177938220Y-134252025D01*
X177918474Y-134127356D01*
X177918474Y-134127353D01*
X177840652Y-133887840D01*
X177726312Y-133663438D01*
X177625966Y-133525323D01*
X177625964Y-133525321D01*
X177578282Y-133459693D01*
X177575075Y-133456486D01*
X178597500Y-133456486D01*
X178597500Y-133751513D01*
X178619612Y-133919462D01*
X178636007Y-134043993D01*
X178712361Y-134328951D01*
X178712364Y-134328961D01*
X178825254Y-134601500D01*
X178825258Y-134601510D01*
X178972761Y-134856993D01*
X179152352Y-135091040D01*
X179152358Y-135091047D01*
X179360952Y-135299641D01*
X179360959Y-135299647D01*
X179595006Y-135479238D01*
X179850489Y-135626741D01*
X179850490Y-135626741D01*
X179850493Y-135626743D01*
X180123048Y-135739639D01*
X180408007Y-135815993D01*
X180700494Y-135854500D01*
X180700501Y-135854500D01*
X180995499Y-135854500D01*
X180995506Y-135854500D01*
X181287993Y-135815993D01*
X181572952Y-135739639D01*
X181845507Y-135626743D01*
X182100994Y-135479238D01*
X182335042Y-135299646D01*
X182543646Y-135091042D01*
X182723238Y-134856994D01*
X182870743Y-134601507D01*
X182983639Y-134328952D01*
X183059993Y-134043993D01*
X183098500Y-133751506D01*
X183098500Y-133456494D01*
X183059993Y-133164007D01*
X182983639Y-132879048D01*
X182870743Y-132606493D01*
X182723238Y-132351006D01*
X182543646Y-132116958D01*
X182543641Y-132116952D01*
X182335047Y-131908358D01*
X182335040Y-131908352D01*
X182100993Y-131728761D01*
X181845510Y-131581258D01*
X181845500Y-131581254D01*
X181572961Y-131468364D01*
X181572954Y-131468362D01*
X181572952Y-131468361D01*
X181287993Y-131392007D01*
X181239113Y-131385571D01*
X180995513Y-131353500D01*
X180995506Y-131353500D01*
X180700494Y-131353500D01*
X180700486Y-131353500D01*
X180422085Y-131390153D01*
X180408007Y-131392007D01*
X180123048Y-131468361D01*
X180123038Y-131468364D01*
X179850499Y-131581254D01*
X179850489Y-131581258D01*
X179595006Y-131728761D01*
X179360959Y-131908352D01*
X179360952Y-131908358D01*
X179152358Y-132116952D01*
X179152352Y-132116959D01*
X178972761Y-132351006D01*
X178825258Y-132606489D01*
X178825254Y-132606499D01*
X178712364Y-132879038D01*
X178712361Y-132879048D01*
X178636008Y-133164004D01*
X178636006Y-133164015D01*
X178597500Y-133456486D01*
X177575075Y-133456486D01*
X177400204Y-133281615D01*
X177196455Y-133133582D01*
X176972056Y-133019244D01*
X176732542Y-132941422D01*
X176607872Y-132921675D01*
X176607872Y-133793784D01*
X176576639Y-133780847D01*
X176431741Y-133752025D01*
X176284003Y-133752025D01*
X176139105Y-133780847D01*
X176107872Y-133793784D01*
X176107872Y-132921675D01*
X175983202Y-132941422D01*
X175983199Y-132941422D01*
X175743687Y-133019244D01*
X175519288Y-133133582D01*
X175315540Y-133281615D01*
X175315539Y-133281615D01*
X175137462Y-133459692D01*
X175137462Y-133459693D01*
X174989429Y-133663441D01*
X174875091Y-133887840D01*
X174797269Y-134127353D01*
X174797269Y-134127356D01*
X174777524Y-134252025D01*
X167197208Y-134252025D01*
X171523947Y-129925286D01*
X183339603Y-129925286D01*
X183339603Y-130098507D01*
X183357567Y-130211932D01*
X183366701Y-130269598D01*
X183420230Y-130434342D01*
X183498871Y-130588685D01*
X183600689Y-130728825D01*
X183723175Y-130851311D01*
X183863315Y-130953129D01*
X184017658Y-131031770D01*
X184182402Y-131085299D01*
X184353492Y-131112397D01*
X184353493Y-131112397D01*
X184526713Y-131112397D01*
X184526714Y-131112397D01*
X184697804Y-131085299D01*
X184862548Y-131031770D01*
X185016891Y-130953129D01*
X185157031Y-130851311D01*
X185279517Y-130728825D01*
X185381335Y-130588685D01*
X185459976Y-130434342D01*
X185513505Y-130269598D01*
X185540603Y-130098508D01*
X185540603Y-129925286D01*
X185513505Y-129754196D01*
X185459976Y-129589452D01*
X185381335Y-129435109D01*
X185279517Y-129294969D01*
X185157031Y-129172483D01*
X185016891Y-129070665D01*
X184862548Y-128992024D01*
X184697804Y-128938495D01*
X184697802Y-128938494D01*
X184697801Y-128938494D01*
X184566374Y-128917678D01*
X184526714Y-128911397D01*
X184353492Y-128911397D01*
X184313831Y-128917678D01*
X184182405Y-128938494D01*
X184017655Y-128992025D01*
X183863314Y-129070665D01*
X183783359Y-129128756D01*
X183723175Y-129172483D01*
X183723173Y-129172485D01*
X183723172Y-129172485D01*
X183600691Y-129294966D01*
X183600691Y-129294967D01*
X183600689Y-129294969D01*
X183595690Y-129301850D01*
X183498871Y-129435108D01*
X183420231Y-129589449D01*
X183366700Y-129754199D01*
X183339603Y-129925286D01*
X171523947Y-129925286D01*
X175630371Y-125818862D01*
X175691692Y-125785379D01*
X175761384Y-125790363D01*
X175805731Y-125818864D01*
X177519789Y-127532922D01*
X177553274Y-127594245D01*
X177550039Y-127658921D01*
X177490859Y-127841056D01*
X177490859Y-127841059D01*
X177451449Y-128089884D01*
X177451449Y-128341807D01*
X177490859Y-128590631D01*
X177568709Y-128830229D01*
X177623874Y-128938495D01*
X177671517Y-129032000D01*
X177683081Y-129054694D01*
X177831150Y-129258495D01*
X177831154Y-129258500D01*
X178009294Y-129436640D01*
X178009299Y-129436644D01*
X178186226Y-129565188D01*
X178213104Y-129584716D01*
X178356133Y-129657593D01*
X178437565Y-129699085D01*
X178437567Y-129699085D01*
X178437570Y-129699087D01*
X178677164Y-129776936D01*
X178925987Y-129816346D01*
X178925988Y-129816346D01*
X179177910Y-129816346D01*
X179177911Y-129816346D01*
X179426734Y-129776936D01*
X179666328Y-129699087D01*
X179890794Y-129584716D01*
X180094605Y-129436639D01*
X180272742Y-129258502D01*
X180420819Y-129054691D01*
X180535190Y-128830225D01*
X180613039Y-128590631D01*
X180652449Y-128341808D01*
X180652449Y-128089884D01*
X180613039Y-127841061D01*
X180535190Y-127601467D01*
X180535188Y-127601464D01*
X180535188Y-127601462D01*
X180493696Y-127520030D01*
X180420819Y-127377001D01*
X180401901Y-127350963D01*
X180272747Y-127173196D01*
X180272743Y-127173191D01*
X180094603Y-126995051D01*
X180094598Y-126995047D01*
X179890797Y-126846978D01*
X179890796Y-126846977D01*
X179890794Y-126846976D01*
X179820696Y-126811259D01*
X179666332Y-126732606D01*
X179426734Y-126654756D01*
X179177911Y-126615346D01*
X178925987Y-126615346D01*
X178843046Y-126628482D01*
X178677162Y-126654756D01*
X178677159Y-126654756D01*
X178495024Y-126713936D01*
X178425183Y-126715931D01*
X178369025Y-126683686D01*
X176213693Y-124528355D01*
X176213691Y-124528352D01*
X176094820Y-124409481D01*
X176094819Y-124409480D01*
X176008007Y-124359360D01*
X176008007Y-124359359D01*
X176008003Y-124359358D01*
X175957888Y-124330423D01*
X175805160Y-124289499D01*
X175647046Y-124289499D01*
X175639450Y-124289499D01*
X175639434Y-124289500D01*
X175630942Y-124289500D01*
X175478215Y-124330423D01*
X175478214Y-124330423D01*
X175478212Y-124330424D01*
X175478209Y-124330425D01*
X175428096Y-124359359D01*
X175428095Y-124359360D01*
X175384689Y-124384420D01*
X175341285Y-124409479D01*
X175341282Y-124409481D01*
X175229478Y-124521286D01*
X166262680Y-133488083D01*
X166201357Y-133521568D01*
X166131665Y-133516584D01*
X166087318Y-133488083D01*
X150636819Y-118037584D01*
X150629774Y-118024682D01*
X150618860Y-118014835D01*
X150612913Y-117993804D01*
X150603334Y-117976261D01*
X150603977Y-117962201D01*
X150600500Y-117949903D01*
X150600500Y-117799098D01*
X150620185Y-117732059D01*
X150672989Y-117686304D01*
X150742147Y-117676360D01*
X150805703Y-117705385D01*
X150812181Y-117711417D01*
X150848349Y-117747585D01*
X150848355Y-117747590D01*
X165651284Y-132550519D01*
X165788215Y-132629577D01*
X165940943Y-132670501D01*
X165940946Y-132670501D01*
X166099054Y-132670501D01*
X166099057Y-132670501D01*
X166251785Y-132629577D01*
X166388716Y-132550519D01*
X166500519Y-132438716D01*
X166559078Y-132380157D01*
X166559091Y-132380142D01*
X179532351Y-119406884D01*
X189498736Y-119406884D01*
X190370843Y-119406884D01*
X190357906Y-119438117D01*
X190329084Y-119583015D01*
X190329084Y-119730753D01*
X190357906Y-119875651D01*
X190370843Y-119906884D01*
X189498736Y-119906884D01*
X189518481Y-120031552D01*
X189518481Y-120031555D01*
X189596303Y-120271068D01*
X189710641Y-120495467D01*
X189858674Y-120699215D01*
X189858674Y-120699216D01*
X190036751Y-120877293D01*
X190240500Y-121025326D01*
X190464899Y-121139664D01*
X190704413Y-121217486D01*
X190829084Y-121237232D01*
X190829084Y-120365124D01*
X190860317Y-120378062D01*
X191005215Y-120406884D01*
X191152953Y-120406884D01*
X191297851Y-120378062D01*
X191329084Y-120365124D01*
X191329084Y-121237232D01*
X191351354Y-121256253D01*
X191389547Y-121314760D01*
X191390045Y-121384628D01*
X191352691Y-121443674D01*
X191343709Y-121450860D01*
X191260182Y-121511546D01*
X191137698Y-121634030D01*
X191137698Y-121634031D01*
X191137696Y-121634033D01*
X191100717Y-121684930D01*
X191035878Y-121774172D01*
X190957238Y-121928513D01*
X190903707Y-122093263D01*
X190886542Y-122201639D01*
X190876610Y-122264350D01*
X190876610Y-122437572D01*
X190884787Y-122489200D01*
X190902332Y-122599978D01*
X190903708Y-122608662D01*
X190957237Y-122773406D01*
X191035878Y-122927749D01*
X191137696Y-123067889D01*
X191260182Y-123190375D01*
X191400322Y-123292193D01*
X191554665Y-123370834D01*
X191719409Y-123424363D01*
X191890499Y-123451461D01*
X191890500Y-123451461D01*
X192063720Y-123451461D01*
X192063721Y-123451461D01*
X192234811Y-123424363D01*
X192399555Y-123370834D01*
X192553898Y-123292193D01*
X192694038Y-123190375D01*
X192816524Y-123067889D01*
X192918342Y-122927749D01*
X192996983Y-122773406D01*
X193050512Y-122608662D01*
X193077610Y-122437572D01*
X193077610Y-122264350D01*
X193050512Y-122093260D01*
X192996983Y-121928516D01*
X192918342Y-121774173D01*
X192816524Y-121634033D01*
X192694038Y-121511547D01*
X192553898Y-121409729D01*
X192399555Y-121331088D01*
X192234811Y-121277559D01*
X192234809Y-121277558D01*
X192234808Y-121277558D01*
X192100290Y-121256253D01*
X192063721Y-121250461D01*
X191989430Y-121250461D01*
X191922391Y-121230776D01*
X191876636Y-121177972D01*
X191866692Y-121108814D01*
X191895717Y-121045258D01*
X191916544Y-121026143D01*
X192121415Y-120877293D01*
X192121416Y-120877293D01*
X192299493Y-120699216D01*
X192299493Y-120699215D01*
X192447526Y-120495467D01*
X192561864Y-120271068D01*
X192639686Y-120031555D01*
X192639686Y-120031552D01*
X192659432Y-119906884D01*
X191787325Y-119906884D01*
X191800262Y-119875651D01*
X191829084Y-119730753D01*
X191829084Y-119583015D01*
X191800262Y-119438117D01*
X191787325Y-119406884D01*
X192659432Y-119406884D01*
X192639686Y-119282215D01*
X192639686Y-119282212D01*
X192561864Y-119042699D01*
X192447524Y-118818297D01*
X192347178Y-118680182D01*
X192347176Y-118680180D01*
X192299494Y-118614552D01*
X192296287Y-118611345D01*
X193318712Y-118611345D01*
X193318712Y-118906372D01*
X193340824Y-119074321D01*
X193357219Y-119198852D01*
X193433573Y-119483810D01*
X193433576Y-119483820D01*
X193546466Y-119756359D01*
X193546470Y-119756369D01*
X193693973Y-120011852D01*
X193873564Y-120245899D01*
X193873570Y-120245906D01*
X194082164Y-120454500D01*
X194082171Y-120454506D01*
X194316218Y-120634097D01*
X194571701Y-120781600D01*
X194571702Y-120781600D01*
X194571705Y-120781602D01*
X194844260Y-120894498D01*
X195129219Y-120970852D01*
X195421706Y-121009359D01*
X195421713Y-121009359D01*
X195716711Y-121009359D01*
X195716718Y-121009359D01*
X196009205Y-120970852D01*
X196294164Y-120894498D01*
X196566719Y-120781602D01*
X196822206Y-120634097D01*
X197056254Y-120454505D01*
X197264858Y-120245901D01*
X197444450Y-120011853D01*
X197591955Y-119756366D01*
X197704851Y-119483811D01*
X197781205Y-119198852D01*
X197819712Y-118906365D01*
X197819712Y-118611353D01*
X197781205Y-118318866D01*
X197704851Y-118033907D01*
X197591955Y-117761352D01*
X197579928Y-117740521D01*
X197444450Y-117505865D01*
X197264859Y-117271818D01*
X197264853Y-117271811D01*
X197056259Y-117063217D01*
X197056252Y-117063211D01*
X196822205Y-116883620D01*
X196566722Y-116736117D01*
X196566712Y-116736113D01*
X196294173Y-116623223D01*
X196294166Y-116623221D01*
X196294164Y-116623220D01*
X196009205Y-116546866D01*
X195960325Y-116540430D01*
X195716725Y-116508359D01*
X195716718Y-116508359D01*
X195421706Y-116508359D01*
X195421698Y-116508359D01*
X195143297Y-116545012D01*
X195129219Y-116546866D01*
X194844260Y-116623220D01*
X194844250Y-116623223D01*
X194571711Y-116736113D01*
X194571701Y-116736117D01*
X194316218Y-116883620D01*
X194082171Y-117063211D01*
X194082164Y-117063217D01*
X193873570Y-117271811D01*
X193873564Y-117271818D01*
X193693973Y-117505865D01*
X193546470Y-117761348D01*
X193546466Y-117761358D01*
X193433576Y-118033897D01*
X193433573Y-118033907D01*
X193398895Y-118163330D01*
X193357220Y-118318863D01*
X193357218Y-118318874D01*
X193318712Y-118611345D01*
X192296287Y-118611345D01*
X192121416Y-118436474D01*
X191917667Y-118288441D01*
X191693268Y-118174103D01*
X191453754Y-118096281D01*
X191329084Y-118076534D01*
X191329084Y-118948643D01*
X191297851Y-118935706D01*
X191152953Y-118906884D01*
X191005215Y-118906884D01*
X190860317Y-118935706D01*
X190829084Y-118948643D01*
X190829084Y-118076534D01*
X190704414Y-118096281D01*
X190704411Y-118096281D01*
X190464899Y-118174103D01*
X190240500Y-118288441D01*
X190036752Y-118436474D01*
X190036751Y-118436474D01*
X189858674Y-118614551D01*
X189858674Y-118614552D01*
X189710641Y-118818300D01*
X189596303Y-119042699D01*
X189518481Y-119282212D01*
X189518481Y-119282215D01*
X189498736Y-119406884D01*
X179532351Y-119406884D01*
X183859091Y-115080145D01*
X198060815Y-115080145D01*
X198060815Y-115253367D01*
X198087913Y-115424457D01*
X198141442Y-115589201D01*
X198220083Y-115743544D01*
X198321901Y-115883684D01*
X198444387Y-116006170D01*
X198584527Y-116107988D01*
X198738870Y-116186629D01*
X198903614Y-116240158D01*
X199074704Y-116267256D01*
X199074705Y-116267256D01*
X199247925Y-116267256D01*
X199247926Y-116267256D01*
X199419016Y-116240158D01*
X199583760Y-116186629D01*
X199738103Y-116107988D01*
X199878243Y-116006170D01*
X200000729Y-115883684D01*
X200102547Y-115743544D01*
X200181188Y-115589201D01*
X200234717Y-115424457D01*
X200261815Y-115253367D01*
X200261815Y-115080145D01*
X200234717Y-114909055D01*
X200181188Y-114744311D01*
X200102547Y-114589968D01*
X200000729Y-114449828D01*
X199878243Y-114327342D01*
X199738103Y-114225524D01*
X199583760Y-114146883D01*
X199419016Y-114093354D01*
X199419014Y-114093353D01*
X199419013Y-114093353D01*
X199282033Y-114071658D01*
X199247926Y-114066256D01*
X199074704Y-114066256D01*
X199040597Y-114071658D01*
X198903617Y-114093353D01*
X198738867Y-114146884D01*
X198584526Y-114225524D01*
X198504571Y-114283615D01*
X198444387Y-114327342D01*
X198444385Y-114327344D01*
X198444384Y-114327344D01*
X198321903Y-114449825D01*
X198321903Y-114449826D01*
X198321901Y-114449828D01*
X198285496Y-114499935D01*
X198220083Y-114589967D01*
X198141443Y-114744308D01*
X198087912Y-114909058D01*
X198066492Y-115044299D01*
X198060815Y-115080145D01*
X183859091Y-115080145D01*
X184931712Y-114007524D01*
X184993035Y-113974039D01*
X185019393Y-113971205D01*
X192206861Y-113971205D01*
X192273900Y-113990890D01*
X192317345Y-114038909D01*
X192397977Y-114197159D01*
X192404293Y-114209553D01*
X192552362Y-114413354D01*
X192552366Y-114413359D01*
X192730506Y-114591499D01*
X192730511Y-114591503D01*
X192849671Y-114678077D01*
X192934316Y-114739575D01*
X193077345Y-114812452D01*
X193158777Y-114853944D01*
X193158779Y-114853944D01*
X193158782Y-114853946D01*
X193398376Y-114931795D01*
X193647199Y-114971205D01*
X193647200Y-114971205D01*
X193899122Y-114971205D01*
X193899123Y-114971205D01*
X194147946Y-114931795D01*
X194387540Y-114853946D01*
X194612006Y-114739575D01*
X194815817Y-114591498D01*
X194993954Y-114413361D01*
X195142031Y-114209550D01*
X195256402Y-113985084D01*
X195334251Y-113745490D01*
X195373661Y-113496667D01*
X195373661Y-113244743D01*
X195334251Y-112995920D01*
X195256402Y-112756326D01*
X195256400Y-112756323D01*
X195256400Y-112756321D01*
X195197895Y-112641500D01*
X195142031Y-112531860D01*
X195075587Y-112440407D01*
X194993959Y-112328055D01*
X194993955Y-112328050D01*
X194815815Y-112149910D01*
X194815810Y-112149906D01*
X194612009Y-112001837D01*
X194612008Y-112001836D01*
X194612006Y-112001835D01*
X194541908Y-111966118D01*
X194387544Y-111887465D01*
X194147946Y-111809615D01*
X193993721Y-111785188D01*
X193899123Y-111770205D01*
X193647199Y-111770205D01*
X193552601Y-111785188D01*
X193398375Y-111809615D01*
X193158777Y-111887465D01*
X192934312Y-112001837D01*
X192730511Y-112149906D01*
X192730506Y-112149910D01*
X192552366Y-112328050D01*
X192552362Y-112328055D01*
X192404293Y-112531856D01*
X192400359Y-112539577D01*
X192348682Y-112641000D01*
X192317346Y-112702500D01*
X192269372Y-112753296D01*
X192206861Y-112770205D01*
X184805965Y-112770205D01*
X184805949Y-112770204D01*
X184798353Y-112770204D01*
X184640238Y-112770204D01*
X184569816Y-112789074D01*
X184487509Y-112811128D01*
X184487504Y-112811131D01*
X184350585Y-112890180D01*
X184350577Y-112890186D01*
X166107680Y-131133083D01*
X166046357Y-131166568D01*
X165976665Y-131161584D01*
X165932318Y-131133083D01*
X154292693Y-119493458D01*
X160013026Y-119493458D01*
X160885133Y-119493458D01*
X160872196Y-119524691D01*
X160843374Y-119669589D01*
X160843374Y-119817327D01*
X160872196Y-119962225D01*
X160885133Y-119993458D01*
X160013026Y-119993458D01*
X160032771Y-120118126D01*
X160032771Y-120118129D01*
X160110593Y-120357642D01*
X160224931Y-120582041D01*
X160372964Y-120785789D01*
X160372964Y-120785790D01*
X160551041Y-120963867D01*
X160754790Y-121111900D01*
X160979189Y-121226238D01*
X161218703Y-121304060D01*
X161343374Y-121323806D01*
X161343374Y-120451698D01*
X161374607Y-120464636D01*
X161519505Y-120493458D01*
X161667243Y-120493458D01*
X161812141Y-120464636D01*
X161843374Y-120451698D01*
X161843374Y-121323806D01*
X161865644Y-121342827D01*
X161903837Y-121401334D01*
X161904335Y-121471202D01*
X161866981Y-121530248D01*
X161857999Y-121537434D01*
X161774472Y-121598120D01*
X161651988Y-121720604D01*
X161651988Y-121720605D01*
X161651986Y-121720607D01*
X161639888Y-121737259D01*
X161550168Y-121860746D01*
X161471528Y-122015087D01*
X161417997Y-122179837D01*
X161414544Y-122201639D01*
X161390900Y-122350924D01*
X161390900Y-122524146D01*
X161417998Y-122695236D01*
X161471527Y-122859980D01*
X161550168Y-123014323D01*
X161651986Y-123154463D01*
X161774472Y-123276949D01*
X161914612Y-123378767D01*
X162068955Y-123457408D01*
X162233699Y-123510937D01*
X162404789Y-123538035D01*
X162404790Y-123538035D01*
X162578010Y-123538035D01*
X162578011Y-123538035D01*
X162749101Y-123510937D01*
X162913845Y-123457408D01*
X163068188Y-123378767D01*
X163208328Y-123276949D01*
X163330814Y-123154463D01*
X163432632Y-123014323D01*
X163511273Y-122859980D01*
X163564802Y-122695236D01*
X163591900Y-122524146D01*
X163591900Y-122350924D01*
X163564802Y-122179834D01*
X163511273Y-122015090D01*
X163432632Y-121860747D01*
X163330814Y-121720607D01*
X163208328Y-121598121D01*
X163068188Y-121496303D01*
X162913845Y-121417662D01*
X162749101Y-121364133D01*
X162749099Y-121364132D01*
X162749098Y-121364132D01*
X162614580Y-121342827D01*
X162578011Y-121337035D01*
X162503720Y-121337035D01*
X162436681Y-121317350D01*
X162390926Y-121264546D01*
X162380982Y-121195388D01*
X162410007Y-121131832D01*
X162430834Y-121112717D01*
X162635705Y-120963867D01*
X162635706Y-120963867D01*
X162813783Y-120785790D01*
X162813783Y-120785789D01*
X162961816Y-120582041D01*
X163076154Y-120357642D01*
X163153976Y-120118129D01*
X163153976Y-120118126D01*
X163173722Y-119993458D01*
X162301615Y-119993458D01*
X162314552Y-119962225D01*
X162343374Y-119817327D01*
X162343374Y-119669589D01*
X162314552Y-119524691D01*
X162301615Y-119493458D01*
X163173722Y-119493458D01*
X163153976Y-119368789D01*
X163153976Y-119368786D01*
X163076154Y-119129273D01*
X162961814Y-118904871D01*
X162861468Y-118766756D01*
X162861466Y-118766754D01*
X162813784Y-118701126D01*
X162810577Y-118697919D01*
X163833002Y-118697919D01*
X163833002Y-118992946D01*
X163859917Y-119197375D01*
X163871509Y-119285426D01*
X163947863Y-119570384D01*
X163947866Y-119570394D01*
X164060756Y-119842933D01*
X164060760Y-119842943D01*
X164208263Y-120098426D01*
X164387854Y-120332473D01*
X164387860Y-120332480D01*
X164596454Y-120541074D01*
X164596461Y-120541080D01*
X164830508Y-120720671D01*
X165085991Y-120868174D01*
X165085992Y-120868174D01*
X165085995Y-120868176D01*
X165358550Y-120981072D01*
X165643509Y-121057426D01*
X165935996Y-121095933D01*
X165936003Y-121095933D01*
X166231001Y-121095933D01*
X166231008Y-121095933D01*
X166523495Y-121057426D01*
X166808454Y-120981072D01*
X167081009Y-120868176D01*
X167336496Y-120720671D01*
X167570544Y-120541079D01*
X167779148Y-120332475D01*
X167958740Y-120098427D01*
X168106245Y-119842940D01*
X168219141Y-119570385D01*
X168295495Y-119285426D01*
X168334002Y-118992939D01*
X168334002Y-118697927D01*
X168295495Y-118405440D01*
X168219141Y-118120481D01*
X168207526Y-118092441D01*
X168155487Y-117966806D01*
X168106245Y-117847926D01*
X168056259Y-117761348D01*
X167958740Y-117592439D01*
X167779149Y-117358392D01*
X167779143Y-117358385D01*
X167570549Y-117149791D01*
X167570542Y-117149785D01*
X167336495Y-116970194D01*
X167081012Y-116822691D01*
X167081002Y-116822687D01*
X166808463Y-116709797D01*
X166808456Y-116709795D01*
X166808454Y-116709794D01*
X166523495Y-116633440D01*
X166474615Y-116627004D01*
X166231015Y-116594933D01*
X166231008Y-116594933D01*
X165935996Y-116594933D01*
X165935988Y-116594933D01*
X165657587Y-116631586D01*
X165643509Y-116633440D01*
X165358550Y-116709794D01*
X165358540Y-116709797D01*
X165086001Y-116822687D01*
X165085991Y-116822691D01*
X164830508Y-116970194D01*
X164596461Y-117149785D01*
X164596454Y-117149791D01*
X164387860Y-117358385D01*
X164387854Y-117358392D01*
X164208263Y-117592439D01*
X164060760Y-117847922D01*
X164060756Y-117847932D01*
X163947866Y-118120471D01*
X163947863Y-118120481D01*
X163891977Y-118329054D01*
X163871510Y-118405437D01*
X163871508Y-118405448D01*
X163833002Y-118697919D01*
X162810577Y-118697919D01*
X162635706Y-118523048D01*
X162431957Y-118375015D01*
X162207558Y-118260677D01*
X161968044Y-118182855D01*
X161843374Y-118163108D01*
X161843374Y-119035217D01*
X161812141Y-119022280D01*
X161667243Y-118993458D01*
X161519505Y-118993458D01*
X161374607Y-119022280D01*
X161343374Y-119035217D01*
X161343374Y-118163108D01*
X161218704Y-118182855D01*
X161218701Y-118182855D01*
X160979189Y-118260677D01*
X160754790Y-118375015D01*
X160551042Y-118523048D01*
X160551041Y-118523048D01*
X160372964Y-118701125D01*
X160372964Y-118701126D01*
X160224931Y-118904874D01*
X160110593Y-119129273D01*
X160032771Y-119368786D01*
X160032771Y-119368789D01*
X160013026Y-119493458D01*
X154292693Y-119493458D01*
X151846819Y-117047584D01*
X151813334Y-116986261D01*
X151810500Y-116959903D01*
X151810500Y-115166719D01*
X168575105Y-115166719D01*
X168575105Y-115339940D01*
X168592800Y-115451667D01*
X168602203Y-115511031D01*
X168655732Y-115675775D01*
X168734373Y-115830118D01*
X168836191Y-115970258D01*
X168958677Y-116092744D01*
X169098817Y-116194562D01*
X169253160Y-116273203D01*
X169417904Y-116326732D01*
X169588994Y-116353830D01*
X169588995Y-116353830D01*
X169762215Y-116353830D01*
X169762216Y-116353830D01*
X169933306Y-116326732D01*
X170098050Y-116273203D01*
X170252393Y-116194562D01*
X170392533Y-116092744D01*
X170515019Y-115970258D01*
X170616837Y-115830118D01*
X170695478Y-115675775D01*
X170749007Y-115511031D01*
X170776105Y-115339941D01*
X170776105Y-115166719D01*
X170749007Y-114995629D01*
X170695478Y-114830885D01*
X170616837Y-114676542D01*
X170515019Y-114536402D01*
X170392533Y-114413916D01*
X170252393Y-114312098D01*
X170098050Y-114233457D01*
X169933306Y-114179928D01*
X169933304Y-114179927D01*
X169933303Y-114179927D01*
X169801876Y-114159111D01*
X169762216Y-114152830D01*
X169588994Y-114152830D01*
X169549333Y-114159111D01*
X169417907Y-114179927D01*
X169253157Y-114233458D01*
X169098816Y-114312098D01*
X169018861Y-114370189D01*
X168958677Y-114413916D01*
X168958675Y-114413918D01*
X168958674Y-114413918D01*
X168836193Y-114536399D01*
X168836193Y-114536400D01*
X168836191Y-114536402D01*
X168797274Y-114589967D01*
X168734373Y-114676541D01*
X168655733Y-114830882D01*
X168602202Y-114995632D01*
X168575105Y-115166719D01*
X151810500Y-115166719D01*
X151810500Y-108096445D01*
X151810500Y-108096443D01*
X151769577Y-107943716D01*
X151738802Y-107890412D01*
X151690524Y-107806790D01*
X151690521Y-107806786D01*
X151690520Y-107806784D01*
X151578716Y-107694980D01*
X151578715Y-107694979D01*
X151574385Y-107690649D01*
X151574374Y-107690639D01*
X148030077Y-104146342D01*
X147996592Y-104085019D01*
X147999828Y-104020341D01*
X148004477Y-104006034D01*
X148036500Y-103803852D01*
X148036500Y-103610597D01*
X148056185Y-103543558D01*
X148108989Y-103497803D01*
X148178147Y-103487859D01*
X148241703Y-103516884D01*
X148248179Y-103522914D01*
X150795784Y-106070520D01*
X150795786Y-106070521D01*
X150795790Y-106070524D01*
X150914652Y-106139148D01*
X150932716Y-106149577D01*
X151085443Y-106190501D01*
X151190236Y-106190501D01*
X151257275Y-106210186D01*
X151259127Y-106211399D01*
X151390814Y-106299390D01*
X151390827Y-106299397D01*
X151536498Y-106359735D01*
X151536503Y-106359737D01*
X151691153Y-106390499D01*
X151691156Y-106390500D01*
X151691158Y-106390500D01*
X151848844Y-106390500D01*
X151971308Y-106366140D01*
X152040900Y-106372367D01*
X152096077Y-106415230D01*
X152119322Y-106481120D01*
X152119500Y-106487757D01*
X152119500Y-112533330D01*
X152119499Y-112533348D01*
X152119499Y-112699054D01*
X152119498Y-112699054D01*
X152134843Y-112756321D01*
X152160423Y-112851785D01*
X152182594Y-112890186D01*
X152189358Y-112901900D01*
X152189359Y-112901904D01*
X152189360Y-112901904D01*
X152239479Y-112988714D01*
X152239481Y-112988717D01*
X152358349Y-113107585D01*
X152358355Y-113107590D01*
X153072418Y-113821653D01*
X153072428Y-113821664D01*
X153076758Y-113825994D01*
X153076759Y-113825995D01*
X153188563Y-113937799D01*
X153270464Y-113985084D01*
X153325494Y-114016856D01*
X153478221Y-114057779D01*
X153478222Y-114057779D01*
X162721151Y-114057779D01*
X162788190Y-114077464D01*
X162831635Y-114125483D01*
X162886651Y-114233458D01*
X162918583Y-114296127D01*
X163066652Y-114499928D01*
X163066656Y-114499933D01*
X163244796Y-114678073D01*
X163244801Y-114678077D01*
X163335961Y-114744308D01*
X163448606Y-114826149D01*
X163591635Y-114899026D01*
X163673067Y-114940518D01*
X163673069Y-114940518D01*
X163673072Y-114940520D01*
X163912666Y-115018369D01*
X164161489Y-115057779D01*
X164161490Y-115057779D01*
X164413412Y-115057779D01*
X164413413Y-115057779D01*
X164662236Y-115018369D01*
X164901830Y-114940520D01*
X165126296Y-114826149D01*
X165330107Y-114678072D01*
X165508244Y-114499935D01*
X165656321Y-114296124D01*
X165770692Y-114071658D01*
X165848541Y-113832064D01*
X165887951Y-113583241D01*
X165887951Y-113331317D01*
X165848541Y-113082494D01*
X165770692Y-112842900D01*
X165770690Y-112842897D01*
X165770690Y-112842895D01*
X165726578Y-112756321D01*
X165656321Y-112618434D01*
X165599028Y-112539577D01*
X165508249Y-112414629D01*
X165508245Y-112414624D01*
X165330105Y-112236484D01*
X165330100Y-112236480D01*
X165126299Y-112088411D01*
X165126298Y-112088410D01*
X165126296Y-112088409D01*
X165034503Y-112041638D01*
X164901834Y-111974039D01*
X164662236Y-111896189D01*
X164519843Y-111873636D01*
X164413413Y-111856779D01*
X164161489Y-111856779D01*
X164055059Y-111873636D01*
X163912665Y-111896189D01*
X163673067Y-111974039D01*
X163448602Y-112088411D01*
X163244801Y-112236480D01*
X163244796Y-112236484D01*
X163066656Y-112414624D01*
X163066652Y-112414629D01*
X162918583Y-112618430D01*
X162918581Y-112618434D01*
X162841251Y-112770204D01*
X162831636Y-112789074D01*
X162783662Y-112839870D01*
X162721151Y-112856779D01*
X153857376Y-112856779D01*
X153790337Y-112837094D01*
X153769695Y-112820460D01*
X153356819Y-112407584D01*
X153323334Y-112346261D01*
X153320500Y-112319903D01*
X153320500Y-111679098D01*
X153326738Y-111657852D01*
X153328318Y-111635766D01*
X153336390Y-111624982D01*
X153340185Y-111612059D01*
X153356917Y-111597560D01*
X153370188Y-111579832D01*
X153382810Y-111575124D01*
X153392989Y-111566304D01*
X153414905Y-111563152D01*
X153435653Y-111555414D01*
X153448814Y-111558276D01*
X153462147Y-111556360D01*
X153482288Y-111565558D01*
X153503926Y-111570265D01*
X153521652Y-111583535D01*
X153525703Y-111585385D01*
X153532180Y-111591416D01*
X153571284Y-111630520D01*
X153571285Y-111630520D01*
X153578353Y-111637588D01*
X154285139Y-112344374D01*
X154285149Y-112344385D01*
X154289479Y-112348715D01*
X154289480Y-112348716D01*
X154401284Y-112460520D01*
X154488095Y-112510639D01*
X154488097Y-112510641D01*
X154530918Y-112535364D01*
X154538215Y-112539577D01*
X154690942Y-112580500D01*
X154690943Y-112580500D01*
X160163331Y-112580500D01*
X160163347Y-112580501D01*
X160170943Y-112580501D01*
X160329054Y-112580501D01*
X160329057Y-112580501D01*
X160481785Y-112539577D01*
X160531904Y-112510639D01*
X160618716Y-112460520D01*
X160730520Y-112348716D01*
X160730520Y-112348714D01*
X160740728Y-112338507D01*
X160740729Y-112338504D01*
X168390596Y-104688638D01*
X174817845Y-104688638D01*
X175689952Y-104688638D01*
X175677015Y-104719871D01*
X175648193Y-104864769D01*
X175648193Y-105012507D01*
X175677015Y-105157405D01*
X175689952Y-105188638D01*
X174817845Y-105188638D01*
X174837590Y-105313306D01*
X174837590Y-105313309D01*
X174915412Y-105552822D01*
X175029750Y-105777221D01*
X175177783Y-105980969D01*
X175177783Y-105980970D01*
X175355860Y-106159047D01*
X175559609Y-106307080D01*
X175784008Y-106421418D01*
X176023522Y-106499240D01*
X176148193Y-106518986D01*
X176148193Y-105646878D01*
X176179426Y-105659816D01*
X176324324Y-105688638D01*
X176472062Y-105688638D01*
X176616960Y-105659816D01*
X176648193Y-105646878D01*
X176648193Y-106518986D01*
X176670463Y-106538007D01*
X176708656Y-106596514D01*
X176709154Y-106666382D01*
X176671800Y-106725428D01*
X176662818Y-106732614D01*
X176579291Y-106793300D01*
X176456807Y-106915784D01*
X176456807Y-106915785D01*
X176456805Y-106915787D01*
X176413078Y-106975971D01*
X176354987Y-107055926D01*
X176276347Y-107210267D01*
X176222816Y-107375017D01*
X176202177Y-107505328D01*
X176195719Y-107546104D01*
X176195719Y-107719326D01*
X176222817Y-107890416D01*
X176276346Y-108055160D01*
X176354987Y-108209503D01*
X176456805Y-108349643D01*
X176579291Y-108472129D01*
X176719431Y-108573947D01*
X176873774Y-108652588D01*
X177038518Y-108706117D01*
X177209608Y-108733215D01*
X177209609Y-108733215D01*
X177382829Y-108733215D01*
X177382830Y-108733215D01*
X177553920Y-108706117D01*
X177718664Y-108652588D01*
X177873007Y-108573947D01*
X178013147Y-108472129D01*
X178135633Y-108349643D01*
X178237451Y-108209503D01*
X178316092Y-108055160D01*
X178369621Y-107890416D01*
X178396719Y-107719326D01*
X178396719Y-107546104D01*
X178369621Y-107375014D01*
X178316092Y-107210270D01*
X178237451Y-107055927D01*
X178135633Y-106915787D01*
X178013147Y-106793301D01*
X177873007Y-106691483D01*
X177718664Y-106612842D01*
X177553920Y-106559313D01*
X177553918Y-106559312D01*
X177553917Y-106559312D01*
X177419399Y-106538007D01*
X177382830Y-106532215D01*
X177308539Y-106532215D01*
X177241500Y-106512530D01*
X177195745Y-106459726D01*
X177185801Y-106390568D01*
X177214826Y-106327012D01*
X177235653Y-106307897D01*
X177440524Y-106159047D01*
X177440525Y-106159047D01*
X177618602Y-105980970D01*
X177618602Y-105980969D01*
X177766635Y-105777221D01*
X177880973Y-105552822D01*
X177958795Y-105313309D01*
X177958795Y-105313306D01*
X177978541Y-105188638D01*
X177106434Y-105188638D01*
X177119371Y-105157405D01*
X177148193Y-105012507D01*
X177148193Y-104864769D01*
X177119371Y-104719871D01*
X177106434Y-104688638D01*
X177978541Y-104688638D01*
X177958795Y-104563969D01*
X177958795Y-104563966D01*
X177880973Y-104324453D01*
X177766633Y-104100051D01*
X177666287Y-103961936D01*
X177666285Y-103961934D01*
X177618603Y-103896306D01*
X177615396Y-103893099D01*
X178637821Y-103893099D01*
X178637821Y-104188126D01*
X178657915Y-104340747D01*
X178676328Y-104480606D01*
X178744614Y-104735453D01*
X178752682Y-104765564D01*
X178752685Y-104765574D01*
X178865575Y-105038113D01*
X178865579Y-105038123D01*
X179013082Y-105293606D01*
X179192673Y-105527653D01*
X179192679Y-105527660D01*
X179401273Y-105736254D01*
X179401280Y-105736260D01*
X179635327Y-105915851D01*
X179890810Y-106063354D01*
X179890811Y-106063354D01*
X179890814Y-106063356D01*
X180163369Y-106176252D01*
X180448328Y-106252606D01*
X180740815Y-106291113D01*
X180740822Y-106291113D01*
X181035820Y-106291113D01*
X181035827Y-106291113D01*
X181328314Y-106252606D01*
X181613273Y-106176252D01*
X181885828Y-106063356D01*
X182141315Y-105915851D01*
X182375363Y-105736259D01*
X182583967Y-105527655D01*
X182763559Y-105293607D01*
X182911064Y-105038120D01*
X183023960Y-104765565D01*
X183100314Y-104480606D01*
X183138821Y-104188119D01*
X183138821Y-103893107D01*
X183100314Y-103600620D01*
X183023960Y-103315661D01*
X182911064Y-103043106D01*
X182897660Y-103019890D01*
X182763559Y-102787619D01*
X182583968Y-102553572D01*
X182583962Y-102553565D01*
X182375368Y-102344971D01*
X182375361Y-102344965D01*
X182141314Y-102165374D01*
X181885831Y-102017871D01*
X181885821Y-102017867D01*
X181613282Y-101904977D01*
X181613275Y-101904975D01*
X181613273Y-101904974D01*
X181328314Y-101828620D01*
X181279434Y-101822184D01*
X181035834Y-101790113D01*
X181035827Y-101790113D01*
X180740815Y-101790113D01*
X180740807Y-101790113D01*
X180462406Y-101826766D01*
X180448328Y-101828620D01*
X180163369Y-101904974D01*
X180163359Y-101904977D01*
X179890820Y-102017867D01*
X179890810Y-102017871D01*
X179635327Y-102165374D01*
X179401280Y-102344965D01*
X179401273Y-102344971D01*
X179192679Y-102553565D01*
X179192673Y-102553572D01*
X179013082Y-102787619D01*
X178865579Y-103043102D01*
X178865575Y-103043112D01*
X178752685Y-103315651D01*
X178752682Y-103315661D01*
X178676328Y-103600620D01*
X178674474Y-103614698D01*
X178637821Y-103893099D01*
X177615396Y-103893099D01*
X177440525Y-103718228D01*
X177236776Y-103570195D01*
X177012377Y-103455857D01*
X176772863Y-103378035D01*
X176648193Y-103358288D01*
X176648193Y-104230397D01*
X176616960Y-104217460D01*
X176472062Y-104188638D01*
X176324324Y-104188638D01*
X176179426Y-104217460D01*
X176148193Y-104230397D01*
X176148193Y-103358288D01*
X176023523Y-103378035D01*
X176023520Y-103378035D01*
X175784008Y-103455857D01*
X175559609Y-103570195D01*
X175355861Y-103718228D01*
X175355860Y-103718228D01*
X175177783Y-103896305D01*
X175177783Y-103896306D01*
X175029750Y-104100054D01*
X174915412Y-104324453D01*
X174837590Y-104563966D01*
X174837590Y-104563969D01*
X174817845Y-104688638D01*
X168390596Y-104688638D01*
X172717336Y-100361899D01*
X183379924Y-100361899D01*
X183379924Y-100535121D01*
X183407022Y-100706211D01*
X183460551Y-100870955D01*
X183539192Y-101025298D01*
X183641010Y-101165438D01*
X183763496Y-101287924D01*
X183903636Y-101389742D01*
X184057979Y-101468383D01*
X184222723Y-101521912D01*
X184393813Y-101549010D01*
X184393814Y-101549010D01*
X184567034Y-101549010D01*
X184567035Y-101549010D01*
X184738125Y-101521912D01*
X184902869Y-101468383D01*
X185057212Y-101389742D01*
X185197352Y-101287924D01*
X185319838Y-101165438D01*
X185421656Y-101025298D01*
X185500297Y-100870955D01*
X185553826Y-100706211D01*
X185580924Y-100535121D01*
X185580924Y-100361899D01*
X185553826Y-100190809D01*
X185500297Y-100026065D01*
X185421656Y-99871722D01*
X185319838Y-99731582D01*
X185197352Y-99609096D01*
X185057212Y-99507278D01*
X184902869Y-99428637D01*
X184738125Y-99375108D01*
X184738123Y-99375107D01*
X184738122Y-99375107D01*
X184606695Y-99354291D01*
X184567035Y-99348010D01*
X184393813Y-99348010D01*
X184354152Y-99354291D01*
X184222726Y-99375107D01*
X184057976Y-99428638D01*
X183903635Y-99507278D01*
X183823680Y-99565369D01*
X183763496Y-99609096D01*
X183763494Y-99609098D01*
X183763493Y-99609098D01*
X183641012Y-99731579D01*
X183539192Y-99871721D01*
X183460552Y-100026062D01*
X183407021Y-100190812D01*
X183403420Y-100213548D01*
X183379924Y-100361899D01*
X172717336Y-100361899D01*
X173789957Y-99289278D01*
X173851280Y-99255793D01*
X173877638Y-99252959D01*
X177525970Y-99252959D01*
X177593009Y-99272644D01*
X177636454Y-99320663D01*
X177711892Y-99468719D01*
X177723402Y-99491307D01*
X177871471Y-99695108D01*
X177871475Y-99695113D01*
X178049615Y-99873253D01*
X178049620Y-99873257D01*
X178173067Y-99962946D01*
X178253425Y-100021329D01*
X178396454Y-100094206D01*
X178477886Y-100135698D01*
X178477888Y-100135698D01*
X178477891Y-100135700D01*
X178717485Y-100213549D01*
X178966308Y-100252959D01*
X178966309Y-100252959D01*
X179218231Y-100252959D01*
X179218232Y-100252959D01*
X179467055Y-100213549D01*
X179706649Y-100135700D01*
X179931115Y-100021329D01*
X180134926Y-99873252D01*
X180313063Y-99695115D01*
X180461140Y-99491304D01*
X180575511Y-99266838D01*
X180653360Y-99027244D01*
X180692770Y-98778421D01*
X180692770Y-98526497D01*
X180653360Y-98277674D01*
X180575511Y-98038080D01*
X180575509Y-98038077D01*
X180575509Y-98038075D01*
X180525479Y-97939886D01*
X180461140Y-97813614D01*
X180422808Y-97760854D01*
X180313068Y-97609809D01*
X180313064Y-97609804D01*
X180134924Y-97431664D01*
X180134919Y-97431660D01*
X179931118Y-97283591D01*
X179931117Y-97283590D01*
X179931115Y-97283589D01*
X179847559Y-97241015D01*
X179706653Y-97169219D01*
X179467055Y-97091369D01*
X179354052Y-97073471D01*
X179218232Y-97051959D01*
X178966308Y-97051959D01*
X178841896Y-97071664D01*
X178717484Y-97091369D01*
X178477886Y-97169219D01*
X178253421Y-97283591D01*
X178049620Y-97431660D01*
X178049615Y-97431664D01*
X177871475Y-97609804D01*
X177871471Y-97609809D01*
X177723402Y-97813610D01*
X177723400Y-97813614D01*
X177659062Y-97939886D01*
X177636455Y-97984254D01*
X177588481Y-98035050D01*
X177525970Y-98051959D01*
X173656598Y-98051959D01*
X173498483Y-98051959D01*
X173345756Y-98092882D01*
X173345755Y-98092882D01*
X173345753Y-98092883D01*
X173345750Y-98092884D01*
X173295637Y-98121818D01*
X173295636Y-98121819D01*
X173252230Y-98146879D01*
X173208826Y-98171938D01*
X173208823Y-98171940D01*
X173103091Y-98277673D01*
X173097021Y-98283743D01*
X173097019Y-98283745D01*
X166560501Y-104820264D01*
X160037584Y-111343181D01*
X159976261Y-111376666D01*
X159949903Y-111379500D01*
X155070097Y-111379500D01*
X155003058Y-111359815D01*
X154982416Y-111343181D01*
X154576819Y-110937584D01*
X154543334Y-110876261D01*
X154540500Y-110849903D01*
X154540500Y-106182783D01*
X154560185Y-106115744D01*
X154568647Y-106104118D01*
X154571789Y-106100289D01*
X154659390Y-105969185D01*
X154659390Y-105969184D01*
X154659394Y-105969179D01*
X154719737Y-105823497D01*
X154750500Y-105668842D01*
X154750500Y-105511158D01*
X154750500Y-105511155D01*
X154750499Y-105511153D01*
X154731718Y-105416735D01*
X154719737Y-105356503D01*
X154701846Y-105313309D01*
X154659397Y-105210827D01*
X154659390Y-105210814D01*
X154571789Y-105079711D01*
X154571786Y-105079707D01*
X154460292Y-104968213D01*
X154460288Y-104968210D01*
X154329185Y-104880609D01*
X154329172Y-104880602D01*
X154183501Y-104820264D01*
X154183489Y-104820261D01*
X154028845Y-104789500D01*
X154028842Y-104789500D01*
X153871158Y-104789500D01*
X153871155Y-104789500D01*
X153716510Y-104820261D01*
X153716498Y-104820264D01*
X153570827Y-104880602D01*
X153570814Y-104880609D01*
X153513391Y-104918979D01*
X153503690Y-104922016D01*
X153496011Y-104928671D01*
X153470913Y-104932279D01*
X153446714Y-104939857D01*
X153436913Y-104937168D01*
X153426853Y-104938615D01*
X153403787Y-104928081D01*
X153379333Y-104921373D01*
X153372540Y-104913811D01*
X153363297Y-104909590D01*
X153349588Y-104888259D01*
X153332643Y-104869394D01*
X153330011Y-104857796D01*
X153325523Y-104850812D01*
X153320500Y-104815877D01*
X153320500Y-104694559D01*
X153320501Y-104694546D01*
X153320501Y-104526445D01*
X153320501Y-104526443D01*
X153279577Y-104373715D01*
X153250639Y-104323595D01*
X153200520Y-104236784D01*
X153088716Y-104124980D01*
X153088715Y-104124979D01*
X153084385Y-104120649D01*
X153084374Y-104120639D01*
X148030077Y-99066342D01*
X147996592Y-99005019D01*
X147999828Y-98940341D01*
X148004477Y-98926034D01*
X148036500Y-98723852D01*
X148036500Y-98519148D01*
X148004477Y-98316966D01*
X147998679Y-98299123D01*
X147957355Y-98171939D01*
X147941220Y-98122281D01*
X147941218Y-98122278D01*
X147941218Y-98122276D01*
X147898315Y-98038075D01*
X147848287Y-97939890D01*
X147840556Y-97929249D01*
X147727971Y-97774286D01*
X147583213Y-97629528D01*
X147417614Y-97509215D01*
X147411006Y-97505848D01*
X147324917Y-97461983D01*
X147274123Y-97414011D01*
X147257328Y-97346190D01*
X147279865Y-97280055D01*
X147324917Y-97241016D01*
X147417610Y-97193787D01*
X147451427Y-97169218D01*
X147583213Y-97073471D01*
X147583215Y-97073468D01*
X147583219Y-97073466D01*
X147727966Y-96928719D01*
X147727968Y-96928715D01*
X147727971Y-96928713D01*
X147780732Y-96856090D01*
X147848287Y-96763110D01*
X147941220Y-96580719D01*
X148004477Y-96386034D01*
X148036500Y-96183852D01*
X148036500Y-95979148D01*
X148004477Y-95776966D01*
X148001773Y-95768645D01*
X147964354Y-95653479D01*
X147941220Y-95582281D01*
X147941218Y-95582278D01*
X147941218Y-95582276D01*
X147899644Y-95500684D01*
X147848287Y-95399890D01*
X147840556Y-95389249D01*
X147727971Y-95234286D01*
X147583213Y-95089528D01*
X147417614Y-94969215D01*
X147411006Y-94965848D01*
X147324917Y-94921983D01*
X147274123Y-94874011D01*
X147257328Y-94806190D01*
X147279865Y-94740055D01*
X147324917Y-94701016D01*
X147417610Y-94653787D01*
X147540913Y-94564203D01*
X147583213Y-94533471D01*
X147583215Y-94533468D01*
X147583219Y-94533466D01*
X147727966Y-94388719D01*
X147727968Y-94388715D01*
X147727971Y-94388713D01*
X147835217Y-94241099D01*
X147848287Y-94223110D01*
X147941220Y-94040719D01*
X148004477Y-93846034D01*
X148036500Y-93643852D01*
X148036500Y-93439148D01*
X148025362Y-93368828D01*
X148004477Y-93236965D01*
X147959986Y-93100038D01*
X147941220Y-93042281D01*
X147941218Y-93042278D01*
X147941218Y-93042276D01*
X147887224Y-92936308D01*
X147848287Y-92859890D01*
X147825688Y-92828785D01*
X147727971Y-92694286D01*
X147583213Y-92549528D01*
X147417614Y-92429215D01*
X147396914Y-92418668D01*
X147324917Y-92381983D01*
X147274123Y-92334011D01*
X147257328Y-92266190D01*
X147279865Y-92200055D01*
X147324917Y-92161016D01*
X147417610Y-92113787D01*
X147449563Y-92090572D01*
X147583213Y-91993471D01*
X147583215Y-91993468D01*
X147583219Y-91993466D01*
X147727966Y-91848719D01*
X147727968Y-91848715D01*
X147727971Y-91848713D01*
X147802795Y-91745725D01*
X147848287Y-91683110D01*
X147941220Y-91500719D01*
X148004477Y-91306034D01*
X148036500Y-91103852D01*
X148036500Y-90899148D01*
X148009811Y-90730640D01*
X148004477Y-90696965D01*
X147968571Y-90586459D01*
X147941220Y-90502281D01*
X147941218Y-90502278D01*
X147941218Y-90502276D01*
X147897023Y-90415540D01*
X147848287Y-90319890D01*
X147826661Y-90290124D01*
X147727971Y-90154286D01*
X147583213Y-90009528D01*
X147417614Y-89889215D01*
X147371149Y-89865540D01*
X147324917Y-89841983D01*
X147274123Y-89794011D01*
X147257328Y-89726190D01*
X147279865Y-89660055D01*
X147324917Y-89621016D01*
X147417610Y-89573787D01*
X147565424Y-89466395D01*
X147583213Y-89453471D01*
X147583215Y-89453468D01*
X147583219Y-89453466D01*
X147727966Y-89308719D01*
X147727968Y-89308715D01*
X147727971Y-89308713D01*
X147780732Y-89236090D01*
X147848287Y-89143110D01*
X147941220Y-88960719D01*
X148004477Y-88766034D01*
X148036500Y-88563852D01*
X148036500Y-88359148D01*
X148004477Y-88156966D01*
X147941220Y-87962281D01*
X147941218Y-87962278D01*
X147941218Y-87962276D01*
X147907503Y-87896107D01*
X147848287Y-87779890D01*
X147840556Y-87769249D01*
X147727971Y-87614286D01*
X147583213Y-87469528D01*
X147417614Y-87349215D01*
X147411006Y-87345848D01*
X147324917Y-87301983D01*
X147274123Y-87254011D01*
X147257328Y-87186190D01*
X147279865Y-87120055D01*
X147324917Y-87081016D01*
X147417610Y-87033787D01*
X147438770Y-87018413D01*
X147583213Y-86913471D01*
X147583215Y-86913468D01*
X147583219Y-86913466D01*
X147727966Y-86768719D01*
X147727968Y-86768715D01*
X147727971Y-86768713D01*
X147780732Y-86696090D01*
X147848287Y-86603110D01*
X147941220Y-86420719D01*
X148004477Y-86226034D01*
X148036500Y-86023852D01*
X148036500Y-85819148D01*
X148016045Y-85690003D01*
X148004477Y-85616965D01*
X147941218Y-85422276D01*
X147848419Y-85240150D01*
X147848287Y-85239890D01*
X147796730Y-85168927D01*
X147727971Y-85074286D01*
X147583213Y-84929528D01*
X147417614Y-84809215D01*
X147411006Y-84805848D01*
X147324917Y-84761983D01*
X147274123Y-84714011D01*
X147257328Y-84646190D01*
X147279865Y-84580055D01*
X147324917Y-84541016D01*
X147417610Y-84493787D01*
X147539051Y-84405556D01*
X147583213Y-84373471D01*
X147583215Y-84373468D01*
X147583219Y-84373466D01*
X147727966Y-84228719D01*
X147727968Y-84228715D01*
X147727971Y-84228713D01*
X147780732Y-84156090D01*
X147848287Y-84063110D01*
X147941220Y-83880719D01*
X148004477Y-83686034D01*
X148036500Y-83483852D01*
X148036500Y-83279148D01*
X148004477Y-83076965D01*
X147952258Y-82916252D01*
X147941220Y-82882281D01*
X147941218Y-82882278D01*
X147941218Y-82882276D01*
X147907503Y-82816107D01*
X147848287Y-82699890D01*
X147784663Y-82612318D01*
X147727971Y-82534286D01*
X147583213Y-82389528D01*
X147417614Y-82269215D01*
X147357334Y-82238501D01*
X147324917Y-82221983D01*
X147274123Y-82174011D01*
X147257328Y-82106190D01*
X147279865Y-82040055D01*
X147324917Y-82001016D01*
X147417610Y-81953787D01*
X147438770Y-81938413D01*
X147583213Y-81833471D01*
X147583215Y-81833468D01*
X147583219Y-81833466D01*
X147727966Y-81688719D01*
X147727968Y-81688715D01*
X147727971Y-81688713D01*
X147780732Y-81616090D01*
X147848287Y-81523110D01*
X147941220Y-81340719D01*
X148004477Y-81146034D01*
X148036500Y-80943852D01*
X148036500Y-80739148D01*
X148004477Y-80536966D01*
X147941220Y-80342281D01*
X147941218Y-80342278D01*
X147941218Y-80342276D01*
X147892384Y-80246436D01*
X147848287Y-80159890D01*
X147803696Y-80098515D01*
X147727971Y-79994286D01*
X147583213Y-79849528D01*
X147417614Y-79729215D01*
X147411006Y-79725848D01*
X147324917Y-79681983D01*
X147274123Y-79634011D01*
X147257328Y-79566190D01*
X147279865Y-79500055D01*
X147324917Y-79461016D01*
X147417610Y-79413787D01*
X147472640Y-79373806D01*
X147583213Y-79293471D01*
X147583215Y-79293468D01*
X147583219Y-79293466D01*
X147727966Y-79148719D01*
X147727968Y-79148715D01*
X147727971Y-79148713D01*
X147826979Y-79012438D01*
X147848287Y-78983110D01*
X147941220Y-78800719D01*
X148004477Y-78606034D01*
X148036500Y-78403852D01*
X148036500Y-78199148D01*
X148004477Y-77996965D01*
X147947065Y-77820271D01*
X147941220Y-77802281D01*
X147941218Y-77802278D01*
X147941218Y-77802276D01*
X147848287Y-77619890D01*
X147778032Y-77523191D01*
X147778031Y-77523188D01*
X147727971Y-77454287D01*
X147727967Y-77454282D01*
X147727320Y-77453635D01*
X160675500Y-77453635D01*
X160675500Y-79149370D01*
X160675501Y-79149376D01*
X160681908Y-79208983D01*
X160732202Y-79343828D01*
X160732206Y-79343835D01*
X160818452Y-79459044D01*
X160818455Y-79459047D01*
X160933664Y-79545293D01*
X160933671Y-79545297D01*
X160978618Y-79562061D01*
X161068517Y-79595591D01*
X161105441Y-79599560D01*
X161169989Y-79626296D01*
X161209838Y-79683688D01*
X161212333Y-79753513D01*
X161176681Y-79813602D01*
X161165071Y-79823166D01*
X161128784Y-79849530D01*
X160984028Y-79994286D01*
X160863715Y-80159886D01*
X160770781Y-80342276D01*
X160707522Y-80536965D01*
X160675500Y-80739148D01*
X160675500Y-80943851D01*
X160707522Y-81146034D01*
X160770781Y-81340723D01*
X160787429Y-81373395D01*
X160854475Y-81504980D01*
X160863715Y-81523113D01*
X160984028Y-81688713D01*
X161128786Y-81833471D01*
X161277357Y-81941412D01*
X161294390Y-81953787D01*
X161385840Y-82000383D01*
X161387080Y-82001015D01*
X161437876Y-82048990D01*
X161454671Y-82116811D01*
X161432134Y-82182946D01*
X161387080Y-82221985D01*
X161294386Y-82269215D01*
X161128786Y-82389528D01*
X160984028Y-82534286D01*
X160863715Y-82699886D01*
X160770781Y-82882276D01*
X160707522Y-83076965D01*
X160675500Y-83279148D01*
X160675500Y-83483851D01*
X160707522Y-83686034D01*
X160770781Y-83880723D01*
X160834691Y-84006153D01*
X160848355Y-84032969D01*
X160863715Y-84063113D01*
X160984028Y-84228713D01*
X161128786Y-84373471D01*
X161283749Y-84486056D01*
X161294390Y-84493787D01*
X161366424Y-84530490D01*
X161387629Y-84541295D01*
X161438425Y-84589270D01*
X161455220Y-84657091D01*
X161432682Y-84723226D01*
X161387629Y-84762265D01*
X161294650Y-84809640D01*
X161129105Y-84929917D01*
X161129104Y-84929917D01*
X160984417Y-85074604D01*
X160984417Y-85074605D01*
X160864140Y-85240150D01*
X160771244Y-85422470D01*
X160708009Y-85617086D01*
X160699391Y-85671500D01*
X161660314Y-85671500D01*
X161655920Y-85675894D01*
X161603259Y-85767106D01*
X161576000Y-85868839D01*
X161576000Y-85974161D01*
X161603259Y-86075894D01*
X161655920Y-86167106D01*
X161660314Y-86171500D01*
X160699391Y-86171500D01*
X160708009Y-86225913D01*
X160771244Y-86420529D01*
X160864140Y-86602849D01*
X160984417Y-86768394D01*
X160984417Y-86768395D01*
X161129104Y-86913082D01*
X161294652Y-87033361D01*
X161387628Y-87080734D01*
X161438425Y-87128708D01*
X161455220Y-87196529D01*
X161432683Y-87262664D01*
X161387630Y-87301703D01*
X161294388Y-87349213D01*
X161128786Y-87469528D01*
X160984028Y-87614286D01*
X160863715Y-87779886D01*
X160770781Y-87962276D01*
X160707522Y-88156965D01*
X160675500Y-88359148D01*
X160675500Y-88563851D01*
X160707522Y-88766034D01*
X160770781Y-88960723D01*
X160863715Y-89143113D01*
X160984028Y-89308713D01*
X161128786Y-89453471D01*
X161270563Y-89556476D01*
X161294390Y-89573787D01*
X161385840Y-89620383D01*
X161387080Y-89621015D01*
X161437876Y-89668990D01*
X161454671Y-89736811D01*
X161432134Y-89802946D01*
X161387080Y-89841985D01*
X161294386Y-89889215D01*
X161128786Y-90009528D01*
X160984028Y-90154286D01*
X160863715Y-90319886D01*
X160770781Y-90502276D01*
X160707522Y-90696965D01*
X160685153Y-90838201D01*
X160675500Y-90899148D01*
X160675500Y-91103852D01*
X160679878Y-91131495D01*
X160707522Y-91306034D01*
X160770781Y-91500723D01*
X160833154Y-91623135D01*
X160858723Y-91673317D01*
X160863715Y-91683113D01*
X160984028Y-91848713D01*
X161128786Y-91993471D01*
X161262437Y-92090572D01*
X161294390Y-92113787D01*
X161370720Y-92152679D01*
X161387080Y-92161015D01*
X161437876Y-92208990D01*
X161454671Y-92276811D01*
X161432134Y-92342946D01*
X161387080Y-92381985D01*
X161294386Y-92429215D01*
X161128786Y-92549528D01*
X160984028Y-92694286D01*
X160863715Y-92859886D01*
X160770781Y-93042276D01*
X160707522Y-93236965D01*
X160675500Y-93439148D01*
X160675500Y-93643851D01*
X160707522Y-93846034D01*
X160770781Y-94040723D01*
X160814332Y-94126195D01*
X160851269Y-94198688D01*
X160863715Y-94223113D01*
X160984028Y-94388713D01*
X161128786Y-94533471D01*
X161232628Y-94608915D01*
X161294390Y-94653787D01*
X161380295Y-94697558D01*
X161387080Y-94701015D01*
X161437876Y-94748990D01*
X161454671Y-94816811D01*
X161432134Y-94882946D01*
X161387080Y-94921985D01*
X161294386Y-94969215D01*
X161128786Y-95089528D01*
X160984028Y-95234286D01*
X160863715Y-95399886D01*
X160770781Y-95582276D01*
X160707522Y-95776965D01*
X160675500Y-95979148D01*
X160675500Y-96183851D01*
X160707522Y-96386034D01*
X160770781Y-96580723D01*
X160863715Y-96763113D01*
X160984028Y-96928713D01*
X161128786Y-97073471D01*
X161283749Y-97186056D01*
X161294390Y-97193787D01*
X161385840Y-97240383D01*
X161387080Y-97241015D01*
X161437876Y-97288990D01*
X161454671Y-97356811D01*
X161432134Y-97422946D01*
X161387080Y-97461985D01*
X161294386Y-97509215D01*
X161128786Y-97629528D01*
X160984028Y-97774286D01*
X160863715Y-97939886D01*
X160770781Y-98122276D01*
X160707522Y-98316965D01*
X160675500Y-98519148D01*
X160675500Y-98723851D01*
X160707522Y-98926034D01*
X160770781Y-99120723D01*
X160834691Y-99246153D01*
X160856665Y-99289278D01*
X160863715Y-99303113D01*
X160984028Y-99468713D01*
X161128786Y-99613471D01*
X161241152Y-99695108D01*
X161294390Y-99733787D01*
X161385840Y-99780383D01*
X161387080Y-99781015D01*
X161437876Y-99828990D01*
X161454671Y-99896811D01*
X161432134Y-99962946D01*
X161387080Y-100001985D01*
X161294386Y-100049215D01*
X161128786Y-100169528D01*
X160984028Y-100314286D01*
X160863715Y-100479886D01*
X160770781Y-100662276D01*
X160707522Y-100856965D01*
X160675500Y-101059148D01*
X160675500Y-101263851D01*
X160707522Y-101466034D01*
X160770781Y-101660723D01*
X160834691Y-101786153D01*
X160856330Y-101828621D01*
X160863715Y-101843113D01*
X160984028Y-102008713D01*
X161128786Y-102153471D01*
X161283749Y-102266056D01*
X161294390Y-102273787D01*
X161385840Y-102320383D01*
X161387080Y-102321015D01*
X161437876Y-102368990D01*
X161454671Y-102436811D01*
X161432134Y-102502946D01*
X161387080Y-102541985D01*
X161294386Y-102589215D01*
X161128786Y-102709528D01*
X160984028Y-102854286D01*
X160863715Y-103019886D01*
X160770781Y-103202276D01*
X160707522Y-103396965D01*
X160675500Y-103599148D01*
X160675500Y-103803851D01*
X160707522Y-104006034D01*
X160770781Y-104200723D01*
X160808117Y-104273997D01*
X160858925Y-104373714D01*
X160863715Y-104383113D01*
X160984028Y-104548713D01*
X161128786Y-104693471D01*
X161283749Y-104806056D01*
X161294390Y-104813787D01*
X161367056Y-104850812D01*
X161387080Y-104861015D01*
X161437876Y-104908990D01*
X161454671Y-104976811D01*
X161432134Y-105042946D01*
X161387080Y-105081985D01*
X161294386Y-105129215D01*
X161128786Y-105249528D01*
X160984028Y-105394286D01*
X160863715Y-105559886D01*
X160770781Y-105742276D01*
X160707522Y-105936965D01*
X160675500Y-106139148D01*
X160675500Y-106343851D01*
X160707522Y-106546034D01*
X160770781Y-106740723D01*
X160834691Y-106866153D01*
X160859980Y-106915784D01*
X160863715Y-106923113D01*
X160984028Y-107088713D01*
X161128786Y-107233471D01*
X161283749Y-107346056D01*
X161294390Y-107353787D01*
X161410607Y-107413003D01*
X161476776Y-107446718D01*
X161476778Y-107446718D01*
X161476781Y-107446720D01*
X161581137Y-107480627D01*
X161671465Y-107509977D01*
X161772557Y-107525988D01*
X161873648Y-107542000D01*
X161873649Y-107542000D01*
X162078351Y-107542000D01*
X162078352Y-107542000D01*
X162280534Y-107509977D01*
X162475219Y-107446720D01*
X162657610Y-107353787D01*
X162750590Y-107286232D01*
X162823213Y-107233471D01*
X162823215Y-107233468D01*
X162823219Y-107233466D01*
X162967966Y-107088719D01*
X162967968Y-107088715D01*
X162967971Y-107088713D01*
X163020732Y-107016090D01*
X163088287Y-106923110D01*
X163181220Y-106740719D01*
X163244477Y-106546034D01*
X163276500Y-106343852D01*
X163276500Y-106139148D01*
X163264382Y-106062638D01*
X163244477Y-105936965D01*
X163207606Y-105823489D01*
X163181220Y-105742281D01*
X163181218Y-105742278D01*
X163181218Y-105742276D01*
X163128400Y-105638616D01*
X163088287Y-105559890D01*
X163060178Y-105521201D01*
X162967971Y-105394286D01*
X162823213Y-105249528D01*
X162657614Y-105129215D01*
X162583105Y-105091251D01*
X162564917Y-105081983D01*
X162514123Y-105034011D01*
X162497328Y-104966190D01*
X162519865Y-104900055D01*
X162564917Y-104861016D01*
X162657610Y-104813787D01*
X162678770Y-104798413D01*
X162823213Y-104693471D01*
X162823215Y-104693468D01*
X162823219Y-104693466D01*
X162967966Y-104548719D01*
X162967968Y-104548715D01*
X162967971Y-104548713D01*
X163020732Y-104476090D01*
X163088287Y-104383110D01*
X163181220Y-104200719D01*
X163244477Y-104006034D01*
X163276500Y-103803852D01*
X163276500Y-103599148D01*
X163264426Y-103522916D01*
X163244477Y-103396965D01*
X163181218Y-103202276D01*
X163147503Y-103136107D01*
X163088287Y-103019890D01*
X163058175Y-102978444D01*
X162967971Y-102854286D01*
X162823213Y-102709528D01*
X162657614Y-102589215D01*
X162651006Y-102585848D01*
X162564917Y-102541983D01*
X162514123Y-102494011D01*
X162497328Y-102426190D01*
X162519865Y-102360055D01*
X162564917Y-102321016D01*
X162657610Y-102273787D01*
X162678770Y-102258413D01*
X162823213Y-102153471D01*
X162823215Y-102153468D01*
X162823219Y-102153466D01*
X162967966Y-102008719D01*
X162967968Y-102008715D01*
X162967971Y-102008713D01*
X163043338Y-101904977D01*
X163088287Y-101843110D01*
X163181220Y-101660719D01*
X163244477Y-101466034D01*
X163276500Y-101263852D01*
X163276500Y-101059148D01*
X163264426Y-100982916D01*
X163244477Y-100856965D01*
X163181218Y-100662276D01*
X163147503Y-100596107D01*
X163088287Y-100479890D01*
X163080556Y-100469249D01*
X162967971Y-100314286D01*
X162823213Y-100169528D01*
X162657614Y-100049215D01*
X162651006Y-100045848D01*
X162564917Y-100001983D01*
X162514123Y-99954011D01*
X162497328Y-99886190D01*
X162519865Y-99820055D01*
X162564917Y-99781016D01*
X162657610Y-99733787D01*
X162710848Y-99695108D01*
X162823213Y-99613471D01*
X162823215Y-99613468D01*
X162823219Y-99613466D01*
X162967966Y-99468719D01*
X162967968Y-99468715D01*
X162967971Y-99468713D01*
X163035978Y-99375108D01*
X163088287Y-99303110D01*
X163181220Y-99120719D01*
X163244477Y-98926034D01*
X163276500Y-98723852D01*
X163276500Y-98519148D01*
X163244477Y-98316966D01*
X163238679Y-98299123D01*
X163197355Y-98171939D01*
X163181220Y-98122281D01*
X163181218Y-98122278D01*
X163181218Y-98122276D01*
X163138315Y-98038075D01*
X163088287Y-97939890D01*
X163080556Y-97929249D01*
X162967971Y-97774286D01*
X162823213Y-97629528D01*
X162657614Y-97509215D01*
X162651006Y-97505848D01*
X162564917Y-97461983D01*
X162514123Y-97414011D01*
X162497328Y-97346190D01*
X162519865Y-97280055D01*
X162564917Y-97241016D01*
X162657610Y-97193787D01*
X162691427Y-97169218D01*
X162823213Y-97073471D01*
X162823215Y-97073468D01*
X162823219Y-97073466D01*
X162967966Y-96928719D01*
X162967968Y-96928715D01*
X162967971Y-96928713D01*
X163020732Y-96856090D01*
X163088287Y-96763110D01*
X163181220Y-96580719D01*
X163244477Y-96386034D01*
X163276500Y-96183852D01*
X163276500Y-95979148D01*
X163244477Y-95776966D01*
X163241773Y-95768645D01*
X163204354Y-95653479D01*
X163181220Y-95582281D01*
X163181218Y-95582278D01*
X163181218Y-95582276D01*
X163139644Y-95500684D01*
X163088287Y-95399890D01*
X163080556Y-95389249D01*
X162967971Y-95234286D01*
X162823213Y-95089528D01*
X162709956Y-95007244D01*
X162709953Y-95007242D01*
X162657610Y-94969213D01*
X162561663Y-94920325D01*
X162558511Y-94918478D01*
X162548849Y-94908211D01*
X170504819Y-94908211D01*
X170504819Y-95116860D01*
X170537456Y-95322925D01*
X170601931Y-95521356D01*
X170696649Y-95707250D01*
X170819284Y-95876041D01*
X170966814Y-96023571D01*
X171135605Y-96146206D01*
X171209488Y-96183851D01*
X171321498Y-96240923D01*
X171321500Y-96240923D01*
X171321503Y-96240925D01*
X171427864Y-96275484D01*
X171519929Y-96305398D01*
X171725995Y-96338036D01*
X171726000Y-96338036D01*
X171934643Y-96338036D01*
X172140708Y-96305398D01*
X172339135Y-96240925D01*
X172525033Y-96146206D01*
X172693824Y-96023571D01*
X172841354Y-95876041D01*
X172963989Y-95707250D01*
X173058708Y-95521352D01*
X173123181Y-95322925D01*
X173132481Y-95264209D01*
X173155819Y-95116860D01*
X173155819Y-94908211D01*
X173123181Y-94702146D01*
X173078360Y-94564203D01*
X173058708Y-94503720D01*
X173058706Y-94503717D01*
X173058706Y-94503715D01*
X173008740Y-94405652D01*
X172963989Y-94317822D01*
X172956058Y-94306906D01*
X172932578Y-94241099D01*
X172948403Y-94173045D01*
X172998509Y-94124350D01*
X173056376Y-94110020D01*
X173069574Y-94110020D01*
X173129845Y-94100473D01*
X173129846Y-94100472D01*
X172880013Y-93331570D01*
X172892886Y-93335020D01*
X173037704Y-93335020D01*
X173177587Y-93297538D01*
X173303003Y-93225130D01*
X173354445Y-93173687D01*
X173605374Y-93945963D01*
X173659744Y-93918261D01*
X173828476Y-93795670D01*
X173975945Y-93648201D01*
X174098535Y-93479471D01*
X174193219Y-93293647D01*
X174257668Y-93095292D01*
X174290295Y-92889299D01*
X174290295Y-92680741D01*
X174280748Y-92620468D01*
X174280747Y-92620467D01*
X173511846Y-92870299D01*
X173515295Y-92857429D01*
X173515295Y-92712611D01*
X173477813Y-92572728D01*
X173405405Y-92447312D01*
X173353960Y-92395867D01*
X174126239Y-92144939D01*
X174098537Y-92090572D01*
X174098532Y-92090564D01*
X173975945Y-91921838D01*
X173828476Y-91774369D01*
X173659746Y-91651779D01*
X173473922Y-91557095D01*
X173275567Y-91492646D01*
X173069574Y-91460020D01*
X172861010Y-91460020D01*
X172800742Y-91469565D01*
X173050574Y-92238468D01*
X173037704Y-92235020D01*
X172892886Y-92235020D01*
X172753003Y-92272502D01*
X172627587Y-92344910D01*
X172576143Y-92396353D01*
X172325214Y-91624075D01*
X172270843Y-91651779D01*
X172102113Y-91774369D01*
X171954644Y-91921838D01*
X171832054Y-92090568D01*
X171737370Y-92276392D01*
X171672921Y-92474747D01*
X171640295Y-92680740D01*
X171640295Y-92889300D01*
X171640294Y-92889300D01*
X171649840Y-92949571D01*
X172057642Y-92817068D01*
X172418744Y-92699738D01*
X172415295Y-92712611D01*
X172415295Y-92857429D01*
X172452777Y-92997312D01*
X172525185Y-93122728D01*
X172576627Y-93174170D01*
X171804350Y-93425099D01*
X171832056Y-93479475D01*
X171839812Y-93490150D01*
X171863293Y-93555956D01*
X171847468Y-93624010D01*
X171797363Y-93672705D01*
X171739495Y-93687036D01*
X171725995Y-93687036D01*
X171519929Y-93719673D01*
X171321498Y-93784148D01*
X171135604Y-93878866D01*
X170966812Y-94001502D01*
X170819285Y-94149029D01*
X170696649Y-94317821D01*
X170601931Y-94503715D01*
X170537456Y-94702146D01*
X170504819Y-94908211D01*
X162548849Y-94908211D01*
X162536977Y-94895595D01*
X162514123Y-94874011D01*
X162513215Y-94870345D01*
X162510628Y-94867596D01*
X162504881Y-94836693D01*
X162497328Y-94806190D01*
X162498545Y-94802617D01*
X162497855Y-94798904D01*
X162509729Y-94769798D01*
X162519865Y-94740055D01*
X162522956Y-94737375D01*
X162524248Y-94734211D01*
X162536703Y-94725463D01*
X162564917Y-94701016D01*
X162657610Y-94653787D01*
X162780913Y-94564203D01*
X162823213Y-94533471D01*
X162823215Y-94533468D01*
X162823219Y-94533466D01*
X162967966Y-94388719D01*
X162967968Y-94388715D01*
X162967971Y-94388713D01*
X163075217Y-94241099D01*
X163088287Y-94223110D01*
X163181220Y-94040719D01*
X163244477Y-93846034D01*
X163276500Y-93643852D01*
X163276500Y-93439148D01*
X163244477Y-93236966D01*
X163244476Y-93236962D01*
X163244476Y-93236961D01*
X163198938Y-93096810D01*
X163196943Y-93026969D01*
X163233023Y-92967136D01*
X163295724Y-92936308D01*
X163316869Y-92934492D01*
X164950148Y-92934492D01*
X165017187Y-92954177D01*
X165041504Y-92974646D01*
X165046360Y-92979936D01*
X165046361Y-92979939D01*
X165143678Y-93085972D01*
X165193881Y-93118745D01*
X166749352Y-93911296D01*
X166805375Y-93932649D01*
X166948359Y-93949056D01*
X167090173Y-93924513D01*
X167219328Y-93861012D01*
X167325361Y-93763695D01*
X167358134Y-93713492D01*
X168150685Y-92158021D01*
X168172038Y-92101998D01*
X168188445Y-91959014D01*
X168163902Y-91817200D01*
X168100401Y-91688045D01*
X168003084Y-91582012D01*
X167952881Y-91549239D01*
X167947630Y-91546563D01*
X167943455Y-91544002D01*
X167923181Y-91521569D01*
X167901210Y-91500819D01*
X167899995Y-91495915D01*
X167896607Y-91492166D01*
X167893811Y-91475242D01*
X167890573Y-91476295D01*
X167623075Y-90653026D01*
X167635948Y-90656476D01*
X167780766Y-90656476D01*
X167920649Y-90618994D01*
X168046065Y-90546586D01*
X168097507Y-90495143D01*
X168348436Y-91267419D01*
X168402806Y-91239717D01*
X168571538Y-91117126D01*
X168719007Y-90969657D01*
X168841597Y-90800927D01*
X168936281Y-90615103D01*
X169000730Y-90416748D01*
X169033357Y-90210755D01*
X169033357Y-90002197D01*
X169023810Y-89941924D01*
X169023809Y-89941923D01*
X168254908Y-90191755D01*
X168258357Y-90178885D01*
X168258357Y-90034067D01*
X168220875Y-89894184D01*
X168148467Y-89768768D01*
X168097022Y-89717323D01*
X168869301Y-89466395D01*
X168841599Y-89412028D01*
X168841594Y-89412020D01*
X168719007Y-89243294D01*
X168571538Y-89095825D01*
X168402808Y-88973235D01*
X168216984Y-88878551D01*
X168018629Y-88814102D01*
X167812636Y-88781476D01*
X167604072Y-88781476D01*
X167543804Y-88791021D01*
X167793636Y-89559924D01*
X167780766Y-89556476D01*
X167635948Y-89556476D01*
X167496065Y-89593958D01*
X167370649Y-89666366D01*
X167319205Y-89717809D01*
X167068276Y-88945531D01*
X167013905Y-88973235D01*
X166845175Y-89095825D01*
X166697706Y-89243294D01*
X166575116Y-89412024D01*
X166480432Y-89597848D01*
X166415983Y-89796203D01*
X166383357Y-90002196D01*
X166383357Y-90210756D01*
X166383356Y-90210756D01*
X166392902Y-90271027D01*
X166800704Y-90138524D01*
X167161806Y-90021194D01*
X167158357Y-90034067D01*
X167158357Y-90178885D01*
X167195839Y-90318768D01*
X167268247Y-90444184D01*
X167319689Y-90495626D01*
X166493045Y-90764220D01*
X166491584Y-90759724D01*
X166458916Y-90770572D01*
X166400613Y-90757652D01*
X166400444Y-90758035D01*
X166398554Y-90757196D01*
X166398295Y-90757139D01*
X166397413Y-90756689D01*
X166376328Y-90748653D01*
X166341387Y-90735335D01*
X166216937Y-90721054D01*
X166198404Y-90718928D01*
X166198403Y-90718928D01*
X166056589Y-90743471D01*
X166056587Y-90743471D01*
X166056586Y-90743472D01*
X166056585Y-90743472D01*
X165927436Y-90806970D01*
X165821402Y-90904287D01*
X165788627Y-90954493D01*
X165426205Y-91665787D01*
X165378230Y-91716583D01*
X165315720Y-91733492D01*
X163608589Y-91733492D01*
X163541550Y-91713807D01*
X163520908Y-91697173D01*
X163270077Y-91446342D01*
X163236592Y-91385019D01*
X163239828Y-91320341D01*
X163244477Y-91306034D01*
X163276500Y-91103852D01*
X163276500Y-90899148D01*
X163249811Y-90730640D01*
X163244477Y-90696965D01*
X163208571Y-90586459D01*
X163181220Y-90502281D01*
X163181218Y-90502278D01*
X163181218Y-90502276D01*
X163137023Y-90415540D01*
X163088287Y-90319890D01*
X163066661Y-90290124D01*
X162967971Y-90154286D01*
X162823213Y-90009528D01*
X162657614Y-89889215D01*
X162611149Y-89865540D01*
X162564917Y-89841983D01*
X162514123Y-89794011D01*
X162497328Y-89726190D01*
X162519865Y-89660055D01*
X162564917Y-89621016D01*
X162657610Y-89573787D01*
X162805424Y-89466395D01*
X162823213Y-89453471D01*
X162823215Y-89453468D01*
X162823219Y-89453466D01*
X162967966Y-89308719D01*
X162967968Y-89308715D01*
X162967971Y-89308713D01*
X163020732Y-89236090D01*
X163088287Y-89143110D01*
X163181220Y-88960719D01*
X163244477Y-88766034D01*
X163276500Y-88563852D01*
X163276500Y-88359148D01*
X163244477Y-88156966D01*
X163181220Y-87962281D01*
X163181218Y-87962278D01*
X163181218Y-87962276D01*
X163147503Y-87896107D01*
X163088287Y-87779890D01*
X163080556Y-87769249D01*
X162967971Y-87614286D01*
X162823213Y-87469528D01*
X162657611Y-87349213D01*
X162564369Y-87301703D01*
X162513574Y-87253729D01*
X162496779Y-87185907D01*
X162519317Y-87119773D01*
X162564371Y-87080734D01*
X162657347Y-87033361D01*
X162822894Y-86913082D01*
X162822895Y-86913082D01*
X162967582Y-86768395D01*
X162967582Y-86768394D01*
X163087859Y-86602849D01*
X163180755Y-86420529D01*
X163243990Y-86225913D01*
X163252609Y-86171500D01*
X162291686Y-86171500D01*
X162296080Y-86167106D01*
X162348741Y-86075894D01*
X162376000Y-85974161D01*
X162376000Y-85868839D01*
X162348741Y-85767106D01*
X162296080Y-85675894D01*
X162291686Y-85671500D01*
X163252609Y-85671500D01*
X163243990Y-85617086D01*
X163180755Y-85422470D01*
X163087859Y-85240150D01*
X162967582Y-85074605D01*
X162967582Y-85074604D01*
X162822895Y-84929917D01*
X162657349Y-84809640D01*
X162564370Y-84762265D01*
X162513574Y-84714290D01*
X162496779Y-84646469D01*
X162519316Y-84580335D01*
X162564370Y-84541295D01*
X162564920Y-84541015D01*
X162657610Y-84493787D01*
X162779051Y-84405556D01*
X162823213Y-84373471D01*
X162823215Y-84373468D01*
X162823219Y-84373466D01*
X162967966Y-84228719D01*
X162967968Y-84228715D01*
X162967971Y-84228713D01*
X163020732Y-84156090D01*
X163088287Y-84063110D01*
X163181220Y-83880719D01*
X163244477Y-83686034D01*
X163276500Y-83483852D01*
X163276500Y-83279148D01*
X163244477Y-83076965D01*
X163192258Y-82916252D01*
X163181220Y-82882281D01*
X163181218Y-82882278D01*
X163181218Y-82882276D01*
X163147503Y-82816107D01*
X163088287Y-82699890D01*
X163024663Y-82612318D01*
X162967971Y-82534286D01*
X162823219Y-82389534D01*
X162772782Y-82352890D01*
X162657610Y-82269213D01*
X162562599Y-82220802D01*
X162560319Y-82219517D01*
X162537714Y-82196291D01*
X162533770Y-82192566D01*
X176272032Y-82192566D01*
X176272032Y-82381539D01*
X176301591Y-82568171D01*
X176359986Y-82747889D01*
X176428460Y-82882276D01*
X176445772Y-82916252D01*
X176556842Y-83069126D01*
X176690459Y-83202743D01*
X176843333Y-83313813D01*
X176922879Y-83354343D01*
X177011695Y-83399598D01*
X177011697Y-83399598D01*
X177011700Y-83399600D01*
X177103257Y-83429349D01*
X177191413Y-83457993D01*
X177378046Y-83487553D01*
X177378051Y-83487553D01*
X177567018Y-83487553D01*
X177753650Y-83457993D01*
X177933364Y-83399600D01*
X178101731Y-83313813D01*
X178254605Y-83202743D01*
X178388222Y-83069126D01*
X178499292Y-82916252D01*
X178585079Y-82747885D01*
X178643472Y-82568171D01*
X178648840Y-82534281D01*
X178673032Y-82381539D01*
X178673032Y-82192566D01*
X178643472Y-82005934D01*
X178616378Y-81922550D01*
X178585079Y-81826221D01*
X178585077Y-81826218D01*
X178585077Y-81826216D01*
X178499291Y-81657853D01*
X178388222Y-81504980D01*
X178254605Y-81371363D01*
X178101731Y-81260293D01*
X178045514Y-81231649D01*
X177933368Y-81174507D01*
X177753650Y-81116112D01*
X177567018Y-81086553D01*
X177567013Y-81086553D01*
X177378051Y-81086553D01*
X177378046Y-81086553D01*
X177191413Y-81116112D01*
X177011695Y-81174507D01*
X176843332Y-81260293D01*
X176766311Y-81316253D01*
X176690459Y-81371363D01*
X176690457Y-81371365D01*
X176690456Y-81371365D01*
X176556844Y-81504977D01*
X176556844Y-81504978D01*
X176556842Y-81504980D01*
X176543670Y-81523110D01*
X176445772Y-81657853D01*
X176359986Y-81826216D01*
X176301591Y-82005934D01*
X176272032Y-82192566D01*
X162533770Y-82192566D01*
X162514123Y-82174011D01*
X162513472Y-82171384D01*
X162511587Y-82169447D01*
X162505123Y-82137670D01*
X162497328Y-82106190D01*
X162498200Y-82103630D01*
X162497661Y-82100980D01*
X162509406Y-82070745D01*
X162519865Y-82040055D01*
X162522072Y-82038142D01*
X162522962Y-82035852D01*
X162533904Y-82027889D01*
X162564917Y-82001016D01*
X162657610Y-81953787D01*
X162678770Y-81938413D01*
X162823213Y-81833471D01*
X162823215Y-81833468D01*
X162823219Y-81833466D01*
X162967966Y-81688719D01*
X162967968Y-81688715D01*
X162967971Y-81688713D01*
X163020732Y-81616090D01*
X163088287Y-81523110D01*
X163181220Y-81340719D01*
X163244477Y-81146034D01*
X163276500Y-80943852D01*
X163276500Y-80739148D01*
X163244477Y-80536966D01*
X163181220Y-80342281D01*
X163181218Y-80342278D01*
X163181218Y-80342276D01*
X163132384Y-80246436D01*
X163106180Y-80195007D01*
X172351603Y-80195007D01*
X172351603Y-80383980D01*
X172381162Y-80570612D01*
X172439557Y-80750330D01*
X172510748Y-80890049D01*
X172525343Y-80918693D01*
X172636413Y-81071567D01*
X172770030Y-81205184D01*
X172922904Y-81316254D01*
X172974845Y-81342719D01*
X173091266Y-81402039D01*
X173091268Y-81402039D01*
X173091271Y-81402041D01*
X173182828Y-81431790D01*
X173270984Y-81460434D01*
X173457617Y-81489994D01*
X173457622Y-81489994D01*
X173646589Y-81489994D01*
X173833221Y-81460434D01*
X174012935Y-81402041D01*
X174181302Y-81316254D01*
X174334176Y-81205184D01*
X174467793Y-81071567D01*
X174578863Y-80918693D01*
X174664650Y-80750326D01*
X174723043Y-80570612D01*
X174741921Y-80451422D01*
X174752603Y-80383980D01*
X174752603Y-80195007D01*
X174723043Y-80008375D01*
X174695949Y-79924991D01*
X174664650Y-79828662D01*
X174664648Y-79828659D01*
X174664648Y-79828657D01*
X174603792Y-79709222D01*
X174578863Y-79660295D01*
X174467793Y-79507421D01*
X174334176Y-79373804D01*
X174181302Y-79262734D01*
X174125085Y-79234090D01*
X174012939Y-79176948D01*
X173833221Y-79118553D01*
X173646589Y-79088994D01*
X173646584Y-79088994D01*
X173457622Y-79088994D01*
X173457617Y-79088994D01*
X173270984Y-79118553D01*
X173091266Y-79176948D01*
X172922903Y-79262734D01*
X172880605Y-79293466D01*
X172770030Y-79373804D01*
X172770028Y-79373806D01*
X172770027Y-79373806D01*
X172636415Y-79507418D01*
X172636415Y-79507419D01*
X172636413Y-79507421D01*
X172593715Y-79566190D01*
X172525343Y-79660294D01*
X172439557Y-79828657D01*
X172381162Y-80008375D01*
X172351603Y-80195007D01*
X163106180Y-80195007D01*
X163088284Y-80159885D01*
X162967971Y-79994286D01*
X162823219Y-79849534D01*
X162786930Y-79823169D01*
X162744264Y-79767839D01*
X162738285Y-79698226D01*
X162770890Y-79636431D01*
X162831728Y-79602073D01*
X162846562Y-79599560D01*
X162883483Y-79595591D01*
X163018328Y-79545297D01*
X163018327Y-79545297D01*
X163018331Y-79545296D01*
X163133546Y-79459046D01*
X163219796Y-79343831D01*
X163270091Y-79208983D01*
X163276500Y-79149373D01*
X163276499Y-77453628D01*
X163270292Y-77395887D01*
X163270091Y-77394016D01*
X163219797Y-77259171D01*
X163219793Y-77259164D01*
X163133547Y-77143955D01*
X163133544Y-77143952D01*
X163018335Y-77057706D01*
X163018328Y-77057702D01*
X162883482Y-77007408D01*
X162883483Y-77007408D01*
X162823883Y-77001001D01*
X162823881Y-77001000D01*
X162823873Y-77001000D01*
X162823864Y-77001000D01*
X161128129Y-77001000D01*
X161128123Y-77001001D01*
X161068516Y-77007408D01*
X160933671Y-77057702D01*
X160933664Y-77057706D01*
X160818455Y-77143952D01*
X160818452Y-77143955D01*
X160732206Y-77259164D01*
X160732202Y-77259171D01*
X160681908Y-77394017D01*
X160675501Y-77453616D01*
X160675501Y-77453623D01*
X160675500Y-77453635D01*
X147727320Y-77453635D01*
X147583213Y-77309528D01*
X147417613Y-77189215D01*
X147417612Y-77189214D01*
X147417610Y-77189213D01*
X147360653Y-77160191D01*
X147235223Y-77096281D01*
X147040534Y-77033022D01*
X146865995Y-77005378D01*
X146838352Y-77001000D01*
X146633648Y-77001000D01*
X146609329Y-77004851D01*
X146431465Y-77033022D01*
X146236776Y-77096281D01*
X146054386Y-77189215D01*
X145888786Y-77309528D01*
X145744028Y-77454286D01*
X145623715Y-77619886D01*
X145530781Y-77802276D01*
X145467522Y-77996965D01*
X145435500Y-78199148D01*
X145435500Y-78403851D01*
X145467522Y-78606034D01*
X145530781Y-78800723D01*
X145623715Y-78983113D01*
X145744028Y-79148713D01*
X145888786Y-79293471D01*
X145999360Y-79373806D01*
X146054390Y-79413787D01*
X146143212Y-79459044D01*
X146147080Y-79461015D01*
X146197876Y-79508990D01*
X146214671Y-79576811D01*
X146192134Y-79642946D01*
X146147080Y-79681985D01*
X146054386Y-79729215D01*
X145888786Y-79849528D01*
X145744028Y-79994286D01*
X145623715Y-80159886D01*
X145530781Y-80342276D01*
X145467522Y-80536965D01*
X145435500Y-80739148D01*
X145435500Y-80943851D01*
X145467522Y-81146034D01*
X145530781Y-81340723D01*
X145547429Y-81373395D01*
X145614475Y-81504980D01*
X145623715Y-81523113D01*
X145744028Y-81688713D01*
X145888786Y-81833471D01*
X146037357Y-81941412D01*
X146054390Y-81953787D01*
X146145840Y-82000383D01*
X146147080Y-82001015D01*
X146197876Y-82048990D01*
X146214671Y-82116811D01*
X146192134Y-82182946D01*
X146147080Y-82221985D01*
X146054386Y-82269215D01*
X145888786Y-82389528D01*
X145744028Y-82534286D01*
X145623715Y-82699886D01*
X145530781Y-82882276D01*
X145467522Y-83076965D01*
X145435500Y-83279148D01*
X145435500Y-83483851D01*
X145467522Y-83686034D01*
X145530781Y-83880723D01*
X145594691Y-84006153D01*
X145608355Y-84032969D01*
X145623715Y-84063113D01*
X145744028Y-84228713D01*
X145888786Y-84373471D01*
X146043749Y-84486056D01*
X146054390Y-84493787D01*
X146145840Y-84540383D01*
X146147080Y-84541015D01*
X146197876Y-84588990D01*
X146214671Y-84656811D01*
X146192134Y-84722946D01*
X146147080Y-84761985D01*
X146054386Y-84809215D01*
X145888786Y-84929528D01*
X145744028Y-85074286D01*
X145623715Y-85239886D01*
X145530781Y-85422276D01*
X145467522Y-85616965D01*
X145435500Y-85819148D01*
X145435500Y-86023851D01*
X145467522Y-86226034D01*
X145530781Y-86420723D01*
X145623715Y-86603113D01*
X145744028Y-86768713D01*
X145888786Y-86913471D01*
X146043749Y-87026056D01*
X146054390Y-87033787D01*
X146145840Y-87080383D01*
X146147080Y-87081015D01*
X146197876Y-87128990D01*
X146214671Y-87196811D01*
X146192134Y-87262946D01*
X146147080Y-87301985D01*
X146054386Y-87349215D01*
X145888786Y-87469528D01*
X145744028Y-87614286D01*
X145623715Y-87779886D01*
X145530781Y-87962276D01*
X145467522Y-88156965D01*
X145435500Y-88359148D01*
X145435500Y-88563851D01*
X145467522Y-88766034D01*
X145530781Y-88960723D01*
X145623715Y-89143113D01*
X145744028Y-89308713D01*
X145888786Y-89453471D01*
X146030563Y-89556476D01*
X146054390Y-89573787D01*
X146145840Y-89620383D01*
X146147080Y-89621015D01*
X146197876Y-89668990D01*
X146214671Y-89736811D01*
X146192134Y-89802946D01*
X146147080Y-89841985D01*
X146054386Y-89889215D01*
X145888786Y-90009528D01*
X145744028Y-90154286D01*
X145623715Y-90319886D01*
X145530781Y-90502276D01*
X145467522Y-90696965D01*
X145445153Y-90838201D01*
X145435500Y-90899148D01*
X145435500Y-91103852D01*
X145439878Y-91131495D01*
X145467522Y-91306034D01*
X145530781Y-91500723D01*
X145593154Y-91623135D01*
X145618723Y-91673317D01*
X145623715Y-91683113D01*
X145744028Y-91848713D01*
X145888786Y-91993471D01*
X146022437Y-92090572D01*
X146054390Y-92113787D01*
X146130720Y-92152679D01*
X146147080Y-92161015D01*
X146197876Y-92208990D01*
X146214671Y-92276811D01*
X146192134Y-92342946D01*
X146147080Y-92381985D01*
X146054386Y-92429215D01*
X145888786Y-92549528D01*
X145744028Y-92694286D01*
X145623715Y-92859886D01*
X145530781Y-93042276D01*
X145467522Y-93236965D01*
X145435500Y-93439148D01*
X145435500Y-93643851D01*
X145467522Y-93846034D01*
X145530781Y-94040723D01*
X145574332Y-94126195D01*
X145611269Y-94198688D01*
X145623715Y-94223113D01*
X145744028Y-94388713D01*
X145888786Y-94533471D01*
X145992628Y-94608915D01*
X146054390Y-94653787D01*
X146140295Y-94697558D01*
X146147080Y-94701015D01*
X146197876Y-94748990D01*
X146214671Y-94816811D01*
X146192134Y-94882946D01*
X146147080Y-94921985D01*
X146054386Y-94969215D01*
X145888786Y-95089528D01*
X145744028Y-95234286D01*
X145623715Y-95399885D01*
X145616883Y-95413295D01*
X145568909Y-95464091D01*
X145506398Y-95481000D01*
X143681597Y-95481000D01*
X143614558Y-95461315D01*
X143593916Y-95444681D01*
X142713438Y-94564203D01*
X142679953Y-94502880D01*
X142677119Y-94476522D01*
X142677119Y-93563009D01*
X142696804Y-93495970D01*
X142744826Y-93452523D01*
X142771333Y-93439018D01*
X142940124Y-93316383D01*
X143087654Y-93168853D01*
X143210289Y-93000062D01*
X143305008Y-92814164D01*
X143369481Y-92615737D01*
X143376293Y-92572728D01*
X143402119Y-92409672D01*
X143402119Y-92201023D01*
X143369481Y-91994958D01*
X143336415Y-91893194D01*
X143305008Y-91796532D01*
X143305006Y-91796529D01*
X143305006Y-91796527D01*
X143249733Y-91688047D01*
X143210289Y-91610634D01*
X143087654Y-91441843D01*
X142940124Y-91294313D01*
X142771333Y-91171678D01*
X142585439Y-91076960D01*
X142387008Y-91012485D01*
X142180943Y-90979848D01*
X142180938Y-90979848D01*
X142167443Y-90979848D01*
X142100404Y-90960163D01*
X142054649Y-90907359D01*
X142044705Y-90838201D01*
X142067126Y-90782962D01*
X142074882Y-90772286D01*
X142074883Y-90772284D01*
X142102586Y-90717911D01*
X141330310Y-90466982D01*
X141381753Y-90415540D01*
X141454161Y-90290124D01*
X141491643Y-90150241D01*
X141491643Y-90005423D01*
X141488193Y-89992550D01*
X142257095Y-90242383D01*
X142257096Y-90242382D01*
X142266643Y-90182110D01*
X142266643Y-89973552D01*
X142234016Y-89767559D01*
X142169567Y-89569204D01*
X142074883Y-89383380D01*
X141952293Y-89214650D01*
X141804824Y-89067181D01*
X141636094Y-88944591D01*
X141581722Y-88916887D01*
X141330793Y-89689164D01*
X141279351Y-89637722D01*
X141153935Y-89565314D01*
X141014052Y-89527832D01*
X140869234Y-89527832D01*
X140856360Y-89531281D01*
X141106194Y-88762377D01*
X141045923Y-88752832D01*
X140837364Y-88752832D01*
X140631370Y-88785458D01*
X140433015Y-88849907D01*
X140247191Y-88944591D01*
X140078461Y-89067181D01*
X139930992Y-89214650D01*
X139808402Y-89383380D01*
X139780698Y-89437752D01*
X140552976Y-89688680D01*
X140501533Y-89740124D01*
X140429125Y-89865540D01*
X140391643Y-90005423D01*
X140391643Y-90150241D01*
X140395091Y-90163112D01*
X140033990Y-90045783D01*
X139626188Y-89913279D01*
X139616643Y-89973546D01*
X117576814Y-89973546D01*
X117707561Y-89841985D01*
X117738151Y-89811205D01*
X117739243Y-89810119D01*
X117758258Y-89791455D01*
X118198480Y-89359356D01*
X118199424Y-89358442D01*
X118664265Y-88913376D01*
X118665231Y-88912462D01*
X119135641Y-88473130D01*
X119136683Y-88472171D01*
X119260754Y-88359148D01*
X119612405Y-88038810D01*
X119613353Y-88037956D01*
X120094538Y-87610432D01*
X120095397Y-87609678D01*
X120581933Y-87188093D01*
X120582873Y-87187288D01*
X121074420Y-86771933D01*
X121075563Y-86770981D01*
X121500904Y-86420529D01*
X121572248Y-86361746D01*
X121573259Y-86360924D01*
X122075019Y-85957862D01*
X122076017Y-85957070D01*
X122582722Y-85560287D01*
X122583857Y-85559409D01*
X123095480Y-85168927D01*
X123096535Y-85168132D01*
X123612944Y-84784048D01*
X123613904Y-84783343D01*
X124135243Y-84405556D01*
X124136228Y-84404853D01*
X124662045Y-84033691D01*
X124663081Y-84032969D01*
X125193442Y-83668381D01*
X125194546Y-83667631D01*
X125729513Y-83309577D01*
X125730514Y-83308917D01*
X126269696Y-82957656D01*
X126270966Y-82956840D01*
X126645767Y-82719245D01*
X126814455Y-82612308D01*
X126815747Y-82611502D01*
X127363438Y-82273768D01*
X127364602Y-82273061D01*
X127546609Y-82163922D01*
X129976968Y-82163922D01*
X129976968Y-82352895D01*
X130006527Y-82539527D01*
X130064922Y-82719245D01*
X130147991Y-82882276D01*
X130150708Y-82887608D01*
X130261778Y-83040482D01*
X130395395Y-83174099D01*
X130548269Y-83285169D01*
X130604486Y-83313813D01*
X130716631Y-83370954D01*
X130716633Y-83370954D01*
X130716636Y-83370956D01*
X130804793Y-83399600D01*
X130896349Y-83429349D01*
X131082982Y-83458909D01*
X131082987Y-83458909D01*
X131271954Y-83458909D01*
X131458586Y-83429349D01*
X131638300Y-83370956D01*
X131806667Y-83285169D01*
X131959541Y-83174099D01*
X132093158Y-83040482D01*
X132204228Y-82887608D01*
X132290015Y-82719241D01*
X132348408Y-82539527D01*
X132349239Y-82534281D01*
X132377968Y-82352895D01*
X132377968Y-82163922D01*
X132348408Y-81977290D01*
X132290013Y-81797572D01*
X132234546Y-81688713D01*
X132204228Y-81629210D01*
X132093158Y-81476336D01*
X131959541Y-81342719D01*
X131806667Y-81231649D01*
X131800964Y-81228743D01*
X131638304Y-81145863D01*
X131458586Y-81087468D01*
X131271954Y-81057909D01*
X131271949Y-81057909D01*
X131082987Y-81057909D01*
X131082982Y-81057909D01*
X130896349Y-81087468D01*
X130716631Y-81145863D01*
X130548268Y-81231649D01*
X130508844Y-81260293D01*
X130395395Y-81342719D01*
X130395393Y-81342721D01*
X130395392Y-81342721D01*
X130261780Y-81476333D01*
X130261780Y-81476334D01*
X130261778Y-81476336D01*
X130214078Y-81541988D01*
X130150708Y-81629209D01*
X130064922Y-81797572D01*
X130006527Y-81977290D01*
X129976968Y-82163922D01*
X127546609Y-82163922D01*
X127916532Y-81942101D01*
X127917630Y-81941451D01*
X128473784Y-81617278D01*
X128474810Y-81616689D01*
X129034937Y-81299453D01*
X129036074Y-81298819D01*
X129599864Y-80988691D01*
X129601141Y-80987998D01*
X130168825Y-80684847D01*
X130170040Y-80684208D01*
X130741387Y-80388161D01*
X130742672Y-80387505D01*
X131182748Y-80166363D01*
X133897397Y-80166363D01*
X133897397Y-80355336D01*
X133926956Y-80541968D01*
X133985351Y-80721686D01*
X134071137Y-80890049D01*
X134182207Y-81042923D01*
X134315824Y-81176540D01*
X134468698Y-81287610D01*
X134524915Y-81316254D01*
X134637060Y-81373395D01*
X134637062Y-81373395D01*
X134637065Y-81373397D01*
X134725222Y-81402041D01*
X134816778Y-81431790D01*
X135003411Y-81461350D01*
X135003416Y-81461350D01*
X135192383Y-81461350D01*
X135379015Y-81431790D01*
X135558729Y-81373397D01*
X135727096Y-81287610D01*
X135879970Y-81176540D01*
X136013587Y-81042923D01*
X136124657Y-80890049D01*
X136210444Y-80721682D01*
X136268837Y-80541968D01*
X136293194Y-80388184D01*
X136298397Y-80355336D01*
X136298397Y-80166363D01*
X136268837Y-79979731D01*
X136226533Y-79849534D01*
X136210444Y-79800018D01*
X136210442Y-79800015D01*
X136210442Y-79800013D01*
X136164181Y-79709222D01*
X136124657Y-79631651D01*
X136013587Y-79478777D01*
X135879970Y-79345160D01*
X135727096Y-79234090D01*
X135677819Y-79208982D01*
X135558733Y-79148304D01*
X135379015Y-79089909D01*
X135192383Y-79060350D01*
X135192378Y-79060350D01*
X135003416Y-79060350D01*
X135003411Y-79060350D01*
X134816778Y-79089909D01*
X134637060Y-79148304D01*
X134468697Y-79234090D01*
X134415044Y-79273072D01*
X134315824Y-79345160D01*
X134315822Y-79345162D01*
X134315821Y-79345162D01*
X134182209Y-79478774D01*
X134182209Y-79478775D01*
X134182207Y-79478777D01*
X134161396Y-79507421D01*
X134071137Y-79631650D01*
X133985351Y-79800013D01*
X133926956Y-79979731D01*
X133897397Y-80166363D01*
X131182748Y-80166363D01*
X131317767Y-80098515D01*
X131318881Y-80097964D01*
X131897459Y-79816168D01*
X131898712Y-79815567D01*
X132480888Y-79540909D01*
X132481951Y-79540415D01*
X133067415Y-79273044D01*
X133068625Y-79272500D01*
X133657317Y-79012438D01*
X133658581Y-79011888D01*
X133923243Y-78898878D01*
X134250369Y-78759196D01*
X134251788Y-78758600D01*
X134846661Y-78513276D01*
X134847950Y-78512754D01*
X135445958Y-78274782D01*
X135447120Y-78274328D01*
X136048010Y-78043811D01*
X136049249Y-78043344D01*
X136653050Y-77820271D01*
X136654272Y-77819829D01*
X137260692Y-77604307D01*
X137261868Y-77603897D01*
X137871020Y-77395887D01*
X137872287Y-77395463D01*
X138483793Y-77195092D01*
X138485094Y-77194674D01*
X139099118Y-77001887D01*
X139100498Y-77001464D01*
X139716762Y-76816349D01*
X139718115Y-76815951D01*
X140336752Y-76638467D01*
X140338069Y-76638099D01*
X140958881Y-76468306D01*
X140960034Y-76467998D01*
X141582940Y-76305917D01*
X141584171Y-76305604D01*
X142209159Y-76151243D01*
X142210365Y-76150953D01*
X142837043Y-76004405D01*
X142838266Y-76004126D01*
X143466796Y-75865353D01*
X143468171Y-75865059D01*
X144098204Y-75734137D01*
X144099567Y-75733862D01*
X144731241Y-75610761D01*
X144732576Y-75610509D01*
X145365654Y-75495274D01*
X145367037Y-75495031D01*
X146001682Y-75387634D01*
X146002957Y-75387427D01*
X146638767Y-75287938D01*
X146640097Y-75287738D01*
X147277026Y-75196162D01*
X147278549Y-75195954D01*
X147916561Y-75112293D01*
X147917981Y-75112115D01*
X148557005Y-75036381D01*
X148558375Y-75036227D01*
X149198420Y-74968420D01*
X149199649Y-74968297D01*
X149840554Y-74908437D01*
X149841883Y-74908321D01*
X150483358Y-74856434D01*
X150484602Y-74856340D01*
X151126789Y-74812413D01*
X151128138Y-74812330D01*
X151770612Y-74776392D01*
X151771997Y-74776323D01*
X152414971Y-74748361D01*
X152416396Y-74748309D01*
X153059569Y-74728335D01*
X153061016Y-74728300D01*
X153704366Y-74716316D01*
X153705684Y-74716299D01*
X154349356Y-74712303D01*
X154350644Y-74712303D01*
X154994313Y-74716299D01*
G37*
%TD.AperFunction*%
%TD*%
M02*
