%TF.GenerationSoftware,KiCad,Pcbnew,9.0.5*%
%TF.CreationDate,2025-10-08T22:57:16-05:00*%
%TF.ProjectId,Game Controller,47616d65-2043-46f6-9e74-726f6c6c6572,rev?*%
%TF.SameCoordinates,Original*%
%TF.FileFunction,Drillmap*%
%TF.FilePolarity,Positive*%
%FSLAX45Y45*%
G04 Gerber Fmt 4.5, Leading zero omitted, Abs format (unit mm)*
G04 Created by KiCad (PCBNEW 9.0.5) date 2025-10-08 22:57:16*
%MOMM*%
%LPD*%
G01*
G04 APERTURE LIST*
%ADD10C,0.200000*%
%ADD11C,0.170000*%
%ADD12C,0.190000*%
%ADD13C,0.400000*%
G04 APERTURE END LIST*
D10*
X21401200Y-15392400D02*
X9468800Y-15392400D01*
X22453600Y-14340000D02*
G75*
G02*
X21401200Y-15392400I-1052400J0D01*
G01*
X9468800Y-15392400D02*
G75*
G02*
X8416400Y-14340000I0J1052400D01*
G01*
X8416400Y-14340000D02*
G75*
G02*
X22453600Y-14340000I7018600J0D01*
G01*
D11*
X16164140Y-12158753D02*
X16334140Y-12328753D01*
X16334140Y-12158753D02*
X16164140Y-12328753D01*
X16882561Y-11440333D02*
X17052561Y-11610333D01*
X17052561Y-11440333D02*
X16882561Y-11610333D01*
X17640590Y-13634610D02*
X17810590Y-13804610D01*
X17810590Y-13634610D02*
X17640590Y-13804610D01*
X17644622Y-10678272D02*
X17814622Y-10848272D01*
X17814622Y-10678272D02*
X17644622Y-10848272D01*
X18359010Y-12916190D02*
X18529010Y-13086190D01*
X18529010Y-12916190D02*
X18359010Y-13086190D01*
X18363042Y-9959851D02*
X18533042Y-10129851D01*
X18533042Y-9959851D02*
X18363042Y-10129851D01*
X19112711Y-12150096D02*
X19282711Y-12320096D01*
X19282711Y-12150096D02*
X19112711Y-12320096D01*
X19831132Y-11431676D02*
X20001132Y-11601676D01*
X20001132Y-11431676D02*
X19831132Y-11601676D01*
D12*
X13212747Y-8225841D02*
G75*
G02*
X13022747Y-8225841I-95000J0D01*
G01*
X13022747Y-8225841D02*
G75*
G02*
X13212747Y-8225841I95000J0D01*
G01*
X13604790Y-8026085D02*
G75*
G02*
X13414790Y-8026085I-95000J0D01*
G01*
X13414790Y-8026085D02*
G75*
G02*
X13604790Y-8026085I95000J0D01*
G01*
X17450210Y-8028949D02*
G75*
G02*
X17260210Y-8028949I-95000J0D01*
G01*
X17260210Y-8028949D02*
G75*
G02*
X17450210Y-8028949I95000J0D01*
G01*
X17842253Y-8228705D02*
G75*
G02*
X17652253Y-8228705I-95000J0D01*
G01*
X17652253Y-8228705D02*
G75*
G02*
X17842253Y-8228705I95000J0D01*
G01*
D13*
X16608350Y-11684543D02*
X16608350Y-12084543D01*
X16408350Y-11884543D02*
X16808350Y-11884543D01*
X18084800Y-13160400D02*
X18084800Y-13560400D01*
X17884800Y-13360400D02*
X18284800Y-13360400D01*
X18088832Y-10204061D02*
X18088832Y-10604061D01*
X17888832Y-10404061D02*
X18288832Y-10404061D01*
X19556921Y-11675886D02*
X19556921Y-12075886D01*
X19356921Y-11875886D02*
X19756921Y-11875886D01*
D10*
X8667177Y-15713884D02*
X8667177Y-15513884D01*
X8667177Y-15513884D02*
X8714796Y-15513884D01*
X8714796Y-15513884D02*
X8743367Y-15523408D01*
X8743367Y-15523408D02*
X8762415Y-15542455D01*
X8762415Y-15542455D02*
X8771939Y-15561503D01*
X8771939Y-15561503D02*
X8781463Y-15599598D01*
X8781463Y-15599598D02*
X8781463Y-15628169D01*
X8781463Y-15628169D02*
X8771939Y-15666265D01*
X8771939Y-15666265D02*
X8762415Y-15685312D01*
X8762415Y-15685312D02*
X8743367Y-15704360D01*
X8743367Y-15704360D02*
X8714796Y-15713884D01*
X8714796Y-15713884D02*
X8667177Y-15713884D01*
X8867177Y-15713884D02*
X8867177Y-15580550D01*
X8867177Y-15618646D02*
X8876701Y-15599598D01*
X8876701Y-15599598D02*
X8886224Y-15590074D01*
X8886224Y-15590074D02*
X8905272Y-15580550D01*
X8905272Y-15580550D02*
X8924320Y-15580550D01*
X8990986Y-15713884D02*
X8990986Y-15580550D01*
X8990986Y-15513884D02*
X8981463Y-15523408D01*
X8981463Y-15523408D02*
X8990986Y-15532931D01*
X8990986Y-15532931D02*
X9000510Y-15523408D01*
X9000510Y-15523408D02*
X8990986Y-15513884D01*
X8990986Y-15513884D02*
X8990986Y-15532931D01*
X9114796Y-15713884D02*
X9095748Y-15704360D01*
X9095748Y-15704360D02*
X9086224Y-15685312D01*
X9086224Y-15685312D02*
X9086224Y-15513884D01*
X9219558Y-15713884D02*
X9200510Y-15704360D01*
X9200510Y-15704360D02*
X9190986Y-15685312D01*
X9190986Y-15685312D02*
X9190986Y-15513884D01*
X9448129Y-15713884D02*
X9448129Y-15513884D01*
X9448129Y-15513884D02*
X9514796Y-15656741D01*
X9514796Y-15656741D02*
X9581463Y-15513884D01*
X9581463Y-15513884D02*
X9581463Y-15713884D01*
X9762415Y-15713884D02*
X9762415Y-15609122D01*
X9762415Y-15609122D02*
X9752891Y-15590074D01*
X9752891Y-15590074D02*
X9733844Y-15580550D01*
X9733844Y-15580550D02*
X9695748Y-15580550D01*
X9695748Y-15580550D02*
X9676701Y-15590074D01*
X9762415Y-15704360D02*
X9743367Y-15713884D01*
X9743367Y-15713884D02*
X9695748Y-15713884D01*
X9695748Y-15713884D02*
X9676701Y-15704360D01*
X9676701Y-15704360D02*
X9667177Y-15685312D01*
X9667177Y-15685312D02*
X9667177Y-15666265D01*
X9667177Y-15666265D02*
X9676701Y-15647217D01*
X9676701Y-15647217D02*
X9695748Y-15637693D01*
X9695748Y-15637693D02*
X9743367Y-15637693D01*
X9743367Y-15637693D02*
X9762415Y-15628169D01*
X9857653Y-15580550D02*
X9857653Y-15780550D01*
X9857653Y-15590074D02*
X9876701Y-15580550D01*
X9876701Y-15580550D02*
X9914796Y-15580550D01*
X9914796Y-15580550D02*
X9933844Y-15590074D01*
X9933844Y-15590074D02*
X9943367Y-15599598D01*
X9943367Y-15599598D02*
X9952891Y-15618646D01*
X9952891Y-15618646D02*
X9952891Y-15675788D01*
X9952891Y-15675788D02*
X9943367Y-15694836D01*
X9943367Y-15694836D02*
X9933844Y-15704360D01*
X9933844Y-15704360D02*
X9914796Y-15713884D01*
X9914796Y-15713884D02*
X9876701Y-15713884D01*
X9876701Y-15713884D02*
X9857653Y-15704360D01*
X10038605Y-15694836D02*
X10048129Y-15704360D01*
X10048129Y-15704360D02*
X10038605Y-15713884D01*
X10038605Y-15713884D02*
X10029082Y-15704360D01*
X10029082Y-15704360D02*
X10038605Y-15694836D01*
X10038605Y-15694836D02*
X10038605Y-15713884D01*
X10038605Y-15590074D02*
X10048129Y-15599598D01*
X10048129Y-15599598D02*
X10038605Y-15609122D01*
X10038605Y-15609122D02*
X10029082Y-15599598D01*
X10029082Y-15599598D02*
X10038605Y-15590074D01*
X10038605Y-15590074D02*
X10038605Y-15609122D01*
D11*
X8236400Y-15957400D02*
X8406400Y-16127400D01*
X8406400Y-15957400D02*
X8236400Y-16127400D01*
D10*
X8771939Y-16133884D02*
X8657653Y-16133884D01*
X8714796Y-16133884D02*
X8714796Y-15933884D01*
X8714796Y-15933884D02*
X8695748Y-15962455D01*
X8695748Y-15962455D02*
X8676701Y-15981503D01*
X8676701Y-15981503D02*
X8657653Y-15991027D01*
X8857653Y-16114836D02*
X8867177Y-16124360D01*
X8867177Y-16124360D02*
X8857653Y-16133884D01*
X8857653Y-16133884D02*
X8848129Y-16124360D01*
X8848129Y-16124360D02*
X8857653Y-16114836D01*
X8857653Y-16114836D02*
X8857653Y-16133884D01*
X8933844Y-15933884D02*
X9067177Y-15933884D01*
X9067177Y-15933884D02*
X8981463Y-16133884D01*
X9181463Y-15933884D02*
X9200510Y-15933884D01*
X9200510Y-15933884D02*
X9219558Y-15943408D01*
X9219558Y-15943408D02*
X9229082Y-15952931D01*
X9229082Y-15952931D02*
X9238605Y-15971979D01*
X9238605Y-15971979D02*
X9248129Y-16010074D01*
X9248129Y-16010074D02*
X9248129Y-16057693D01*
X9248129Y-16057693D02*
X9238605Y-16095788D01*
X9238605Y-16095788D02*
X9229082Y-16114836D01*
X9229082Y-16114836D02*
X9219558Y-16124360D01*
X9219558Y-16124360D02*
X9200510Y-16133884D01*
X9200510Y-16133884D02*
X9181463Y-16133884D01*
X9181463Y-16133884D02*
X9162415Y-16124360D01*
X9162415Y-16124360D02*
X9152891Y-16114836D01*
X9152891Y-16114836D02*
X9143367Y-16095788D01*
X9143367Y-16095788D02*
X9133844Y-16057693D01*
X9133844Y-16057693D02*
X9133844Y-16010074D01*
X9133844Y-16010074D02*
X9143367Y-15971979D01*
X9143367Y-15971979D02*
X9152891Y-15952931D01*
X9152891Y-15952931D02*
X9162415Y-15943408D01*
X9162415Y-15943408D02*
X9181463Y-15933884D01*
X9371939Y-15933884D02*
X9390986Y-15933884D01*
X9390986Y-15933884D02*
X9410034Y-15943408D01*
X9410034Y-15943408D02*
X9419558Y-15952931D01*
X9419558Y-15952931D02*
X9429082Y-15971979D01*
X9429082Y-15971979D02*
X9438605Y-16010074D01*
X9438605Y-16010074D02*
X9438605Y-16057693D01*
X9438605Y-16057693D02*
X9429082Y-16095788D01*
X9429082Y-16095788D02*
X9419558Y-16114836D01*
X9419558Y-16114836D02*
X9410034Y-16124360D01*
X9410034Y-16124360D02*
X9390986Y-16133884D01*
X9390986Y-16133884D02*
X9371939Y-16133884D01*
X9371939Y-16133884D02*
X9352891Y-16124360D01*
X9352891Y-16124360D02*
X9343367Y-16114836D01*
X9343367Y-16114836D02*
X9333844Y-16095788D01*
X9333844Y-16095788D02*
X9324320Y-16057693D01*
X9324320Y-16057693D02*
X9324320Y-16010074D01*
X9324320Y-16010074D02*
X9333844Y-15971979D01*
X9333844Y-15971979D02*
X9343367Y-15952931D01*
X9343367Y-15952931D02*
X9352891Y-15943408D01*
X9352891Y-15943408D02*
X9371939Y-15933884D01*
X9524320Y-16133884D02*
X9524320Y-16000550D01*
X9524320Y-16019598D02*
X9533844Y-16010074D01*
X9533844Y-16010074D02*
X9552891Y-16000550D01*
X9552891Y-16000550D02*
X9581463Y-16000550D01*
X9581463Y-16000550D02*
X9600510Y-16010074D01*
X9600510Y-16010074D02*
X9610034Y-16029122D01*
X9610034Y-16029122D02*
X9610034Y-16133884D01*
X9610034Y-16029122D02*
X9619558Y-16010074D01*
X9619558Y-16010074D02*
X9638605Y-16000550D01*
X9638605Y-16000550D02*
X9667177Y-16000550D01*
X9667177Y-16000550D02*
X9686225Y-16010074D01*
X9686225Y-16010074D02*
X9695748Y-16029122D01*
X9695748Y-16029122D02*
X9695748Y-16133884D01*
X9790986Y-16133884D02*
X9790986Y-16000550D01*
X9790986Y-16019598D02*
X9800510Y-16010074D01*
X9800510Y-16010074D02*
X9819558Y-16000550D01*
X9819558Y-16000550D02*
X9848129Y-16000550D01*
X9848129Y-16000550D02*
X9867177Y-16010074D01*
X9867177Y-16010074D02*
X9876701Y-16029122D01*
X9876701Y-16029122D02*
X9876701Y-16133884D01*
X9876701Y-16029122D02*
X9886225Y-16010074D01*
X9886225Y-16010074D02*
X9905272Y-16000550D01*
X9905272Y-16000550D02*
X9933844Y-16000550D01*
X9933844Y-16000550D02*
X9952891Y-16010074D01*
X9952891Y-16010074D02*
X9962415Y-16029122D01*
X9962415Y-16029122D02*
X9962415Y-16133884D01*
X10352891Y-15924360D02*
X10181463Y-16181503D01*
X10610034Y-15933884D02*
X10629082Y-15933884D01*
X10629082Y-15933884D02*
X10648129Y-15943408D01*
X10648129Y-15943408D02*
X10657653Y-15952931D01*
X10657653Y-15952931D02*
X10667177Y-15971979D01*
X10667177Y-15971979D02*
X10676701Y-16010074D01*
X10676701Y-16010074D02*
X10676701Y-16057693D01*
X10676701Y-16057693D02*
X10667177Y-16095788D01*
X10667177Y-16095788D02*
X10657653Y-16114836D01*
X10657653Y-16114836D02*
X10648129Y-16124360D01*
X10648129Y-16124360D02*
X10629082Y-16133884D01*
X10629082Y-16133884D02*
X10610034Y-16133884D01*
X10610034Y-16133884D02*
X10590987Y-16124360D01*
X10590987Y-16124360D02*
X10581463Y-16114836D01*
X10581463Y-16114836D02*
X10571939Y-16095788D01*
X10571939Y-16095788D02*
X10562415Y-16057693D01*
X10562415Y-16057693D02*
X10562415Y-16010074D01*
X10562415Y-16010074D02*
X10571939Y-15971979D01*
X10571939Y-15971979D02*
X10581463Y-15952931D01*
X10581463Y-15952931D02*
X10590987Y-15943408D01*
X10590987Y-15943408D02*
X10610034Y-15933884D01*
X10762415Y-16114836D02*
X10771939Y-16124360D01*
X10771939Y-16124360D02*
X10762415Y-16133884D01*
X10762415Y-16133884D02*
X10752891Y-16124360D01*
X10752891Y-16124360D02*
X10762415Y-16114836D01*
X10762415Y-16114836D02*
X10762415Y-16133884D01*
X10895748Y-15933884D02*
X10914796Y-15933884D01*
X10914796Y-15933884D02*
X10933844Y-15943408D01*
X10933844Y-15943408D02*
X10943368Y-15952931D01*
X10943368Y-15952931D02*
X10952891Y-15971979D01*
X10952891Y-15971979D02*
X10962415Y-16010074D01*
X10962415Y-16010074D02*
X10962415Y-16057693D01*
X10962415Y-16057693D02*
X10952891Y-16095788D01*
X10952891Y-16095788D02*
X10943368Y-16114836D01*
X10943368Y-16114836D02*
X10933844Y-16124360D01*
X10933844Y-16124360D02*
X10914796Y-16133884D01*
X10914796Y-16133884D02*
X10895748Y-16133884D01*
X10895748Y-16133884D02*
X10876701Y-16124360D01*
X10876701Y-16124360D02*
X10867177Y-16114836D01*
X10867177Y-16114836D02*
X10857653Y-16095788D01*
X10857653Y-16095788D02*
X10848129Y-16057693D01*
X10848129Y-16057693D02*
X10848129Y-16010074D01*
X10848129Y-16010074D02*
X10857653Y-15971979D01*
X10857653Y-15971979D02*
X10867177Y-15952931D01*
X10867177Y-15952931D02*
X10876701Y-15943408D01*
X10876701Y-15943408D02*
X10895748Y-15933884D01*
X11133844Y-15933884D02*
X11095748Y-15933884D01*
X11095748Y-15933884D02*
X11076701Y-15943408D01*
X11076701Y-15943408D02*
X11067177Y-15952931D01*
X11067177Y-15952931D02*
X11048129Y-15981503D01*
X11048129Y-15981503D02*
X11038606Y-16019598D01*
X11038606Y-16019598D02*
X11038606Y-16095788D01*
X11038606Y-16095788D02*
X11048129Y-16114836D01*
X11048129Y-16114836D02*
X11057653Y-16124360D01*
X11057653Y-16124360D02*
X11076701Y-16133884D01*
X11076701Y-16133884D02*
X11114796Y-16133884D01*
X11114796Y-16133884D02*
X11133844Y-16124360D01*
X11133844Y-16124360D02*
X11143368Y-16114836D01*
X11143368Y-16114836D02*
X11152891Y-16095788D01*
X11152891Y-16095788D02*
X11152891Y-16048169D01*
X11152891Y-16048169D02*
X11143368Y-16029122D01*
X11143368Y-16029122D02*
X11133844Y-16019598D01*
X11133844Y-16019598D02*
X11114796Y-16010074D01*
X11114796Y-16010074D02*
X11076701Y-16010074D01*
X11076701Y-16010074D02*
X11057653Y-16019598D01*
X11057653Y-16019598D02*
X11048129Y-16029122D01*
X11048129Y-16029122D02*
X11038606Y-16048169D01*
X11324320Y-15933884D02*
X11286225Y-15933884D01*
X11286225Y-15933884D02*
X11267177Y-15943408D01*
X11267177Y-15943408D02*
X11257653Y-15952931D01*
X11257653Y-15952931D02*
X11238606Y-15981503D01*
X11238606Y-15981503D02*
X11229082Y-16019598D01*
X11229082Y-16019598D02*
X11229082Y-16095788D01*
X11229082Y-16095788D02*
X11238606Y-16114836D01*
X11238606Y-16114836D02*
X11248129Y-16124360D01*
X11248129Y-16124360D02*
X11267177Y-16133884D01*
X11267177Y-16133884D02*
X11305272Y-16133884D01*
X11305272Y-16133884D02*
X11324320Y-16124360D01*
X11324320Y-16124360D02*
X11333844Y-16114836D01*
X11333844Y-16114836D02*
X11343367Y-16095788D01*
X11343367Y-16095788D02*
X11343367Y-16048169D01*
X11343367Y-16048169D02*
X11333844Y-16029122D01*
X11333844Y-16029122D02*
X11324320Y-16019598D01*
X11324320Y-16019598D02*
X11305272Y-16010074D01*
X11305272Y-16010074D02*
X11267177Y-16010074D01*
X11267177Y-16010074D02*
X11248129Y-16019598D01*
X11248129Y-16019598D02*
X11238606Y-16029122D01*
X11238606Y-16029122D02*
X11229082Y-16048169D01*
X11438606Y-16133884D02*
X11476701Y-16133884D01*
X11476701Y-16133884D02*
X11495748Y-16124360D01*
X11495748Y-16124360D02*
X11505272Y-16114836D01*
X11505272Y-16114836D02*
X11524320Y-16086265D01*
X11524320Y-16086265D02*
X11533844Y-16048169D01*
X11533844Y-16048169D02*
X11533844Y-15971979D01*
X11533844Y-15971979D02*
X11524320Y-15952931D01*
X11524320Y-15952931D02*
X11514796Y-15943408D01*
X11514796Y-15943408D02*
X11495748Y-15933884D01*
X11495748Y-15933884D02*
X11457653Y-15933884D01*
X11457653Y-15933884D02*
X11438606Y-15943408D01*
X11438606Y-15943408D02*
X11429082Y-15952931D01*
X11429082Y-15952931D02*
X11419558Y-15971979D01*
X11419558Y-15971979D02*
X11419558Y-16019598D01*
X11419558Y-16019598D02*
X11429082Y-16038646D01*
X11429082Y-16038646D02*
X11438606Y-16048169D01*
X11438606Y-16048169D02*
X11457653Y-16057693D01*
X11457653Y-16057693D02*
X11495748Y-16057693D01*
X11495748Y-16057693D02*
X11514796Y-16048169D01*
X11514796Y-16048169D02*
X11524320Y-16038646D01*
X11524320Y-16038646D02*
X11533844Y-16019598D01*
X11610034Y-15933884D02*
X11610034Y-15971979D01*
X11686225Y-15933884D02*
X11686225Y-15971979D01*
X11981463Y-16210074D02*
X11971939Y-16200550D01*
X11971939Y-16200550D02*
X11952891Y-16171979D01*
X11952891Y-16171979D02*
X11943368Y-16152931D01*
X11943368Y-16152931D02*
X11933844Y-16124360D01*
X11933844Y-16124360D02*
X11924320Y-16076741D01*
X11924320Y-16076741D02*
X11924320Y-16038646D01*
X11924320Y-16038646D02*
X11933844Y-15991027D01*
X11933844Y-15991027D02*
X11943368Y-15962455D01*
X11943368Y-15962455D02*
X11952891Y-15943408D01*
X11952891Y-15943408D02*
X11971939Y-15914836D01*
X11971939Y-15914836D02*
X11981463Y-15905312D01*
X12086225Y-16019598D02*
X12067177Y-16010074D01*
X12067177Y-16010074D02*
X12057653Y-16000550D01*
X12057653Y-16000550D02*
X12048129Y-15981503D01*
X12048129Y-15981503D02*
X12048129Y-15971979D01*
X12048129Y-15971979D02*
X12057653Y-15952931D01*
X12057653Y-15952931D02*
X12067177Y-15943408D01*
X12067177Y-15943408D02*
X12086225Y-15933884D01*
X12086225Y-15933884D02*
X12124320Y-15933884D01*
X12124320Y-15933884D02*
X12143368Y-15943408D01*
X12143368Y-15943408D02*
X12152891Y-15952931D01*
X12152891Y-15952931D02*
X12162415Y-15971979D01*
X12162415Y-15971979D02*
X12162415Y-15981503D01*
X12162415Y-15981503D02*
X12152891Y-16000550D01*
X12152891Y-16000550D02*
X12143368Y-16010074D01*
X12143368Y-16010074D02*
X12124320Y-16019598D01*
X12124320Y-16019598D02*
X12086225Y-16019598D01*
X12086225Y-16019598D02*
X12067177Y-16029122D01*
X12067177Y-16029122D02*
X12057653Y-16038646D01*
X12057653Y-16038646D02*
X12048129Y-16057693D01*
X12048129Y-16057693D02*
X12048129Y-16095788D01*
X12048129Y-16095788D02*
X12057653Y-16114836D01*
X12057653Y-16114836D02*
X12067177Y-16124360D01*
X12067177Y-16124360D02*
X12086225Y-16133884D01*
X12086225Y-16133884D02*
X12124320Y-16133884D01*
X12124320Y-16133884D02*
X12143368Y-16124360D01*
X12143368Y-16124360D02*
X12152891Y-16114836D01*
X12152891Y-16114836D02*
X12162415Y-16095788D01*
X12162415Y-16095788D02*
X12162415Y-16057693D01*
X12162415Y-16057693D02*
X12152891Y-16038646D01*
X12152891Y-16038646D02*
X12143368Y-16029122D01*
X12143368Y-16029122D02*
X12124320Y-16019598D01*
X12400510Y-16133884D02*
X12400510Y-15933884D01*
X12486225Y-16133884D02*
X12486225Y-16029122D01*
X12486225Y-16029122D02*
X12476701Y-16010074D01*
X12476701Y-16010074D02*
X12457653Y-16000550D01*
X12457653Y-16000550D02*
X12429082Y-16000550D01*
X12429082Y-16000550D02*
X12410034Y-16010074D01*
X12410034Y-16010074D02*
X12400510Y-16019598D01*
X12610034Y-16133884D02*
X12590987Y-16124360D01*
X12590987Y-16124360D02*
X12581463Y-16114836D01*
X12581463Y-16114836D02*
X12571939Y-16095788D01*
X12571939Y-16095788D02*
X12571939Y-16038646D01*
X12571939Y-16038646D02*
X12581463Y-16019598D01*
X12581463Y-16019598D02*
X12590987Y-16010074D01*
X12590987Y-16010074D02*
X12610034Y-16000550D01*
X12610034Y-16000550D02*
X12638606Y-16000550D01*
X12638606Y-16000550D02*
X12657653Y-16010074D01*
X12657653Y-16010074D02*
X12667177Y-16019598D01*
X12667177Y-16019598D02*
X12676701Y-16038646D01*
X12676701Y-16038646D02*
X12676701Y-16095788D01*
X12676701Y-16095788D02*
X12667177Y-16114836D01*
X12667177Y-16114836D02*
X12657653Y-16124360D01*
X12657653Y-16124360D02*
X12638606Y-16133884D01*
X12638606Y-16133884D02*
X12610034Y-16133884D01*
X12790987Y-16133884D02*
X12771939Y-16124360D01*
X12771939Y-16124360D02*
X12762415Y-16105312D01*
X12762415Y-16105312D02*
X12762415Y-15933884D01*
X12943368Y-16124360D02*
X12924320Y-16133884D01*
X12924320Y-16133884D02*
X12886225Y-16133884D01*
X12886225Y-16133884D02*
X12867177Y-16124360D01*
X12867177Y-16124360D02*
X12857653Y-16105312D01*
X12857653Y-16105312D02*
X12857653Y-16029122D01*
X12857653Y-16029122D02*
X12867177Y-16010074D01*
X12867177Y-16010074D02*
X12886225Y-16000550D01*
X12886225Y-16000550D02*
X12924320Y-16000550D01*
X12924320Y-16000550D02*
X12943368Y-16010074D01*
X12943368Y-16010074D02*
X12952891Y-16029122D01*
X12952891Y-16029122D02*
X12952891Y-16048169D01*
X12952891Y-16048169D02*
X12857653Y-16067217D01*
X13029082Y-16124360D02*
X13048130Y-16133884D01*
X13048130Y-16133884D02*
X13086225Y-16133884D01*
X13086225Y-16133884D02*
X13105272Y-16124360D01*
X13105272Y-16124360D02*
X13114796Y-16105312D01*
X13114796Y-16105312D02*
X13114796Y-16095788D01*
X13114796Y-16095788D02*
X13105272Y-16076741D01*
X13105272Y-16076741D02*
X13086225Y-16067217D01*
X13086225Y-16067217D02*
X13057653Y-16067217D01*
X13057653Y-16067217D02*
X13038606Y-16057693D01*
X13038606Y-16057693D02*
X13029082Y-16038646D01*
X13029082Y-16038646D02*
X13029082Y-16029122D01*
X13029082Y-16029122D02*
X13038606Y-16010074D01*
X13038606Y-16010074D02*
X13057653Y-16000550D01*
X13057653Y-16000550D02*
X13086225Y-16000550D01*
X13086225Y-16000550D02*
X13105272Y-16010074D01*
X13181463Y-16210074D02*
X13190987Y-16200550D01*
X13190987Y-16200550D02*
X13210034Y-16171979D01*
X13210034Y-16171979D02*
X13219558Y-16152931D01*
X13219558Y-16152931D02*
X13229082Y-16124360D01*
X13229082Y-16124360D02*
X13238606Y-16076741D01*
X13238606Y-16076741D02*
X13238606Y-16038646D01*
X13238606Y-16038646D02*
X13229082Y-15991027D01*
X13229082Y-15991027D02*
X13219558Y-15962455D01*
X13219558Y-15962455D02*
X13210034Y-15943408D01*
X13210034Y-15943408D02*
X13190987Y-15914836D01*
X13190987Y-15914836D02*
X13181463Y-15905312D01*
X13543368Y-16210074D02*
X13533844Y-16200550D01*
X13533844Y-16200550D02*
X13514796Y-16171979D01*
X13514796Y-16171979D02*
X13505272Y-16152931D01*
X13505272Y-16152931D02*
X13495749Y-16124360D01*
X13495749Y-16124360D02*
X13486225Y-16076741D01*
X13486225Y-16076741D02*
X13486225Y-16038646D01*
X13486225Y-16038646D02*
X13495749Y-15991027D01*
X13495749Y-15991027D02*
X13505272Y-15962455D01*
X13505272Y-15962455D02*
X13514796Y-15943408D01*
X13514796Y-15943408D02*
X13533844Y-15914836D01*
X13533844Y-15914836D02*
X13543368Y-15905312D01*
X13619558Y-16000550D02*
X13619558Y-16133884D01*
X13619558Y-16019598D02*
X13629082Y-16010074D01*
X13629082Y-16010074D02*
X13648130Y-16000550D01*
X13648130Y-16000550D02*
X13676701Y-16000550D01*
X13676701Y-16000550D02*
X13695749Y-16010074D01*
X13695749Y-16010074D02*
X13705272Y-16029122D01*
X13705272Y-16029122D02*
X13705272Y-16133884D01*
X13829082Y-16133884D02*
X13810034Y-16124360D01*
X13810034Y-16124360D02*
X13800511Y-16114836D01*
X13800511Y-16114836D02*
X13790987Y-16095788D01*
X13790987Y-16095788D02*
X13790987Y-16038646D01*
X13790987Y-16038646D02*
X13800511Y-16019598D01*
X13800511Y-16019598D02*
X13810034Y-16010074D01*
X13810034Y-16010074D02*
X13829082Y-16000550D01*
X13829082Y-16000550D02*
X13857653Y-16000550D01*
X13857653Y-16000550D02*
X13876701Y-16010074D01*
X13876701Y-16010074D02*
X13886225Y-16019598D01*
X13886225Y-16019598D02*
X13895749Y-16038646D01*
X13895749Y-16038646D02*
X13895749Y-16095788D01*
X13895749Y-16095788D02*
X13886225Y-16114836D01*
X13886225Y-16114836D02*
X13876701Y-16124360D01*
X13876701Y-16124360D02*
X13857653Y-16133884D01*
X13857653Y-16133884D02*
X13829082Y-16133884D01*
X13952892Y-16000550D02*
X14029082Y-16000550D01*
X13981463Y-15933884D02*
X13981463Y-16105312D01*
X13981463Y-16105312D02*
X13990987Y-16124360D01*
X13990987Y-16124360D02*
X14010034Y-16133884D01*
X14010034Y-16133884D02*
X14029082Y-16133884D01*
X14248130Y-16000550D02*
X14248130Y-16200550D01*
X14248130Y-16010074D02*
X14267177Y-16000550D01*
X14267177Y-16000550D02*
X14305273Y-16000550D01*
X14305273Y-16000550D02*
X14324320Y-16010074D01*
X14324320Y-16010074D02*
X14333844Y-16019598D01*
X14333844Y-16019598D02*
X14343368Y-16038646D01*
X14343368Y-16038646D02*
X14343368Y-16095788D01*
X14343368Y-16095788D02*
X14333844Y-16114836D01*
X14333844Y-16114836D02*
X14324320Y-16124360D01*
X14324320Y-16124360D02*
X14305273Y-16133884D01*
X14305273Y-16133884D02*
X14267177Y-16133884D01*
X14267177Y-16133884D02*
X14248130Y-16124360D01*
X14457653Y-16133884D02*
X14438606Y-16124360D01*
X14438606Y-16124360D02*
X14429082Y-16105312D01*
X14429082Y-16105312D02*
X14429082Y-15933884D01*
X14619558Y-16133884D02*
X14619558Y-16029122D01*
X14619558Y-16029122D02*
X14610034Y-16010074D01*
X14610034Y-16010074D02*
X14590987Y-16000550D01*
X14590987Y-16000550D02*
X14552892Y-16000550D01*
X14552892Y-16000550D02*
X14533844Y-16010074D01*
X14619558Y-16124360D02*
X14600511Y-16133884D01*
X14600511Y-16133884D02*
X14552892Y-16133884D01*
X14552892Y-16133884D02*
X14533844Y-16124360D01*
X14533844Y-16124360D02*
X14524320Y-16105312D01*
X14524320Y-16105312D02*
X14524320Y-16086265D01*
X14524320Y-16086265D02*
X14533844Y-16067217D01*
X14533844Y-16067217D02*
X14552892Y-16057693D01*
X14552892Y-16057693D02*
X14600511Y-16057693D01*
X14600511Y-16057693D02*
X14619558Y-16048169D01*
X14686225Y-16000550D02*
X14762415Y-16000550D01*
X14714796Y-15933884D02*
X14714796Y-16105312D01*
X14714796Y-16105312D02*
X14724320Y-16124360D01*
X14724320Y-16124360D02*
X14743368Y-16133884D01*
X14743368Y-16133884D02*
X14762415Y-16133884D01*
X14905273Y-16124360D02*
X14886225Y-16133884D01*
X14886225Y-16133884D02*
X14848130Y-16133884D01*
X14848130Y-16133884D02*
X14829082Y-16124360D01*
X14829082Y-16124360D02*
X14819558Y-16105312D01*
X14819558Y-16105312D02*
X14819558Y-16029122D01*
X14819558Y-16029122D02*
X14829082Y-16010074D01*
X14829082Y-16010074D02*
X14848130Y-16000550D01*
X14848130Y-16000550D02*
X14886225Y-16000550D01*
X14886225Y-16000550D02*
X14905273Y-16010074D01*
X14905273Y-16010074D02*
X14914796Y-16029122D01*
X14914796Y-16029122D02*
X14914796Y-16048169D01*
X14914796Y-16048169D02*
X14819558Y-16067217D01*
X15086225Y-16133884D02*
X15086225Y-15933884D01*
X15086225Y-16124360D02*
X15067177Y-16133884D01*
X15067177Y-16133884D02*
X15029082Y-16133884D01*
X15029082Y-16133884D02*
X15010034Y-16124360D01*
X15010034Y-16124360D02*
X15000511Y-16114836D01*
X15000511Y-16114836D02*
X14990987Y-16095788D01*
X14990987Y-16095788D02*
X14990987Y-16038646D01*
X14990987Y-16038646D02*
X15000511Y-16019598D01*
X15000511Y-16019598D02*
X15010034Y-16010074D01*
X15010034Y-16010074D02*
X15029082Y-16000550D01*
X15029082Y-16000550D02*
X15067177Y-16000550D01*
X15067177Y-16000550D02*
X15086225Y-16010074D01*
X15162415Y-16210074D02*
X15171939Y-16200550D01*
X15171939Y-16200550D02*
X15190987Y-16171979D01*
X15190987Y-16171979D02*
X15200511Y-16152931D01*
X15200511Y-16152931D02*
X15210034Y-16124360D01*
X15210034Y-16124360D02*
X15219558Y-16076741D01*
X15219558Y-16076741D02*
X15219558Y-16038646D01*
X15219558Y-16038646D02*
X15210034Y-15991027D01*
X15210034Y-15991027D02*
X15200511Y-15962455D01*
X15200511Y-15962455D02*
X15190987Y-15943408D01*
X15190987Y-15943408D02*
X15171939Y-15914836D01*
X15171939Y-15914836D02*
X15162415Y-15905312D01*
D12*
X8406400Y-16332400D02*
G75*
G02*
X8216400Y-16332400I-95000J0D01*
G01*
X8216400Y-16332400D02*
G75*
G02*
X8406400Y-16332400I95000J0D01*
G01*
D10*
X8771939Y-16423884D02*
X8657653Y-16423884D01*
X8714796Y-16423884D02*
X8714796Y-16223884D01*
X8714796Y-16223884D02*
X8695748Y-16252455D01*
X8695748Y-16252455D02*
X8676701Y-16271503D01*
X8676701Y-16271503D02*
X8657653Y-16281027D01*
X8857653Y-16404836D02*
X8867177Y-16414360D01*
X8867177Y-16414360D02*
X8857653Y-16423884D01*
X8857653Y-16423884D02*
X8848129Y-16414360D01*
X8848129Y-16414360D02*
X8857653Y-16404836D01*
X8857653Y-16404836D02*
X8857653Y-16423884D01*
X8962415Y-16423884D02*
X9000510Y-16423884D01*
X9000510Y-16423884D02*
X9019558Y-16414360D01*
X9019558Y-16414360D02*
X9029082Y-16404836D01*
X9029082Y-16404836D02*
X9048129Y-16376265D01*
X9048129Y-16376265D02*
X9057653Y-16338169D01*
X9057653Y-16338169D02*
X9057653Y-16261979D01*
X9057653Y-16261979D02*
X9048129Y-16242931D01*
X9048129Y-16242931D02*
X9038605Y-16233408D01*
X9038605Y-16233408D02*
X9019558Y-16223884D01*
X9019558Y-16223884D02*
X8981463Y-16223884D01*
X8981463Y-16223884D02*
X8962415Y-16233408D01*
X8962415Y-16233408D02*
X8952891Y-16242931D01*
X8952891Y-16242931D02*
X8943367Y-16261979D01*
X8943367Y-16261979D02*
X8943367Y-16309598D01*
X8943367Y-16309598D02*
X8952891Y-16328646D01*
X8952891Y-16328646D02*
X8962415Y-16338169D01*
X8962415Y-16338169D02*
X8981463Y-16347693D01*
X8981463Y-16347693D02*
X9019558Y-16347693D01*
X9019558Y-16347693D02*
X9038605Y-16338169D01*
X9038605Y-16338169D02*
X9048129Y-16328646D01*
X9048129Y-16328646D02*
X9057653Y-16309598D01*
X9181463Y-16223884D02*
X9200510Y-16223884D01*
X9200510Y-16223884D02*
X9219558Y-16233408D01*
X9219558Y-16233408D02*
X9229082Y-16242931D01*
X9229082Y-16242931D02*
X9238605Y-16261979D01*
X9238605Y-16261979D02*
X9248129Y-16300074D01*
X9248129Y-16300074D02*
X9248129Y-16347693D01*
X9248129Y-16347693D02*
X9238605Y-16385788D01*
X9238605Y-16385788D02*
X9229082Y-16404836D01*
X9229082Y-16404836D02*
X9219558Y-16414360D01*
X9219558Y-16414360D02*
X9200510Y-16423884D01*
X9200510Y-16423884D02*
X9181463Y-16423884D01*
X9181463Y-16423884D02*
X9162415Y-16414360D01*
X9162415Y-16414360D02*
X9152891Y-16404836D01*
X9152891Y-16404836D02*
X9143367Y-16385788D01*
X9143367Y-16385788D02*
X9133844Y-16347693D01*
X9133844Y-16347693D02*
X9133844Y-16300074D01*
X9133844Y-16300074D02*
X9143367Y-16261979D01*
X9143367Y-16261979D02*
X9152891Y-16242931D01*
X9152891Y-16242931D02*
X9162415Y-16233408D01*
X9162415Y-16233408D02*
X9181463Y-16223884D01*
X9371939Y-16223884D02*
X9390986Y-16223884D01*
X9390986Y-16223884D02*
X9410034Y-16233408D01*
X9410034Y-16233408D02*
X9419558Y-16242931D01*
X9419558Y-16242931D02*
X9429082Y-16261979D01*
X9429082Y-16261979D02*
X9438605Y-16300074D01*
X9438605Y-16300074D02*
X9438605Y-16347693D01*
X9438605Y-16347693D02*
X9429082Y-16385788D01*
X9429082Y-16385788D02*
X9419558Y-16404836D01*
X9419558Y-16404836D02*
X9410034Y-16414360D01*
X9410034Y-16414360D02*
X9390986Y-16423884D01*
X9390986Y-16423884D02*
X9371939Y-16423884D01*
X9371939Y-16423884D02*
X9352891Y-16414360D01*
X9352891Y-16414360D02*
X9343367Y-16404836D01*
X9343367Y-16404836D02*
X9333844Y-16385788D01*
X9333844Y-16385788D02*
X9324320Y-16347693D01*
X9324320Y-16347693D02*
X9324320Y-16300074D01*
X9324320Y-16300074D02*
X9333844Y-16261979D01*
X9333844Y-16261979D02*
X9343367Y-16242931D01*
X9343367Y-16242931D02*
X9352891Y-16233408D01*
X9352891Y-16233408D02*
X9371939Y-16223884D01*
X9524320Y-16423884D02*
X9524320Y-16290550D01*
X9524320Y-16309598D02*
X9533844Y-16300074D01*
X9533844Y-16300074D02*
X9552891Y-16290550D01*
X9552891Y-16290550D02*
X9581463Y-16290550D01*
X9581463Y-16290550D02*
X9600510Y-16300074D01*
X9600510Y-16300074D02*
X9610034Y-16319122D01*
X9610034Y-16319122D02*
X9610034Y-16423884D01*
X9610034Y-16319122D02*
X9619558Y-16300074D01*
X9619558Y-16300074D02*
X9638605Y-16290550D01*
X9638605Y-16290550D02*
X9667177Y-16290550D01*
X9667177Y-16290550D02*
X9686225Y-16300074D01*
X9686225Y-16300074D02*
X9695748Y-16319122D01*
X9695748Y-16319122D02*
X9695748Y-16423884D01*
X9790986Y-16423884D02*
X9790986Y-16290550D01*
X9790986Y-16309598D02*
X9800510Y-16300074D01*
X9800510Y-16300074D02*
X9819558Y-16290550D01*
X9819558Y-16290550D02*
X9848129Y-16290550D01*
X9848129Y-16290550D02*
X9867177Y-16300074D01*
X9867177Y-16300074D02*
X9876701Y-16319122D01*
X9876701Y-16319122D02*
X9876701Y-16423884D01*
X9876701Y-16319122D02*
X9886225Y-16300074D01*
X9886225Y-16300074D02*
X9905272Y-16290550D01*
X9905272Y-16290550D02*
X9933844Y-16290550D01*
X9933844Y-16290550D02*
X9952891Y-16300074D01*
X9952891Y-16300074D02*
X9962415Y-16319122D01*
X9962415Y-16319122D02*
X9962415Y-16423884D01*
X10352891Y-16214360D02*
X10181463Y-16471503D01*
X10610034Y-16223884D02*
X10629082Y-16223884D01*
X10629082Y-16223884D02*
X10648129Y-16233408D01*
X10648129Y-16233408D02*
X10657653Y-16242931D01*
X10657653Y-16242931D02*
X10667177Y-16261979D01*
X10667177Y-16261979D02*
X10676701Y-16300074D01*
X10676701Y-16300074D02*
X10676701Y-16347693D01*
X10676701Y-16347693D02*
X10667177Y-16385788D01*
X10667177Y-16385788D02*
X10657653Y-16404836D01*
X10657653Y-16404836D02*
X10648129Y-16414360D01*
X10648129Y-16414360D02*
X10629082Y-16423884D01*
X10629082Y-16423884D02*
X10610034Y-16423884D01*
X10610034Y-16423884D02*
X10590987Y-16414360D01*
X10590987Y-16414360D02*
X10581463Y-16404836D01*
X10581463Y-16404836D02*
X10571939Y-16385788D01*
X10571939Y-16385788D02*
X10562415Y-16347693D01*
X10562415Y-16347693D02*
X10562415Y-16300074D01*
X10562415Y-16300074D02*
X10571939Y-16261979D01*
X10571939Y-16261979D02*
X10581463Y-16242931D01*
X10581463Y-16242931D02*
X10590987Y-16233408D01*
X10590987Y-16233408D02*
X10610034Y-16223884D01*
X10762415Y-16404836D02*
X10771939Y-16414360D01*
X10771939Y-16414360D02*
X10762415Y-16423884D01*
X10762415Y-16423884D02*
X10752891Y-16414360D01*
X10752891Y-16414360D02*
X10762415Y-16404836D01*
X10762415Y-16404836D02*
X10762415Y-16423884D01*
X10895748Y-16223884D02*
X10914796Y-16223884D01*
X10914796Y-16223884D02*
X10933844Y-16233408D01*
X10933844Y-16233408D02*
X10943368Y-16242931D01*
X10943368Y-16242931D02*
X10952891Y-16261979D01*
X10952891Y-16261979D02*
X10962415Y-16300074D01*
X10962415Y-16300074D02*
X10962415Y-16347693D01*
X10962415Y-16347693D02*
X10952891Y-16385788D01*
X10952891Y-16385788D02*
X10943368Y-16404836D01*
X10943368Y-16404836D02*
X10933844Y-16414360D01*
X10933844Y-16414360D02*
X10914796Y-16423884D01*
X10914796Y-16423884D02*
X10895748Y-16423884D01*
X10895748Y-16423884D02*
X10876701Y-16414360D01*
X10876701Y-16414360D02*
X10867177Y-16404836D01*
X10867177Y-16404836D02*
X10857653Y-16385788D01*
X10857653Y-16385788D02*
X10848129Y-16347693D01*
X10848129Y-16347693D02*
X10848129Y-16300074D01*
X10848129Y-16300074D02*
X10857653Y-16261979D01*
X10857653Y-16261979D02*
X10867177Y-16242931D01*
X10867177Y-16242931D02*
X10876701Y-16233408D01*
X10876701Y-16233408D02*
X10895748Y-16223884D01*
X11029082Y-16223884D02*
X11162415Y-16223884D01*
X11162415Y-16223884D02*
X11076701Y-16423884D01*
X11324320Y-16290550D02*
X11324320Y-16423884D01*
X11276701Y-16214360D02*
X11229082Y-16357217D01*
X11229082Y-16357217D02*
X11352891Y-16357217D01*
X11457653Y-16309598D02*
X11438606Y-16300074D01*
X11438606Y-16300074D02*
X11429082Y-16290550D01*
X11429082Y-16290550D02*
X11419558Y-16271503D01*
X11419558Y-16271503D02*
X11419558Y-16261979D01*
X11419558Y-16261979D02*
X11429082Y-16242931D01*
X11429082Y-16242931D02*
X11438606Y-16233408D01*
X11438606Y-16233408D02*
X11457653Y-16223884D01*
X11457653Y-16223884D02*
X11495748Y-16223884D01*
X11495748Y-16223884D02*
X11514796Y-16233408D01*
X11514796Y-16233408D02*
X11524320Y-16242931D01*
X11524320Y-16242931D02*
X11533844Y-16261979D01*
X11533844Y-16261979D02*
X11533844Y-16271503D01*
X11533844Y-16271503D02*
X11524320Y-16290550D01*
X11524320Y-16290550D02*
X11514796Y-16300074D01*
X11514796Y-16300074D02*
X11495748Y-16309598D01*
X11495748Y-16309598D02*
X11457653Y-16309598D01*
X11457653Y-16309598D02*
X11438606Y-16319122D01*
X11438606Y-16319122D02*
X11429082Y-16328646D01*
X11429082Y-16328646D02*
X11419558Y-16347693D01*
X11419558Y-16347693D02*
X11419558Y-16385788D01*
X11419558Y-16385788D02*
X11429082Y-16404836D01*
X11429082Y-16404836D02*
X11438606Y-16414360D01*
X11438606Y-16414360D02*
X11457653Y-16423884D01*
X11457653Y-16423884D02*
X11495748Y-16423884D01*
X11495748Y-16423884D02*
X11514796Y-16414360D01*
X11514796Y-16414360D02*
X11524320Y-16404836D01*
X11524320Y-16404836D02*
X11533844Y-16385788D01*
X11533844Y-16385788D02*
X11533844Y-16347693D01*
X11533844Y-16347693D02*
X11524320Y-16328646D01*
X11524320Y-16328646D02*
X11514796Y-16319122D01*
X11514796Y-16319122D02*
X11495748Y-16309598D01*
X11610034Y-16223884D02*
X11610034Y-16261979D01*
X11686225Y-16223884D02*
X11686225Y-16261979D01*
X11981463Y-16500074D02*
X11971939Y-16490550D01*
X11971939Y-16490550D02*
X11952891Y-16461979D01*
X11952891Y-16461979D02*
X11943368Y-16442931D01*
X11943368Y-16442931D02*
X11933844Y-16414360D01*
X11933844Y-16414360D02*
X11924320Y-16366741D01*
X11924320Y-16366741D02*
X11924320Y-16328646D01*
X11924320Y-16328646D02*
X11933844Y-16281027D01*
X11933844Y-16281027D02*
X11943368Y-16252455D01*
X11943368Y-16252455D02*
X11952891Y-16233408D01*
X11952891Y-16233408D02*
X11971939Y-16204836D01*
X11971939Y-16204836D02*
X11981463Y-16195312D01*
X12143368Y-16290550D02*
X12143368Y-16423884D01*
X12095748Y-16214360D02*
X12048129Y-16357217D01*
X12048129Y-16357217D02*
X12171939Y-16357217D01*
X12400510Y-16423884D02*
X12400510Y-16223884D01*
X12486225Y-16423884D02*
X12486225Y-16319122D01*
X12486225Y-16319122D02*
X12476701Y-16300074D01*
X12476701Y-16300074D02*
X12457653Y-16290550D01*
X12457653Y-16290550D02*
X12429082Y-16290550D01*
X12429082Y-16290550D02*
X12410034Y-16300074D01*
X12410034Y-16300074D02*
X12400510Y-16309598D01*
X12610034Y-16423884D02*
X12590987Y-16414360D01*
X12590987Y-16414360D02*
X12581463Y-16404836D01*
X12581463Y-16404836D02*
X12571939Y-16385788D01*
X12571939Y-16385788D02*
X12571939Y-16328646D01*
X12571939Y-16328646D02*
X12581463Y-16309598D01*
X12581463Y-16309598D02*
X12590987Y-16300074D01*
X12590987Y-16300074D02*
X12610034Y-16290550D01*
X12610034Y-16290550D02*
X12638606Y-16290550D01*
X12638606Y-16290550D02*
X12657653Y-16300074D01*
X12657653Y-16300074D02*
X12667177Y-16309598D01*
X12667177Y-16309598D02*
X12676701Y-16328646D01*
X12676701Y-16328646D02*
X12676701Y-16385788D01*
X12676701Y-16385788D02*
X12667177Y-16404836D01*
X12667177Y-16404836D02*
X12657653Y-16414360D01*
X12657653Y-16414360D02*
X12638606Y-16423884D01*
X12638606Y-16423884D02*
X12610034Y-16423884D01*
X12790987Y-16423884D02*
X12771939Y-16414360D01*
X12771939Y-16414360D02*
X12762415Y-16395312D01*
X12762415Y-16395312D02*
X12762415Y-16223884D01*
X12943368Y-16414360D02*
X12924320Y-16423884D01*
X12924320Y-16423884D02*
X12886225Y-16423884D01*
X12886225Y-16423884D02*
X12867177Y-16414360D01*
X12867177Y-16414360D02*
X12857653Y-16395312D01*
X12857653Y-16395312D02*
X12857653Y-16319122D01*
X12857653Y-16319122D02*
X12867177Y-16300074D01*
X12867177Y-16300074D02*
X12886225Y-16290550D01*
X12886225Y-16290550D02*
X12924320Y-16290550D01*
X12924320Y-16290550D02*
X12943368Y-16300074D01*
X12943368Y-16300074D02*
X12952891Y-16319122D01*
X12952891Y-16319122D02*
X12952891Y-16338169D01*
X12952891Y-16338169D02*
X12857653Y-16357217D01*
X13029082Y-16414360D02*
X13048130Y-16423884D01*
X13048130Y-16423884D02*
X13086225Y-16423884D01*
X13086225Y-16423884D02*
X13105272Y-16414360D01*
X13105272Y-16414360D02*
X13114796Y-16395312D01*
X13114796Y-16395312D02*
X13114796Y-16385788D01*
X13114796Y-16385788D02*
X13105272Y-16366741D01*
X13105272Y-16366741D02*
X13086225Y-16357217D01*
X13086225Y-16357217D02*
X13057653Y-16357217D01*
X13057653Y-16357217D02*
X13038606Y-16347693D01*
X13038606Y-16347693D02*
X13029082Y-16328646D01*
X13029082Y-16328646D02*
X13029082Y-16319122D01*
X13029082Y-16319122D02*
X13038606Y-16300074D01*
X13038606Y-16300074D02*
X13057653Y-16290550D01*
X13057653Y-16290550D02*
X13086225Y-16290550D01*
X13086225Y-16290550D02*
X13105272Y-16300074D01*
X13181463Y-16500074D02*
X13190987Y-16490550D01*
X13190987Y-16490550D02*
X13210034Y-16461979D01*
X13210034Y-16461979D02*
X13219558Y-16442931D01*
X13219558Y-16442931D02*
X13229082Y-16414360D01*
X13229082Y-16414360D02*
X13238606Y-16366741D01*
X13238606Y-16366741D02*
X13238606Y-16328646D01*
X13238606Y-16328646D02*
X13229082Y-16281027D01*
X13229082Y-16281027D02*
X13219558Y-16252455D01*
X13219558Y-16252455D02*
X13210034Y-16233408D01*
X13210034Y-16233408D02*
X13190987Y-16204836D01*
X13190987Y-16204836D02*
X13181463Y-16195312D01*
X13543368Y-16500074D02*
X13533844Y-16490550D01*
X13533844Y-16490550D02*
X13514796Y-16461979D01*
X13514796Y-16461979D02*
X13505272Y-16442931D01*
X13505272Y-16442931D02*
X13495749Y-16414360D01*
X13495749Y-16414360D02*
X13486225Y-16366741D01*
X13486225Y-16366741D02*
X13486225Y-16328646D01*
X13486225Y-16328646D02*
X13495749Y-16281027D01*
X13495749Y-16281027D02*
X13505272Y-16252455D01*
X13505272Y-16252455D02*
X13514796Y-16233408D01*
X13514796Y-16233408D02*
X13533844Y-16204836D01*
X13533844Y-16204836D02*
X13543368Y-16195312D01*
X13619558Y-16290550D02*
X13619558Y-16423884D01*
X13619558Y-16309598D02*
X13629082Y-16300074D01*
X13629082Y-16300074D02*
X13648130Y-16290550D01*
X13648130Y-16290550D02*
X13676701Y-16290550D01*
X13676701Y-16290550D02*
X13695749Y-16300074D01*
X13695749Y-16300074D02*
X13705272Y-16319122D01*
X13705272Y-16319122D02*
X13705272Y-16423884D01*
X13829082Y-16423884D02*
X13810034Y-16414360D01*
X13810034Y-16414360D02*
X13800511Y-16404836D01*
X13800511Y-16404836D02*
X13790987Y-16385788D01*
X13790987Y-16385788D02*
X13790987Y-16328646D01*
X13790987Y-16328646D02*
X13800511Y-16309598D01*
X13800511Y-16309598D02*
X13810034Y-16300074D01*
X13810034Y-16300074D02*
X13829082Y-16290550D01*
X13829082Y-16290550D02*
X13857653Y-16290550D01*
X13857653Y-16290550D02*
X13876701Y-16300074D01*
X13876701Y-16300074D02*
X13886225Y-16309598D01*
X13886225Y-16309598D02*
X13895749Y-16328646D01*
X13895749Y-16328646D02*
X13895749Y-16385788D01*
X13895749Y-16385788D02*
X13886225Y-16404836D01*
X13886225Y-16404836D02*
X13876701Y-16414360D01*
X13876701Y-16414360D02*
X13857653Y-16423884D01*
X13857653Y-16423884D02*
X13829082Y-16423884D01*
X13952892Y-16290550D02*
X14029082Y-16290550D01*
X13981463Y-16223884D02*
X13981463Y-16395312D01*
X13981463Y-16395312D02*
X13990987Y-16414360D01*
X13990987Y-16414360D02*
X14010034Y-16423884D01*
X14010034Y-16423884D02*
X14029082Y-16423884D01*
X14248130Y-16290550D02*
X14248130Y-16490550D01*
X14248130Y-16300074D02*
X14267177Y-16290550D01*
X14267177Y-16290550D02*
X14305273Y-16290550D01*
X14305273Y-16290550D02*
X14324320Y-16300074D01*
X14324320Y-16300074D02*
X14333844Y-16309598D01*
X14333844Y-16309598D02*
X14343368Y-16328646D01*
X14343368Y-16328646D02*
X14343368Y-16385788D01*
X14343368Y-16385788D02*
X14333844Y-16404836D01*
X14333844Y-16404836D02*
X14324320Y-16414360D01*
X14324320Y-16414360D02*
X14305273Y-16423884D01*
X14305273Y-16423884D02*
X14267177Y-16423884D01*
X14267177Y-16423884D02*
X14248130Y-16414360D01*
X14457653Y-16423884D02*
X14438606Y-16414360D01*
X14438606Y-16414360D02*
X14429082Y-16395312D01*
X14429082Y-16395312D02*
X14429082Y-16223884D01*
X14619558Y-16423884D02*
X14619558Y-16319122D01*
X14619558Y-16319122D02*
X14610034Y-16300074D01*
X14610034Y-16300074D02*
X14590987Y-16290550D01*
X14590987Y-16290550D02*
X14552892Y-16290550D01*
X14552892Y-16290550D02*
X14533844Y-16300074D01*
X14619558Y-16414360D02*
X14600511Y-16423884D01*
X14600511Y-16423884D02*
X14552892Y-16423884D01*
X14552892Y-16423884D02*
X14533844Y-16414360D01*
X14533844Y-16414360D02*
X14524320Y-16395312D01*
X14524320Y-16395312D02*
X14524320Y-16376265D01*
X14524320Y-16376265D02*
X14533844Y-16357217D01*
X14533844Y-16357217D02*
X14552892Y-16347693D01*
X14552892Y-16347693D02*
X14600511Y-16347693D01*
X14600511Y-16347693D02*
X14619558Y-16338169D01*
X14686225Y-16290550D02*
X14762415Y-16290550D01*
X14714796Y-16223884D02*
X14714796Y-16395312D01*
X14714796Y-16395312D02*
X14724320Y-16414360D01*
X14724320Y-16414360D02*
X14743368Y-16423884D01*
X14743368Y-16423884D02*
X14762415Y-16423884D01*
X14905273Y-16414360D02*
X14886225Y-16423884D01*
X14886225Y-16423884D02*
X14848130Y-16423884D01*
X14848130Y-16423884D02*
X14829082Y-16414360D01*
X14829082Y-16414360D02*
X14819558Y-16395312D01*
X14819558Y-16395312D02*
X14819558Y-16319122D01*
X14819558Y-16319122D02*
X14829082Y-16300074D01*
X14829082Y-16300074D02*
X14848130Y-16290550D01*
X14848130Y-16290550D02*
X14886225Y-16290550D01*
X14886225Y-16290550D02*
X14905273Y-16300074D01*
X14905273Y-16300074D02*
X14914796Y-16319122D01*
X14914796Y-16319122D02*
X14914796Y-16338169D01*
X14914796Y-16338169D02*
X14819558Y-16357217D01*
X15086225Y-16423884D02*
X15086225Y-16223884D01*
X15086225Y-16414360D02*
X15067177Y-16423884D01*
X15067177Y-16423884D02*
X15029082Y-16423884D01*
X15029082Y-16423884D02*
X15010034Y-16414360D01*
X15010034Y-16414360D02*
X15000511Y-16404836D01*
X15000511Y-16404836D02*
X14990987Y-16385788D01*
X14990987Y-16385788D02*
X14990987Y-16328646D01*
X14990987Y-16328646D02*
X15000511Y-16309598D01*
X15000511Y-16309598D02*
X15010034Y-16300074D01*
X15010034Y-16300074D02*
X15029082Y-16290550D01*
X15029082Y-16290550D02*
X15067177Y-16290550D01*
X15067177Y-16290550D02*
X15086225Y-16300074D01*
X15162415Y-16500074D02*
X15171939Y-16490550D01*
X15171939Y-16490550D02*
X15190987Y-16461979D01*
X15190987Y-16461979D02*
X15200511Y-16442931D01*
X15200511Y-16442931D02*
X15210034Y-16414360D01*
X15210034Y-16414360D02*
X15219558Y-16366741D01*
X15219558Y-16366741D02*
X15219558Y-16328646D01*
X15219558Y-16328646D02*
X15210034Y-16281027D01*
X15210034Y-16281027D02*
X15200511Y-16252455D01*
X15200511Y-16252455D02*
X15190987Y-16233408D01*
X15190987Y-16233408D02*
X15171939Y-16204836D01*
X15171939Y-16204836D02*
X15162415Y-16195312D01*
X8306400Y-16542400D02*
X8306400Y-16742400D01*
X8206400Y-16642400D02*
X8406400Y-16642400D01*
X8752891Y-16600550D02*
X8752891Y-16733884D01*
X8705272Y-16524360D02*
X8657653Y-16667217D01*
X8657653Y-16667217D02*
X8781463Y-16667217D01*
X8857653Y-16714836D02*
X8867177Y-16724360D01*
X8867177Y-16724360D02*
X8857653Y-16733884D01*
X8857653Y-16733884D02*
X8848129Y-16724360D01*
X8848129Y-16724360D02*
X8857653Y-16714836D01*
X8857653Y-16714836D02*
X8857653Y-16733884D01*
X8990986Y-16533884D02*
X9010034Y-16533884D01*
X9010034Y-16533884D02*
X9029082Y-16543408D01*
X9029082Y-16543408D02*
X9038605Y-16552931D01*
X9038605Y-16552931D02*
X9048129Y-16571979D01*
X9048129Y-16571979D02*
X9057653Y-16610074D01*
X9057653Y-16610074D02*
X9057653Y-16657693D01*
X9057653Y-16657693D02*
X9048129Y-16695788D01*
X9048129Y-16695788D02*
X9038605Y-16714836D01*
X9038605Y-16714836D02*
X9029082Y-16724360D01*
X9029082Y-16724360D02*
X9010034Y-16733884D01*
X9010034Y-16733884D02*
X8990986Y-16733884D01*
X8990986Y-16733884D02*
X8971939Y-16724360D01*
X8971939Y-16724360D02*
X8962415Y-16714836D01*
X8962415Y-16714836D02*
X8952891Y-16695788D01*
X8952891Y-16695788D02*
X8943367Y-16657693D01*
X8943367Y-16657693D02*
X8943367Y-16610074D01*
X8943367Y-16610074D02*
X8952891Y-16571979D01*
X8952891Y-16571979D02*
X8962415Y-16552931D01*
X8962415Y-16552931D02*
X8971939Y-16543408D01*
X8971939Y-16543408D02*
X8990986Y-16533884D01*
X9181463Y-16533884D02*
X9200510Y-16533884D01*
X9200510Y-16533884D02*
X9219558Y-16543408D01*
X9219558Y-16543408D02*
X9229082Y-16552931D01*
X9229082Y-16552931D02*
X9238605Y-16571979D01*
X9238605Y-16571979D02*
X9248129Y-16610074D01*
X9248129Y-16610074D02*
X9248129Y-16657693D01*
X9248129Y-16657693D02*
X9238605Y-16695788D01*
X9238605Y-16695788D02*
X9229082Y-16714836D01*
X9229082Y-16714836D02*
X9219558Y-16724360D01*
X9219558Y-16724360D02*
X9200510Y-16733884D01*
X9200510Y-16733884D02*
X9181463Y-16733884D01*
X9181463Y-16733884D02*
X9162415Y-16724360D01*
X9162415Y-16724360D02*
X9152891Y-16714836D01*
X9152891Y-16714836D02*
X9143367Y-16695788D01*
X9143367Y-16695788D02*
X9133844Y-16657693D01*
X9133844Y-16657693D02*
X9133844Y-16610074D01*
X9133844Y-16610074D02*
X9143367Y-16571979D01*
X9143367Y-16571979D02*
X9152891Y-16552931D01*
X9152891Y-16552931D02*
X9162415Y-16543408D01*
X9162415Y-16543408D02*
X9181463Y-16533884D01*
X9371939Y-16533884D02*
X9390986Y-16533884D01*
X9390986Y-16533884D02*
X9410034Y-16543408D01*
X9410034Y-16543408D02*
X9419558Y-16552931D01*
X9419558Y-16552931D02*
X9429082Y-16571979D01*
X9429082Y-16571979D02*
X9438605Y-16610074D01*
X9438605Y-16610074D02*
X9438605Y-16657693D01*
X9438605Y-16657693D02*
X9429082Y-16695788D01*
X9429082Y-16695788D02*
X9419558Y-16714836D01*
X9419558Y-16714836D02*
X9410034Y-16724360D01*
X9410034Y-16724360D02*
X9390986Y-16733884D01*
X9390986Y-16733884D02*
X9371939Y-16733884D01*
X9371939Y-16733884D02*
X9352891Y-16724360D01*
X9352891Y-16724360D02*
X9343367Y-16714836D01*
X9343367Y-16714836D02*
X9333844Y-16695788D01*
X9333844Y-16695788D02*
X9324320Y-16657693D01*
X9324320Y-16657693D02*
X9324320Y-16610074D01*
X9324320Y-16610074D02*
X9333844Y-16571979D01*
X9333844Y-16571979D02*
X9343367Y-16552931D01*
X9343367Y-16552931D02*
X9352891Y-16543408D01*
X9352891Y-16543408D02*
X9371939Y-16533884D01*
X9524320Y-16733884D02*
X9524320Y-16600550D01*
X9524320Y-16619598D02*
X9533844Y-16610074D01*
X9533844Y-16610074D02*
X9552891Y-16600550D01*
X9552891Y-16600550D02*
X9581463Y-16600550D01*
X9581463Y-16600550D02*
X9600510Y-16610074D01*
X9600510Y-16610074D02*
X9610034Y-16629122D01*
X9610034Y-16629122D02*
X9610034Y-16733884D01*
X9610034Y-16629122D02*
X9619558Y-16610074D01*
X9619558Y-16610074D02*
X9638605Y-16600550D01*
X9638605Y-16600550D02*
X9667177Y-16600550D01*
X9667177Y-16600550D02*
X9686225Y-16610074D01*
X9686225Y-16610074D02*
X9695748Y-16629122D01*
X9695748Y-16629122D02*
X9695748Y-16733884D01*
X9790986Y-16733884D02*
X9790986Y-16600550D01*
X9790986Y-16619598D02*
X9800510Y-16610074D01*
X9800510Y-16610074D02*
X9819558Y-16600550D01*
X9819558Y-16600550D02*
X9848129Y-16600550D01*
X9848129Y-16600550D02*
X9867177Y-16610074D01*
X9867177Y-16610074D02*
X9876701Y-16629122D01*
X9876701Y-16629122D02*
X9876701Y-16733884D01*
X9876701Y-16629122D02*
X9886225Y-16610074D01*
X9886225Y-16610074D02*
X9905272Y-16600550D01*
X9905272Y-16600550D02*
X9933844Y-16600550D01*
X9933844Y-16600550D02*
X9952891Y-16610074D01*
X9952891Y-16610074D02*
X9962415Y-16629122D01*
X9962415Y-16629122D02*
X9962415Y-16733884D01*
X10352891Y-16524360D02*
X10181463Y-16781503D01*
X10610034Y-16533884D02*
X10629082Y-16533884D01*
X10629082Y-16533884D02*
X10648129Y-16543408D01*
X10648129Y-16543408D02*
X10657653Y-16552931D01*
X10657653Y-16552931D02*
X10667177Y-16571979D01*
X10667177Y-16571979D02*
X10676701Y-16610074D01*
X10676701Y-16610074D02*
X10676701Y-16657693D01*
X10676701Y-16657693D02*
X10667177Y-16695788D01*
X10667177Y-16695788D02*
X10657653Y-16714836D01*
X10657653Y-16714836D02*
X10648129Y-16724360D01*
X10648129Y-16724360D02*
X10629082Y-16733884D01*
X10629082Y-16733884D02*
X10610034Y-16733884D01*
X10610034Y-16733884D02*
X10590987Y-16724360D01*
X10590987Y-16724360D02*
X10581463Y-16714836D01*
X10581463Y-16714836D02*
X10571939Y-16695788D01*
X10571939Y-16695788D02*
X10562415Y-16657693D01*
X10562415Y-16657693D02*
X10562415Y-16610074D01*
X10562415Y-16610074D02*
X10571939Y-16571979D01*
X10571939Y-16571979D02*
X10581463Y-16552931D01*
X10581463Y-16552931D02*
X10590987Y-16543408D01*
X10590987Y-16543408D02*
X10610034Y-16533884D01*
X10762415Y-16714836D02*
X10771939Y-16724360D01*
X10771939Y-16724360D02*
X10762415Y-16733884D01*
X10762415Y-16733884D02*
X10752891Y-16724360D01*
X10752891Y-16724360D02*
X10762415Y-16714836D01*
X10762415Y-16714836D02*
X10762415Y-16733884D01*
X10962415Y-16733884D02*
X10848129Y-16733884D01*
X10905272Y-16733884D02*
X10905272Y-16533884D01*
X10905272Y-16533884D02*
X10886225Y-16562455D01*
X10886225Y-16562455D02*
X10867177Y-16581503D01*
X10867177Y-16581503D02*
X10848129Y-16591027D01*
X11143368Y-16533884D02*
X11048129Y-16533884D01*
X11048129Y-16533884D02*
X11038606Y-16629122D01*
X11038606Y-16629122D02*
X11048129Y-16619598D01*
X11048129Y-16619598D02*
X11067177Y-16610074D01*
X11067177Y-16610074D02*
X11114796Y-16610074D01*
X11114796Y-16610074D02*
X11133844Y-16619598D01*
X11133844Y-16619598D02*
X11143368Y-16629122D01*
X11143368Y-16629122D02*
X11152891Y-16648169D01*
X11152891Y-16648169D02*
X11152891Y-16695788D01*
X11152891Y-16695788D02*
X11143368Y-16714836D01*
X11143368Y-16714836D02*
X11133844Y-16724360D01*
X11133844Y-16724360D02*
X11114796Y-16733884D01*
X11114796Y-16733884D02*
X11067177Y-16733884D01*
X11067177Y-16733884D02*
X11048129Y-16724360D01*
X11048129Y-16724360D02*
X11038606Y-16714836D01*
X11219558Y-16533884D02*
X11352891Y-16533884D01*
X11352891Y-16533884D02*
X11267177Y-16733884D01*
X11524320Y-16533884D02*
X11429082Y-16533884D01*
X11429082Y-16533884D02*
X11419558Y-16629122D01*
X11419558Y-16629122D02*
X11429082Y-16619598D01*
X11429082Y-16619598D02*
X11448129Y-16610074D01*
X11448129Y-16610074D02*
X11495748Y-16610074D01*
X11495748Y-16610074D02*
X11514796Y-16619598D01*
X11514796Y-16619598D02*
X11524320Y-16629122D01*
X11524320Y-16629122D02*
X11533844Y-16648169D01*
X11533844Y-16648169D02*
X11533844Y-16695788D01*
X11533844Y-16695788D02*
X11524320Y-16714836D01*
X11524320Y-16714836D02*
X11514796Y-16724360D01*
X11514796Y-16724360D02*
X11495748Y-16733884D01*
X11495748Y-16733884D02*
X11448129Y-16733884D01*
X11448129Y-16733884D02*
X11429082Y-16724360D01*
X11429082Y-16724360D02*
X11419558Y-16714836D01*
X11610034Y-16533884D02*
X11610034Y-16571979D01*
X11686225Y-16533884D02*
X11686225Y-16571979D01*
X11981463Y-16810074D02*
X11971939Y-16800550D01*
X11971939Y-16800550D02*
X11952891Y-16771979D01*
X11952891Y-16771979D02*
X11943368Y-16752931D01*
X11943368Y-16752931D02*
X11933844Y-16724360D01*
X11933844Y-16724360D02*
X11924320Y-16676741D01*
X11924320Y-16676741D02*
X11924320Y-16638646D01*
X11924320Y-16638646D02*
X11933844Y-16591027D01*
X11933844Y-16591027D02*
X11943368Y-16562455D01*
X11943368Y-16562455D02*
X11952891Y-16543408D01*
X11952891Y-16543408D02*
X11971939Y-16514836D01*
X11971939Y-16514836D02*
X11981463Y-16505312D01*
X12143368Y-16600550D02*
X12143368Y-16733884D01*
X12095748Y-16524360D02*
X12048129Y-16667217D01*
X12048129Y-16667217D02*
X12171939Y-16667217D01*
X12400510Y-16733884D02*
X12400510Y-16533884D01*
X12486225Y-16733884D02*
X12486225Y-16629122D01*
X12486225Y-16629122D02*
X12476701Y-16610074D01*
X12476701Y-16610074D02*
X12457653Y-16600550D01*
X12457653Y-16600550D02*
X12429082Y-16600550D01*
X12429082Y-16600550D02*
X12410034Y-16610074D01*
X12410034Y-16610074D02*
X12400510Y-16619598D01*
X12610034Y-16733884D02*
X12590987Y-16724360D01*
X12590987Y-16724360D02*
X12581463Y-16714836D01*
X12581463Y-16714836D02*
X12571939Y-16695788D01*
X12571939Y-16695788D02*
X12571939Y-16638646D01*
X12571939Y-16638646D02*
X12581463Y-16619598D01*
X12581463Y-16619598D02*
X12590987Y-16610074D01*
X12590987Y-16610074D02*
X12610034Y-16600550D01*
X12610034Y-16600550D02*
X12638606Y-16600550D01*
X12638606Y-16600550D02*
X12657653Y-16610074D01*
X12657653Y-16610074D02*
X12667177Y-16619598D01*
X12667177Y-16619598D02*
X12676701Y-16638646D01*
X12676701Y-16638646D02*
X12676701Y-16695788D01*
X12676701Y-16695788D02*
X12667177Y-16714836D01*
X12667177Y-16714836D02*
X12657653Y-16724360D01*
X12657653Y-16724360D02*
X12638606Y-16733884D01*
X12638606Y-16733884D02*
X12610034Y-16733884D01*
X12790987Y-16733884D02*
X12771939Y-16724360D01*
X12771939Y-16724360D02*
X12762415Y-16705312D01*
X12762415Y-16705312D02*
X12762415Y-16533884D01*
X12943368Y-16724360D02*
X12924320Y-16733884D01*
X12924320Y-16733884D02*
X12886225Y-16733884D01*
X12886225Y-16733884D02*
X12867177Y-16724360D01*
X12867177Y-16724360D02*
X12857653Y-16705312D01*
X12857653Y-16705312D02*
X12857653Y-16629122D01*
X12857653Y-16629122D02*
X12867177Y-16610074D01*
X12867177Y-16610074D02*
X12886225Y-16600550D01*
X12886225Y-16600550D02*
X12924320Y-16600550D01*
X12924320Y-16600550D02*
X12943368Y-16610074D01*
X12943368Y-16610074D02*
X12952891Y-16629122D01*
X12952891Y-16629122D02*
X12952891Y-16648169D01*
X12952891Y-16648169D02*
X12857653Y-16667217D01*
X13029082Y-16724360D02*
X13048130Y-16733884D01*
X13048130Y-16733884D02*
X13086225Y-16733884D01*
X13086225Y-16733884D02*
X13105272Y-16724360D01*
X13105272Y-16724360D02*
X13114796Y-16705312D01*
X13114796Y-16705312D02*
X13114796Y-16695788D01*
X13114796Y-16695788D02*
X13105272Y-16676741D01*
X13105272Y-16676741D02*
X13086225Y-16667217D01*
X13086225Y-16667217D02*
X13057653Y-16667217D01*
X13057653Y-16667217D02*
X13038606Y-16657693D01*
X13038606Y-16657693D02*
X13029082Y-16638646D01*
X13029082Y-16638646D02*
X13029082Y-16629122D01*
X13029082Y-16629122D02*
X13038606Y-16610074D01*
X13038606Y-16610074D02*
X13057653Y-16600550D01*
X13057653Y-16600550D02*
X13086225Y-16600550D01*
X13086225Y-16600550D02*
X13105272Y-16610074D01*
X13181463Y-16810074D02*
X13190987Y-16800550D01*
X13190987Y-16800550D02*
X13210034Y-16771979D01*
X13210034Y-16771979D02*
X13219558Y-16752931D01*
X13219558Y-16752931D02*
X13229082Y-16724360D01*
X13229082Y-16724360D02*
X13238606Y-16676741D01*
X13238606Y-16676741D02*
X13238606Y-16638646D01*
X13238606Y-16638646D02*
X13229082Y-16591027D01*
X13229082Y-16591027D02*
X13219558Y-16562455D01*
X13219558Y-16562455D02*
X13210034Y-16543408D01*
X13210034Y-16543408D02*
X13190987Y-16514836D01*
X13190987Y-16514836D02*
X13181463Y-16505312D01*
X13543368Y-16810074D02*
X13533844Y-16800550D01*
X13533844Y-16800550D02*
X13514796Y-16771979D01*
X13514796Y-16771979D02*
X13505272Y-16752931D01*
X13505272Y-16752931D02*
X13495749Y-16724360D01*
X13495749Y-16724360D02*
X13486225Y-16676741D01*
X13486225Y-16676741D02*
X13486225Y-16638646D01*
X13486225Y-16638646D02*
X13495749Y-16591027D01*
X13495749Y-16591027D02*
X13505272Y-16562455D01*
X13505272Y-16562455D02*
X13514796Y-16543408D01*
X13514796Y-16543408D02*
X13533844Y-16514836D01*
X13533844Y-16514836D02*
X13543368Y-16505312D01*
X13619558Y-16600550D02*
X13619558Y-16733884D01*
X13619558Y-16619598D02*
X13629082Y-16610074D01*
X13629082Y-16610074D02*
X13648130Y-16600550D01*
X13648130Y-16600550D02*
X13676701Y-16600550D01*
X13676701Y-16600550D02*
X13695749Y-16610074D01*
X13695749Y-16610074D02*
X13705272Y-16629122D01*
X13705272Y-16629122D02*
X13705272Y-16733884D01*
X13829082Y-16733884D02*
X13810034Y-16724360D01*
X13810034Y-16724360D02*
X13800511Y-16714836D01*
X13800511Y-16714836D02*
X13790987Y-16695788D01*
X13790987Y-16695788D02*
X13790987Y-16638646D01*
X13790987Y-16638646D02*
X13800511Y-16619598D01*
X13800511Y-16619598D02*
X13810034Y-16610074D01*
X13810034Y-16610074D02*
X13829082Y-16600550D01*
X13829082Y-16600550D02*
X13857653Y-16600550D01*
X13857653Y-16600550D02*
X13876701Y-16610074D01*
X13876701Y-16610074D02*
X13886225Y-16619598D01*
X13886225Y-16619598D02*
X13895749Y-16638646D01*
X13895749Y-16638646D02*
X13895749Y-16695788D01*
X13895749Y-16695788D02*
X13886225Y-16714836D01*
X13886225Y-16714836D02*
X13876701Y-16724360D01*
X13876701Y-16724360D02*
X13857653Y-16733884D01*
X13857653Y-16733884D02*
X13829082Y-16733884D01*
X13952892Y-16600550D02*
X14029082Y-16600550D01*
X13981463Y-16533884D02*
X13981463Y-16705312D01*
X13981463Y-16705312D02*
X13990987Y-16724360D01*
X13990987Y-16724360D02*
X14010034Y-16733884D01*
X14010034Y-16733884D02*
X14029082Y-16733884D01*
X14248130Y-16600550D02*
X14248130Y-16800550D01*
X14248130Y-16610074D02*
X14267177Y-16600550D01*
X14267177Y-16600550D02*
X14305273Y-16600550D01*
X14305273Y-16600550D02*
X14324320Y-16610074D01*
X14324320Y-16610074D02*
X14333844Y-16619598D01*
X14333844Y-16619598D02*
X14343368Y-16638646D01*
X14343368Y-16638646D02*
X14343368Y-16695788D01*
X14343368Y-16695788D02*
X14333844Y-16714836D01*
X14333844Y-16714836D02*
X14324320Y-16724360D01*
X14324320Y-16724360D02*
X14305273Y-16733884D01*
X14305273Y-16733884D02*
X14267177Y-16733884D01*
X14267177Y-16733884D02*
X14248130Y-16724360D01*
X14457653Y-16733884D02*
X14438606Y-16724360D01*
X14438606Y-16724360D02*
X14429082Y-16705312D01*
X14429082Y-16705312D02*
X14429082Y-16533884D01*
X14619558Y-16733884D02*
X14619558Y-16629122D01*
X14619558Y-16629122D02*
X14610034Y-16610074D01*
X14610034Y-16610074D02*
X14590987Y-16600550D01*
X14590987Y-16600550D02*
X14552892Y-16600550D01*
X14552892Y-16600550D02*
X14533844Y-16610074D01*
X14619558Y-16724360D02*
X14600511Y-16733884D01*
X14600511Y-16733884D02*
X14552892Y-16733884D01*
X14552892Y-16733884D02*
X14533844Y-16724360D01*
X14533844Y-16724360D02*
X14524320Y-16705312D01*
X14524320Y-16705312D02*
X14524320Y-16686265D01*
X14524320Y-16686265D02*
X14533844Y-16667217D01*
X14533844Y-16667217D02*
X14552892Y-16657693D01*
X14552892Y-16657693D02*
X14600511Y-16657693D01*
X14600511Y-16657693D02*
X14619558Y-16648169D01*
X14686225Y-16600550D02*
X14762415Y-16600550D01*
X14714796Y-16533884D02*
X14714796Y-16705312D01*
X14714796Y-16705312D02*
X14724320Y-16724360D01*
X14724320Y-16724360D02*
X14743368Y-16733884D01*
X14743368Y-16733884D02*
X14762415Y-16733884D01*
X14905273Y-16724360D02*
X14886225Y-16733884D01*
X14886225Y-16733884D02*
X14848130Y-16733884D01*
X14848130Y-16733884D02*
X14829082Y-16724360D01*
X14829082Y-16724360D02*
X14819558Y-16705312D01*
X14819558Y-16705312D02*
X14819558Y-16629122D01*
X14819558Y-16629122D02*
X14829082Y-16610074D01*
X14829082Y-16610074D02*
X14848130Y-16600550D01*
X14848130Y-16600550D02*
X14886225Y-16600550D01*
X14886225Y-16600550D02*
X14905273Y-16610074D01*
X14905273Y-16610074D02*
X14914796Y-16629122D01*
X14914796Y-16629122D02*
X14914796Y-16648169D01*
X14914796Y-16648169D02*
X14819558Y-16667217D01*
X15086225Y-16733884D02*
X15086225Y-16533884D01*
X15086225Y-16724360D02*
X15067177Y-16733884D01*
X15067177Y-16733884D02*
X15029082Y-16733884D01*
X15029082Y-16733884D02*
X15010034Y-16724360D01*
X15010034Y-16724360D02*
X15000511Y-16714836D01*
X15000511Y-16714836D02*
X14990987Y-16695788D01*
X14990987Y-16695788D02*
X14990987Y-16638646D01*
X14990987Y-16638646D02*
X15000511Y-16619598D01*
X15000511Y-16619598D02*
X15010034Y-16610074D01*
X15010034Y-16610074D02*
X15029082Y-16600550D01*
X15029082Y-16600550D02*
X15067177Y-16600550D01*
X15067177Y-16600550D02*
X15086225Y-16610074D01*
X15162415Y-16810074D02*
X15171939Y-16800550D01*
X15171939Y-16800550D02*
X15190987Y-16771979D01*
X15190987Y-16771979D02*
X15200511Y-16752931D01*
X15200511Y-16752931D02*
X15210034Y-16724360D01*
X15210034Y-16724360D02*
X15219558Y-16676741D01*
X15219558Y-16676741D02*
X15219558Y-16638646D01*
X15219558Y-16638646D02*
X15210034Y-16591027D01*
X15210034Y-16591027D02*
X15200511Y-16562455D01*
X15200511Y-16562455D02*
X15190987Y-16543408D01*
X15190987Y-16543408D02*
X15171939Y-16514836D01*
X15171939Y-16514836D02*
X15162415Y-16505312D01*
M02*
