%TF.GenerationSoftware,KiCad,Pcbnew,9.0.5*%
%TF.CreationDate,2025-10-08T22:57:06-05:00*%
%TF.ProjectId,Game Controller,47616d65-2043-46f6-9e74-726f6c6c6572,rev?*%
%TF.SameCoordinates,Original*%
%TF.FileFunction,Legend,Top*%
%TF.FilePolarity,Positive*%
%FSLAX46Y46*%
G04 Gerber Fmt 4.6, Leading zero omitted, Abs format (unit mm)*
G04 Created by KiCad (PCBNEW 9.0.5) date 2025-10-08 22:57:06*
%MOMM*%
%LPD*%
G01*
G04 APERTURE LIST*
%ADD10C,0.250000*%
%ADD11C,0.150000*%
%ADD12C,0.120000*%
%ADD13C,0.200000*%
%ADD14C,0.127000*%
G04 APERTURE END LIST*
D10*
X103159518Y-148507476D02*
X102969042Y-148412238D01*
X102969042Y-148412238D02*
X102683328Y-148412238D01*
X102683328Y-148412238D02*
X102397613Y-148507476D01*
X102397613Y-148507476D02*
X102207137Y-148697952D01*
X102207137Y-148697952D02*
X102111899Y-148888428D01*
X102111899Y-148888428D02*
X102016661Y-149269380D01*
X102016661Y-149269380D02*
X102016661Y-149555095D01*
X102016661Y-149555095D02*
X102111899Y-149936047D01*
X102111899Y-149936047D02*
X102207137Y-150126523D01*
X102207137Y-150126523D02*
X102397613Y-150317000D01*
X102397613Y-150317000D02*
X102683328Y-150412238D01*
X102683328Y-150412238D02*
X102873804Y-150412238D01*
X102873804Y-150412238D02*
X103159518Y-150317000D01*
X103159518Y-150317000D02*
X103254756Y-150221761D01*
X103254756Y-150221761D02*
X103254756Y-149555095D01*
X103254756Y-149555095D02*
X102873804Y-149555095D01*
X104111899Y-150412238D02*
X104111899Y-149078904D01*
X104111899Y-149459857D02*
X104207137Y-149269380D01*
X104207137Y-149269380D02*
X104302375Y-149174142D01*
X104302375Y-149174142D02*
X104492851Y-149078904D01*
X104492851Y-149078904D02*
X104683328Y-149078904D01*
X105635708Y-150412238D02*
X105445232Y-150317000D01*
X105445232Y-150317000D02*
X105349994Y-150221761D01*
X105349994Y-150221761D02*
X105254756Y-150031285D01*
X105254756Y-150031285D02*
X105254756Y-149459857D01*
X105254756Y-149459857D02*
X105349994Y-149269380D01*
X105349994Y-149269380D02*
X105445232Y-149174142D01*
X105445232Y-149174142D02*
X105635708Y-149078904D01*
X105635708Y-149078904D02*
X105921423Y-149078904D01*
X105921423Y-149078904D02*
X106111899Y-149174142D01*
X106111899Y-149174142D02*
X106207137Y-149269380D01*
X106207137Y-149269380D02*
X106302375Y-149459857D01*
X106302375Y-149459857D02*
X106302375Y-150031285D01*
X106302375Y-150031285D02*
X106207137Y-150221761D01*
X106207137Y-150221761D02*
X106111899Y-150317000D01*
X106111899Y-150317000D02*
X105921423Y-150412238D01*
X105921423Y-150412238D02*
X105635708Y-150412238D01*
X108016661Y-149078904D02*
X108016661Y-150412238D01*
X107159518Y-149078904D02*
X107159518Y-150126523D01*
X107159518Y-150126523D02*
X107254756Y-150317000D01*
X107254756Y-150317000D02*
X107445232Y-150412238D01*
X107445232Y-150412238D02*
X107730947Y-150412238D01*
X107730947Y-150412238D02*
X107921423Y-150317000D01*
X107921423Y-150317000D02*
X108016661Y-150221761D01*
X108969042Y-149078904D02*
X108969042Y-151078904D01*
X108969042Y-149174142D02*
X109159518Y-149078904D01*
X109159518Y-149078904D02*
X109540471Y-149078904D01*
X109540471Y-149078904D02*
X109730947Y-149174142D01*
X109730947Y-149174142D02*
X109826185Y-149269380D01*
X109826185Y-149269380D02*
X109921423Y-149459857D01*
X109921423Y-149459857D02*
X109921423Y-150031285D01*
X109921423Y-150031285D02*
X109826185Y-150221761D01*
X109826185Y-150221761D02*
X109730947Y-150317000D01*
X109730947Y-150317000D02*
X109540471Y-150412238D01*
X109540471Y-150412238D02*
X109159518Y-150412238D01*
X109159518Y-150412238D02*
X108969042Y-150317000D01*
X112111900Y-148412238D02*
X113445233Y-148412238D01*
X113445233Y-148412238D02*
X112588090Y-150412238D01*
X115730948Y-149650333D02*
X117254758Y-149650333D01*
X119730948Y-150412238D02*
X119730948Y-148412238D01*
X119730948Y-148412238D02*
X120397615Y-149840809D01*
X120397615Y-149840809D02*
X121064281Y-148412238D01*
X121064281Y-148412238D02*
X121064281Y-150412238D01*
X122873805Y-150412238D02*
X122873805Y-149364619D01*
X122873805Y-149364619D02*
X122778567Y-149174142D01*
X122778567Y-149174142D02*
X122588091Y-149078904D01*
X122588091Y-149078904D02*
X122207138Y-149078904D01*
X122207138Y-149078904D02*
X122016662Y-149174142D01*
X122873805Y-150317000D02*
X122683329Y-150412238D01*
X122683329Y-150412238D02*
X122207138Y-150412238D01*
X122207138Y-150412238D02*
X122016662Y-150317000D01*
X122016662Y-150317000D02*
X121921424Y-150126523D01*
X121921424Y-150126523D02*
X121921424Y-149936047D01*
X121921424Y-149936047D02*
X122016662Y-149745571D01*
X122016662Y-149745571D02*
X122207138Y-149650333D01*
X122207138Y-149650333D02*
X122683329Y-149650333D01*
X122683329Y-149650333D02*
X122873805Y-149555095D01*
X123635710Y-150412238D02*
X124683329Y-149078904D01*
X123635710Y-149078904D02*
X124683329Y-150412238D01*
X128111901Y-150412238D02*
X127445234Y-149459857D01*
X126969044Y-150412238D02*
X126969044Y-148412238D01*
X126969044Y-148412238D02*
X127730949Y-148412238D01*
X127730949Y-148412238D02*
X127921425Y-148507476D01*
X127921425Y-148507476D02*
X128016663Y-148602714D01*
X128016663Y-148602714D02*
X128111901Y-148793190D01*
X128111901Y-148793190D02*
X128111901Y-149078904D01*
X128111901Y-149078904D02*
X128016663Y-149269380D01*
X128016663Y-149269380D02*
X127921425Y-149364619D01*
X127921425Y-149364619D02*
X127730949Y-149459857D01*
X127730949Y-149459857D02*
X126969044Y-149459857D01*
X129730949Y-150317000D02*
X129540473Y-150412238D01*
X129540473Y-150412238D02*
X129159520Y-150412238D01*
X129159520Y-150412238D02*
X128969044Y-150317000D01*
X128969044Y-150317000D02*
X128873806Y-150126523D01*
X128873806Y-150126523D02*
X128873806Y-149364619D01*
X128873806Y-149364619D02*
X128969044Y-149174142D01*
X128969044Y-149174142D02*
X129159520Y-149078904D01*
X129159520Y-149078904D02*
X129540473Y-149078904D01*
X129540473Y-149078904D02*
X129730949Y-149174142D01*
X129730949Y-149174142D02*
X129826187Y-149364619D01*
X129826187Y-149364619D02*
X129826187Y-149555095D01*
X129826187Y-149555095D02*
X128873806Y-149745571D01*
X131540473Y-149078904D02*
X131540473Y-151078904D01*
X131540473Y-150317000D02*
X131349997Y-150412238D01*
X131349997Y-150412238D02*
X130969044Y-150412238D01*
X130969044Y-150412238D02*
X130778568Y-150317000D01*
X130778568Y-150317000D02*
X130683330Y-150221761D01*
X130683330Y-150221761D02*
X130588092Y-150031285D01*
X130588092Y-150031285D02*
X130588092Y-149459857D01*
X130588092Y-149459857D02*
X130683330Y-149269380D01*
X130683330Y-149269380D02*
X130778568Y-149174142D01*
X130778568Y-149174142D02*
X130969044Y-149078904D01*
X130969044Y-149078904D02*
X131349997Y-149078904D01*
X131349997Y-149078904D02*
X131540473Y-149174142D01*
X133349997Y-149078904D02*
X133349997Y-150412238D01*
X132492854Y-149078904D02*
X132492854Y-150126523D01*
X132492854Y-150126523D02*
X132588092Y-150317000D01*
X132588092Y-150317000D02*
X132778568Y-150412238D01*
X132778568Y-150412238D02*
X133064283Y-150412238D01*
X133064283Y-150412238D02*
X133254759Y-150317000D01*
X133254759Y-150317000D02*
X133349997Y-150221761D01*
X135064283Y-150317000D02*
X134873807Y-150412238D01*
X134873807Y-150412238D02*
X134492854Y-150412238D01*
X134492854Y-150412238D02*
X134302378Y-150317000D01*
X134302378Y-150317000D02*
X134207140Y-150126523D01*
X134207140Y-150126523D02*
X134207140Y-149364619D01*
X134207140Y-149364619D02*
X134302378Y-149174142D01*
X134302378Y-149174142D02*
X134492854Y-149078904D01*
X134492854Y-149078904D02*
X134873807Y-149078904D01*
X134873807Y-149078904D02*
X135064283Y-149174142D01*
X135064283Y-149174142D02*
X135159521Y-149364619D01*
X135159521Y-149364619D02*
X135159521Y-149555095D01*
X135159521Y-149555095D02*
X134207140Y-149745571D01*
X135730950Y-149078904D02*
X136492854Y-149078904D01*
X136016664Y-148412238D02*
X136016664Y-150126523D01*
X136016664Y-150126523D02*
X136111902Y-150317000D01*
X136111902Y-150317000D02*
X136302378Y-150412238D01*
X136302378Y-150412238D02*
X136492854Y-150412238D01*
X137254759Y-150317000D02*
X137254759Y-150412238D01*
X137254759Y-150412238D02*
X137159521Y-150602714D01*
X137159521Y-150602714D02*
X137064283Y-150697952D01*
X139635712Y-150412238D02*
X139635712Y-148412238D01*
X140778569Y-150412238D02*
X139921426Y-149269380D01*
X140778569Y-148412238D02*
X139635712Y-149555095D01*
X142492855Y-150412238D02*
X142492855Y-149364619D01*
X142492855Y-149364619D02*
X142397617Y-149174142D01*
X142397617Y-149174142D02*
X142207141Y-149078904D01*
X142207141Y-149078904D02*
X141826188Y-149078904D01*
X141826188Y-149078904D02*
X141635712Y-149174142D01*
X142492855Y-150317000D02*
X142302379Y-150412238D01*
X142302379Y-150412238D02*
X141826188Y-150412238D01*
X141826188Y-150412238D02*
X141635712Y-150317000D01*
X141635712Y-150317000D02*
X141540474Y-150126523D01*
X141540474Y-150126523D02*
X141540474Y-149936047D01*
X141540474Y-149936047D02*
X141635712Y-149745571D01*
X141635712Y-149745571D02*
X141826188Y-149650333D01*
X141826188Y-149650333D02*
X142302379Y-149650333D01*
X142302379Y-149650333D02*
X142492855Y-149555095D01*
X143445236Y-150412238D02*
X143445236Y-149078904D01*
X143445236Y-148412238D02*
X143349998Y-148507476D01*
X143349998Y-148507476D02*
X143445236Y-148602714D01*
X143445236Y-148602714D02*
X143540474Y-148507476D01*
X143540474Y-148507476D02*
X143445236Y-148412238D01*
X143445236Y-148412238D02*
X143445236Y-148602714D01*
X145254760Y-150412238D02*
X145254760Y-148412238D01*
X145254760Y-150317000D02*
X145064284Y-150412238D01*
X145064284Y-150412238D02*
X144683331Y-150412238D01*
X144683331Y-150412238D02*
X144492855Y-150317000D01*
X144492855Y-150317000D02*
X144397617Y-150221761D01*
X144397617Y-150221761D02*
X144302379Y-150031285D01*
X144302379Y-150031285D02*
X144302379Y-149459857D01*
X144302379Y-149459857D02*
X144397617Y-149269380D01*
X144397617Y-149269380D02*
X144492855Y-149174142D01*
X144492855Y-149174142D02*
X144683331Y-149078904D01*
X144683331Y-149078904D02*
X145064284Y-149078904D01*
X145064284Y-149078904D02*
X145254760Y-149174142D01*
X146969046Y-150317000D02*
X146778570Y-150412238D01*
X146778570Y-150412238D02*
X146397617Y-150412238D01*
X146397617Y-150412238D02*
X146207141Y-150317000D01*
X146207141Y-150317000D02*
X146111903Y-150126523D01*
X146111903Y-150126523D02*
X146111903Y-149364619D01*
X146111903Y-149364619D02*
X146207141Y-149174142D01*
X146207141Y-149174142D02*
X146397617Y-149078904D01*
X146397617Y-149078904D02*
X146778570Y-149078904D01*
X146778570Y-149078904D02*
X146969046Y-149174142D01*
X146969046Y-149174142D02*
X147064284Y-149364619D01*
X147064284Y-149364619D02*
X147064284Y-149555095D01*
X147064284Y-149555095D02*
X146111903Y-149745571D01*
X147921427Y-149078904D02*
X147921427Y-150412238D01*
X147921427Y-149269380D02*
X148016665Y-149174142D01*
X148016665Y-149174142D02*
X148207141Y-149078904D01*
X148207141Y-149078904D02*
X148492856Y-149078904D01*
X148492856Y-149078904D02*
X148683332Y-149174142D01*
X148683332Y-149174142D02*
X148778570Y-149364619D01*
X148778570Y-149364619D02*
X148778570Y-150412238D01*
X151635713Y-148412238D02*
X152016666Y-148412238D01*
X152016666Y-148412238D02*
X152207142Y-148507476D01*
X152207142Y-148507476D02*
X152397618Y-148697952D01*
X152397618Y-148697952D02*
X152492856Y-149078904D01*
X152492856Y-149078904D02*
X152492856Y-149745571D01*
X152492856Y-149745571D02*
X152397618Y-150126523D01*
X152397618Y-150126523D02*
X152207142Y-150317000D01*
X152207142Y-150317000D02*
X152016666Y-150412238D01*
X152016666Y-150412238D02*
X151635713Y-150412238D01*
X151635713Y-150412238D02*
X151445237Y-150317000D01*
X151445237Y-150317000D02*
X151254761Y-150126523D01*
X151254761Y-150126523D02*
X151159523Y-149745571D01*
X151159523Y-149745571D02*
X151159523Y-149078904D01*
X151159523Y-149078904D02*
X151254761Y-148697952D01*
X151254761Y-148697952D02*
X151445237Y-148507476D01*
X151445237Y-148507476D02*
X151635713Y-148412238D01*
X153445237Y-148412238D02*
X153254761Y-148793190D01*
X154302380Y-150412238D02*
X154302380Y-148412238D01*
X155445237Y-150412238D02*
X154588094Y-149269380D01*
X155445237Y-148412238D02*
X154302380Y-149555095D01*
X157064285Y-150317000D02*
X156873809Y-150412238D01*
X156873809Y-150412238D02*
X156492856Y-150412238D01*
X156492856Y-150412238D02*
X156302380Y-150317000D01*
X156302380Y-150317000D02*
X156207142Y-150126523D01*
X156207142Y-150126523D02*
X156207142Y-149364619D01*
X156207142Y-149364619D02*
X156302380Y-149174142D01*
X156302380Y-149174142D02*
X156492856Y-149078904D01*
X156492856Y-149078904D02*
X156873809Y-149078904D01*
X156873809Y-149078904D02*
X157064285Y-149174142D01*
X157064285Y-149174142D02*
X157159523Y-149364619D01*
X157159523Y-149364619D02*
X157159523Y-149555095D01*
X157159523Y-149555095D02*
X156207142Y-149745571D01*
X158778571Y-150317000D02*
X158588095Y-150412238D01*
X158588095Y-150412238D02*
X158207142Y-150412238D01*
X158207142Y-150412238D02*
X158016666Y-150317000D01*
X158016666Y-150317000D02*
X157921428Y-150126523D01*
X157921428Y-150126523D02*
X157921428Y-149364619D01*
X157921428Y-149364619D02*
X158016666Y-149174142D01*
X158016666Y-149174142D02*
X158207142Y-149078904D01*
X158207142Y-149078904D02*
X158588095Y-149078904D01*
X158588095Y-149078904D02*
X158778571Y-149174142D01*
X158778571Y-149174142D02*
X158873809Y-149364619D01*
X158873809Y-149364619D02*
X158873809Y-149555095D01*
X158873809Y-149555095D02*
X157921428Y-149745571D01*
X159445238Y-149078904D02*
X160207142Y-149078904D01*
X159730952Y-150412238D02*
X159730952Y-148697952D01*
X159730952Y-148697952D02*
X159826190Y-148507476D01*
X159826190Y-148507476D02*
X160016666Y-148412238D01*
X160016666Y-148412238D02*
X160207142Y-148412238D01*
X161635714Y-150317000D02*
X161445238Y-150412238D01*
X161445238Y-150412238D02*
X161064285Y-150412238D01*
X161064285Y-150412238D02*
X160873809Y-150317000D01*
X160873809Y-150317000D02*
X160778571Y-150126523D01*
X160778571Y-150126523D02*
X160778571Y-149364619D01*
X160778571Y-149364619D02*
X160873809Y-149174142D01*
X160873809Y-149174142D02*
X161064285Y-149078904D01*
X161064285Y-149078904D02*
X161445238Y-149078904D01*
X161445238Y-149078904D02*
X161635714Y-149174142D01*
X161635714Y-149174142D02*
X161730952Y-149364619D01*
X161730952Y-149364619D02*
X161730952Y-149555095D01*
X161730952Y-149555095D02*
X160778571Y-149745571D01*
X162683333Y-150317000D02*
X162683333Y-150412238D01*
X162683333Y-150412238D02*
X162588095Y-150602714D01*
X162588095Y-150602714D02*
X162492857Y-150697952D01*
X165635715Y-148412238D02*
X165635715Y-149840809D01*
X165635715Y-149840809D02*
X165540476Y-150126523D01*
X165540476Y-150126523D02*
X165350000Y-150317000D01*
X165350000Y-150317000D02*
X165064286Y-150412238D01*
X165064286Y-150412238D02*
X164873810Y-150412238D01*
X167445239Y-150412238D02*
X167445239Y-149364619D01*
X167445239Y-149364619D02*
X167350001Y-149174142D01*
X167350001Y-149174142D02*
X167159525Y-149078904D01*
X167159525Y-149078904D02*
X166778572Y-149078904D01*
X166778572Y-149078904D02*
X166588096Y-149174142D01*
X167445239Y-150317000D02*
X167254763Y-150412238D01*
X167254763Y-150412238D02*
X166778572Y-150412238D01*
X166778572Y-150412238D02*
X166588096Y-150317000D01*
X166588096Y-150317000D02*
X166492858Y-150126523D01*
X166492858Y-150126523D02*
X166492858Y-149936047D01*
X166492858Y-149936047D02*
X166588096Y-149745571D01*
X166588096Y-149745571D02*
X166778572Y-149650333D01*
X166778572Y-149650333D02*
X167254763Y-149650333D01*
X167254763Y-149650333D02*
X167445239Y-149555095D01*
X169254763Y-150317000D02*
X169064287Y-150412238D01*
X169064287Y-150412238D02*
X168683334Y-150412238D01*
X168683334Y-150412238D02*
X168492858Y-150317000D01*
X168492858Y-150317000D02*
X168397620Y-150221761D01*
X168397620Y-150221761D02*
X168302382Y-150031285D01*
X168302382Y-150031285D02*
X168302382Y-149459857D01*
X168302382Y-149459857D02*
X168397620Y-149269380D01*
X168397620Y-149269380D02*
X168492858Y-149174142D01*
X168492858Y-149174142D02*
X168683334Y-149078904D01*
X168683334Y-149078904D02*
X169064287Y-149078904D01*
X169064287Y-149078904D02*
X169254763Y-149174142D01*
X170111906Y-150412238D02*
X170111906Y-148412238D01*
X170302382Y-149650333D02*
X170873811Y-150412238D01*
X170873811Y-149078904D02*
X170111906Y-149840809D01*
X173254764Y-150412238D02*
X173254764Y-148412238D01*
X173254764Y-148412238D02*
X173921431Y-149840809D01*
X173921431Y-149840809D02*
X174588097Y-148412238D01*
X174588097Y-148412238D02*
X174588097Y-150412238D01*
X176302383Y-150317000D02*
X176111907Y-150412238D01*
X176111907Y-150412238D02*
X175730954Y-150412238D01*
X175730954Y-150412238D02*
X175540478Y-150317000D01*
X175540478Y-150317000D02*
X175445240Y-150126523D01*
X175445240Y-150126523D02*
X175445240Y-149364619D01*
X175445240Y-149364619D02*
X175540478Y-149174142D01*
X175540478Y-149174142D02*
X175730954Y-149078904D01*
X175730954Y-149078904D02*
X176111907Y-149078904D01*
X176111907Y-149078904D02*
X176302383Y-149174142D01*
X176302383Y-149174142D02*
X176397621Y-149364619D01*
X176397621Y-149364619D02*
X176397621Y-149555095D01*
X176397621Y-149555095D02*
X175445240Y-149745571D01*
X177254764Y-150412238D02*
X177254764Y-149078904D01*
X177254764Y-148412238D02*
X177159526Y-148507476D01*
X177159526Y-148507476D02*
X177254764Y-148602714D01*
X177254764Y-148602714D02*
X177350002Y-148507476D01*
X177350002Y-148507476D02*
X177254764Y-148412238D01*
X177254764Y-148412238D02*
X177254764Y-148602714D01*
X178207145Y-150412238D02*
X178207145Y-149078904D01*
X178207145Y-149459857D02*
X178302383Y-149269380D01*
X178302383Y-149269380D02*
X178397621Y-149174142D01*
X178397621Y-149174142D02*
X178588097Y-149078904D01*
X178588097Y-149078904D02*
X178778574Y-149078904D01*
X179730954Y-150412238D02*
X179540478Y-150317000D01*
X179540478Y-150317000D02*
X179445240Y-150221761D01*
X179445240Y-150221761D02*
X179350002Y-150031285D01*
X179350002Y-150031285D02*
X179350002Y-149459857D01*
X179350002Y-149459857D02*
X179445240Y-149269380D01*
X179445240Y-149269380D02*
X179540478Y-149174142D01*
X179540478Y-149174142D02*
X179730954Y-149078904D01*
X179730954Y-149078904D02*
X180016669Y-149078904D01*
X180016669Y-149078904D02*
X180207145Y-149174142D01*
X180207145Y-149174142D02*
X180302383Y-149269380D01*
X180302383Y-149269380D02*
X180397621Y-149459857D01*
X180397621Y-149459857D02*
X180397621Y-150031285D01*
X180397621Y-150031285D02*
X180302383Y-150221761D01*
X180302383Y-150221761D02*
X180207145Y-150317000D01*
X180207145Y-150317000D02*
X180016669Y-150412238D01*
X180016669Y-150412238D02*
X179730954Y-150412238D01*
X181064288Y-149078904D02*
X181445240Y-150412238D01*
X181445240Y-150412238D02*
X181826193Y-149459857D01*
X181826193Y-149459857D02*
X182207145Y-150412238D01*
X182207145Y-150412238D02*
X182588097Y-149078904D01*
X183254764Y-150317000D02*
X183445240Y-150412238D01*
X183445240Y-150412238D02*
X183826192Y-150412238D01*
X183826192Y-150412238D02*
X184016669Y-150317000D01*
X184016669Y-150317000D02*
X184111907Y-150126523D01*
X184111907Y-150126523D02*
X184111907Y-150031285D01*
X184111907Y-150031285D02*
X184016669Y-149840809D01*
X184016669Y-149840809D02*
X183826192Y-149745571D01*
X183826192Y-149745571D02*
X183540478Y-149745571D01*
X183540478Y-149745571D02*
X183350002Y-149650333D01*
X183350002Y-149650333D02*
X183254764Y-149459857D01*
X183254764Y-149459857D02*
X183254764Y-149364619D01*
X183254764Y-149364619D02*
X183350002Y-149174142D01*
X183350002Y-149174142D02*
X183540478Y-149078904D01*
X183540478Y-149078904D02*
X183826192Y-149078904D01*
X183826192Y-149078904D02*
X184016669Y-149174142D01*
X184969050Y-150412238D02*
X184969050Y-148412238D01*
X185159526Y-149650333D02*
X185730955Y-150412238D01*
X185730955Y-149078904D02*
X184969050Y-149840809D01*
X186397622Y-149078904D02*
X186873812Y-150412238D01*
X187350003Y-149078904D02*
X186873812Y-150412238D01*
X186873812Y-150412238D02*
X186683336Y-150888428D01*
X186683336Y-150888428D02*
X186588098Y-150983666D01*
X186588098Y-150983666D02*
X186397622Y-151078904D01*
X188207146Y-150317000D02*
X188207146Y-150412238D01*
X188207146Y-150412238D02*
X188111908Y-150602714D01*
X188111908Y-150602714D02*
X188016670Y-150697952D01*
X190588099Y-150412238D02*
X190588099Y-148412238D01*
X192397623Y-150412238D02*
X192397623Y-149364619D01*
X192397623Y-149364619D02*
X192302385Y-149174142D01*
X192302385Y-149174142D02*
X192111909Y-149078904D01*
X192111909Y-149078904D02*
X191730956Y-149078904D01*
X191730956Y-149078904D02*
X191540480Y-149174142D01*
X192397623Y-150317000D02*
X192207147Y-150412238D01*
X192207147Y-150412238D02*
X191730956Y-150412238D01*
X191730956Y-150412238D02*
X191540480Y-150317000D01*
X191540480Y-150317000D02*
X191445242Y-150126523D01*
X191445242Y-150126523D02*
X191445242Y-149936047D01*
X191445242Y-149936047D02*
X191540480Y-149745571D01*
X191540480Y-149745571D02*
X191730956Y-149650333D01*
X191730956Y-149650333D02*
X192207147Y-149650333D01*
X192207147Y-149650333D02*
X192397623Y-149555095D01*
X193350004Y-149078904D02*
X193350004Y-150412238D01*
X193350004Y-149269380D02*
X193445242Y-149174142D01*
X193445242Y-149174142D02*
X193635718Y-149078904D01*
X193635718Y-149078904D02*
X193921433Y-149078904D01*
X193921433Y-149078904D02*
X194111909Y-149174142D01*
X194111909Y-149174142D02*
X194207147Y-149364619D01*
X194207147Y-149364619D02*
X194207147Y-150412238D01*
X196683338Y-150412238D02*
X196683338Y-148412238D01*
X196683338Y-148412238D02*
X197159528Y-148412238D01*
X197159528Y-148412238D02*
X197445243Y-148507476D01*
X197445243Y-148507476D02*
X197635719Y-148697952D01*
X197635719Y-148697952D02*
X197730957Y-148888428D01*
X197730957Y-148888428D02*
X197826195Y-149269380D01*
X197826195Y-149269380D02*
X197826195Y-149555095D01*
X197826195Y-149555095D02*
X197730957Y-149936047D01*
X197730957Y-149936047D02*
X197635719Y-150126523D01*
X197635719Y-150126523D02*
X197445243Y-150317000D01*
X197445243Y-150317000D02*
X197159528Y-150412238D01*
X197159528Y-150412238D02*
X196683338Y-150412238D01*
X198969052Y-150412238D02*
X198778576Y-150317000D01*
X198778576Y-150317000D02*
X198683338Y-150221761D01*
X198683338Y-150221761D02*
X198588100Y-150031285D01*
X198588100Y-150031285D02*
X198588100Y-149459857D01*
X198588100Y-149459857D02*
X198683338Y-149269380D01*
X198683338Y-149269380D02*
X198778576Y-149174142D01*
X198778576Y-149174142D02*
X198969052Y-149078904D01*
X198969052Y-149078904D02*
X199254767Y-149078904D01*
X199254767Y-149078904D02*
X199445243Y-149174142D01*
X199445243Y-149174142D02*
X199540481Y-149269380D01*
X199540481Y-149269380D02*
X199635719Y-149459857D01*
X199635719Y-149459857D02*
X199635719Y-150031285D01*
X199635719Y-150031285D02*
X199540481Y-150221761D01*
X199540481Y-150221761D02*
X199445243Y-150317000D01*
X199445243Y-150317000D02*
X199254767Y-150412238D01*
X199254767Y-150412238D02*
X198969052Y-150412238D01*
X201350005Y-150412238D02*
X201350005Y-148412238D01*
X201350005Y-150317000D02*
X201159529Y-150412238D01*
X201159529Y-150412238D02*
X200778576Y-150412238D01*
X200778576Y-150412238D02*
X200588100Y-150317000D01*
X200588100Y-150317000D02*
X200492862Y-150221761D01*
X200492862Y-150221761D02*
X200397624Y-150031285D01*
X200397624Y-150031285D02*
X200397624Y-149459857D01*
X200397624Y-149459857D02*
X200492862Y-149269380D01*
X200492862Y-149269380D02*
X200588100Y-149174142D01*
X200588100Y-149174142D02*
X200778576Y-149078904D01*
X200778576Y-149078904D02*
X201159529Y-149078904D01*
X201159529Y-149078904D02*
X201350005Y-149174142D01*
X202207148Y-150317000D02*
X202397624Y-150412238D01*
X202397624Y-150412238D02*
X202778576Y-150412238D01*
X202778576Y-150412238D02*
X202969053Y-150317000D01*
X202969053Y-150317000D02*
X203064291Y-150126523D01*
X203064291Y-150126523D02*
X203064291Y-150031285D01*
X203064291Y-150031285D02*
X202969053Y-149840809D01*
X202969053Y-149840809D02*
X202778576Y-149745571D01*
X202778576Y-149745571D02*
X202492862Y-149745571D01*
X202492862Y-149745571D02*
X202302386Y-149650333D01*
X202302386Y-149650333D02*
X202207148Y-149459857D01*
X202207148Y-149459857D02*
X202207148Y-149364619D01*
X202207148Y-149364619D02*
X202302386Y-149174142D01*
X202302386Y-149174142D02*
X202492862Y-149078904D01*
X202492862Y-149078904D02*
X202778576Y-149078904D01*
X202778576Y-149078904D02*
X202969053Y-149174142D01*
X204207148Y-150412238D02*
X204016672Y-150317000D01*
X204016672Y-150317000D02*
X203921434Y-150221761D01*
X203921434Y-150221761D02*
X203826196Y-150031285D01*
X203826196Y-150031285D02*
X203826196Y-149459857D01*
X203826196Y-149459857D02*
X203921434Y-149269380D01*
X203921434Y-149269380D02*
X204016672Y-149174142D01*
X204016672Y-149174142D02*
X204207148Y-149078904D01*
X204207148Y-149078904D02*
X204492863Y-149078904D01*
X204492863Y-149078904D02*
X204683339Y-149174142D01*
X204683339Y-149174142D02*
X204778577Y-149269380D01*
X204778577Y-149269380D02*
X204873815Y-149459857D01*
X204873815Y-149459857D02*
X204873815Y-150031285D01*
X204873815Y-150031285D02*
X204778577Y-150221761D01*
X204778577Y-150221761D02*
X204683339Y-150317000D01*
X204683339Y-150317000D02*
X204492863Y-150412238D01*
X204492863Y-150412238D02*
X204207148Y-150412238D01*
X205730958Y-149078904D02*
X205730958Y-150412238D01*
X205730958Y-149269380D02*
X205826196Y-149174142D01*
X205826196Y-149174142D02*
X206016672Y-149078904D01*
X206016672Y-149078904D02*
X206302387Y-149078904D01*
X206302387Y-149078904D02*
X206492863Y-149174142D01*
X206492863Y-149174142D02*
X206588101Y-149364619D01*
X206588101Y-149364619D02*
X206588101Y-150412238D01*
D11*
X174665687Y-99703596D02*
X174800374Y-99636253D01*
X174800374Y-99636253D02*
X174968732Y-99467894D01*
X174968732Y-99467894D02*
X175002404Y-99366879D01*
X175002404Y-99366879D02*
X175002404Y-99299535D01*
X175002404Y-99299535D02*
X174968732Y-99198520D01*
X174968732Y-99198520D02*
X174901389Y-99131176D01*
X174901389Y-99131176D02*
X174800374Y-99097505D01*
X174800374Y-99097505D02*
X174733030Y-99097505D01*
X174733030Y-99097505D02*
X174632015Y-99131176D01*
X174632015Y-99131176D02*
X174463656Y-99232192D01*
X174463656Y-99232192D02*
X174362641Y-99265863D01*
X174362641Y-99265863D02*
X174295297Y-99265863D01*
X174295297Y-99265863D02*
X174194282Y-99232192D01*
X174194282Y-99232192D02*
X174126939Y-99164848D01*
X174126939Y-99164848D02*
X174093267Y-99063833D01*
X174093267Y-99063833D02*
X174093267Y-98996489D01*
X174093267Y-98996489D02*
X174126939Y-98895474D01*
X174126939Y-98895474D02*
X174295297Y-98727115D01*
X174295297Y-98727115D02*
X174429984Y-98659772D01*
X174632015Y-98390398D02*
X175507481Y-98929146D01*
X175507481Y-98929146D02*
X175137091Y-98289382D01*
X175137091Y-98289382D02*
X175776855Y-98659772D01*
X175776855Y-98659772D02*
X175238107Y-97784306D01*
X175541152Y-97615948D02*
X175541152Y-97548604D01*
X175541152Y-97548604D02*
X175574824Y-97447589D01*
X175574824Y-97447589D02*
X175743183Y-97279230D01*
X175743183Y-97279230D02*
X175844198Y-97245558D01*
X175844198Y-97245558D02*
X175911541Y-97245558D01*
X175911541Y-97245558D02*
X176012557Y-97279230D01*
X176012557Y-97279230D02*
X176079900Y-97346574D01*
X176079900Y-97346574D02*
X176147244Y-97481261D01*
X176147244Y-97481261D02*
X176147244Y-98289383D01*
X176147244Y-98289383D02*
X176584976Y-97851650D01*
X159860868Y-114508416D02*
X159995555Y-114441073D01*
X159995555Y-114441073D02*
X160163913Y-114272714D01*
X160163913Y-114272714D02*
X160197585Y-114171699D01*
X160197585Y-114171699D02*
X160197585Y-114104355D01*
X160197585Y-114104355D02*
X160163913Y-114003340D01*
X160163913Y-114003340D02*
X160096570Y-113935996D01*
X160096570Y-113935996D02*
X159995555Y-113902325D01*
X159995555Y-113902325D02*
X159928211Y-113902325D01*
X159928211Y-113902325D02*
X159827196Y-113935996D01*
X159827196Y-113935996D02*
X159658837Y-114037012D01*
X159658837Y-114037012D02*
X159557822Y-114070683D01*
X159557822Y-114070683D02*
X159490478Y-114070683D01*
X159490478Y-114070683D02*
X159389463Y-114037012D01*
X159389463Y-114037012D02*
X159322120Y-113969668D01*
X159322120Y-113969668D02*
X159288448Y-113868653D01*
X159288448Y-113868653D02*
X159288448Y-113801309D01*
X159288448Y-113801309D02*
X159322120Y-113700294D01*
X159322120Y-113700294D02*
X159490478Y-113531935D01*
X159490478Y-113531935D02*
X159625165Y-113464592D01*
X159827196Y-113195218D02*
X160702662Y-113733966D01*
X160702662Y-113733966D02*
X160332272Y-113094202D01*
X160332272Y-113094202D02*
X160972036Y-113464592D01*
X160972036Y-113464592D02*
X160433288Y-112589126D01*
X161780157Y-112656470D02*
X161376096Y-113060531D01*
X161578127Y-112858500D02*
X160871020Y-112151394D01*
X160871020Y-112151394D02*
X160904692Y-112319752D01*
X160904692Y-112319752D02*
X160904692Y-112454439D01*
X160904692Y-112454439D02*
X160871020Y-112555455D01*
X189346578Y-114421842D02*
X189481265Y-114354499D01*
X189481265Y-114354499D02*
X189649623Y-114186140D01*
X189649623Y-114186140D02*
X189683295Y-114085125D01*
X189683295Y-114085125D02*
X189683295Y-114017781D01*
X189683295Y-114017781D02*
X189649623Y-113916766D01*
X189649623Y-113916766D02*
X189582280Y-113849422D01*
X189582280Y-113849422D02*
X189481265Y-113815751D01*
X189481265Y-113815751D02*
X189413921Y-113815751D01*
X189413921Y-113815751D02*
X189312906Y-113849422D01*
X189312906Y-113849422D02*
X189144547Y-113950438D01*
X189144547Y-113950438D02*
X189043532Y-113984109D01*
X189043532Y-113984109D02*
X188976188Y-113984109D01*
X188976188Y-113984109D02*
X188875173Y-113950438D01*
X188875173Y-113950438D02*
X188807830Y-113883094D01*
X188807830Y-113883094D02*
X188774158Y-113782079D01*
X188774158Y-113782079D02*
X188774158Y-113714735D01*
X188774158Y-113714735D02*
X188807830Y-113613720D01*
X188807830Y-113613720D02*
X188976188Y-113445361D01*
X188976188Y-113445361D02*
X189110875Y-113378018D01*
X189312906Y-113108644D02*
X190188372Y-113647392D01*
X190188372Y-113647392D02*
X189817982Y-113007628D01*
X189817982Y-113007628D02*
X190457746Y-113378018D01*
X190457746Y-113378018D02*
X189918998Y-112502552D01*
X190121028Y-112300522D02*
X190558761Y-111862789D01*
X190558761Y-111862789D02*
X190592432Y-112367865D01*
X190592432Y-112367865D02*
X190693448Y-112266850D01*
X190693448Y-112266850D02*
X190794463Y-112233178D01*
X190794463Y-112233178D02*
X190861806Y-112233178D01*
X190861806Y-112233178D02*
X190962822Y-112266850D01*
X190962822Y-112266850D02*
X191131180Y-112435209D01*
X191131180Y-112435209D02*
X191164852Y-112536224D01*
X191164852Y-112536224D02*
X191164852Y-112603568D01*
X191164852Y-112603568D02*
X191131180Y-112704583D01*
X191131180Y-112704583D02*
X190929150Y-112906613D01*
X190929150Y-112906613D02*
X190828135Y-112940285D01*
X190828135Y-112940285D02*
X190760791Y-112940285D01*
X174625366Y-129266983D02*
X174760053Y-129199640D01*
X174760053Y-129199640D02*
X174928411Y-129031281D01*
X174928411Y-129031281D02*
X174962083Y-128930266D01*
X174962083Y-128930266D02*
X174962083Y-128862922D01*
X174962083Y-128862922D02*
X174928411Y-128761907D01*
X174928411Y-128761907D02*
X174861068Y-128694563D01*
X174861068Y-128694563D02*
X174760053Y-128660892D01*
X174760053Y-128660892D02*
X174692709Y-128660892D01*
X174692709Y-128660892D02*
X174591694Y-128694563D01*
X174591694Y-128694563D02*
X174423335Y-128795579D01*
X174423335Y-128795579D02*
X174322320Y-128829250D01*
X174322320Y-128829250D02*
X174254976Y-128829250D01*
X174254976Y-128829250D02*
X174153961Y-128795579D01*
X174153961Y-128795579D02*
X174086618Y-128728235D01*
X174086618Y-128728235D02*
X174052946Y-128627220D01*
X174052946Y-128627220D02*
X174052946Y-128559876D01*
X174052946Y-128559876D02*
X174086618Y-128458861D01*
X174086618Y-128458861D02*
X174254976Y-128290502D01*
X174254976Y-128290502D02*
X174389663Y-128223159D01*
X174591694Y-127953785D02*
X175467160Y-128492533D01*
X175467160Y-128492533D02*
X175096770Y-127852769D01*
X175096770Y-127852769D02*
X175736534Y-128223159D01*
X175736534Y-128223159D02*
X175197786Y-127347693D01*
X176005907Y-127010976D02*
X176477312Y-127482380D01*
X175568175Y-126909961D02*
X175904892Y-127583396D01*
X175904892Y-127583396D02*
X176342625Y-127145663D01*
X125813095Y-103091819D02*
X125813095Y-103901342D01*
X125813095Y-103901342D02*
X125860714Y-103996580D01*
X125860714Y-103996580D02*
X125908333Y-104044200D01*
X125908333Y-104044200D02*
X126003571Y-104091819D01*
X126003571Y-104091819D02*
X126194047Y-104091819D01*
X126194047Y-104091819D02*
X126289285Y-104044200D01*
X126289285Y-104044200D02*
X126336904Y-103996580D01*
X126336904Y-103996580D02*
X126384523Y-103901342D01*
X126384523Y-103901342D02*
X126384523Y-103091819D01*
X126813095Y-103187057D02*
X126860714Y-103139438D01*
X126860714Y-103139438D02*
X126955952Y-103091819D01*
X126955952Y-103091819D02*
X127194047Y-103091819D01*
X127194047Y-103091819D02*
X127289285Y-103139438D01*
X127289285Y-103139438D02*
X127336904Y-103187057D01*
X127336904Y-103187057D02*
X127384523Y-103282295D01*
X127384523Y-103282295D02*
X127384523Y-103377533D01*
X127384523Y-103377533D02*
X127336904Y-103520390D01*
X127336904Y-103520390D02*
X126765476Y-104091819D01*
X126765476Y-104091819D02*
X127384523Y-104091819D01*
D12*
%TO.C,SW2*%
X171010039Y-104040613D02*
X180888321Y-94162331D01*
X180888321Y-113918894D02*
X171010039Y-104040613D01*
X180888321Y-94162331D02*
X190766603Y-104040613D01*
X190766603Y-104040613D02*
X180888321Y-113918894D01*
%TO.C,SW1*%
X175961784Y-118845433D02*
X166083502Y-128723714D01*
X166083502Y-108967151D02*
X175961784Y-118845433D01*
X166083502Y-128723714D02*
X156205220Y-118845433D01*
X156205220Y-118845433D02*
X166083502Y-108967151D01*
%TO.C,SW3*%
X205447494Y-118758859D02*
X195569212Y-128637140D01*
X195569212Y-108880577D02*
X205447494Y-118758859D01*
X195569212Y-128637140D02*
X185690930Y-118758859D01*
X185690930Y-118758859D02*
X195569212Y-108880577D01*
%TO.C,SW4*%
X190726282Y-133604000D02*
X180848000Y-143482281D01*
X180848000Y-123725718D02*
X190726282Y-133604000D01*
X180848000Y-143482281D02*
X170969718Y-133604000D01*
X170969718Y-133604000D02*
X180848000Y-123725718D01*
D13*
%TO.C,U2*%
X123250000Y-105522000D02*
G75*
G02*
X123050000Y-105522000I-100000J0D01*
G01*
X123050000Y-105522000D02*
G75*
G02*
X123250000Y-105522000I100000J0D01*
G01*
D14*
X138700000Y-122872000D02*
X137150000Y-122872000D01*
X138700000Y-114772000D02*
X138700000Y-122872000D01*
X137150000Y-122872000D02*
X137150000Y-123992000D01*
X137150000Y-114772000D02*
X138700000Y-114772000D01*
X135280000Y-126772000D02*
X134050000Y-126772000D01*
X134650000Y-110872000D02*
X135280000Y-110872000D01*
X134650000Y-104572000D02*
X134650000Y-110872000D01*
X134050000Y-126772000D02*
X134050000Y-129972000D01*
X124350000Y-129972000D02*
X124350000Y-126772000D01*
X124350000Y-126772000D02*
X123130000Y-126772000D01*
X123750000Y-110872000D02*
X123750000Y-104572000D01*
X123750000Y-104572000D02*
X134650000Y-104572000D01*
X123130000Y-110872000D02*
X123750000Y-110872000D01*
X121250000Y-124042000D02*
X121250000Y-123772000D01*
X121250000Y-123772000D02*
X118100000Y-123772000D01*
X118100000Y-123772000D02*
X118100000Y-113972000D01*
X118100000Y-113972000D02*
X121250000Y-113972000D01*
%TD*%
M02*
